<svg xmlns="http://www.w3.org/2000/svg" xmlns:xlink="http://www.w3.org/1999/xlink" contentStyleType="text/css" data-diagram-type="SEQUENCE" height="951px" preserveAspectRatio="none" style="width:854px;height:951px;background:#FFFFFF;" version="1.1" viewBox="0 0 854 951" width="854px" zoomAndPan="magnify"><title>Action Proposal - Invalid Proposal</title><defs/><g><text fill="#000000" font-family="sans-serif" font-size="14" font-weight="bold" lengthAdjust="spacing" textLength="266.8887" x="300.3674" y="27.9951">Action Proposal - Invalid Proposal</text><g><title>Sending</title><rect fill="#FFFFFF" height="161.6641" style="stroke:#181818;stroke-width:1;" width="10" x="35.4546" y="99.8906"/></g><g><title>Sending</title><rect fill="#FFFFFF" height="341.8281" style="stroke:#181818;stroke-width:1;" width="10" x="35.4546" y="454.8516"/></g><g><title>Sending</title><rect fill="#FFFFFF" height="193.5313" style="stroke:#181818;stroke-width:1;" width="10" x="40.4546" y="603.1484"/></g><g><title>Interoperability</title><rect fill="#FFFFFF" height="30" style="stroke:#181818;stroke-width:1;" width="10" x="348.8872" y="231.5547"/></g><g><title>Interoperability</title><rect fill="#FFFFFF" height="633.3906" style="stroke:#181818;stroke-width:1;" width="10" x="348.8872" y="301.6875"/></g><g><title>Interoperability</title><rect fill="#FFFFFF" height="109.0313" style="stroke:#181818;stroke-width:1;" width="10" x="353.8872" y="343.8203"/></g><g><title>Interoperability</title><rect fill="#FFFFFF" height="39.6992" style="stroke:#181818;stroke-width:1;" width="10" x="353.8872" y="526.3164"/></g><g><title>Interoperability</title><rect fill="#FFFFFF" height="152.3984" style="stroke:#181818;stroke-width:1;" width="10" x="353.8872" y="766.6797"/></g><g><title>Sending</title><rect fill="transparent" height="854.1875" width="8" x="36.4546" y="89.8906"/><line style="stroke:#181818;stroke-width:0.5;stroke-dasharray:5.0,5.0;" x1="40" x2="40" y1="89.8906" y2="944.0781"/></g><g><title>Interoperability</title><rect fill="transparent" height="854.1875" width="8" x="349.8872" y="89.8906"/><line style="stroke:#181818;stroke-width:0.5;stroke-dasharray:5.0,5.0;" x1="353.0918" x2="353.0918" y1="89.8906" y2="944.0781"/></g><rect fill="#E2E2F0" height="46.5938" rx="2.5" ry="2.5" style="stroke:#181818;stroke-width:0.5;" width="70.9092" x="5" y="42.2969"/><text fill="#000000" font-family="sans-serif" font-size="14" lengthAdjust="spacing" textLength="56.9092" x="12" y="62.292">Sending</text><text fill="#000000" font-family="sans-serif" font-size="14" lengthAdjust="spacing" textLength="53.9697" x="13.4697" y="78.5889">registry</text><rect fill="#E2E2F0" height="46.5938" rx="2.5" ry="2.5" style="stroke:#181818;stroke-width:0.5;" width="121.5908" x="293.0918" y="42.2969"/><text fill="#000000" font-family="sans-serif" font-size="14" lengthAdjust="spacing" textLength="107.5908" x="300.0918" y="62.292">Interoperability</text><text fill="#000000" font-family="sans-serif" font-size="14" lengthAdjust="spacing" textLength="28.2871" x="339.7437" y="78.5889">Hub</text><g><title>Sending</title><rect fill="#FFFFFF" height="161.6641" style="stroke:#181818;stroke-width:1;" width="10" x="35.4546" y="99.8906"/></g><g><title>Sending</title><rect fill="#FFFFFF" height="341.8281" style="stroke:#181818;stroke-width:1;" width="10" x="35.4546" y="454.8516"/></g><g><title>Sending</title><rect fill="#FFFFFF" height="193.5313" style="stroke:#181818;stroke-width:1;" width="10" x="40.4546" y="603.1484"/></g><g><title>Interoperability</title><rect fill="#FFFFFF" height="30" style="stroke:#181818;stroke-width:1;" width="10" x="348.8872" y="231.5547"/></g><g><title>Interoperability</title><rect fill="#FFFFFF" height="633.3906" style="stroke:#181818;stroke-width:1;" width="10" x="348.8872" y="301.6875"/></g><g><title>Interoperability</title><rect fill="#FFFFFF" height="109.0313" style="stroke:#181818;stroke-width:1;" width="10" x="353.8872" y="343.8203"/></g><g><title>Interoperability</title><rect fill="#FFFFFF" height="39.6992" style="stroke:#181818;stroke-width:1;" width="10" x="353.8872" y="526.3164"/></g><g><title>Interoperability</title><rect fill="#FFFFFF" height="152.3984" style="stroke:#181818;stroke-width:1;" width="10" x="353.8872" y="766.6797"/></g><line style="stroke:#181818;stroke-width:1;" x1="45.4546" x2="87.4546" y1="132.6563" y2="132.6563"/><line style="stroke:#181818;stroke-width:1;" x1="87.4546" x2="87.4546" y1="132.6563" y2="145.6563"/><line style="stroke:#181818;stroke-width:1;" x1="46.4546" x2="87.4546" y1="145.6563" y2="145.6563"/><polygon fill="#181818" points="56.4546,141.6563,46.4546,145.6563,56.4546,149.6563" style="stroke:#181818;stroke-width:1;"/><text fill="#000000" font-family="sans-serif" font-size="13" lengthAdjust="spacing" textLength="238.6846" x="52.4546" y="127.5903">selectAndSplitITMOs(actionProposal)</text><path d="M312.6846,104.8906 L312.6846,159.8906 L565.6846,159.8906 L565.6846,114.8906 L555.6846,104.8906 L312.6846,104.8906 " fill="#FEFFDD" style="stroke:#181818;stroke-width:0.5;"/><path d="M555.6846,104.8906 L555.6846,114.8906 L565.6846,114.8906 L555.6846,104.8906 " fill="#FEFFDD" style="stroke:#181818;stroke-width:0.5;"/><text fill="#000000" font-family="sans-serif" font-size="13" lengthAdjust="spacing" textLength="220.0415" x="318.6846" y="121.9575">select ITMOs from multiple blocks</text><text fill="#000000" font-family="sans-serif" font-size="13" lengthAdjust="spacing" textLength="215.4395" x="318.6846" y="137.0903">or split ITMOs into smaller blocks</text><text fill="#000000" font-family="sans-serif" font-size="13" lengthAdjust="spacing" textLength="132.6089" x="318.6846" y="152.2231">to match quantity in</text><text fill="#000000" font-family="sans-serif" font-size="13" font-style="italic" lengthAdjust="spacing" textLength="95.71" x="455.4258" y="152.2231">actionProposal</text><line style="stroke:#181818;stroke-width:1;" x1="45.4546" x2="87.4546" y1="186.4219" y2="186.4219"/><line style="stroke:#181818;stroke-width:1;" x1="87.4546" x2="87.4546" y1="186.4219" y2="199.4219"/><line style="stroke:#181818;stroke-width:1;" x1="46.4546" x2="87.4546" y1="199.4219" y2="199.4219"/><polygon fill="#181818" points="56.4546,195.4219,46.4546,199.4219,56.4546,203.4219" style="stroke:#181818;stroke-width:1;"/><text fill="#000000" font-family="sans-serif" font-size="13" lengthAdjust="spacing" textLength="140.1436" x="52.4546" y="181.356">lockITMOs(iTMOIDs[])</text><polygon fill="#181818" points="336.8872,227.5547,346.8872,231.5547,336.8872,235.5547" style="stroke:#181818;stroke-width:1;"/><line style="stroke:#181818;stroke-width:1;" x1="45.4546" x2="342.8872" y1="231.5547" y2="231.5547"/><text fill="#000000" font-family="sans-serif" font-size="13" lengthAdjust="spacing" textLength="199.3228" x="52.4546" y="226.4888">proposeAction(actionProposal)</text><path d="M363,212.4219 L363,237.4219 L555,237.4219 L555,222.4219 L545,212.4219 L363,212.4219 " fill="#FEFFDD" style="stroke:#181818;stroke-width:0.5;"/><path d="M545,212.4219 L545,222.4219 L555,222.4219 L545,212.4219 " fill="#FEFFDD" style="stroke:#181818;stroke-width:0.5;"/><text fill="#000000" font-family="sans-serif" font-size="13" lengthAdjust="spacing" textLength="171.8564" x="369" y="229.4888">actionStatus == Proposed</text><line style="stroke:#181818;stroke-width:1;" x1="353.8872" x2="400.8872" y1="288.6875" y2="288.6875"/><line style="stroke:#181818;stroke-width:1;" x1="400.8872" x2="400.8872" y1="288.6875" y2="301.6875"/><line style="stroke:#181818;stroke-width:1;" x1="359.8872" x2="400.8872" y1="301.6875" y2="301.6875"/><polygon fill="#181818" points="369.8872,297.6875,359.8872,301.6875,369.8872,305.6875" style="stroke:#181818;stroke-width:1;"/><text fill="#000000" font-family="sans-serif" font-size="13" lengthAdjust="spacing" textLength="173.1958" x="365.8872" y="283.6216">splitITMOs(actionProposal)</text><path d="M550.1958,281.0547 L550.1958,306.0547 L827.1958,306.0547 L827.1958,291.0547 L817.1958,281.0547 L550.1958,281.0547 " fill="#FEFFDD" style="stroke:#181818;stroke-width:0.5;"/><path d="M817.1958,281.0547 L817.1958,291.0547 L827.1958,291.0547 L817.1958,281.0547 " fill="#FEFFDD" style="stroke:#181818;stroke-width:0.5;"/><text fill="#000000" font-family="sans-serif" font-size="13" lengthAdjust="spacing" textLength="156.7046" x="556.1958" y="298.1216">split ITMOs according to</text><text fill="#000000" font-family="sans-serif" font-size="13" font-style="italic" lengthAdjust="spacing" textLength="95.71" x="717.0327" y="298.1216">actionProposal</text><line style="stroke:#181818;stroke-width:1;" x1="358.8872" x2="405.8872" y1="330.8203" y2="330.8203"/><line style="stroke:#181818;stroke-width:1;" x1="405.8872" x2="405.8872" y1="330.8203" y2="343.8203"/><line style="stroke:#181818;stroke-width:1;" x1="364.8872" x2="405.8872" y1="343.8203" y2="343.8203"/><polygon fill="#181818" points="374.8872,339.8203,364.8872,343.8203,374.8872,347.8203" style="stroke:#181818;stroke-width:1;"/><text fill="#000000" font-family="sans-serif" font-size="13" lengthAdjust="spacing" textLength="140.1436" x="370.8872" y="325.7544">lockITMOs(iTMOIDs[])</text><line style="stroke:#181818;stroke-width:1;" x1="363.8872" x2="405.8872" y1="377.9531" y2="377.9531"/><line style="stroke:#181818;stroke-width:1;" x1="405.8872" x2="405.8872" y1="377.9531" y2="390.9531"/><line style="stroke:#181818;stroke-width:1;" x1="364.8872" x2="405.8872" y1="390.9531" y2="390.9531"/><polygon fill="#181818" points="374.8872,386.9531,364.8872,390.9531,374.8872,394.9531" style="stroke:#181818;stroke-width:1;"/><text fill="#000000" font-family="sans-serif" font-size="13" lengthAdjust="spacing" textLength="213.7446" x="370.8872" y="372.8872">validateProposal(actionProposal)</text><line style="stroke:#181818;stroke-width:1;" x1="363.8872" x2="405.8872" y1="451.8516" y2="451.8516"/><line style="stroke:#181818;stroke-width:1;" x1="405.8872" x2="405.8872" y1="451.8516" y2="464.8516"/><line style="stroke:#181818;stroke-width:1;" x1="358.8872" x2="405.8872" y1="464.8516" y2="464.8516"/><polygon fill="#181818" points="368.8872,460.8516,358.8872,464.8516,368.8872,468.8516" style="stroke:#181818;stroke-width:1;"/><text fill="#000000" font-family="sans-serif" font-size="13" lengthAdjust="spacing" textLength="218.8608" x="370.8872" y="446.7856">createNextAction(actionProposal)</text><path d="M615.8608,403.9531 L615.8608,488.9531 L820.8608,488.9531 L820.8608,413.9531 L810.8608,403.9531 L615.8608,403.9531 " fill="#FEFFDD" style="stroke:#181818;stroke-width:0.5;"/><path d="M810.8608,403.9531 L810.8608,413.9531 L820.8608,413.9531 L810.8608,403.9531 " fill="#FEFFDD" style="stroke:#181818;stroke-width:0.5;"/><text fill="#000000" font-family="sans-serif" font-size="13" lengthAdjust="spacing" textLength="184.0122" x="621.8608" y="421.02">actionStatus == Invalidated</text><text fill="#000000" font-family="sans-serif" font-size="13" lengthAdjust="spacing" textLength="4.1323" x="621.8608" y="436.1528">&#160;</text><text fill="#000000" font-family="sans-serif" font-size="13" lengthAdjust="spacing" textLength="167.5908" x="621.8608" y="451.2856">(includes reason proposal</text><text fill="#000000" font-family="sans-serif" font-size="13" lengthAdjust="spacing" textLength="61.6357" x="621.8608" y="466.4185">is invalid,</text><text fill="#000000" font-family="sans-serif" font-size="13" lengthAdjust="spacing" textLength="110.4492" x="621.8608" y="481.5513">logged in Action)</text><polygon fill="#181818" points="341.8872,522.3164,351.8872,526.3164,341.8872,530.3164" style="stroke:#181818;stroke-width:1;"/><line style="stroke:#181818;stroke-width:1;" x1="45.4546" x2="347.8872" y1="526.3164" y2="526.3164"/><text fill="#000000" font-family="sans-serif" font-size="13" lengthAdjust="spacing" textLength="131.6377" x="52.4546" y="521.2505">getPendingActions()</text><path d="M368,499.6172 L368,539.6172 L533,539.6172 L533,509.6172 L523,499.6172 L368,499.6172 " fill="#FEFFDD" style="stroke:#181818;stroke-width:0.5;"/><path d="M523,499.6172 L523,509.6172 L533,509.6172 L523,499.6172 " fill="#FEFFDD" style="stroke:#181818;stroke-width:0.5;"/><text fill="#000000" font-family="sans-serif" font-size="13" lengthAdjust="spacing" textLength="144.0029" x="374" y="516.6841">Registry polls the Hub</text><text fill="#000000" font-family="sans-serif" font-size="13" lengthAdjust="spacing" textLength="126.6992" x="374" y="531.8169">for pending Actions</text><polygon fill="#181818" points="56.4546,562.0156,46.4546,566.0156,56.4546,570.0156" style="stroke:#181818;stroke-width:1;"/><line style="stroke:#181818;stroke-width:1;stroke-dasharray:2.0,2.0;" x1="50.4546" x2="347.8872" y1="566.0156" y2="566.0156"/><text fill="#000000" font-family="sans-serif" font-size="13" lengthAdjust="spacing" textLength="56.9321" x="62.4546" y="560.9497">actions[]</text><line style="stroke:#181818;stroke-width:1;" x1="45.4546" x2="92.4546" y1="590.1484" y2="590.1484"/><line style="stroke:#181818;stroke-width:1;" x1="92.4546" x2="92.4546" y1="590.1484" y2="603.1484"/><line style="stroke:#181818;stroke-width:1;" x1="51.4546" x2="92.4546" y1="603.1484" y2="603.1484"/><polygon fill="#181818" points="61.4546,599.1484,51.4546,603.1484,61.4546,607.1484" style="stroke:#181818;stroke-width:1;"/><text fill="#000000" font-family="sans-serif" font-size="13" lengthAdjust="spacing" textLength="207.3208" x="57.4546" y="585.0825">processPendingActions(actions)</text><line style="stroke:#181818;stroke-width:1;" x1="50.4546" x2="92.4546" y1="637.2813" y2="637.2813"/><line style="stroke:#181818;stroke-width:1;" x1="92.4546" x2="92.4546" y1="637.2813" y2="650.2813"/><line style="stroke:#181818;stroke-width:1;" x1="51.4546" x2="92.4546" y1="650.2813" y2="650.2813"/><polygon fill="#181818" points="61.4546,646.2813,51.4546,650.2813,61.4546,654.2813" style="stroke:#181818;stroke-width:1;"/><text fill="#000000" font-family="sans-serif" font-size="13" lengthAdjust="spacing" textLength="269.4326" x="57.4546" y="632.2153">processActionStatusAndWarnings(action)</text><path d="M353.4326,624.6484 L353.4326,649.6484 L558.4326,649.6484 L558.4326,634.6484 L548.4326,624.6484 L353.4326,624.6484 " fill="#FEFFDD" style="stroke:#181818;stroke-width:0.5;"/><path d="M548.4326,624.6484 L548.4326,634.6484 L558.4326,634.6484 L548.4326,624.6484 " fill="#FEFFDD" style="stroke:#181818;stroke-width:0.5;"/><text fill="#000000" font-family="sans-serif" font-size="13" lengthAdjust="spacing" textLength="184.0122" x="359.4326" y="641.7153">actionStatus == Invalidated</text><line style="stroke:#181818;stroke-width:1;" x1="50.4546" x2="92.4546" y1="679.4141" y2="679.4141"/><line style="stroke:#181818;stroke-width:1;" x1="92.4546" x2="92.4546" y1="679.4141" y2="692.4141"/><line style="stroke:#181818;stroke-width:1;" x1="51.4546" x2="92.4546" y1="692.4141" y2="692.4141"/><polygon fill="#181818" points="61.4546,688.4141,51.4546,692.4141,61.4546,696.4141" style="stroke:#181818;stroke-width:1;"/><text fill="#000000" font-family="sans-serif" font-size="13" lengthAdjust="spacing" textLength="141.3433" x="57.4546" y="674.3481">processAction(action)</text><line style="stroke:#181818;stroke-width:1;" x1="50.4546" x2="92.4546" y1="721.5469" y2="721.5469"/><line style="stroke:#181818;stroke-width:1;" x1="92.4546" x2="92.4546" y1="721.5469" y2="734.5469"/><line style="stroke:#181818;stroke-width:1;" x1="51.4546" x2="92.4546" y1="734.5469" y2="734.5469"/><polygon fill="#181818" points="61.4546,730.5469,51.4546,734.5469,61.4546,738.5469" style="stroke:#181818;stroke-width:1;"/><text fill="#000000" font-family="sans-serif" font-size="13" lengthAdjust="spacing" textLength="156.6221" x="57.4546" y="716.481">unlockITMOs(iTMOIDs[])</text><polygon fill="#181818" points="341.8872,762.6797,351.8872,766.6797,341.8872,770.6797" style="stroke:#181818;stroke-width:1;"/><line style="stroke:#181818;stroke-width:1;" x1="50.4546" x2="347.8872" y1="766.6797" y2="766.6797"/><text fill="#000000" font-family="sans-serif" font-size="13" lengthAdjust="spacing" textLength="243.1343" x="57.4546" y="761.6138">processAction(actionId, actionStatus)</text><path d="M368,747.5469 L368,772.5469 L575,772.5469 L575,757.5469 L565,747.5469 L368,747.5469 " fill="#FEFFDD" style="stroke:#181818;stroke-width:0.5;"/><path d="M565,747.5469 L565,757.5469 L575,757.5469 L565,747.5469 " fill="#FEFFDD" style="stroke:#181818;stroke-width:0.5;"/><text fill="#000000" font-family="sans-serif" font-size="13" lengthAdjust="spacing" textLength="186.6021" x="374" y="764.6138">actionStatus == Terminated</text><line style="stroke:#181818;stroke-width:1;" x1="363.8872" x2="405.8872" y1="828.8125" y2="828.8125"/><line style="stroke:#181818;stroke-width:1;" x1="405.8872" x2="405.8872" y1="828.8125" y2="841.8125"/><line style="stroke:#181818;stroke-width:1;" x1="364.8872" x2="405.8872" y1="841.8125" y2="841.8125"/><polygon fill="#181818" points="374.8872,837.8125,364.8872,841.8125,374.8872,845.8125" style="stroke:#181818;stroke-width:1;"/><text fill="#000000" font-family="sans-serif" font-size="13" lengthAdjust="spacing" textLength="294.9185" x="370.8872" y="823.7466">validateProcessAction(actionId, actionStatus)</text><line style="stroke:#181818;stroke-width:1;" x1="363.8872" x2="405.8872" y1="870.9453" y2="870.9453"/><line style="stroke:#181818;stroke-width:1;" x1="405.8872" x2="405.8872" y1="870.9453" y2="883.9453"/><line style="stroke:#181818;stroke-width:1;" x1="364.8872" x2="405.8872" y1="883.9453" y2="883.9453"/><polygon fill="#181818" points="374.8872,879.9453,364.8872,883.9453,374.8872,887.9453" style="stroke:#181818;stroke-width:1;"/><text fill="#000000" font-family="sans-serif" font-size="13" lengthAdjust="spacing" textLength="243.1343" x="370.8872" y="865.8794">processAction(actionId, actionStatus)</text><path d="M640.1343,858.3125 L640.1343,883.3125 L847.1343,883.3125 L847.1343,868.3125 L837.1343,858.3125 L640.1343,858.3125 " fill="#FEFFDD" style="stroke:#181818;stroke-width:0.5;"/><path d="M837.1343,858.3125 L837.1343,868.3125 L847.1343,868.3125 L837.1343,858.3125 " fill="#FEFFDD" style="stroke:#181818;stroke-width:0.5;"/><text fill="#000000" font-family="sans-serif" font-size="13" lengthAdjust="spacing" textLength="186.6021" x="646.1343" y="875.3794">actionStatus == Terminated</text><line style="stroke:#181818;stroke-width:1;" x1="363.8872" x2="405.8872" y1="918.0781" y2="918.0781"/><line style="stroke:#181818;stroke-width:1;" x1="405.8872" x2="405.8872" y1="918.0781" y2="931.0781"/><line style="stroke:#181818;stroke-width:1;" x1="358.8872" x2="405.8872" y1="931.0781" y2="931.0781"/><polygon fill="#181818" points="368.8872,927.0781,358.8872,931.0781,368.8872,935.0781" style="stroke:#181818;stroke-width:1;"/><text fill="#000000" font-family="sans-serif" font-size="13" lengthAdjust="spacing" textLength="156.6221" x="370.8872" y="913.0122">unlockITMOs(iTMOIDs[])</text><!--SRC=[hLF1Rjim3BtxAuYU4hH6xiPQ8C0EzM5RiHJOeTv1aLL7g4nv4bqiVp_QabCxSTEWsCK6gCV7nqUID1a5QqdQ8ZmusrWl3AIGuwimkZo4aiI_Q6o44pLusdEE9wSbjJK_SPYqr8r0WgkDmb9ZLQ1JbMRG_Wg4Xowgt1IP8occLqvijT6qB_2-tVPe_YU9O56lWjIG6twGtiL01buP9McDvQRX_Fpnsm-_47qhW-nbWfOPdAvsDE2X1yApipNKhI7TS3TRO-MBBz0wy1rP16aa2xuMnd3b0SEXMf3SmP-M-s3X38FLQbfvjKgI6SaTHH2g-Pj_zK-_boCODtvz3HaqFOiASpdRKtZRaA3Mm-rj79Wgar8T6pYAz0Rpvr0p2srVuE787I6bTTsmWIsPCM1QOBRrDqW6_SQnke7XHCSRE4qpa4un-BlwIv-mAUut4vG55hZGA4rRAWzCwlaKciXIeEwse0VV56XiLQcoctUekJotfiCmAqKFuIX2abzCjVsCXmADDSO3xVhv5FZCozY4n5ZE7rRgIve6qq9ZxEN9U4-NZvkIoliZCP5XUS71HOBro4o-lb_28VCDJ1SRdtnKuK1uYcjnTfsEtPydpCkRYQxpYX-LgpNsWi_UL8oyiz4NY1Xd_bVPqxjvnxf_]--></g></svg>