<svg xmlns="http://www.w3.org/2000/svg" xmlns:xlink="http://www.w3.org/1999/xlink" contentStyleType="text/css" data-diagram-type="SEQUENCE" height="908px" preserveAspectRatio="none" style="width:844px;height:908px;background:#FFFFFF;" version="1.1" viewBox="0 0 844 908" width="844px" zoomAndPan="magnify"><title>Action Proposal - Invalid Proposal</title><defs/><g><text fill="#000000" font-family="sans-serif" font-size="14" font-weight="bold" lengthAdjust="spacing" textLength="266.8887" x="292.8674" y="27.9951">Action Proposal - Invalid Proposal</text><g><title>Sending</title><rect fill="#FFFFFF" height="161.6641" style="stroke:#181818;stroke-width:1;" width="10" x="35.4546" y="99.8906"/></g><g><title>Sending</title><rect fill="#FFFFFF" height="341.8281" style="stroke:#181818;stroke-width:1;" width="10" x="35.4546" y="412.7188"/></g><g><title>Sending</title><rect fill="#FFFFFF" height="193.5313" style="stroke:#181818;stroke-width:1;" width="10" x="40.4546" y="561.0156"/></g><g><title>Interoperability</title><rect fill="#FFFFFF" height="30" style="stroke:#181818;stroke-width:1;" width="10" x="348.8872" y="231.5547"/></g><g><title>Interoperability</title><rect fill="#FFFFFF" height="109.0313" style="stroke:#181818;stroke-width:1;" width="10" x="348.8872" y="301.6875"/></g><g><title>Interoperability</title><rect fill="#FFFFFF" height="39.6992" style="stroke:#181818;stroke-width:1;" width="10" x="348.8872" y="484.1836"/></g><g><title>Interoperability</title><rect fill="#FFFFFF" height="152.3984" style="stroke:#181818;stroke-width:1;" width="10" x="348.8872" y="724.5469"/></g><g><title>Sending</title><rect fill="transparent" height="812.0547" width="8" x="36.4546" y="89.8906"/><line style="stroke:#181818;stroke-width:0.5;stroke-dasharray:5.0,5.0;" x1="40" x2="40" y1="89.8906" y2="901.9453"/></g><g><title>Interoperability</title><rect fill="transparent" height="812.0547" width="8" x="349.8872" y="89.8906"/><line style="stroke:#181818;stroke-width:0.5;stroke-dasharray:5.0,5.0;" x1="353.0918" x2="353.0918" y1="89.8906" y2="901.9453"/></g><rect fill="#E2E2F0" height="46.5938" rx="2.5" ry="2.5" style="stroke:#181818;stroke-width:0.5;" width="70.9092" x="5" y="42.2969"/><text fill="#000000" font-family="sans-serif" font-size="14" lengthAdjust="spacing" textLength="56.9092" x="12" y="62.292">Sending</text><text fill="#000000" font-family="sans-serif" font-size="14" lengthAdjust="spacing" textLength="53.9697" x="13.4697" y="78.5889">registry</text><rect fill="#E2E2F0" height="46.5938" rx="2.5" ry="2.5" style="stroke:#181818;stroke-width:0.5;" width="121.5908" x="293.0918" y="42.2969"/><text fill="#000000" font-family="sans-serif" font-size="14" lengthAdjust="spacing" textLength="107.5908" x="300.0918" y="62.292">Interoperability</text><text fill="#000000" font-family="sans-serif" font-size="14" lengthAdjust="spacing" textLength="28.2871" x="339.7437" y="78.5889">Hub</text><g><title>Sending</title><rect fill="#FFFFFF" height="161.6641" style="stroke:#181818;stroke-width:1;" width="10" x="35.4546" y="99.8906"/></g><g><title>Sending</title><rect fill="#FFFFFF" height="341.8281" style="stroke:#181818;stroke-width:1;" width="10" x="35.4546" y="412.7188"/></g><g><title>Sending</title><rect fill="#FFFFFF" height="193.5313" style="stroke:#181818;stroke-width:1;" width="10" x="40.4546" y="561.0156"/></g><g><title>Interoperability</title><rect fill="#FFFFFF" height="30" style="stroke:#181818;stroke-width:1;" width="10" x="348.8872" y="231.5547"/></g><g><title>Interoperability</title><rect fill="#FFFFFF" height="109.0313" style="stroke:#181818;stroke-width:1;" width="10" x="348.8872" y="301.6875"/></g><g><title>Interoperability</title><rect fill="#FFFFFF" height="39.6992" style="stroke:#181818;stroke-width:1;" width="10" x="348.8872" y="484.1836"/></g><g><title>Interoperability</title><rect fill="#FFFFFF" height="152.3984" style="stroke:#181818;stroke-width:1;" width="10" x="348.8872" y="724.5469"/></g><line style="stroke:#181818;stroke-width:1;" x1="45.4546" x2="87.4546" y1="132.6563" y2="132.6563"/><line style="stroke:#181818;stroke-width:1;" x1="87.4546" x2="87.4546" y1="132.6563" y2="145.6563"/><line style="stroke:#181818;stroke-width:1;" x1="46.4546" x2="87.4546" y1="145.6563" y2="145.6563"/><polygon fill="#181818" points="56.4546,141.6563,46.4546,145.6563,56.4546,149.6563" style="stroke:#181818;stroke-width:1;"/><text fill="#000000" font-family="sans-serif" font-size="13" lengthAdjust="spacing" textLength="238.6846" x="52.4546" y="127.5903">selectAndSplitITMOs(actionProposal)</text><path d="M312.6846,104.8906 L312.6846,159.8906 L565.6846,159.8906 L565.6846,114.8906 L555.6846,104.8906 L312.6846,104.8906 " fill="#FEFFDD" style="stroke:#181818;stroke-width:0.5;"/><path d="M555.6846,104.8906 L555.6846,114.8906 L565.6846,114.8906 L555.6846,104.8906 " fill="#FEFFDD" style="stroke:#181818;stroke-width:0.5;"/><text fill="#000000" font-family="sans-serif" font-size="13" lengthAdjust="spacing" textLength="220.0415" x="318.6846" y="121.9575">select ITMOs from multiple blocks</text><text fill="#000000" font-family="sans-serif" font-size="13" lengthAdjust="spacing" textLength="215.4395" x="318.6846" y="137.0903">or split ITMOs into smaller blocks</text><text fill="#000000" font-family="sans-serif" font-size="13" lengthAdjust="spacing" textLength="132.6089" x="318.6846" y="152.2231">to match quantity in</text><text fill="#000000" font-family="sans-serif" font-size="13" font-style="italic" lengthAdjust="spacing" textLength="95.71" x="455.4258" y="152.2231">actionProposal</text><line style="stroke:#181818;stroke-width:1;" x1="45.4546" x2="87.4546" y1="186.4219" y2="186.4219"/><line style="stroke:#181818;stroke-width:1;" x1="87.4546" x2="87.4546" y1="186.4219" y2="199.4219"/><line style="stroke:#181818;stroke-width:1;" x1="46.4546" x2="87.4546" y1="199.4219" y2="199.4219"/><polygon fill="#181818" points="56.4546,195.4219,46.4546,199.4219,56.4546,203.4219" style="stroke:#181818;stroke-width:1;"/><text fill="#000000" font-family="sans-serif" font-size="13" lengthAdjust="spacing" textLength="140.1436" x="52.4546" y="181.356">lockITMOs(iTMOIDs[])</text><polygon fill="#181818" points="336.8872,227.5547,346.8872,231.5547,336.8872,235.5547" style="stroke:#181818;stroke-width:1;"/><line style="stroke:#181818;stroke-width:1;" x1="45.4546" x2="342.8872" y1="231.5547" y2="231.5547"/><text fill="#000000" font-family="sans-serif" font-size="13" lengthAdjust="spacing" textLength="199.3228" x="52.4546" y="226.4888">proposeAction(actionProposal)</text><path d="M363,212.4219 L363,237.4219 L555,237.4219 L555,222.4219 L545,212.4219 L363,212.4219 " fill="#FEFFDD" style="stroke:#181818;stroke-width:0.5;"/><path d="M545,212.4219 L545,222.4219 L555,222.4219 L545,212.4219 " fill="#FEFFDD" style="stroke:#181818;stroke-width:0.5;"/><text fill="#000000" font-family="sans-serif" font-size="13" lengthAdjust="spacing" textLength="171.8564" x="369" y="229.4888">actionStatus == Proposed</text><line style="stroke:#181818;stroke-width:1;" x1="353.8872" x2="400.8872" y1="288.6875" y2="288.6875"/><line style="stroke:#181818;stroke-width:1;" x1="400.8872" x2="400.8872" y1="288.6875" y2="301.6875"/><line style="stroke:#181818;stroke-width:1;" x1="359.8872" x2="400.8872" y1="301.6875" y2="301.6875"/><polygon fill="#181818" points="369.8872,297.6875,359.8872,301.6875,369.8872,305.6875" style="stroke:#181818;stroke-width:1;"/><text fill="#000000" font-family="sans-serif" font-size="13" lengthAdjust="spacing" textLength="140.1436" x="365.8872" y="283.6216">lockITMOs(iTMOIDs[])</text><line style="stroke:#181818;stroke-width:1;" x1="358.8872" x2="400.8872" y1="335.8203" y2="335.8203"/><line style="stroke:#181818;stroke-width:1;" x1="400.8872" x2="400.8872" y1="335.8203" y2="348.8203"/><line style="stroke:#181818;stroke-width:1;" x1="359.8872" x2="400.8872" y1="348.8203" y2="348.8203"/><polygon fill="#181818" points="369.8872,344.8203,359.8872,348.8203,369.8872,352.8203" style="stroke:#181818;stroke-width:1;"/><text fill="#000000" font-family="sans-serif" font-size="13" lengthAdjust="spacing" textLength="213.7446" x="365.8872" y="330.7544">validateProposal(actionProposal)</text><line style="stroke:#181818;stroke-width:1;" x1="358.8872" x2="400.8872" y1="409.7188" y2="409.7188"/><line style="stroke:#181818;stroke-width:1;" x1="400.8872" x2="400.8872" y1="409.7188" y2="422.7188"/><line style="stroke:#181818;stroke-width:1;" x1="353.8872" x2="400.8872" y1="422.7188" y2="422.7188"/><polygon fill="#181818" points="363.8872,418.7188,353.8872,422.7188,363.8872,426.7188" style="stroke:#181818;stroke-width:1;"/><text fill="#000000" font-family="sans-serif" font-size="13" lengthAdjust="spacing" textLength="218.8608" x="365.8872" y="404.6528">createNextAction(actionProposal)</text><path d="M605.8608,361.8203 L605.8608,446.8203 L810.8608,446.8203 L810.8608,371.8203 L800.8608,361.8203 L605.8608,361.8203 " fill="#FEFFDD" style="stroke:#181818;stroke-width:0.5;"/><path d="M800.8608,361.8203 L800.8608,371.8203 L810.8608,371.8203 L800.8608,361.8203 " fill="#FEFFDD" style="stroke:#181818;stroke-width:0.5;"/><text fill="#000000" font-family="sans-serif" font-size="13" lengthAdjust="spacing" textLength="184.0122" x="611.8608" y="378.8872">actionStatus == Invalidated</text><text fill="#000000" font-family="sans-serif" font-size="13" lengthAdjust="spacing" textLength="4.1323" x="611.8608" y="394.02">&#160;</text><text fill="#000000" font-family="sans-serif" font-size="13" lengthAdjust="spacing" textLength="167.5908" x="611.8608" y="409.1528">(includes reason proposal</text><text fill="#000000" font-family="sans-serif" font-size="13" lengthAdjust="spacing" textLength="61.6357" x="611.8608" y="424.2856">is invalid,</text><text fill="#000000" font-family="sans-serif" font-size="13" lengthAdjust="spacing" textLength="110.4492" x="611.8608" y="439.4185">logged in Action)</text><polygon fill="#181818" points="336.8872,480.1836,346.8872,484.1836,336.8872,488.1836" style="stroke:#181818;stroke-width:1;"/><line style="stroke:#181818;stroke-width:1;" x1="45.4546" x2="342.8872" y1="484.1836" y2="484.1836"/><text fill="#000000" font-family="sans-serif" font-size="13" lengthAdjust="spacing" textLength="131.6377" x="52.4546" y="479.1177">getPendingActions()</text><path d="M363,457.4844 L363,497.4844 L528,497.4844 L528,467.4844 L518,457.4844 L363,457.4844 " fill="#FEFFDD" style="stroke:#181818;stroke-width:0.5;"/><path d="M518,457.4844 L518,467.4844 L528,467.4844 L518,457.4844 " fill="#FEFFDD" style="stroke:#181818;stroke-width:0.5;"/><text fill="#000000" font-family="sans-serif" font-size="13" lengthAdjust="spacing" textLength="144.0029" x="369" y="474.5513">Registry polls the Hub</text><text fill="#000000" font-family="sans-serif" font-size="13" lengthAdjust="spacing" textLength="126.6992" x="369" y="489.6841">for pending Actions</text><polygon fill="#181818" points="56.4546,519.8828,46.4546,523.8828,56.4546,527.8828" style="stroke:#181818;stroke-width:1;"/><line style="stroke:#181818;stroke-width:1;stroke-dasharray:2.0,2.0;" x1="50.4546" x2="352.8872" y1="523.8828" y2="523.8828"/><text fill="#000000" font-family="sans-serif" font-size="13" lengthAdjust="spacing" textLength="56.9321" x="62.4546" y="518.8169">actions[]</text><line style="stroke:#181818;stroke-width:1;" x1="45.4546" x2="92.4546" y1="548.0156" y2="548.0156"/><line style="stroke:#181818;stroke-width:1;" x1="92.4546" x2="92.4546" y1="548.0156" y2="561.0156"/><line style="stroke:#181818;stroke-width:1;" x1="51.4546" x2="92.4546" y1="561.0156" y2="561.0156"/><polygon fill="#181818" points="61.4546,557.0156,51.4546,561.0156,61.4546,565.0156" style="stroke:#181818;stroke-width:1;"/><text fill="#000000" font-family="sans-serif" font-size="13" lengthAdjust="spacing" textLength="207.3208" x="57.4546" y="542.9497">processPendingActions(actions)</text><line style="stroke:#181818;stroke-width:1;" x1="50.4546" x2="92.4546" y1="595.1484" y2="595.1484"/><line style="stroke:#181818;stroke-width:1;" x1="92.4546" x2="92.4546" y1="595.1484" y2="608.1484"/><line style="stroke:#181818;stroke-width:1;" x1="51.4546" x2="92.4546" y1="608.1484" y2="608.1484"/><polygon fill="#181818" points="61.4546,604.1484,51.4546,608.1484,61.4546,612.1484" style="stroke:#181818;stroke-width:1;"/><text fill="#000000" font-family="sans-serif" font-size="13" lengthAdjust="spacing" textLength="269.4326" x="57.4546" y="590.0825">processActionStatusAndWarnings(action)</text><path d="M353.4326,582.5156 L353.4326,607.5156 L558.4326,607.5156 L558.4326,592.5156 L548.4326,582.5156 L353.4326,582.5156 " fill="#FEFFDD" style="stroke:#181818;stroke-width:0.5;"/><path d="M548.4326,582.5156 L548.4326,592.5156 L558.4326,592.5156 L548.4326,582.5156 " fill="#FEFFDD" style="stroke:#181818;stroke-width:0.5;"/><text fill="#000000" font-family="sans-serif" font-size="13" lengthAdjust="spacing" textLength="184.0122" x="359.4326" y="599.5825">actionStatus == Invalidated</text><line style="stroke:#181818;stroke-width:1;" x1="50.4546" x2="92.4546" y1="637.2813" y2="637.2813"/><line style="stroke:#181818;stroke-width:1;" x1="92.4546" x2="92.4546" y1="637.2813" y2="650.2813"/><line style="stroke:#181818;stroke-width:1;" x1="51.4546" x2="92.4546" y1="650.2813" y2="650.2813"/><polygon fill="#181818" points="61.4546,646.2813,51.4546,650.2813,61.4546,654.2813" style="stroke:#181818;stroke-width:1;"/><text fill="#000000" font-family="sans-serif" font-size="13" lengthAdjust="spacing" textLength="141.3433" x="57.4546" y="632.2153">processAction(action)</text><line style="stroke:#181818;stroke-width:1;" x1="50.4546" x2="92.4546" y1="679.4141" y2="679.4141"/><line style="stroke:#181818;stroke-width:1;" x1="92.4546" x2="92.4546" y1="679.4141" y2="692.4141"/><line style="stroke:#181818;stroke-width:1;" x1="51.4546" x2="92.4546" y1="692.4141" y2="692.4141"/><polygon fill="#181818" points="61.4546,688.4141,51.4546,692.4141,61.4546,696.4141" style="stroke:#181818;stroke-width:1;"/><text fill="#000000" font-family="sans-serif" font-size="13" lengthAdjust="spacing" textLength="156.6221" x="57.4546" y="674.3481">unlockITMOs(iTMOIDs[])</text><polygon fill="#181818" points="336.8872,720.5469,346.8872,724.5469,336.8872,728.5469" style="stroke:#181818;stroke-width:1;"/><line style="stroke:#181818;stroke-width:1;" x1="50.4546" x2="342.8872" y1="724.5469" y2="724.5469"/><text fill="#000000" font-family="sans-serif" font-size="13" lengthAdjust="spacing" textLength="243.1343" x="57.4546" y="719.481">processAction(actionId, actionStatus)</text><path d="M363,705.4141 L363,730.4141 L570,730.4141 L570,715.4141 L560,705.4141 L363,705.4141 " fill="#FEFFDD" style="stroke:#181818;stroke-width:0.5;"/><path d="M560,705.4141 L560,715.4141 L570,715.4141 L560,705.4141 " fill="#FEFFDD" style="stroke:#181818;stroke-width:0.5;"/><text fill="#000000" font-family="sans-serif" font-size="13" lengthAdjust="spacing" textLength="186.6021" x="369" y="722.481">actionStatus == Terminated</text><line style="stroke:#181818;stroke-width:1;" x1="358.8872" x2="400.8872" y1="786.6797" y2="786.6797"/><line style="stroke:#181818;stroke-width:1;" x1="400.8872" x2="400.8872" y1="786.6797" y2="799.6797"/><line style="stroke:#181818;stroke-width:1;" x1="359.8872" x2="400.8872" y1="799.6797" y2="799.6797"/><polygon fill="#181818" points="369.8872,795.6797,359.8872,799.6797,369.8872,803.6797" style="stroke:#181818;stroke-width:1;"/><text fill="#000000" font-family="sans-serif" font-size="13" lengthAdjust="spacing" textLength="294.9185" x="365.8872" y="781.6138">validateProcessAction(actionId, actionStatus)</text><line style="stroke:#181818;stroke-width:1;" x1="358.8872" x2="400.8872" y1="828.8125" y2="828.8125"/><line style="stroke:#181818;stroke-width:1;" x1="400.8872" x2="400.8872" y1="828.8125" y2="841.8125"/><line style="stroke:#181818;stroke-width:1;" x1="359.8872" x2="400.8872" y1="841.8125" y2="841.8125"/><polygon fill="#181818" points="369.8872,837.8125,359.8872,841.8125,369.8872,845.8125" style="stroke:#181818;stroke-width:1;"/><text fill="#000000" font-family="sans-serif" font-size="13" lengthAdjust="spacing" textLength="243.1343" x="365.8872" y="823.7466">processAction(actionId, actionStatus)</text><path d="M630.1343,816.1797 L630.1343,841.1797 L837.1343,841.1797 L837.1343,826.1797 L827.1343,816.1797 L630.1343,816.1797 " fill="#FEFFDD" style="stroke:#181818;stroke-width:0.5;"/><path d="M827.1343,816.1797 L827.1343,826.1797 L837.1343,826.1797 L827.1343,816.1797 " fill="#FEFFDD" style="stroke:#181818;stroke-width:0.5;"/><text fill="#000000" font-family="sans-serif" font-size="13" lengthAdjust="spacing" textLength="186.6021" x="636.1343" y="833.2466">actionStatus == Terminated</text><line style="stroke:#181818;stroke-width:1;" x1="358.8872" x2="400.8872" y1="875.9453" y2="875.9453"/><line style="stroke:#181818;stroke-width:1;" x1="400.8872" x2="400.8872" y1="875.9453" y2="888.9453"/><line style="stroke:#181818;stroke-width:1;" x1="353.8872" x2="400.8872" y1="888.9453" y2="888.9453"/><polygon fill="#181818" points="363.8872,884.9453,353.8872,888.9453,363.8872,892.9453" style="stroke:#181818;stroke-width:1;"/><text fill="#000000" font-family="sans-serif" font-size="13" lengthAdjust="spacing" textLength="156.6221" x="365.8872" y="870.8794">unlockITMOs(iTMOIDs[])</text><!--SRC=[hLDDRzim3BtxLn0z9MYDt8DsG80TwiFQOYcmmxo3OgkEK9doHBfe_lreIqxZV3KeTh41wl7nyUc93LiDYuADGtZohd6aBAIGuPkofjoMaeHU3JRAgng8Dz93x4t1RIr7KcPJc4OXmzLIOscmoj7hoWXeSmMAeAjgFqPco5hejLShOmrlShnlLprQ_acYHDIROZtqXX-ats9X3gIjBdY1vRAH_kpvnoDDLB_A87kQe1C6Rwer3tZeWV3YNGrrQzaqiitAkkALSdGUg2EB88FiW6fbhKmUC5Ag5HTh-DlA7Y9SO32RZIVFPiaHnHr3q6dactsdtt-cEp3P-_eQvj3q93fSozcLmjcI5RS4TtVnldIPb7hVlvrAxwzyjZDFAFk0pA7FWpGFEWvaVO3JT0w5rm9-qE_yXIrY-eIWp377YS72jgKc45AIe3QH9KVJtL4FlidHkghIPNSROURqN8W6holDJo6oeOacOsq_OuoXSTOIyBgtBySNYKeJ6kCusjxuRPe6qy9YukM1-uVPaAKAJRGd9Z9CBtWEaM2nOwQyZL_Ae_0DJ1SRdtmsOKjuY6lnQ9pstJzEc9Kt8rtd5JzhNnli1P-DVAoSIFG58dOx_wliyRivOTq_]--></g></svg>