<svg xmlns="http://www.w3.org/2000/svg" xmlns:xlink="http://www.w3.org/1999/xlink" contentStyleType="text/css" data-diagram-type="SEQUENCE" height="887px" preserveAspectRatio="none" style="width:844px;height:887px;background:#FFFFFF;" version="1.1" viewBox="0 0 844 887" width="844px" zoomAndPan="magnify"><title>Action Proposal - Invalid Proposal</title><defs/><g><text fill="#000000" font-family="sans-serif" font-size="14" font-weight="bold" lengthAdjust="spacing" textLength="266.8887" x="292.8674" y="27.9951">Action Proposal - Invalid Proposal</text><g><title>Sending</title><rect fill="#FFFFFF" height="161.6641" style="stroke:#181818;stroke-width:1;" width="10" x="35.4546" y="99.8906"/></g><g><title>Sending</title><rect fill="#FFFFFF" height="320.6953" style="stroke:#181818;stroke-width:1;" width="10" x="35.4546" y="412.7188"/></g><g><title>Sending</title><rect fill="#FFFFFF" height="193.5313" style="stroke:#181818;stroke-width:1;" width="10" x="40.4546" y="539.8828"/></g><g><title>Interoperability</title><rect fill="#FFFFFF" height="30" style="stroke:#181818;stroke-width:1;" width="10" x="348.8872" y="231.5547"/></g><g><title>Interoperability</title><rect fill="#FFFFFF" height="109.0313" style="stroke:#181818;stroke-width:1;" width="10" x="348.8872" y="301.6875"/></g><g><title>Interoperability</title><rect fill="#FFFFFF" height="29.1328" style="stroke:#181818;stroke-width:1;" width="10" x="348.8872" y="473.6172"/></g><g><title>Interoperability</title><rect fill="#FFFFFF" height="152.3984" style="stroke:#181818;stroke-width:1;" width="10" x="348.8872" y="703.4141"/></g><g><title>Sending</title><rect fill="transparent" height="790.9219" width="8" x="36.4546" y="89.8906"/><line style="stroke:#181818;stroke-width:0.5;stroke-dasharray:5.0,5.0;" x1="40" x2="40" y1="89.8906" y2="880.8125"/></g><g><title>Interoperability</title><rect fill="transparent" height="790.9219" width="8" x="349.8872" y="89.8906"/><line style="stroke:#181818;stroke-width:0.5;stroke-dasharray:5.0,5.0;" x1="353.0918" x2="353.0918" y1="89.8906" y2="880.8125"/></g><rect fill="#E2E2F0" height="46.5938" rx="2.5" ry="2.5" style="stroke:#181818;stroke-width:0.5;" width="70.9092" x="5" y="42.2969"/><text fill="#000000" font-family="sans-serif" font-size="14" lengthAdjust="spacing" textLength="56.9092" x="12" y="62.292">Sending</text><text fill="#000000" font-family="sans-serif" font-size="14" lengthAdjust="spacing" textLength="53.9697" x="13.4697" y="78.5889">registry</text><rect fill="#E2E2F0" height="46.5938" rx="2.5" ry="2.5" style="stroke:#181818;stroke-width:0.5;" width="121.5908" x="293.0918" y="42.2969"/><text fill="#000000" font-family="sans-serif" font-size="14" lengthAdjust="spacing" textLength="107.5908" x="300.0918" y="62.292">Interoperability</text><text fill="#000000" font-family="sans-serif" font-size="14" lengthAdjust="spacing" textLength="28.2871" x="339.7437" y="78.5889">Hub</text><g><title>Sending</title><rect fill="#FFFFFF" height="161.6641" style="stroke:#181818;stroke-width:1;" width="10" x="35.4546" y="99.8906"/></g><g><title>Sending</title><rect fill="#FFFFFF" height="320.6953" style="stroke:#181818;stroke-width:1;" width="10" x="35.4546" y="412.7188"/></g><g><title>Sending</title><rect fill="#FFFFFF" height="193.5313" style="stroke:#181818;stroke-width:1;" width="10" x="40.4546" y="539.8828"/></g><g><title>Interoperability</title><rect fill="#FFFFFF" height="30" style="stroke:#181818;stroke-width:1;" width="10" x="348.8872" y="231.5547"/></g><g><title>Interoperability</title><rect fill="#FFFFFF" height="109.0313" style="stroke:#181818;stroke-width:1;" width="10" x="348.8872" y="301.6875"/></g><g><title>Interoperability</title><rect fill="#FFFFFF" height="29.1328" style="stroke:#181818;stroke-width:1;" width="10" x="348.8872" y="473.6172"/></g><g><title>Interoperability</title><rect fill="#FFFFFF" height="152.3984" style="stroke:#181818;stroke-width:1;" width="10" x="348.8872" y="703.4141"/></g><line style="stroke:#181818;stroke-width:1;" x1="45.4546" x2="87.4546" y1="132.6563" y2="132.6563"/><line style="stroke:#181818;stroke-width:1;" x1="87.4546" x2="87.4546" y1="132.6563" y2="145.6563"/><line style="stroke:#181818;stroke-width:1;" x1="46.4546" x2="87.4546" y1="145.6563" y2="145.6563"/><polygon fill="#181818" points="56.4546,141.6563,46.4546,145.6563,56.4546,149.6563" style="stroke:#181818;stroke-width:1;"/><text fill="#000000" font-family="sans-serif" font-size="13" lengthAdjust="spacing" textLength="238.6846" x="52.4546" y="127.5903">selectAndSplitITMOs(actionProposal)</text><path d="M312.6846,104.8906 L312.6846,159.8906 L565.6846,159.8906 L565.6846,114.8906 L555.6846,104.8906 L312.6846,104.8906 " fill="#FEFFDD" style="stroke:#181818;stroke-width:0.5;"/><path d="M555.6846,104.8906 L555.6846,114.8906 L565.6846,114.8906 L555.6846,104.8906 " fill="#FEFFDD" style="stroke:#181818;stroke-width:0.5;"/><text fill="#000000" font-family="sans-serif" font-size="13" lengthAdjust="spacing" textLength="220.0415" x="318.6846" y="121.9575">select ITMOs from multiple blocks</text><text fill="#000000" font-family="sans-serif" font-size="13" lengthAdjust="spacing" textLength="215.4395" x="318.6846" y="137.0903">or split ITMOs into smaller blocks</text><text fill="#000000" font-family="sans-serif" font-size="13" lengthAdjust="spacing" textLength="132.6089" x="318.6846" y="152.2231">to match quantity in</text><text fill="#000000" font-family="sans-serif" font-size="13" font-style="italic" lengthAdjust="spacing" textLength="95.71" x="455.4258" y="152.2231">actionProposal</text><line style="stroke:#181818;stroke-width:1;" x1="45.4546" x2="87.4546" y1="186.4219" y2="186.4219"/><line style="stroke:#181818;stroke-width:1;" x1="87.4546" x2="87.4546" y1="186.4219" y2="199.4219"/><line style="stroke:#181818;stroke-width:1;" x1="46.4546" x2="87.4546" y1="199.4219" y2="199.4219"/><polygon fill="#181818" points="56.4546,195.4219,46.4546,199.4219,56.4546,203.4219" style="stroke:#181818;stroke-width:1;"/><text fill="#000000" font-family="sans-serif" font-size="13" lengthAdjust="spacing" textLength="140.1436" x="52.4546" y="181.356">lockITMOs(iTMOIDs[])</text><polygon fill="#181818" points="336.8872,227.5547,346.8872,231.5547,336.8872,235.5547" style="stroke:#181818;stroke-width:1;"/><line style="stroke:#181818;stroke-width:1;" x1="45.4546" x2="342.8872" y1="231.5547" y2="231.5547"/><text fill="#000000" font-family="sans-serif" font-size="13" lengthAdjust="spacing" textLength="199.3228" x="52.4546" y="226.4888">proposeAction(actionProposal)</text><path d="M363,212.4219 L363,237.4219 L555,237.4219 L555,222.4219 L545,212.4219 L363,212.4219 " fill="#FEFFDD" style="stroke:#181818;stroke-width:0.5;"/><path d="M545,212.4219 L545,222.4219 L555,222.4219 L545,212.4219 " fill="#FEFFDD" style="stroke:#181818;stroke-width:0.5;"/><text fill="#000000" font-family="sans-serif" font-size="13" lengthAdjust="spacing" textLength="171.8564" x="369" y="229.4888">actionStatus == Proposed</text><line style="stroke:#181818;stroke-width:1;" x1="353.8872" x2="400.8872" y1="288.6875" y2="288.6875"/><line style="stroke:#181818;stroke-width:1;" x1="400.8872" x2="400.8872" y1="288.6875" y2="301.6875"/><line style="stroke:#181818;stroke-width:1;" x1="359.8872" x2="400.8872" y1="301.6875" y2="301.6875"/><polygon fill="#181818" points="369.8872,297.6875,359.8872,301.6875,369.8872,305.6875" style="stroke:#181818;stroke-width:1;"/><text fill="#000000" font-family="sans-serif" font-size="13" lengthAdjust="spacing" textLength="172.0913" x="365.8872" y="283.6216">lockITMOs(actionProposal)</text><line style="stroke:#181818;stroke-width:1;" x1="358.8872" x2="400.8872" y1="335.8203" y2="335.8203"/><line style="stroke:#181818;stroke-width:1;" x1="400.8872" x2="400.8872" y1="335.8203" y2="348.8203"/><line style="stroke:#181818;stroke-width:1;" x1="359.8872" x2="400.8872" y1="348.8203" y2="348.8203"/><polygon fill="#181818" points="369.8872,344.8203,359.8872,348.8203,369.8872,352.8203" style="stroke:#181818;stroke-width:1;"/><text fill="#000000" font-family="sans-serif" font-size="13" lengthAdjust="spacing" textLength="213.7446" x="365.8872" y="330.7544">validateProposal(actionProposal)</text><line style="stroke:#181818;stroke-width:1;" x1="358.8872" x2="400.8872" y1="409.7188" y2="409.7188"/><line style="stroke:#181818;stroke-width:1;" x1="400.8872" x2="400.8872" y1="409.7188" y2="422.7188"/><line style="stroke:#181818;stroke-width:1;" x1="353.8872" x2="400.8872" y1="422.7188" y2="422.7188"/><polygon fill="#181818" points="363.8872,418.7188,353.8872,422.7188,363.8872,426.7188" style="stroke:#181818;stroke-width:1;"/><text fill="#000000" font-family="sans-serif" font-size="13" lengthAdjust="spacing" textLength="218.8608" x="365.8872" y="404.6528">createNextAction(actionProposal)</text><path d="M605.8608,361.8203 L605.8608,446.8203 L810.8608,446.8203 L810.8608,371.8203 L800.8608,361.8203 L605.8608,361.8203 " fill="#FEFFDD" style="stroke:#181818;stroke-width:0.5;"/><path d="M800.8608,361.8203 L800.8608,371.8203 L810.8608,371.8203 L800.8608,361.8203 " fill="#FEFFDD" style="stroke:#181818;stroke-width:0.5;"/><text fill="#000000" font-family="sans-serif" font-size="13" lengthAdjust="spacing" textLength="184.0122" x="611.8608" y="378.8872">actionStatus == Invalidated</text><text fill="#000000" font-family="sans-serif" font-size="13" lengthAdjust="spacing" textLength="4.1323" x="611.8608" y="394.02">&#160;</text><text fill="#000000" font-family="sans-serif" font-size="13" lengthAdjust="spacing" textLength="167.5908" x="611.8608" y="409.1528">(includes reason proposal</text><text fill="#000000" font-family="sans-serif" font-size="13" lengthAdjust="spacing" textLength="61.6357" x="611.8608" y="424.2856">is invalid,</text><text fill="#000000" font-family="sans-serif" font-size="13" lengthAdjust="spacing" textLength="110.4492" x="611.8608" y="439.4185">logged in Action)</text><polygon fill="#181818" points="336.8872,469.6172,346.8872,473.6172,336.8872,477.6172" style="stroke:#181818;stroke-width:1;"/><line style="stroke:#181818;stroke-width:1;" x1="45.4546" x2="342.8872" y1="473.6172" y2="473.6172"/><text fill="#000000" font-family="sans-serif" font-size="13" lengthAdjust="spacing" textLength="183.7329" x="52.4546" y="468.5513">getPendingActions():Actions</text><polygon fill="#181818" points="56.4546,498.75,46.4546,502.75,56.4546,506.75" style="stroke:#181818;stroke-width:1;"/><line style="stroke:#181818;stroke-width:1;stroke-dasharray:2.0,2.0;" x1="50.4546" x2="352.8872" y1="502.75" y2="502.75"/><text fill="#000000" font-family="sans-serif" font-size="13" lengthAdjust="spacing" textLength="56.9321" x="62.4546" y="497.6841">actions[]</text><line style="stroke:#181818;stroke-width:1;" x1="45.4546" x2="92.4546" y1="526.8828" y2="526.8828"/><line style="stroke:#181818;stroke-width:1;" x1="92.4546" x2="92.4546" y1="526.8828" y2="539.8828"/><line style="stroke:#181818;stroke-width:1;" x1="51.4546" x2="92.4546" y1="539.8828" y2="539.8828"/><polygon fill="#181818" points="61.4546,535.8828,51.4546,539.8828,61.4546,543.8828" style="stroke:#181818;stroke-width:1;"/><text fill="#000000" font-family="sans-serif" font-size="13" lengthAdjust="spacing" textLength="207.3208" x="57.4546" y="521.8169">processPendingActions(actions)</text><line style="stroke:#181818;stroke-width:1;" x1="50.4546" x2="92.4546" y1="574.0156" y2="574.0156"/><line style="stroke:#181818;stroke-width:1;" x1="92.4546" x2="92.4546" y1="574.0156" y2="587.0156"/><line style="stroke:#181818;stroke-width:1;" x1="51.4546" x2="92.4546" y1="587.0156" y2="587.0156"/><polygon fill="#181818" points="61.4546,583.0156,51.4546,587.0156,61.4546,591.0156" style="stroke:#181818;stroke-width:1;"/><text fill="#000000" font-family="sans-serif" font-size="13" lengthAdjust="spacing" textLength="269.4326" x="57.4546" y="568.9497">processActionStatusAndWarnings(action)</text><path d="M353.4326,561.3828 L353.4326,586.3828 L558.4326,586.3828 L558.4326,571.3828 L548.4326,561.3828 L353.4326,561.3828 " fill="#FEFFDD" style="stroke:#181818;stroke-width:0.5;"/><path d="M548.4326,561.3828 L548.4326,571.3828 L558.4326,571.3828 L548.4326,561.3828 " fill="#FEFFDD" style="stroke:#181818;stroke-width:0.5;"/><text fill="#000000" font-family="sans-serif" font-size="13" lengthAdjust="spacing" textLength="184.0122" x="359.4326" y="578.4497">actionStatus == Invalidated</text><line style="stroke:#181818;stroke-width:1;" x1="50.4546" x2="92.4546" y1="616.1484" y2="616.1484"/><line style="stroke:#181818;stroke-width:1;" x1="92.4546" x2="92.4546" y1="616.1484" y2="629.1484"/><line style="stroke:#181818;stroke-width:1;" x1="51.4546" x2="92.4546" y1="629.1484" y2="629.1484"/><polygon fill="#181818" points="61.4546,625.1484,51.4546,629.1484,61.4546,633.1484" style="stroke:#181818;stroke-width:1;"/><text fill="#000000" font-family="sans-serif" font-size="13" lengthAdjust="spacing" textLength="141.3433" x="57.4546" y="611.0825">processAction(action)</text><line style="stroke:#181818;stroke-width:1;" x1="50.4546" x2="92.4546" y1="658.2813" y2="658.2813"/><line style="stroke:#181818;stroke-width:1;" x1="92.4546" x2="92.4546" y1="658.2813" y2="671.2813"/><line style="stroke:#181818;stroke-width:1;" x1="51.4546" x2="92.4546" y1="671.2813" y2="671.2813"/><polygon fill="#181818" points="61.4546,667.2813,51.4546,671.2813,61.4546,675.2813" style="stroke:#181818;stroke-width:1;"/><text fill="#000000" font-family="sans-serif" font-size="13" lengthAdjust="spacing" textLength="132.8755" x="57.4546" y="653.2153">unlockITMOs(action)</text><polygon fill="#181818" points="336.8872,699.4141,346.8872,703.4141,336.8872,707.4141" style="stroke:#181818;stroke-width:1;"/><line style="stroke:#181818;stroke-width:1;" x1="50.4546" x2="342.8872" y1="703.4141" y2="703.4141"/><text fill="#000000" font-family="sans-serif" font-size="13" lengthAdjust="spacing" textLength="243.1343" x="57.4546" y="698.3481">processAction(actionId, actionStatus)</text><path d="M363,684.2813 L363,709.2813 L570,709.2813 L570,694.2813 L560,684.2813 L363,684.2813 " fill="#FEFFDD" style="stroke:#181818;stroke-width:0.5;"/><path d="M560,684.2813 L560,694.2813 L570,694.2813 L560,684.2813 " fill="#FEFFDD" style="stroke:#181818;stroke-width:0.5;"/><text fill="#000000" font-family="sans-serif" font-size="13" lengthAdjust="spacing" textLength="186.6021" x="369" y="701.3481">actionStatus == Terminated</text><line style="stroke:#181818;stroke-width:1;" x1="358.8872" x2="400.8872" y1="765.5469" y2="765.5469"/><line style="stroke:#181818;stroke-width:1;" x1="400.8872" x2="400.8872" y1="765.5469" y2="778.5469"/><line style="stroke:#181818;stroke-width:1;" x1="359.8872" x2="400.8872" y1="778.5469" y2="778.5469"/><polygon fill="#181818" points="369.8872,774.5469,359.8872,778.5469,369.8872,782.5469" style="stroke:#181818;stroke-width:1;"/><text fill="#000000" font-family="sans-serif" font-size="13" lengthAdjust="spacing" textLength="294.9185" x="365.8872" y="760.481">validateProcessAction(actionId, actionStatus)</text><line style="stroke:#181818;stroke-width:1;" x1="358.8872" x2="400.8872" y1="807.6797" y2="807.6797"/><line style="stroke:#181818;stroke-width:1;" x1="400.8872" x2="400.8872" y1="807.6797" y2="820.6797"/><line style="stroke:#181818;stroke-width:1;" x1="359.8872" x2="400.8872" y1="820.6797" y2="820.6797"/><polygon fill="#181818" points="369.8872,816.6797,359.8872,820.6797,369.8872,824.6797" style="stroke:#181818;stroke-width:1;"/><text fill="#000000" font-family="sans-serif" font-size="13" lengthAdjust="spacing" textLength="243.1343" x="365.8872" y="802.6138">processAction(actionId, actionStatus)</text><path d="M630.1343,795.0469 L630.1343,820.0469 L837.1343,820.0469 L837.1343,805.0469 L827.1343,795.0469 L630.1343,795.0469 " fill="#FEFFDD" style="stroke:#181818;stroke-width:0.5;"/><path d="M827.1343,795.0469 L827.1343,805.0469 L837.1343,805.0469 L827.1343,795.0469 " fill="#FEFFDD" style="stroke:#181818;stroke-width:0.5;"/><text fill="#000000" font-family="sans-serif" font-size="13" lengthAdjust="spacing" textLength="186.6021" x="636.1343" y="812.1138">actionStatus == Terminated</text><line style="stroke:#181818;stroke-width:1;" x1="358.8872" x2="400.8872" y1="854.8125" y2="854.8125"/><line style="stroke:#181818;stroke-width:1;" x1="400.8872" x2="400.8872" y1="854.8125" y2="867.8125"/><line style="stroke:#181818;stroke-width:1;" x1="353.8872" x2="400.8872" y1="867.8125" y2="867.8125"/><polygon fill="#181818" points="363.8872,863.8125,353.8872,867.8125,363.8872,871.8125" style="stroke:#181818;stroke-width:1;"/><text fill="#000000" font-family="sans-serif" font-size="13" lengthAdjust="spacing" textLength="144.9614" x="365.8872" y="849.7466">unlockITMOs(actionId)</text><!--SRC=[jLF1Rfn03Btp5LPEYnAqTzHKMgc7SaWRQIFrK7gOPLmook2XCoRg_dtD02aBsKrxY8GOv7b-VdusRDWYx2esZk3UkzO5PI63WfwLDVebb2JXoL2hl6eWy55o0djJSTV8bOJPLAPLn72rHzA6wf8yraP0nojG0Vee-bDaGOn2ZruTZ3LyBEbpTuXeEPD4YQXdnJZb3WTa7yT03W4jLhmZlMybltYu-nesAhOooKuJSiBWJVt84nuY47vwrq3JMJQjT7EmhdeA9JaFeISRGOROGMYKjL9vmaYeKLmzmgzE-X3X0eFjzhJoTfkyehXd67GQUHUVmlSVwGmcVLzVGmvj9C5XB1TR6kxshBWBS7ixpWjred7ftomI_ON-UAawrxOiE4Vc41T3MARxY_0iow7oAF0l-9lFD0HmgQLn5OL2brJInb1bEuq1X3R8rhOZJqcc7rW4tvHaNLsZxaSpLEtBoBDq1M1jVuryFspna1esQJv-_SL_oBB1Zq6lJ5Bk5Xx7Ykij4CKLXh2eCVAaRuXSaEncRicVy4rv4iw9xJ-yJTwkCYDT8pjQBj3e-ChXrraBVNCYBusfbyG_e6yCHUqzTBtnvwDdzlaVHSsptwMLq_zdxMoXq-GF]--></g></svg>