<svg xmlns="http://www.w3.org/2000/svg" xmlns:xlink="http://www.w3.org/1999/xlink" contentStyleType="text/css" data-diagram-type="SEQUENCE" height="7075px" preserveAspectRatio="none" style="width:8456px;height:7075px;background:#FFFFFF;" version="1.1" viewBox="0 0 8456 7075" width="8456.25px" zoomAndPan="magnify"><defs/><g><rect fill="#DDDDDD" height="6959.668" style="stroke:#181818;stroke-width:3.125;" width="4000.3967" x="1491.4612" y="37.5"/><text fill="#000000" font-family="sans-serif" font-size="81.25" font-weight="bold" lengthAdjust="spacing" textLength="987.4969" x="2997.9111" y="112.9181">International registry</text><rect fill="transparent" height="1599.5605" style="stroke:#000000;stroke-width:9.375;" width="5166.0522" x="1453.9612" y="666.0156"/><rect fill="transparent" height="853.3203" style="stroke:#000000;stroke-width:9.375;" width="5600.8667" x="1453.9612" y="3521.3867"/><rect fill="transparent" height="1342.4805" style="stroke:#000000;stroke-width:9.375;" width="4075.3967" x="1453.9612" y="5403.8574"/><g><title>Sending</title><rect fill="transparent" height="6656.9824" width="50" x="227.8412" y="377.6855"/><line style="stroke:#181818;stroke-width:3.125;stroke-dasharray:5.0,5.0;" x1="250" x2="250" y1="377.6855" y2="7034.668"/></g><g><title>Hub</title><rect fill="transparent" height="6656.9824" width="50" x="1623.6084" y="377.6855"/><line style="stroke:#181818;stroke-width:3.125;stroke-dasharray:5.0,5.0;" x1="1647.7112" x2="1647.7112" y1="377.6855" y2="7034.668"/></g><g><title>Actions</title><rect fill="transparent" height="6656.9824" width="50" x="5225.0275" y="377.6855"/><line style="stroke:#181818;stroke-width:3.125;stroke-dasharray:5.0,5.0;" x1="5245.697" x2="5245.697" y1="377.6855" y2="7034.668"/></g><g><title>Receiving</title><rect fill="transparent" height="6656.9824" width="50" x="6621.4691" y="377.6855"/><line style="stroke:#181818;stroke-width:3.125;stroke-dasharray:5.0,5.0;" x1="6644.9829" x2="6644.9829" y1="377.6855" y2="7034.668"/></g><rect fill="#E2E2F0" height="291.2109" rx="15.625" ry="15.625" style="stroke:#181818;stroke-width:3.125;" width="443.1824" x="31.25" y="80.2246"/><text fill="#000000" font-family="sans-serif" font-size="87.5" lengthAdjust="spacing" textLength="355.6824" x="75" y="205.1941">Sending</text><text fill="#000000" font-family="sans-serif" font-size="87.5" lengthAdjust="spacing" textLength="337.3108" x="84.1858" y="307.0496">registry</text><rect fill="#E2E2F0" height="189.3555" rx="15.625" ry="15.625" style="stroke:#181818;stroke-width:3.125;" width="264.2944" x="1516.4612" y="182.0801"/><text fill="#000000" font-family="sans-serif" font-size="87.5" lengthAdjust="spacing" textLength="176.7944" x="1560.2112" y="307.0496">Hub</text><rect fill="#E2E2F0" height="189.3555" style="stroke:#181818;stroke-width:3.125;" width="408.6609" x="5058.197" y="157.0801"/><rect fill="#E2E2F0" height="189.3555" style="stroke:#181818;stroke-width:3.125;" width="408.6609" x="5033.197" y="182.0801"/><text fill="#000000" font-family="sans-serif" font-size="87.5" lengthAdjust="spacing" textLength="321.1609" x="5076.947" y="307.0496">Actions</text><rect fill="#E2E2F0" height="291.2109" rx="15.625" ry="15.625" style="stroke:#181818;stroke-width:3.125;" width="515.4724" x="6388.7329" y="80.2246"/><text fill="#000000" font-family="sans-serif" font-size="87.5" lengthAdjust="spacing" textLength="427.9724" x="6432.4829" y="205.1941">Receiving</text><text fill="#000000" font-family="sans-serif" font-size="87.5" lengthAdjust="spacing" textLength="337.3108" x="6477.8137" y="307.0496">registry</text><polygon fill="#181818" points="1573.6084,547.2656,1636.1084,572.2656,1573.6084,597.2656" style="stroke:#181818;stroke-width:6.25;"/><line style="stroke:#181818;stroke-width:6.25;" x1="252.8412" x2="1611.1084" y1="572.2656" y2="572.2656"/><text fill="#000000" font-family="sans-serif" font-size="81.25" lengthAdjust="spacing" textLength="1245.7672" x="296.5912" y="540.6036">proposeAction(actionProposal)</text><path d="M1453.9612,666.0156 L2827.6428,666.0156 L2827.6428,710.5957 L2765.1428,773.0957 L1453.9612,773.0957 L1453.9612,666.0156 " fill="#EEEEEE" style="stroke:#000000;stroke-width:9.375;"/><rect fill="transparent" height="1599.5605" style="stroke:#000000;stroke-width:9.375;" width="5166.0522" x="1453.9612" y="666.0156"/><text fill="#000000" font-family="sans-serif" font-size="81.25" font-weight="bold" lengthAdjust="spacing" textLength="1092.4316" x="1547.7112" y="747.6837">Transaction Boundary 1</text><line style="stroke:#181818;stroke-width:6.25;" x1="1648.6084" x2="1911.1084" y1="905.1758" y2="905.1758"/><line style="stroke:#181818;stroke-width:6.25;" x1="1911.1084" x2="1911.1084" y1="905.1758" y2="986.4258"/><line style="stroke:#181818;stroke-width:6.25;" x1="1654.8584" x2="1911.1084" y1="986.4258" y2="986.4258"/><polygon fill="#181818" points="1717.3584,961.4258,1654.8584,986.4258,1717.3584,1011.4258" style="stroke:#181818;stroke-width:6.25;"/><text fill="#000000" font-family="sans-serif" font-size="81.25" lengthAdjust="spacing" textLength="888.6719" x="1692.3584" y="873.5138">parse(actionProposal)</text><line style="stroke:#181818;stroke-width:6.25;" x1="1648.6084" x2="1911.1084" y1="1168.5059" y2="1168.5059"/><line style="stroke:#181818;stroke-width:6.25;" x1="1911.1084" x2="1911.1084" y1="1168.5059" y2="1249.7559"/><line style="stroke:#181818;stroke-width:6.25;" x1="1654.8584" x2="1911.1084" y1="1249.7559" y2="1249.7559"/><polygon fill="#181818" points="1717.3584,1224.7559,1654.8584,1249.7559,1717.3584,1274.7559" style="stroke:#181818;stroke-width:6.25;"/><text fill="#000000" font-family="sans-serif" font-size="81.25" lengthAdjust="spacing" textLength="1460.437" x="1692.3584" y="1136.8439">createAction(actionProposal):Action</text><polygon fill="#181818" points="5175.0275,1425.5859,5237.5275,1450.5859,5175.0275,1475.5859" style="stroke:#181818;stroke-width:6.25;"/><line style="stroke:#181818;stroke-width:6.25;" x1="1648.6084" x2="5212.5275" y1="1450.5859" y2="1450.5859"/><text fill="#000000" font-family="sans-serif" font-size="81.25" lengthAdjust="spacing" textLength="2293.1305" x="1692.3584" y="1418.924">put(action,visibility=Sending registry, status=Proposed)</text><path d="M5281.25,1331.0059 L5281.25,1487.2559 L6512.5,1487.2559 L6512.5,1393.5059 L6450,1331.0059 L5281.25,1331.0059 " fill="#FEFFDD" style="stroke:#181818;stroke-width:3.125;"/><path d="M6450,1331.0059 L6450,1393.5059 L6512.5,1393.5059 L6450,1331.0059 " fill="#FEFFDD" style="stroke:#181818;stroke-width:3.125;"/><text fill="#000000" font-family="sans-serif" font-size="81.25" lengthAdjust="spacing" textLength="1105.722" x="5318.75" y="1437.674">Action Status == Proposed</text><line style="stroke:#181818;stroke-width:6.25;" x1="1648.6084" x2="1911.1084" y1="1651.416" y2="1651.416"/><line style="stroke:#181818;stroke-width:6.25;" x1="1911.1084" x2="1911.1084" y1="1651.416" y2="1732.666"/><line style="stroke:#181818;stroke-width:6.25;" x1="1654.8584" x2="1911.1084" y1="1732.666" y2="1732.666"/><polygon fill="#181818" points="1717.3584,1707.666,1654.8584,1732.666,1717.3584,1757.666" style="stroke:#181818;stroke-width:6.25;"/><text fill="#000000" font-family="sans-serif" font-size="81.25" lengthAdjust="spacing" textLength="987.8143" x="1692.3584" y="1619.754">validateProposal(action)</text><line style="stroke:#181818;stroke-width:6.25;" x1="1648.6084" x2="1911.1084" y1="1914.7461" y2="1914.7461"/><line style="stroke:#181818;stroke-width:6.25;" x1="1911.1084" x2="1911.1084" y1="1914.7461" y2="1995.9961"/><line style="stroke:#181818;stroke-width:6.25;" x1="1654.8584" x2="1911.1084" y1="1995.9961" y2="1995.9961"/><polygon fill="#181818" points="1717.3584,1970.9961,1654.8584,1995.9961,1717.3584,2020.9961" style="stroke:#181818;stroke-width:6.25;"/><text fill="#000000" font-family="sans-serif" font-size="81.25" lengthAdjust="spacing" textLength="1605.0446" x="1692.3584" y="1883.0841">splitAndLock(getItmos(action.actionId))</text><polygon fill="#181818" points="5175.0275,2171.8262,5237.5275,2196.8262,5175.0275,2221.8262" style="stroke:#181818;stroke-width:6.25;"/><line style="stroke:#181818;stroke-width:6.25;" x1="1648.6084" x2="5212.5275" y1="2196.8262" y2="2196.8262"/><text fill="#000000" font-family="sans-serif" font-size="81.25" lengthAdjust="spacing" textLength="3451.4191" x="1692.3584" y="2165.1642">update(actionId, visibility=Sending Registry &amp; Receiving Registry, status=Validated)</text><path d="M5281.25,2077.2461 L5281.25,2233.4961 L6525,2233.4961 L6525,2139.7461 L6462.5,2077.2461 L5281.25,2077.2461 " fill="#FEFFDD" style="stroke:#181818;stroke-width:3.125;"/><path d="M6462.5,2077.2461 L6462.5,2139.7461 L6525,2139.7461 L6462.5,2077.2461 " fill="#FEFFDD" style="stroke:#181818;stroke-width:3.125;"/><text fill="#000000" font-family="sans-serif" font-size="81.25" lengthAdjust="spacing" textLength="1113.736" x="5318.75" y="2183.9142">Action Status == Validated</text><polygon fill="#181818" points="321.5912,2416.4063,259.0912,2441.4063,321.5912,2466.4063" style="stroke:#181818;stroke-width:6.25;"/><line style="stroke:#181818;stroke-width:6.25;stroke-dasharray:2.0,2.0;" x1="284.0912" x2="1642.3584" y1="2441.4063" y2="2441.4063"/><text fill="#000000" font-family="sans-serif" font-size="81.25" lengthAdjust="spacing" textLength="496.0693" x="359.0912" y="2409.7443">OK: actionId</text><polygon fill="#181818" points="5318.7775,2711.8164,5256.2775,2736.8164,5318.7775,2761.8164" style="stroke:#181818;stroke-width:6.25;"/><line style="stroke:#181818;stroke-width:6.25;" x1="5281.2775" x2="6640.2191" y1="2736.8164" y2="2736.8164"/><text fill="#000000" font-family="sans-serif" font-size="81.25" lengthAdjust="spacing" textLength="1246.4417" x="5356.2775" y="2705.1544">getOngoingActions(): [actions]</text><path d="M6675,2522.6563 L6675,2866.4063 L8412.5,2866.4063 L8412.5,2585.1563 L8350,2522.6563 L6675,2522.6563 " fill="#FEFFDD" style="stroke:#181818;stroke-width:3.125;"/><path d="M8350,2522.6563 L8350,2585.1563 L8412.5,2585.1563 L8350,2522.6563 " fill="#FEFFDD" style="stroke:#181818;stroke-width:3.125;"/><text fill="#000000" font-family="sans-serif" font-size="81.25" lengthAdjust="spacing" textLength="1137.5" x="6712.5" y="2629.3243">Returns an array containing</text><text fill="#000000" font-family="sans-serif" font-size="81.25" lengthAdjust="spacing" textLength="1611.2335" x="6712.5" y="2723.9044">all ongoing (ie not yet finalized) actions</text><text fill="#000000" font-family="sans-serif" font-size="81.25" lengthAdjust="spacing" textLength="1356.0974" x="6712.5" y="2818.4845">with visibility incl. calling registry</text><line style="stroke:#181818;stroke-width:6.25;" x1="6646.4691" x2="6908.9691" y1="3032.2266" y2="3032.2266"/><line style="stroke:#181818;stroke-width:6.25;" x1="6908.9691" x2="6908.9691" y1="3032.2266" y2="3113.4766"/><line style="stroke:#181818;stroke-width:6.25;" x1="6652.7191" x2="6908.9691" y1="3113.4766" y2="3113.4766"/><polygon fill="#181818" points="6715.2191,3088.4766,6652.7191,3113.4766,6715.2191,3138.4766" style="stroke:#181818;stroke-width:6.25;"/><text fill="#000000" font-family="sans-serif" font-size="81.25" lengthAdjust="spacing" textLength="1200.6195" x="6690.2191" y="3000.5646">AcceptOrRejectAction(action)</text><polygon fill="#181818" points="1717.3584,3336.5967,1654.8584,3361.5967,1717.3584,3386.5967" style="stroke:#181818;stroke-width:6.25;"/><line style="stroke:#181818;stroke-width:6.25;" x1="1679.8584" x2="6640.2191" y1="3361.5967" y2="3361.5967"/><text fill="#000000" font-family="sans-serif" font-size="81.25" lengthAdjust="spacing" textLength="1234.4208" x="1754.8584" y="3329.9347">processAction(actionId,status)</text><path d="M631.25,3194.7266 L631.25,3444.7266 L1612.5,3444.7266 L1612.5,3257.2266 L1550,3194.7266 L631.25,3194.7266 " fill="#FEFFDD" style="stroke:#181818;stroke-width:3.125;"/><path d="M1550,3194.7266 L1550,3257.2266 L1612.5,3257.2266 L1550,3194.7266 " fill="#FEFFDD" style="stroke:#181818;stroke-width:3.125;"/><text fill="#000000" font-family="sans-serif" font-size="81.25" lengthAdjust="spacing" textLength="349.5575" x="668.75" y="3301.3947">status in</text><text fill="#000000" font-family="sans-serif" font-size="81.25" lengthAdjust="spacing" textLength="852.0538" x="668.75" y="3395.9747">[Accepted, Rejected]</text><path d="M1453.9612,3521.3867 L2827.6428,3521.3867 L2827.6428,3565.9668 L2765.1428,3628.4668 L1453.9612,3628.4668 L1453.9612,3521.3867 " fill="#EEEEEE" style="stroke:#000000;stroke-width:9.375;"/><rect fill="transparent" height="853.3203" style="stroke:#000000;stroke-width:9.375;" width="5600.8667" x="1453.9612" y="3521.3867"/><text fill="#000000" font-family="sans-serif" font-size="81.25" font-weight="bold" lengthAdjust="spacing" textLength="1092.4316" x="1547.7112" y="3603.0548">Transaction Boundary 2</text><line style="stroke:#181818;stroke-width:6.25;" x1="1648.6084" x2="1911.1084" y1="3760.5469" y2="3760.5469"/><line style="stroke:#181818;stroke-width:6.25;" x1="1911.1084" x2="1911.1084" y1="3760.5469" y2="3841.7969"/><line style="stroke:#181818;stroke-width:6.25;" x1="1654.8584" x2="1911.1084" y1="3841.7969" y2="3841.7969"/><polygon fill="#181818" points="1717.3584,3816.7969,1654.8584,3841.7969,1717.3584,3866.7969" style="stroke:#181818;stroke-width:6.25;"/><text fill="#000000" font-family="sans-serif" font-size="81.25" lengthAdjust="spacing" textLength="290.4846" x="1692.3584" y="3728.8849">parse()</text><line style="stroke:#181818;stroke-width:6.25;" x1="1648.6084" x2="1911.1084" y1="4023.877" y2="4023.877"/><line style="stroke:#181818;stroke-width:6.25;" x1="1911.1084" x2="1911.1084" y1="4023.877" y2="4105.127"/><line style="stroke:#181818;stroke-width:6.25;" x1="1654.8584" x2="1911.1084" y1="4105.127" y2="4105.127"/><polygon fill="#181818" points="1717.3584,4080.127,1654.8584,4105.127,1717.3584,4130.127" style="stroke:#181818;stroke-width:6.25;"/><text fill="#000000" font-family="sans-serif" font-size="81.25" lengthAdjust="spacing" textLength="956.9489" x="1692.3584" y="3992.215">validateProcessAction()</text><path d="M2719.4489,3944.9219 L2719.4489,4101.1719 L5406.9489,4101.1719 L5406.9489,4007.4219 L5344.4489,3944.9219 L2719.4489,3944.9219 " fill="#FEFFDD" style="stroke:#181818;stroke-width:3.125;"/><path d="M5344.4489,3944.9219 L5344.4489,4007.4219 L5406.9489,4007.4219 L5344.4489,3944.9219 " fill="#FEFFDD" style="stroke:#181818;stroke-width:3.125;"/><text fill="#000000" font-family="sans-serif" font-size="81.25" lengthAdjust="spacing" textLength="2561.0016" x="2756.9489" y="4051.59">Only the receiving registry can accept or reject the action, etc.</text><polygon fill="#181818" points="5175.0275,4280.957,5237.5275,4305.957,5175.0275,4330.957" style="stroke:#181818;stroke-width:6.25;"/><line style="stroke:#181818;stroke-width:6.25;" x1="1648.6084" x2="5212.5275" y1="4305.957" y2="4305.957"/><text fill="#000000" font-family="sans-serif" font-size="81.25" lengthAdjust="spacing" textLength="976.6266" x="1692.3584" y="4274.295">update(actionId, status)</text><path d="M5281.25,4186.377 L5281.25,4342.627 L6956.25,4342.627 L6956.25,4248.877 L6893.75,4186.377 L5281.25,4186.377 " fill="#FEFFDD" style="stroke:#181818;stroke-width:3.125;"/><path d="M6893.75,4186.377 L6893.75,4248.877 L6956.25,4248.877 L6893.75,4186.377 " fill="#FEFFDD" style="stroke:#181818;stroke-width:3.125;"/><text fill="#000000" font-family="sans-serif" font-size="81.25" lengthAdjust="spacing" textLength="1548.5504" x="5318.75" y="4293.045">Action Status==Accepted or Rejected</text><polygon fill="#181818" points="6571.4691,4525.5371,6633.9691,4550.5371,6571.4691,4575.5371" style="stroke:#181818;stroke-width:6.25;"/><line style="stroke:#181818;stroke-width:6.25;stroke-dasharray:2.0,2.0;" x1="1648.6084" x2="6608.9691" y1="4550.5371" y2="4550.5371"/><text fill="#000000" font-family="sans-serif" font-size="81.25" lengthAdjust="spacing" textLength="117.2333" x="1692.3584" y="4518.8751">OK</text><polygon fill="#181818" points="5175.0275,4707.6172,5237.5275,4732.6172,5175.0275,4757.6172" style="stroke:#181818;stroke-width:6.25;"/><line style="stroke:#181818;stroke-width:6.25;" x1="252.8412" x2="5212.5275" y1="4732.6172" y2="4732.6172"/><text fill="#000000" font-family="sans-serif" font-size="81.25" lengthAdjust="spacing" textLength="1246.4417" x="296.5912" y="4700.9552">getOngoingActions(): [actions]</text><line style="stroke:#181818;stroke-width:6.25;" x1="252.8412" x2="515.3412" y1="4914.6973" y2="4914.6973"/><line style="stroke:#181818;stroke-width:6.25;" x1="515.3412" x2="515.3412" y1="4914.6973" y2="4995.9473"/><line style="stroke:#181818;stroke-width:6.25;" x1="259.0912" x2="515.3412" y1="4995.9473" y2="4995.9473"/><polygon fill="#181818" points="321.5912,4970.9473,259.0912,4995.9473,321.5912,5020.9473" style="stroke:#181818;stroke-width:6.25;"/><text fill="#000000" font-family="sans-serif" font-size="81.25" lengthAdjust="spacing" textLength="980.5939" x="296.5912" y="4883.0353">finalize(actionId, status)</text><polygon fill="#181818" points="1573.6084,5219.0674,1636.1084,5244.0674,1573.6084,5269.0674" style="stroke:#181818;stroke-width:6.25;"/><line style="stroke:#181818;stroke-width:6.25;" x1="252.8412" x2="1611.1084" y1="5244.0674" y2="5244.0674"/><text fill="#000000" font-family="sans-serif" font-size="81.25" lengthAdjust="spacing" textLength="1234.4208" x="296.5912" y="5212.4054">processAction(actionId,status)</text><path d="M1675,5077.1973 L1675,5327.1973 L4075,5327.1973 L4075,5139.6973 L4012.5,5077.1973 L1675,5077.1973 " fill="#FEFFDD" style="stroke:#181818;stroke-width:3.125;"/><path d="M4012.5,5077.1973 L4012.5,5139.6973 L4075,5139.6973 L4012.5,5077.1973 " fill="#FEFFDD" style="stroke:#181818;stroke-width:3.125;"/><text fill="#000000" font-family="sans-serif" font-size="81.25" lengthAdjust="spacing" textLength="2267.5018" x="1712.5" y="5183.8654">status=Completed if Accepted by the receiving registry</text><text fill="#000000" font-family="sans-serif" font-size="81.25" lengthAdjust="spacing" textLength="2270.993" x="1712.5" y="5278.4454">status=Terminated if Rejected by the receiving registry</text><path d="M1453.9612,5403.8574 L2827.6428,5403.8574 L2827.6428,5448.4375 L2765.1428,5510.9375 L1453.9612,5510.9375 L1453.9612,5403.8574 " fill="#EEEEEE" style="stroke:#000000;stroke-width:9.375;"/><rect fill="transparent" height="1342.4805" style="stroke:#000000;stroke-width:9.375;" width="4075.3967" x="1453.9612" y="5403.8574"/><text fill="#000000" font-family="sans-serif" font-size="81.25" font-weight="bold" lengthAdjust="spacing" textLength="1092.4316" x="1547.7112" y="5485.5255">Transaction Boundary 3</text><line style="stroke:#181818;stroke-width:6.25;" x1="1648.6084" x2="1911.1084" y1="5643.0176" y2="5643.0176"/><line style="stroke:#181818;stroke-width:6.25;" x1="1911.1084" x2="1911.1084" y1="5643.0176" y2="5724.2676"/><line style="stroke:#181818;stroke-width:6.25;" x1="1654.8584" x2="1911.1084" y1="5724.2676" y2="5724.2676"/><polygon fill="#181818" points="1717.3584,5699.2676,1654.8584,5724.2676,1717.3584,5749.2676" style="stroke:#181818;stroke-width:6.25;"/><text fill="#000000" font-family="sans-serif" font-size="81.25" lengthAdjust="spacing" textLength="290.4846" x="1692.3584" y="5611.3556">parse()</text><line style="stroke:#181818;stroke-width:6.25;" x1="1648.6084" x2="1911.1084" y1="5906.3477" y2="5906.3477"/><line style="stroke:#181818;stroke-width:6.25;" x1="1911.1084" x2="1911.1084" y1="5906.3477" y2="5987.5977"/><line style="stroke:#181818;stroke-width:6.25;" x1="1654.8584" x2="1911.1084" y1="5987.5977" y2="5987.5977"/><polygon fill="#181818" points="1717.3584,5962.5977,1654.8584,5987.5977,1717.3584,6012.5977" style="stroke:#181818;stroke-width:6.25;"/><text fill="#000000" font-family="sans-serif" font-size="81.25" lengthAdjust="spacing" textLength="853.4424" x="1692.3584" y="5874.6857">validateFinalization()</text><line style="stroke:#181818;stroke-width:6.25;" x1="1648.6084" x2="1911.1084" y1="6169.6777" y2="6169.6777"/><line style="stroke:#181818;stroke-width:6.25;" x1="1911.1084" x2="1911.1084" y1="6169.6777" y2="6250.9277"/><line style="stroke:#181818;stroke-width:6.25;" x1="1654.8584" x2="1911.1084" y1="6250.9277" y2="6250.9277"/><polygon fill="#181818" points="1717.3584,6225.9277,1654.8584,6250.9277,1717.3584,6275.9277" style="stroke:#181818;stroke-width:6.25;"/><text fill="#000000" font-family="sans-serif" font-size="81.25" lengthAdjust="spacing" textLength="980.5939" x="1692.3584" y="6138.0157">finalize(actionId, status)</text><polygon fill="#181818" points="5175.0275,6408.0078,5237.5275,6433.0078,5175.0275,6458.0078" style="stroke:#181818;stroke-width:6.25;"/><line style="stroke:#181818;stroke-width:6.25;" x1="1648.6084" x2="5212.5275" y1="6433.0078" y2="6433.0078"/><text fill="#000000" font-family="sans-serif" font-size="81.25" lengthAdjust="spacing" textLength="976.6266" x="1692.3584" y="6401.3458">update(actionId, status)</text><line style="stroke:#181818;stroke-width:6.25;" x1="1648.6084" x2="1911.1084" y1="6615.0879" y2="6615.0879"/><line style="stroke:#181818;stroke-width:6.25;" x1="1911.1084" x2="1911.1084" y1="6615.0879" y2="6696.3379"/><line style="stroke:#181818;stroke-width:6.25;" x1="1654.8584" x2="1911.1084" y1="6696.3379" y2="6696.3379"/><polygon fill="#181818" points="1717.3584,6671.3379,1654.8584,6696.3379,1717.3584,6721.3379" style="stroke:#181818;stroke-width:6.25;"/><text fill="#000000" font-family="sans-serif" font-size="81.25" lengthAdjust="spacing" textLength="1079.8553" x="1692.3584" y="6583.4259">unlock(getItmos(actionId))</text><path d="M2842.3553,6536.1328 L2842.3553,6692.3828 L4692.3553,6692.3828 L4692.3553,6598.6328 L4629.8553,6536.1328 L2842.3553,6536.1328 " fill="#FEFFDD" style="stroke:#181818;stroke-width:3.125;"/><path d="M4629.8553,6536.1328 L4629.8553,6598.6328 L4692.3553,6598.6328 L4629.8553,6536.1328 " fill="#FEFFDD" style="stroke:#181818;stroke-width:3.125;"/><text fill="#000000" font-family="sans-serif" font-size="81.25" lengthAdjust="spacing" textLength="1724.1425" x="2879.8553" y="6642.8009">Action Status==Completed or Terminated</text><polygon fill="#181818" points="321.5912,6897.168,259.0912,6922.168,321.5912,6947.168" style="stroke:#181818;stroke-width:6.25;"/><line style="stroke:#181818;stroke-width:6.25;stroke-dasharray:2.0,2.0;" x1="284.0912" x2="1642.3584" y1="6922.168" y2="6922.168"/><text fill="#000000" font-family="sans-serif" font-size="81.25" lengthAdjust="spacing" textLength="117.2333" x="359.0912" y="6890.506">OK</text><!--SRC=[ZLJBRjim4BppAnO-51QG66aBz2101T82HOqKSEC4lIGvqDBQPaEJ0acvLR- -Iv6IBCTMSj63tCVCx93sMQYI6xu3wsg9z3GYTzLECjlj5AM0JrTNZD6l4xaekN8mkKDL2BLvL0OtWjBg2N0BVXKDOolz5oPpvT0exeHMN48Nnm06bRvNgoQNthILQoanzpaM9jVXezc-PLGRgF0Ha2NcAFOleOHr3oQ0WilFlWMaK1fTQekX-9Gthv_D6fS9OnkZgnBk3LSsxC4NNQc2cnhU4q1V8vHAFG-BBoeCOtA3t9rfbeRbFkEMQbOkXbtiXHKh8OMhioXtf-85ZOgxocQX5XQ-hT8EmOZDrgKGAiDT4mLP1ctW4Rmzbw8WW2scsFkOXIq9nhKgVkZyURf1DtSxRMFiBBpcHP8Cc5IbBpnjTo_W19zbv0Fle1jajzYH_1L1liwoYspSqeoIiGOIOGf6I65naqABYh7MA0rgiWUnMwYD9Y3HVjCaXOSGRvzOtvwmBD5LXfpA5N1ZU4tsLOuBvLdGDfSITAW5Ku4UEjJeO2teH8X_n2VYi1JyHxZjWKGWL2vda5EDmy4tl3o68V3ssqkIO-aMPec_wHmDV9SCKhh3aAErWpYQLH0-2Mmbhadhi4Imu54zX2v8Gmrzi7WQFJaVJfwSvBmP3q0T3tsXP0rkI_-TOrfrI2wQH8CDjA5bZws9ZKSAqEMpSPUsr4USbcKjVz-bLU30SbJ-SZ2LnStXFVG6c_N1yIljN7C2wuahxjMfjXwEP-ohtfKIFIMnXexUwfpIVU8zcXqXYvcj62EPlOD73FDnO0quxHZeBVCjYCCxnmoYHgHxenSERLefUU8QZFVVY6bwYSarlMn3tnpTLEm_]--></g></svg>