<svg xmlns="http://www.w3.org/2000/svg" xmlns:xlink="http://www.w3.org/1999/xlink" contentStyleType="text/css" data-diagram-type="SEQUENCE" height="1084.375px" preserveAspectRatio="none" style="width:1437px;height:1084px;background:#FFFFFF;" version="1.1" viewBox="0 0 1437 1084" width="1437.5px" zoomAndPan="magnify"><defs><filter height="300%" id="fbgecg0hnoznx" width="300%" x="-1" y="-1"><feGaussianBlur result="blurOut" stdDeviation="6.25"/><feColorMatrix in="blurOut" result="blurOut2" type="matrix" values="0 0 0 0 0 0 0 0 0 0 0 0 0 0 0 0 0 0 .4 0"/><feOffset dx="12.5" dy="12.5" in="blurOut2" result="blurOut3"/><feBlend in="SourceGraphic" in2="blurOut3" mode="normal"/></filter></defs><g><rect fill="transparent" filter="url(#fbgecg0hnoznx)" height="652.9053" style="stroke:#000000;stroke-width:4.6875;" width="1370.9579" x="31.25" y="358.0078"/><rect fill="transparent" filter="url(#fbgecg0hnoznx)" height="144.5801" style="stroke:#000000;stroke-width:4.6875;" width="1308.4579" x="62.5" y="656.1279"/><rect fill="transparent" filter="url(#fbgecg0hnoznx)" height="144.5801" style="stroke:#000000;stroke-width:4.6875;" width="1308.4579" x="62.5" y="844.458"/><g><title>Registry</title><rect fill="transparent" height="941.2354" width="25" x="198.3459" y="122.8027"/><line style="stroke:#181818;stroke-width:1.5625;stroke-dasharray:5.0,5.0;" x1="209.375" x2="209.375" y1="122.8027" y2="1064.0381"/></g><g><title>Interoperability Hub</title><rect fill="transparent" height="941.2354" width="25" x="1081.3828" y="122.8027"/><line style="stroke:#181818;stroke-width:1.5625;stroke-dasharray:5.0,5.0;" x1="1091.8076" x2="1091.8076" y1="122.8027" y2="1064.0381"/></g><rect fill="#E3E3E3" filter="url(#fbgecg0hnoznx)" height="94.6777" rx="7.8125" ry="7.8125" style="stroke:#181818;stroke-width:1.5625;" width="224.8169" x="93.75" y="15.625"/><text fill="#000000" font-family="sans-serif" font-size="43.75" lengthAdjust="spacing" textLength="181.0669" x="115.625" y="78.1097">Registry</text><rect fill="#E3E3E3" filter="url(#fbgecg0hnoznx)" height="94.6777" rx="7.8125" ry="7.8125" style="stroke:#181818;stroke-width:1.5625;" width="482.2754" x="848.0576" y="15.625"/><text fill="#000000" font-family="sans-serif" font-size="43.75" lengthAdjust="spacing" textLength="438.5254" x="869.9326" y="78.1097">Interoperability Hub</text><polygon fill="#181818" points="1056.3828,207.5928,1087.6328,220.0928,1056.3828,232.5928,1068.8828,220.0928" style="stroke:#181818;stroke-width:3.125;"/><line style="stroke:#181818;stroke-width:3.125;" x1="210.8459" x2="1075.1328" y1="220.0928" y2="220.0928"/><text fill="#000000" font-family="sans-serif" font-size="40.625" lengthAdjust="spacing" textLength="719.5068" x="292.6109" y="204.2618">POST /AEFExport?start=t1&amp;end=t2</text><line style="stroke:#181818;stroke-width:3.125;" x1="213.9709" x2="245.2209" y1="311.1328" y2="298.6328"/><line style="stroke:#181818;stroke-width:3.125;" x1="213.9709" x2="245.2209" y1="311.1328" y2="323.6328"/><line style="stroke:#181818;stroke-width:3.125;stroke-dasharray:2.0,2.0;" x1="210.8459" x2="1090.7578" y1="311.1328" y2="311.1328"/><text fill="#000000" font-family="sans-serif" font-size="40.625" lengthAdjust="spacing" textLength="521.8765" x="391.4261" y="295.3018">AEF Export Identifier (OK)</text><path d="M31.25,358.0078 L270.7001,358.0078 L270.7001,380.2979 L239.4501,411.5479 L31.25,411.5479 L31.25,358.0078 " fill="#EEEEEE" style="stroke:#000000;stroke-width:4.6875;"/><rect fill="transparent" height="652.9053" style="stroke:#000000;stroke-width:4.6875;" width="1370.9579" x="31.25" y="358.0078"/><text fill="#000000" font-family="sans-serif" font-size="40.625" font-weight="bold" lengthAdjust="spacing" textLength="98.8251" x="78.125" y="398.8419">loop</text><text fill="#000000" font-family="sans-serif" font-size="34.375" font-weight="bold" lengthAdjust="spacing" textLength="618.129" x="317.5751" y="396.1655">[Until AEF Export File available]</text><line style="stroke:#181818;stroke-width:3.125;" x1="210.8459" x2="342.0959" y1="477.5879" y2="477.5879"/><line style="stroke:#181818;stroke-width:3.125;" x1="342.0959" x2="342.0959" y1="477.5879" y2="518.2129"/><line style="stroke:#181818;stroke-width:3.125;" x1="213.9709" x2="342.0959" y1="518.2129" y2="518.2129"/><polygon fill="#181818" points="245.2209,505.7129,213.9709,518.2129,245.2209,530.7129,232.7209,518.2129" style="stroke:#181818;stroke-width:3.125;"/><text fill="#000000" font-family="sans-serif" font-size="40.625" lengthAdjust="spacing" textLength="335.8505" x="232.7209" y="461.7569">Wait 60 seconds</text><polygon fill="#181818" points="1056.3828,596.7529,1087.6328,609.2529,1056.3828,621.7529,1068.8828,609.2529" style="stroke:#181818;stroke-width:3.125;"/><line style="stroke:#181818;stroke-width:3.125;" x1="210.8459" x2="1075.1328" y1="609.2529" y2="609.2529"/><text fill="#000000" font-family="sans-serif" font-size="40.625" lengthAdjust="spacing" textLength="808.0368" x="248.3459" y="593.4219">GET /AEFExport?id=&lt;Export Identifier&gt;</text><path d="M62.5,656.1279 L279.5349,656.1279 L279.5349,678.418 L248.2849,709.668 L62.5,709.668 L62.5,656.1279 " fill="#EEEEEE" style="stroke:#000000;stroke-width:4.6875;"/><rect fill="transparent" height="144.5801" style="stroke:#000000;stroke-width:4.6875;" width="1308.4579" x="62.5" y="656.1279"/><text fill="#000000" font-family="sans-serif" font-size="40.625" font-weight="bold" lengthAdjust="spacing" textLength="76.4099" x="109.375" y="696.962">opt</text><text fill="#000000" font-family="sans-serif" font-size="34.375" font-weight="bold" lengthAdjust="spacing" textLength="570.3262" x="326.4099" y="694.2856">[Export file not yet available]</text><line style="stroke:#181818;stroke-width:3.125;" x1="213.9709" x2="245.2209" y1="775.708" y2="763.208"/><line style="stroke:#181818;stroke-width:3.125;" x1="213.9709" x2="245.2209" y1="775.708" y2="788.208"/><line style="stroke:#181818;stroke-width:3.125;stroke-dasharray:2.0,2.0;" x1="210.8459" x2="1090.7578" y1="775.708" y2="775.708"/><text fill="#000000" font-family="sans-serif" font-size="40.625" lengthAdjust="spacing" textLength="373.5794" x="465.5746" y="759.877">Not Available (OK)</text><path d="M62.5,844.458 L279.5349,844.458 L279.5349,866.748 L248.2849,897.998 L62.5,897.998 L62.5,844.458 " fill="#EEEEEE" style="stroke:#000000;stroke-width:4.6875;"/><rect fill="transparent" height="144.5801" style="stroke:#000000;stroke-width:4.6875;" width="1308.4579" x="62.5" y="844.458"/><text fill="#000000" font-family="sans-serif" font-size="40.625" font-weight="bold" lengthAdjust="spacing" textLength="76.4099" x="109.375" y="885.2921">opt</text><text fill="#000000" font-family="sans-serif" font-size="34.375" font-weight="bold" lengthAdjust="spacing" textLength="632.4295" x="326.4099" y="882.6157">[Export file has been generated]</text><line style="stroke:#181818;stroke-width:3.125;" x1="213.9709" x2="245.2209" y1="964.0381" y2="951.5381"/><line style="stroke:#181818;stroke-width:3.125;" x1="213.9709" x2="245.2209" y1="964.0381" y2="976.5381"/><line style="stroke:#181818;stroke-width:3.125;stroke-dasharray:2.0,2.0;" x1="210.8459" x2="1090.7578" y1="964.0381" y2="964.0381"/><text fill="#000000" font-family="sans-serif" font-size="40.625" lengthAdjust="spacing" textLength="396.8872" x="453.9207" y="948.2071">AEF ExportFile (OK)</text><!--SRC=[RP1FJm8n4CNl_HGJ3aOF6rTDF11Pmm6K6CNu9vwxss4xSUdKTb3uzdPP4H2RzDBtwtlp9hwJypheEHXFS97dAlw-pDbnPGFF4IGiS4U9LXl-8bTtWh9a46RCKl9o5yEF1ReAxp56NUEmeTf1XKumA9KGeOgyTWAz9wmfIbZrG4S8-zgavTbZq2Kr92kuNPHhpYeL82l0zk5n-lm2fyFHUBJq7EGwId8OoDaHEZEGSsKXoue2GXyI0nq44vD6eHbXWEFftObI3RE7r_JMx69ZQX3qfwP6bmqgI2TaHR9wqoHmcQUQ5JiJE-Lde9lHtZna1bS7gSNw1tlP9CtQ9CS2AvG_YG3R2W-966xKRlGMI5N_DRHfLIMYWnfTMgAWEN3SjbsNtRDixpS0]--></g></svg>