<svg xmlns="http://www.w3.org/2000/svg" xmlns:xlink="http://www.w3.org/1999/xlink" contentStyleType="text/css" data-diagram-type="SEQUENCE" height="822px" preserveAspectRatio="none" style="width:844px;height:822px;background:#FFFFFF;" version="1.1" viewBox="0 0 844 822" width="844px" zoomAndPan="magnify"><title>All Actions - Invalid Proposal</title><defs/><g><text fill="#000000" font-family="sans-serif" font-size="14" font-weight="bold" lengthAdjust="spacing" textLength="226.6523" x="312.9856" y="27.9951">All Actions - Invalid Proposal</text><g><title>Sending</title><rect fill="#FFFFFF" height="96.2656" style="stroke:#181818;stroke-width:1;" width="10" x="35.4546" y="99.8906"/></g><g><title>Sending</title><rect fill="#FFFFFF" height="320.6953" style="stroke:#181818;stroke-width:1;" width="10" x="35.4546" y="347.3203"/></g><g><title>Sending</title><rect fill="#FFFFFF" height="193.5313" style="stroke:#181818;stroke-width:1;" width="10" x="40.4546" y="474.4844"/></g><g><title>Interoperability</title><rect fill="#FFFFFF" height="30" style="stroke:#181818;stroke-width:1;" width="10" x="348.8872" y="166.1563"/></g><g><title>Interoperability</title><rect fill="#FFFFFF" height="109.0313" style="stroke:#181818;stroke-width:1;" width="10" x="348.8872" y="236.2891"/></g><g><title>Interoperability</title><rect fill="#FFFFFF" height="29.1328" style="stroke:#181818;stroke-width:1;" width="10" x="348.8872" y="408.2188"/></g><g><title>Interoperability</title><rect fill="#FFFFFF" height="152.3984" style="stroke:#181818;stroke-width:1;" width="10" x="348.8872" y="638.0156"/></g><g><title>Sending</title><rect fill="transparent" height="725.5234" width="8" x="36.4546" y="89.8906"/><line style="stroke:#181818;stroke-width:0.5;stroke-dasharray:5.0,5.0;" x1="40" x2="40" y1="89.8906" y2="815.4141"/></g><g><title>Interoperability</title><rect fill="transparent" height="725.5234" width="8" x="349.8872" y="89.8906"/><line style="stroke:#181818;stroke-width:0.5;stroke-dasharray:5.0,5.0;" x1="353.0918" x2="353.0918" y1="89.8906" y2="815.4141"/></g><rect fill="#E2E2F0" height="46.5938" rx="2.5" ry="2.5" style="stroke:#181818;stroke-width:0.5;" width="70.9092" x="5" y="42.2969"/><text fill="#000000" font-family="sans-serif" font-size="14" lengthAdjust="spacing" textLength="56.9092" x="12" y="62.292">Sending</text><text fill="#000000" font-family="sans-serif" font-size="14" lengthAdjust="spacing" textLength="53.9697" x="13.4697" y="78.5889">registry</text><rect fill="#E2E2F0" height="46.5938" rx="2.5" ry="2.5" style="stroke:#181818;stroke-width:0.5;" width="121.5908" x="293.0918" y="42.2969"/><text fill="#000000" font-family="sans-serif" font-size="14" lengthAdjust="spacing" textLength="107.5908" x="300.0918" y="62.292">Interoperability</text><text fill="#000000" font-family="sans-serif" font-size="14" lengthAdjust="spacing" textLength="28.2871" x="339.7437" y="78.5889">Hub</text><g><title>Sending</title><rect fill="#FFFFFF" height="96.2656" style="stroke:#181818;stroke-width:1;" width="10" x="35.4546" y="99.8906"/></g><g><title>Sending</title><rect fill="#FFFFFF" height="320.6953" style="stroke:#181818;stroke-width:1;" width="10" x="35.4546" y="347.3203"/></g><g><title>Sending</title><rect fill="#FFFFFF" height="193.5313" style="stroke:#181818;stroke-width:1;" width="10" x="40.4546" y="474.4844"/></g><g><title>Interoperability</title><rect fill="#FFFFFF" height="30" style="stroke:#181818;stroke-width:1;" width="10" x="348.8872" y="166.1563"/></g><g><title>Interoperability</title><rect fill="#FFFFFF" height="109.0313" style="stroke:#181818;stroke-width:1;" width="10" x="348.8872" y="236.2891"/></g><g><title>Interoperability</title><rect fill="#FFFFFF" height="29.1328" style="stroke:#181818;stroke-width:1;" width="10" x="348.8872" y="408.2188"/></g><g><title>Interoperability</title><rect fill="#FFFFFF" height="152.3984" style="stroke:#181818;stroke-width:1;" width="10" x="348.8872" y="638.0156"/></g><line style="stroke:#181818;stroke-width:1;" x1="45.4546" x2="87.4546" y1="121.0234" y2="121.0234"/><line style="stroke:#181818;stroke-width:1;" x1="87.4546" x2="87.4546" y1="121.0234" y2="134.0234"/><line style="stroke:#181818;stroke-width:1;" x1="46.4546" x2="87.4546" y1="134.0234" y2="134.0234"/><polygon fill="#181818" points="56.4546,130.0234,46.4546,134.0234,56.4546,138.0234" style="stroke:#181818;stroke-width:1;"/><text fill="#000000" font-family="sans-serif" font-size="13" lengthAdjust="spacing" textLength="123.2271" x="52.4546" y="115.9575">lockITMOs(iTMOID)</text><polygon fill="#181818" points="336.8872,162.1563,346.8872,166.1563,336.8872,170.1563" style="stroke:#181818;stroke-width:1;"/><line style="stroke:#181818;stroke-width:1;" x1="45.4546" x2="342.8872" y1="166.1563" y2="166.1563"/><text fill="#000000" font-family="sans-serif" font-size="13" lengthAdjust="spacing" textLength="199.3228" x="52.4546" y="161.0903">proposeAction(actionProposal)</text><path d="M363,147.0234 L363,172.0234 L555,172.0234 L555,157.0234 L545,147.0234 L363,147.0234 " fill="#FEFFDD" style="stroke:#181818;stroke-width:0.5;"/><path d="M545,147.0234 L545,157.0234 L555,157.0234 L545,147.0234 " fill="#FEFFDD" style="stroke:#181818;stroke-width:0.5;"/><text fill="#000000" font-family="sans-serif" font-size="13" lengthAdjust="spacing" textLength="171.8564" x="369" y="164.0903">actionStatus == Proposed</text><line style="stroke:#181818;stroke-width:1;" x1="353.8872" x2="400.8872" y1="223.2891" y2="223.2891"/><line style="stroke:#181818;stroke-width:1;" x1="400.8872" x2="400.8872" y1="223.2891" y2="236.2891"/><line style="stroke:#181818;stroke-width:1;" x1="359.8872" x2="400.8872" y1="236.2891" y2="236.2891"/><polygon fill="#181818" points="369.8872,232.2891,359.8872,236.2891,369.8872,240.2891" style="stroke:#181818;stroke-width:1;"/><text fill="#000000" font-family="sans-serif" font-size="13" lengthAdjust="spacing" textLength="172.0913" x="365.8872" y="218.2231">lockITMOs(actionProposal)</text><line style="stroke:#181818;stroke-width:1;" x1="358.8872" x2="400.8872" y1="270.4219" y2="270.4219"/><line style="stroke:#181818;stroke-width:1;" x1="400.8872" x2="400.8872" y1="270.4219" y2="283.4219"/><line style="stroke:#181818;stroke-width:1;" x1="359.8872" x2="400.8872" y1="283.4219" y2="283.4219"/><polygon fill="#181818" points="369.8872,279.4219,359.8872,283.4219,369.8872,287.4219" style="stroke:#181818;stroke-width:1;"/><text fill="#000000" font-family="sans-serif" font-size="13" lengthAdjust="spacing" textLength="213.7446" x="365.8872" y="265.356">validateProposal(actionProposal)</text><line style="stroke:#181818;stroke-width:1;" x1="358.8872" x2="400.8872" y1="344.3203" y2="344.3203"/><line style="stroke:#181818;stroke-width:1;" x1="400.8872" x2="400.8872" y1="344.3203" y2="357.3203"/><line style="stroke:#181818;stroke-width:1;" x1="353.8872" x2="400.8872" y1="357.3203" y2="357.3203"/><polygon fill="#181818" points="363.8872,353.3203,353.8872,357.3203,363.8872,361.3203" style="stroke:#181818;stroke-width:1;"/><text fill="#000000" font-family="sans-serif" font-size="13" lengthAdjust="spacing" textLength="218.8608" x="365.8872" y="339.2544">createNextAction(actionProposal)</text><path d="M605.8608,296.4219 L605.8608,381.4219 L810.8608,381.4219 L810.8608,306.4219 L800.8608,296.4219 L605.8608,296.4219 " fill="#FEFFDD" style="stroke:#181818;stroke-width:0.5;"/><path d="M800.8608,296.4219 L800.8608,306.4219 L810.8608,306.4219 L800.8608,296.4219 " fill="#FEFFDD" style="stroke:#181818;stroke-width:0.5;"/><text fill="#000000" font-family="sans-serif" font-size="13" lengthAdjust="spacing" textLength="184.0122" x="611.8608" y="313.4888">actionStatus == Invalidated</text><text fill="#000000" font-family="sans-serif" font-size="13" lengthAdjust="spacing" textLength="4.1323" x="611.8608" y="328.6216">&#160;</text><text fill="#000000" font-family="sans-serif" font-size="13" lengthAdjust="spacing" textLength="167.5908" x="611.8608" y="343.7544">(includes reason proposal</text><text fill="#000000" font-family="sans-serif" font-size="13" lengthAdjust="spacing" textLength="61.6357" x="611.8608" y="358.8872">is invalid,</text><text fill="#000000" font-family="sans-serif" font-size="13" lengthAdjust="spacing" textLength="110.4492" x="611.8608" y="374.02">logged in Action)</text><polygon fill="#181818" points="336.8872,404.2188,346.8872,408.2188,336.8872,412.2188" style="stroke:#181818;stroke-width:1;"/><line style="stroke:#181818;stroke-width:1;" x1="45.4546" x2="342.8872" y1="408.2188" y2="408.2188"/><text fill="#000000" font-family="sans-serif" font-size="13" lengthAdjust="spacing" textLength="183.7329" x="52.4546" y="403.1528">getPendingActions():Actions</text><polygon fill="#181818" points="56.4546,433.3516,46.4546,437.3516,56.4546,441.3516" style="stroke:#181818;stroke-width:1;"/><line style="stroke:#181818;stroke-width:1;stroke-dasharray:2.0,2.0;" x1="50.4546" x2="352.8872" y1="437.3516" y2="437.3516"/><text fill="#000000" font-family="sans-serif" font-size="13" font-style="italic" lengthAdjust="spacing" textLength="46.7886" x="62.4546" y="432.2856">actions</text><line style="stroke:#181818;stroke-width:1;" x1="45.4546" x2="92.4546" y1="461.4844" y2="461.4844"/><line style="stroke:#181818;stroke-width:1;" x1="92.4546" x2="92.4546" y1="461.4844" y2="474.4844"/><line style="stroke:#181818;stroke-width:1;" x1="51.4546" x2="92.4546" y1="474.4844" y2="474.4844"/><polygon fill="#181818" points="61.4546,470.4844,51.4546,474.4844,61.4546,478.4844" style="stroke:#181818;stroke-width:1;"/><text fill="#000000" font-family="sans-serif" font-size="13" lengthAdjust="spacing" textLength="207.3208" x="57.4546" y="456.4185">processPendingActions(actions)</text><line style="stroke:#181818;stroke-width:1;" x1="50.4546" x2="92.4546" y1="508.6172" y2="508.6172"/><line style="stroke:#181818;stroke-width:1;" x1="92.4546" x2="92.4546" y1="508.6172" y2="521.6172"/><line style="stroke:#181818;stroke-width:1;" x1="51.4546" x2="92.4546" y1="521.6172" y2="521.6172"/><polygon fill="#181818" points="61.4546,517.6172,51.4546,521.6172,61.4546,525.6172" style="stroke:#181818;stroke-width:1;"/><text fill="#000000" font-family="sans-serif" font-size="13" lengthAdjust="spacing" textLength="269.4326" x="57.4546" y="503.5513">processActionStatusAndWarnings(action)</text><path d="M353.4326,495.9844 L353.4326,520.9844 L558.4326,520.9844 L558.4326,505.9844 L548.4326,495.9844 L353.4326,495.9844 " fill="#FEFFDD" style="stroke:#181818;stroke-width:0.5;"/><path d="M548.4326,495.9844 L548.4326,505.9844 L558.4326,505.9844 L548.4326,495.9844 " fill="#FEFFDD" style="stroke:#181818;stroke-width:0.5;"/><text fill="#000000" font-family="sans-serif" font-size="13" lengthAdjust="spacing" textLength="184.0122" x="359.4326" y="513.0513">actionStatus == Invalidated</text><line style="stroke:#181818;stroke-width:1;" x1="50.4546" x2="92.4546" y1="550.75" y2="550.75"/><line style="stroke:#181818;stroke-width:1;" x1="92.4546" x2="92.4546" y1="550.75" y2="563.75"/><line style="stroke:#181818;stroke-width:1;" x1="51.4546" x2="92.4546" y1="563.75" y2="563.75"/><polygon fill="#181818" points="61.4546,559.75,51.4546,563.75,61.4546,567.75" style="stroke:#181818;stroke-width:1;"/><text fill="#000000" font-family="sans-serif" font-size="13" lengthAdjust="spacing" textLength="141.3433" x="57.4546" y="545.6841">processAction(action)</text><line style="stroke:#181818;stroke-width:1;" x1="50.4546" x2="92.4546" y1="592.8828" y2="592.8828"/><line style="stroke:#181818;stroke-width:1;" x1="92.4546" x2="92.4546" y1="592.8828" y2="605.8828"/><line style="stroke:#181818;stroke-width:1;" x1="51.4546" x2="92.4546" y1="605.8828" y2="605.8828"/><polygon fill="#181818" points="61.4546,601.8828,51.4546,605.8828,61.4546,609.8828" style="stroke:#181818;stroke-width:1;"/><text fill="#000000" font-family="sans-serif" font-size="13" lengthAdjust="spacing" textLength="132.8755" x="57.4546" y="587.8169">unlockITMOs(action)</text><polygon fill="#181818" points="336.8872,634.0156,346.8872,638.0156,336.8872,642.0156" style="stroke:#181818;stroke-width:1;"/><line style="stroke:#181818;stroke-width:1;" x1="50.4546" x2="342.8872" y1="638.0156" y2="638.0156"/><text fill="#000000" font-family="sans-serif" font-size="13" lengthAdjust="spacing" textLength="243.1343" x="57.4546" y="632.9497">processAction(actionId, actionStatus)</text><path d="M363,618.8828 L363,643.8828 L570,643.8828 L570,628.8828 L560,618.8828 L363,618.8828 " fill="#FEFFDD" style="stroke:#181818;stroke-width:0.5;"/><path d="M560,618.8828 L560,628.8828 L570,628.8828 L560,618.8828 " fill="#FEFFDD" style="stroke:#181818;stroke-width:0.5;"/><text fill="#000000" font-family="sans-serif" font-size="13" lengthAdjust="spacing" textLength="186.6021" x="369" y="635.9497">actionStatus == Terminated</text><line style="stroke:#181818;stroke-width:1;" x1="358.8872" x2="400.8872" y1="700.1484" y2="700.1484"/><line style="stroke:#181818;stroke-width:1;" x1="400.8872" x2="400.8872" y1="700.1484" y2="713.1484"/><line style="stroke:#181818;stroke-width:1;" x1="359.8872" x2="400.8872" y1="713.1484" y2="713.1484"/><polygon fill="#181818" points="369.8872,709.1484,359.8872,713.1484,369.8872,717.1484" style="stroke:#181818;stroke-width:1;"/><text fill="#000000" font-family="sans-serif" font-size="13" lengthAdjust="spacing" textLength="294.9185" x="365.8872" y="695.0825">validateProcessAction(actionId, actionStatus)</text><line style="stroke:#181818;stroke-width:1;" x1="358.8872" x2="400.8872" y1="742.2813" y2="742.2813"/><line style="stroke:#181818;stroke-width:1;" x1="400.8872" x2="400.8872" y1="742.2813" y2="755.2813"/><line style="stroke:#181818;stroke-width:1;" x1="359.8872" x2="400.8872" y1="755.2813" y2="755.2813"/><polygon fill="#181818" points="369.8872,751.2813,359.8872,755.2813,369.8872,759.2813" style="stroke:#181818;stroke-width:1;"/><text fill="#000000" font-family="sans-serif" font-size="13" lengthAdjust="spacing" textLength="243.1343" x="365.8872" y="737.2153">processAction(actionId, actionStatus)</text><path d="M630.1343,729.6484 L630.1343,754.6484 L837.1343,754.6484 L837.1343,739.6484 L827.1343,729.6484 L630.1343,729.6484 " fill="#FEFFDD" style="stroke:#181818;stroke-width:0.5;"/><path d="M827.1343,729.6484 L827.1343,739.6484 L837.1343,739.6484 L827.1343,729.6484 " fill="#FEFFDD" style="stroke:#181818;stroke-width:0.5;"/><text fill="#000000" font-family="sans-serif" font-size="13" lengthAdjust="spacing" textLength="186.6021" x="636.1343" y="746.7153">actionStatus == Terminated</text><line style="stroke:#181818;stroke-width:1;" x1="358.8872" x2="400.8872" y1="789.4141" y2="789.4141"/><line style="stroke:#181818;stroke-width:1;" x1="400.8872" x2="400.8872" y1="789.4141" y2="802.4141"/><line style="stroke:#181818;stroke-width:1;" x1="353.8872" x2="400.8872" y1="802.4141" y2="802.4141"/><polygon fill="#181818" points="363.8872,798.4141,353.8872,802.4141,363.8872,806.4141" style="stroke:#181818;stroke-width:1;"/><text fill="#000000" font-family="sans-serif" font-size="13" lengthAdjust="spacing" textLength="144.9614" x="365.8872" y="784.3481">unlockITMOs(actionId)</text><!--SRC=[jLF1Ri8m3BttAwoTgA3YNer9I3kiXsr88EtIIsYipYAuA4dH-FkPDcob7R0T9bLrPRyyFxywdhn1c1i3yy9JnGuIo7Yl36bOs6fNEMMYo6s8TyggBJX_4BppbWfVRwKaQKy5xHHxk5iYQ-8oPuib2UXm1yh1COls79cnHw57gzPao1zoVghN3LfY52aHirSUJsVR0Cb3IAHWgcAJhPvVtOZadJt67OnGZCUGmguP0Dl9Hge9fw7YY2lXjrI- -nJQsj8hNpkOpSBeg2EDVIcTJ2CLZk6hQrTOls4NcKBZiR2SwbVXIP92OL7WB_ZXBmm4S6say5U5GkUSyuYuCBL61qBhAWvcAPCpEQ0MFCdPL6M9MX9XGOvjvEcx0Z2qlqI_Q1SYxDOeJiFND_u-ILe_fjDMiPjEfTfpkUavN0BHNA1plIw19xuXiqSox_WrP_scB0ldYUqFxaQtktH8XyYQ-oiKF1zu_3DhfYTdykBcw3NnAxHRuaRx4JhS-SlP2nlzIr7Tq_yoolaD6ZgRwJZw1000]--></g></svg>