<svg xmlns="http://www.w3.org/2000/svg" xmlns:xlink="http://www.w3.org/1999/xlink" contentStyleType="text/css" data-diagram-type="DESCRIPTION" height="856.25px" preserveAspectRatio="none" style="width:2946px;height:856px;background:#FFFFFF;" version="1.1" viewBox="0 0 2946 856" width="2946.875px" zoomAndPan="magnify"><defs><filter height="300%" id="fy93vxkhlcha1" width="300%" x="-1" y="-1"><feGaussianBlur result="blurOut" stdDeviation="6.25"/><feColorMatrix in="blurOut" result="blurOut2" type="matrix" values="0 0 0 0 0 0 0 0 0 0 0 0 0 0 0 0 0 0 .4 0"/><feOffset dx="12.5" dy="12.5" in="blurOut2" result="blurOut3"/><feBlend in="SourceGraphic" in2="blurOut3" mode="normal"/></filter></defs><g><!--cluster International Registry--><g id="cluster_International Registry"><polygon fill="transparent" filter="url(#fy93vxkhlcha1)" points="50,50,81.25,18.75,2893.75,18.75,2893.75,771.875,2862.5,803.125,50,803.125,50,50" style="stroke:#181818;stroke-width:3.125;"/><line style="stroke:#181818;stroke-width:3.125;" x1="2862.5" x2="2893.75" y1="50" y2="18.75"/><line style="stroke:#181818;stroke-width:3.125;" x1="50" x2="2862.5" y1="50" y2="50"/><line style="stroke:#181818;stroke-width:3.125;" x1="2862.5" x2="2862.5" y1="50" y2="803.125"/><text fill="#000000" font-family="sans-serif" font-size="43.75" font-weight="bold" lengthAdjust="spacing" textLength="543.8416" x="1187.4542" y="99.9847">International Registry</text></g><!--cluster h--><g id="cluster_h"><rect fill="transparent" filter="url(#fy93vxkhlcha1)" height="303.125" rx="7.8125" ry="7.8125" style="stroke:#181818;stroke-width:3.125;" width="1500" x="1318.75" y="168.75"/><rect fill="transparent" height="31.25" style="stroke:#181818;stroke-width:3.125;" width="46.875" x="2756.25" y="184.375"/><rect fill="transparent" height="6.25" style="stroke:#181818;stroke-width:3.125;" width="12.5" x="2750" y="190.625"/><rect fill="transparent" height="6.25" style="stroke:#181818;stroke-width:3.125;" width="12.5" x="2750" y="203.125"/><text fill="#000000" font-family="sans-serif" font-size="43.75" font-weight="bold" lengthAdjust="spacing" textLength="501.7792" x="1817.8604" y="249.9847">Interoperability Hub</text></g><!--entity rs2--><g id="elem_rs2"><rect fill="#F1F1F1" filter="url(#fy93vxkhlcha1)" height="144.6777" rx="7.8125" ry="7.8125" style="stroke:#181818;stroke-width:1.5625;" width="524.2615" x="100" y="278.125"/><rect fill="#F1F1F1" height="31.25" style="stroke:#181818;stroke-width:1.5625;" width="46.875" x="561.7615" y="293.75"/><rect fill="#F1F1F1" height="6.25" style="stroke:#181818;stroke-width:1.5625;" width="12.5" x="555.5115" y="300"/><rect fill="#F1F1F1" height="6.25" style="stroke:#181818;stroke-width:1.5625;" width="12.5" x="555.5115" y="312.5"/><text fill="#000000" font-family="sans-serif" font-size="43.75" lengthAdjust="spacing" textLength="399.2615" x="146.875" y="381.2347">Registry Section 1</text></g><!--entity rs1--><g id="elem_rs1"><rect fill="#F1F1F1" filter="url(#fy93vxkhlcha1)" height="144.6777" rx="7.8125" ry="7.8125" style="stroke:#181818;stroke-width:1.5625;" width="524.2615" x="734.375" y="278.125"/><rect fill="#F1F1F1" height="31.25" style="stroke:#181818;stroke-width:1.5625;" width="46.875" x="1196.1365" y="293.75"/><rect fill="#F1F1F1" height="6.25" style="stroke:#181818;stroke-width:1.5625;" width="12.5" x="1189.8865" y="300"/><rect fill="#F1F1F1" height="6.25" style="stroke:#181818;stroke-width:1.5625;" width="12.5" x="1189.8865" y="312.5"/><text fill="#000000" font-family="sans-serif" font-size="43.75" lengthAdjust="spacing" textLength="399.2615" x="781.25" y="381.2347">Registry Section 2</text></g><!--entity rs3--><g id="elem_rs3"><rect fill="#F1F1F1" filter="url(#fy93vxkhlcha1)" height="144.6777" rx="7.8125" ry="7.8125" style="stroke:#181818;stroke-width:1.5625;" width="524.2615" x="100" y="609.375"/><rect fill="#F1F1F1" height="31.25" style="stroke:#181818;stroke-width:1.5625;" width="46.875" x="561.7615" y="625"/><rect fill="#F1F1F1" height="6.25" style="stroke:#181818;stroke-width:1.5625;" width="12.5" x="555.5115" y="631.25"/><rect fill="#F1F1F1" height="6.25" style="stroke:#181818;stroke-width:1.5625;" width="12.5" x="555.5115" y="643.75"/><text fill="#000000" font-family="sans-serif" font-size="43.75" lengthAdjust="spacing" textLength="399.2615" x="146.875" y="712.4847">Registry Section 3</text></g><!--entity rsn--><g id="elem_rsn"><rect fill="#F1F1F1" filter="url(#fy93vxkhlcha1)" height="144.6777" rx="7.8125" ry="7.8125" style="stroke:#181818;stroke-width:1.5625;" width="538.147" x="734.375" y="609.375"/><rect fill="#F1F1F1" height="31.25" style="stroke:#181818;stroke-width:1.5625;" width="46.875" x="1210.022" y="625"/><rect fill="#F1F1F1" height="6.25" style="stroke:#181818;stroke-width:1.5625;" width="12.5" x="1203.772" y="631.25"/><rect fill="#F1F1F1" height="6.25" style="stroke:#181818;stroke-width:1.5625;" width="12.5" x="1203.772" y="643.75"/><text fill="#000000" font-family="sans-serif" font-size="43.75" lengthAdjust="spacing" textLength="413.147" x="781.25" y="712.4847">Registry Section ...</text></g><!--entity ca--><g id="elem_ca"><rect fill="#F1F1F1" filter="url(#fy93vxkhlcha1)" height="144.6777" rx="7.8125" ry="7.8125" style="stroke:#181818;stroke-width:1.5625;" width="568.6523" x="2200" y="278.125"/><rect fill="#F1F1F1" height="31.25" style="stroke:#181818;stroke-width:1.5625;" width="46.875" x="2706.1523" y="293.75"/><rect fill="#F1F1F1" height="6.25" style="stroke:#181818;stroke-width:1.5625;" width="12.5" x="2699.9023" y="300"/><rect fill="#F1F1F1" height="6.25" style="stroke:#181818;stroke-width:1.5625;" width="12.5" x="2699.9023" y="312.5"/><text fill="#000000" font-family="sans-serif" font-size="43.75" lengthAdjust="spacing" textLength="443.6523" x="2246.875" y="381.2347">Certificate Authority</text></g><!--entity ak--><g id="elem_ak"><rect fill="#F1F1F1" filter="url(#fy93vxkhlcha1)" height="144.6777" rx="7.8125" ry="7.8125" style="stroke:#181818;stroke-width:1.5625;" width="720.8374" x="1367.1875" y="278.125"/><rect fill="#F1F1F1" height="31.25" style="stroke:#181818;stroke-width:1.5625;" width="46.875" x="2025.5249" y="293.75"/><rect fill="#F1F1F1" height="6.25" style="stroke:#181818;stroke-width:1.5625;" width="12.5" x="2019.2749" y="300"/><rect fill="#F1F1F1" height="6.25" style="stroke:#181818;stroke-width:1.5625;" width="12.5" x="2019.2749" y="312.5"/><text fill="#000000" font-family="sans-serif" font-size="43.75" lengthAdjust="spacing" textLength="595.8374" x="1414.0625" y="381.2347">API Keys Management Tool</text></g><!--SRC=[VT1HQiCm303GVvz2v02XRKuGzhCo1cFh1LH7JKHjATWEMnYx-noJZT2F66EGz0IIuvrbn80Ukf6XEHnC_Czu5RL3K4-GmaIRIXomqq-M_h7GqGqdboxqbLh7lNYI13O_58mHxGYgyn889bP11-_KSqnXhk3RMFMZoj9H_QNXW-mYuLW1HWZnjAjEgphkgcPLpQwgwtfrOhQmpAyZ1RooupJ3ytGjSCWhG3uR-qGXyOqj9e9sIeE6t52mnKVRlftXXUO8hoZOK_cvYweh7E_cn-Jx2m00]--></g></svg>