<svg xmlns="http://www.w3.org/2000/svg" xmlns:xlink="http://www.w3.org/1999/xlink" contentStyleType="text/css" data-diagram-type="DESCRIPTION" height="856.25px" preserveAspectRatio="none" style="width:2256px;height:856px;background:#FFFFFF;" version="1.1" viewBox="0 0 2256 856" width="2256.25px" zoomAndPan="magnify"><defs><filter height="300%" id="f1ewcx1au825fm" width="300%" x="-1" y="-1"><feGaussianBlur result="blurOut" stdDeviation="6.25"/><feColorMatrix in="blurOut" result="blurOut2" type="matrix" values="0 0 0 0 0 0 0 0 0 0 0 0 0 0 0 0 0 0 .4 0"/><feOffset dx="12.5" dy="12.5" in="blurOut2" result="blurOut3"/><feBlend in="SourceGraphic" in2="blurOut3" mode="normal"/></filter></defs><g><!--cluster International Registry--><g id="cluster_International Registry"><polygon fill="transparent" filter="url(#f1ewcx1au825fm)" points="50,50,81.25,18.75,2203.125,18.75,2203.125,771.875,2171.875,803.125,50,803.125,50,50" style="stroke:#181818;stroke-width:3.125;"/><line style="stroke:#181818;stroke-width:3.125;" x1="2171.875" x2="2203.125" y1="50" y2="18.75"/><line style="stroke:#181818;stroke-width:3.125;" x1="50" x2="2171.875" y1="50" y2="50"/><line style="stroke:#181818;stroke-width:3.125;" x1="2171.875" x2="2171.875" y1="50" y2="803.125"/><text fill="#000000" font-family="sans-serif" font-size="43.75" font-weight="bold" lengthAdjust="spacing" textLength="543.8416" x="842.1417" y="99.9847">International Registry</text></g><!--cluster h--><g id="cluster_h"><rect fill="transparent" filter="url(#f1ewcx1au825fm)" height="303.125" rx="7.8125" ry="7.8125" style="stroke:#181818;stroke-width:3.125;" width="818.75" x="1309.375" y="168.75"/><rect fill="transparent" height="31.25" style="stroke:#181818;stroke-width:3.125;" width="46.875" x="2065.625" y="184.375"/><rect fill="transparent" height="6.25" style="stroke:#181818;stroke-width:3.125;" width="12.5" x="2059.375" y="190.625"/><rect fill="transparent" height="6.25" style="stroke:#181818;stroke-width:3.125;" width="12.5" x="2059.375" y="203.125"/><text fill="#000000" font-family="sans-serif" font-size="43.75" font-weight="bold" lengthAdjust="spacing" textLength="496.3104" x="1470.5948" y="249.9847">Interoperability hub</text></g><!--entity rs2--><g id="elem_rs2"><rect fill="#F1F1F1" filter="url(#f1ewcx1au825fm)" height="144.6777" rx="7.8125" ry="7.8125" style="stroke:#181818;stroke-width:1.5625;" width="519.2841" x="100" y="278.125"/><rect fill="#F1F1F1" height="31.25" style="stroke:#181818;stroke-width:1.5625;" width="46.875" x="556.7841" y="293.75"/><rect fill="#F1F1F1" height="6.25" style="stroke:#181818;stroke-width:1.5625;" width="12.5" x="550.5341" y="300"/><rect fill="#F1F1F1" height="6.25" style="stroke:#181818;stroke-width:1.5625;" width="12.5" x="550.5341" y="312.5"/><text fill="#000000" font-family="sans-serif" font-size="43.75" lengthAdjust="spacing" textLength="394.2841" x="146.875" y="381.2347">Registry section 1</text></g><!--entity rs1--><g id="elem_rs1"><rect fill="#F1F1F1" filter="url(#f1ewcx1au825fm)" height="144.6777" rx="7.8125" ry="7.8125" style="stroke:#181818;stroke-width:1.5625;" width="519.2841" x="728.125" y="278.125"/><rect fill="#F1F1F1" height="31.25" style="stroke:#181818;stroke-width:1.5625;" width="46.875" x="1184.9091" y="293.75"/><rect fill="#F1F1F1" height="6.25" style="stroke:#181818;stroke-width:1.5625;" width="12.5" x="1178.6591" y="300"/><rect fill="#F1F1F1" height="6.25" style="stroke:#181818;stroke-width:1.5625;" width="12.5" x="1178.6591" y="312.5"/><text fill="#000000" font-family="sans-serif" font-size="43.75" lengthAdjust="spacing" textLength="394.2841" x="775" y="381.2347">Registry section 2</text></g><!--entity rs3--><g id="elem_rs3"><rect fill="#F1F1F1" filter="url(#f1ewcx1au825fm)" height="144.6777" rx="7.8125" ry="7.8125" style="stroke:#181818;stroke-width:1.5625;" width="524.2615" x="100" y="609.375"/><rect fill="#F1F1F1" height="31.25" style="stroke:#181818;stroke-width:1.5625;" width="46.875" x="561.7615" y="625"/><rect fill="#F1F1F1" height="6.25" style="stroke:#181818;stroke-width:1.5625;" width="12.5" x="555.5115" y="631.25"/><rect fill="#F1F1F1" height="6.25" style="stroke:#181818;stroke-width:1.5625;" width="12.5" x="555.5115" y="643.75"/><text fill="#000000" font-family="sans-serif" font-size="43.75" lengthAdjust="spacing" textLength="399.2615" x="146.875" y="712.4847">Registry Section 3</text></g><!--entity rsn--><g id="elem_rsn"><rect fill="#F1F1F1" filter="url(#f1ewcx1au825fm)" height="144.6777" rx="7.8125" ry="7.8125" style="stroke:#181818;stroke-width:1.5625;" width="533.1696" x="735.9375" y="609.375"/><rect fill="#F1F1F1" height="31.25" style="stroke:#181818;stroke-width:1.5625;" width="46.875" x="1206.6071" y="625"/><rect fill="#F1F1F1" height="6.25" style="stroke:#181818;stroke-width:1.5625;" width="12.5" x="1200.3571" y="631.25"/><rect fill="#F1F1F1" height="6.25" style="stroke:#181818;stroke-width:1.5625;" width="12.5" x="1200.3571" y="643.75"/><text fill="#000000" font-family="sans-serif" font-size="43.75" lengthAdjust="spacing" textLength="408.1696" x="782.8125" y="712.4847">Registry section ...</text></g><!--entity ak--><g id="elem_ak"><rect fill="#F1F1F1" filter="url(#f1ewcx1au825fm)" height="144.6777" rx="7.8125" ry="7.8125" style="stroke:#181818;stroke-width:1.5625;" width="720.8374" x="1357.8125" y="278.125"/><rect fill="#F1F1F1" height="31.25" style="stroke:#181818;stroke-width:1.5625;" width="46.875" x="2016.1499" y="293.75"/><rect fill="#F1F1F1" height="6.25" style="stroke:#181818;stroke-width:1.5625;" width="12.5" x="2009.8999" y="300"/><rect fill="#F1F1F1" height="6.25" style="stroke:#181818;stroke-width:1.5625;" width="12.5" x="2009.8999" y="312.5"/><text fill="#000000" font-family="sans-serif" font-size="43.75" lengthAdjust="spacing" textLength="595.8374" x="1404.6875" y="381.2347">API Keys Management Tool</text></g><!--SRC=[VT1H2eCm303G_vuYU03HUO9zZZ4OcnU8cccnJQIjR39szwcu8MDOGg79IsdZMyqTEhHGTHgo957-cx72KZPEB45mFQqgli5Axfhhtq95D-nDoEaHzaRNR8a3bED6JYcMYY0wJ0V6e8NHm8LgxOCR8dYgKcmdF7L4dpHuAYS9QGJemVdTfjejAlshhelA5fLjtXN7yU9OhU7yVkd8OQ6D3WCqVJ73Plm2Z6jbz-S376dmS4B6ckPfv29czjYgbnhZ3G00]--></g></svg>