<svg xmlns="http://www.w3.org/2000/svg" xmlns:xlink="http://www.w3.org/1999/xlink" contentStyleType="text/css" data-diagram-type="ACTIVITY" height="1356px" preserveAspectRatio="none" style="width:2373px;height:1356px;background:#FFFFFF;" version="1.1" viewBox="0 0 2373 1356" width="2373px" zoomAndPan="magnify"><title>ITMO Lifecycle </title><defs/><g><text fill="#000000" font-family="sans-serif" font-size="14" font-weight="bold" lengthAdjust="spacing" textLength="114.7891" x="1125.2898" y="32.9951">ITMO Lifecycle</text><text fill="#000000" font-family="sans-serif" font-size="14" font-weight="bold" lengthAdjust="spacing" textLength="4.874" x="1182.6843" y="49.292">&#160;</text><rect fill="transparent" height="20.9531" style="stroke:transparent;stroke-width:1;" width="2300.7373" x="15" y="66.3389"/><ellipse cx="538.1465" cy="102.292" fill="#222222" rx="10" ry="10" style="stroke:#222222;stroke-width:1;"/><rect fill="transparent" height="723.3979" style="stroke:#000000;stroke-width:1.5;" width="669.1611" x="21" y="122.292"/><path d="M361.8662,122.292 L361.8662,131.5889 L351.8662,141.5889 L21,141.5889 " fill="transparent" style="stroke:#000000;stroke-width:1.5;"/><text fill="#000000" font-family="sans-serif" font-size="14" lengthAdjust="spacing" textLength="330.8662" x="24" y="136.2871">ITMOs do not yet exist in International Registry</text><path d="M31.7803,158.4404 L31.7803,198.7061 A0,0 0 0 0 31.7803,198.7061 L406.7412,198.7061 A0,0 0 0 0 406.7412,198.7061 L406.7412,182.5732 L426.7412,178.5732 L406.7412,174.5732 L406.7412,168.4404 L396.7412,158.4404 L31.7803,158.4404 A0,0 0 0 0 31.7803,158.4404 " fill="#FEFFDD" style="stroke:#181818;stroke-width:0.5;"/><path d="M396.7412,158.4404 L396.7412,168.4404 L406.7412,168.4404 L396.7412,158.4404 " fill="#FEFFDD" style="stroke:#181818;stroke-width:0.5;"/><text fill="#000000" font-family="sans-serif" font-size="13" lengthAdjust="spacing" textLength="236.9771" x="37.7803" y="175.5073">decision 2 CMA.3, annex, para 18(g)</text><ellipse cx="43.2803" cy="186.2061" fill="#000000" rx="2.5" ry="2.5"/><text fill="#000000" font-family="sans-serif" font-size="13" lengthAdjust="spacing" textLength="341.9609" x="49.7803" y="190.6401">participating Party authorizes Cooperative Approach</text><rect fill="#F1F1F1" height="33.9688" rx="12.5" ry="12.5" style="stroke:#181818;stroke-width:0.5;" width="222.8105" x="426.7412" y="161.5889"/><text fill="#000000" font-family="sans-serif" font-size="12" lengthAdjust="spacing" textLength="202.8105" x="436.7412" y="182.7275">Cooperative Approach Authorized</text><path d="M31,208.7061 L31,309.5029 A0,0 0 0 0 31,309.5029 L399.499,309.5029 A0,0 0 0 0 399.499,309.5029 L399.499,263.1045 L419.499,259.1045 L399.499,255.1045 L399.499,218.7061 L389.499,208.7061 L31,208.7061 A0,0 0 0 0 31,208.7061 " fill="#FEFFDD" style="stroke:#181818;stroke-width:0.5;"/><path d="M389.499,208.7061 L389.499,218.7061 L399.499,218.7061 L389.499,208.7061 " fill="#FEFFDD" style="stroke:#181818;stroke-width:0.5;"/><text fill="#000000" font-family="sans-serif" font-size="13" lengthAdjust="spacing" textLength="218.5815" x="37" y="225.7729">decision 2 CMA.3, annex, para 18</text><ellipse cx="42.5" cy="236.4717" fill="#000000" rx="2.5" ry="2.5"/><text fill="#000000" font-family="sans-serif" font-size="13" lengthAdjust="spacing" textLength="335.499" x="49" y="240.9058">Party submits initial report to register authorization</text><ellipse cx="42.5" cy="251.6045" fill="#000000" rx="2.5" ry="2.5"/><text fill="#000000" font-family="sans-serif" font-size="13" lengthAdjust="spacing" textLength="304.0083" x="49" y="256.0386">One or more combinations of authorizations of</text><text fill="#000000" font-family="sans-serif" font-size="13" lengthAdjust="spacing" textLength="157.2124" x="53.5293" y="271.1714">Coooperative Approach,</text><text fill="#000000" font-family="sans-serif" font-size="13" lengthAdjust="spacing" textLength="318.8809" x="53.5293" y="286.3042">ITMOs relating to the Cooperative Approach, and</text><text fill="#000000" font-family="sans-serif" font-size="13" lengthAdjust="spacing" textLength="201.0303" x="53.5293" y="301.437">Entities (participating Parties?)</text><rect fill="#F1F1F1" height="61.9063" rx="12.5" ry="12.5" style="stroke:#181818;stroke-width:0.5;" width="237.2949" x="419.499" y="228.1514"/><text fill="#000000" font-family="sans-serif" font-size="12" lengthAdjust="spacing" textLength="87.9375" x="429.499" y="249.29">Party registers</text><text fill="#000000" font-family="sans-serif" font-size="12" lengthAdjust="spacing" textLength="217.2949" x="429.499" y="263.2588">Cooperative Approach authorization</text><text fill="#000000" font-family="sans-serif" font-size="12" lengthAdjust="spacing" textLength="95.5723" x="429.499" y="277.2275">with Secretariat</text><path d="M174.5391,428.6318 L174.5391,484.0303 A0,0 0 0 0 174.5391,484.0303 L443.3389,484.0303 A0,0 0 0 0 443.3389,484.0303 L443.3389,460.3311 L463.3389,456.3311 L443.3389,452.3311 L443.3389,438.6318 L433.3389,428.6318 L174.5391,428.6318 A0,0 0 0 0 174.5391,428.6318 " fill="#FEFFDD" style="stroke:#181818;stroke-width:0.5;"/><path d="M433.3389,428.6318 L433.3389,438.6318 L443.3389,438.6318 L433.3389,428.6318 " fill="#FEFFDD" style="stroke:#181818;stroke-width:0.5;"/><ellipse cx="186.0391" cy="441.2646" fill="#000000" rx="2.5" ry="2.5"/><text fill="#000000" font-family="sans-serif" font-size="13" lengthAdjust="spacing" textLength="189.3125" x="192.5391" y="445.6987">If not already registered with</text><text fill="#000000" font-family="sans-serif" font-size="13" lengthAdjust="spacing" textLength="235.4028" x="188.8037" y="460.8315">Cooperative Approach authorization</text><text fill="#000000" font-family="sans-serif" font-size="13" lengthAdjust="spacing" textLength="75.2896" x="188.8037" y="475.9644">registration</text><rect fill="#F1F1F1" height="61.9063" rx="12.5" ry="12.5" style="stroke:#181818;stroke-width:0.5;" width="149.6152" x="463.3389" y="425.3779"/><text fill="#000000" font-family="sans-serif" font-size="12" lengthAdjust="spacing" textLength="87.9375" x="473.3389" y="446.5166">Party registers</text><text fill="#000000" font-family="sans-serif" font-size="12" lengthAdjust="spacing" textLength="129.6152" x="473.3389" y="460.4854">ITMO(s) authorization</text><text fill="#000000" font-family="sans-serif" font-size="12" lengthAdjust="spacing" textLength="95.5723" x="473.3389" y="474.4541">with Secretariat</text><polygon fill="#F1F1F1" points="456.8335,587.8154,619.4595,587.8154,631.4595,599.8154,619.4595,611.8154,456.8335,611.8154,444.8335,599.8154,456.8335,587.8154" style="stroke:#181818;stroke-width:0.5;"/><text fill="#000000" font-family="sans-serif" font-size="11" lengthAdjust="spacing" textLength="19.0083" x="542.1465" y="622.0259">yes</text><text fill="#000000" font-family="sans-serif" font-size="11" lengthAdjust="spacing" textLength="162.626" x="456.8335" y="603.6235">Party opts for Interoperability</text><text fill="#000000" font-family="sans-serif" font-size="11" lengthAdjust="spacing" textLength="13.7017" x="631.4595" y="597.2212">no</text><ellipse cx="667.1611" cy="599.8154" fill="transparent" rx="11" ry="11" style="stroke:#222222;stroke-width:1;"/><ellipse cx="667.1611" cy="599.8154" fill="#222222" rx="6" ry="6" style="stroke:#222222;stroke-width:1;"/><line style="stroke:#000000;stroke-width:1.5;" x1="15" x2="15" y1="66.3389" y2="1344.627"/><rect fill="transparent" height="723.3979" style="stroke:#000000;stroke-width:1.5;" width="643.9536" x="700.1611" y="122.292"/><path d="M1041.0273,122.292 L1041.0273,131.5889 L1031.0273,141.5889 L700.1611,141.5889 " fill="transparent" style="stroke:#000000;stroke-width:1.5;"/><text fill="#000000" font-family="sans-serif" font-size="14" lengthAdjust="spacing" textLength="330.8662" x="703.1611" y="136.2871">ITMOs do not yet exist in International Registry</text><path d="M712.1611,332.1748 L712.1611,402.7061 A0,0 0 0 0 712.1611,402.7061 L1031.4312,402.7061 A0,0 0 0 0 1031.4312,402.7061 L1031.4312,371.4404 L1051.4312,367.4404 L1031.4312,363.4404 L1031.4312,342.1748 L1021.4312,332.1748 L712.1611,332.1748 A0,0 0 0 0 712.1611,332.1748 " fill="#FEFFDD" style="stroke:#181818;stroke-width:0.5;"/><path d="M1021.4312,332.1748 L1021.4312,342.1748 L1031.4312,342.1748 L1021.4312,332.1748 " fill="#FEFFDD" style="stroke:#181818;stroke-width:0.5;"/><ellipse cx="723.6611" cy="344.8076" fill="#000000" rx="2.5" ry="2.5"/><text fill="#000000" font-family="sans-serif" font-size="13" lengthAdjust="spacing" textLength="224.3325" x="730.1611" y="349.2417">Authorization ID must be assigned</text><text fill="#000000" font-family="sans-serif" font-size="13" lengthAdjust="spacing" textLength="234.8252" x="734.6904" y="364.3745">by secretariat to ensure uniqueness</text><ellipse cx="723.6611" cy="375.0732" fill="#000000" rx="2.5" ry="2.5"/><text fill="#000000" font-family="sans-serif" font-size="13" lengthAdjust="spacing" textLength="182.4126" x="730.1611" y="379.5073">Secretariat will also register</text><text fill="#000000" font-family="sans-serif" font-size="13" lengthAdjust="spacing" textLength="281.7407" x="734.6904" y="394.6401">authorized objects in International Registry</text><rect fill="#F1F1F1" height="75.875" rx="12.5" ry="12.5" style="stroke:#181818;stroke-width:0.5;" width="280.6836" x="1051.4312" y="329.5029"/><text fill="#000000" font-family="sans-serif" font-size="12" lengthAdjust="spacing" textLength="179.9766" x="1061.4312" y="350.6416">Secretariat (issuing authority)</text><text fill="#000000" font-family="sans-serif" font-size="12" lengthAdjust="spacing" textLength="149.2617" x="1061.4312" y="364.6104">assigns Authorization ID.</text><text fill="#000000" font-family="sans-serif" font-size="12" lengthAdjust="spacing" textLength="260.6836" x="1061.4312" y="378.5791">Secretariat registers Cooperative Approach</text><text fill="#000000" font-family="sans-serif" font-size="12" lengthAdjust="spacing" textLength="226.1426" x="1061.4312" y="392.5479">in CARP and Common Nomenclatures</text><path d="M719.0166,497.2842 L719.0166,567.8154 A0,0 0 0 0 719.0166,567.8154 L1038.2866,567.8154 A0,0 0 0 0 1038.2866,567.8154 L1038.2866,536.5498 L1058.2866,532.5498 L1038.2866,528.5498 L1038.2866,507.2842 L1028.2866,497.2842 L719.0166,497.2842 A0,0 0 0 0 719.0166,497.2842 " fill="#FEFFDD" style="stroke:#181818;stroke-width:0.5;"/><path d="M1028.2866,497.2842 L1028.2866,507.2842 L1038.2866,507.2842 L1028.2866,497.2842 " fill="#FEFFDD" style="stroke:#181818;stroke-width:0.5;"/><ellipse cx="730.5166" cy="509.917" fill="#000000" rx="2.5" ry="2.5"/><text fill="#000000" font-family="sans-serif" font-size="13" lengthAdjust="spacing" textLength="224.3325" x="737.0166" y="514.3511">Authorization ID must be assigned</text><text fill="#000000" font-family="sans-serif" font-size="13" lengthAdjust="spacing" textLength="234.8252" x="741.5459" y="529.4839">by secretariat to ensure uniqueness</text><ellipse cx="730.5166" cy="540.1826" fill="#000000" rx="2.5" ry="2.5"/><text fill="#000000" font-family="sans-serif" font-size="13" lengthAdjust="spacing" textLength="182.4126" x="737.0166" y="544.6167">Secretariat will also register</text><text fill="#000000" font-family="sans-serif" font-size="13" lengthAdjust="spacing" textLength="281.7407" x="741.5459" y="559.7495">authorized objects in International Registry</text><rect fill="#F1F1F1" height="47.9375" rx="12.5" ry="12.5" style="stroke:#181818;stroke-width:0.5;" width="266.9727" x="1058.2866" y="508.5811"/><text fill="#000000" font-family="sans-serif" font-size="12" lengthAdjust="spacing" textLength="246.9727" x="1068.2866" y="529.7197">Secretariat registers ITMOs authorization</text><text fill="#000000" font-family="sans-serif" font-size="12" lengthAdjust="spacing" textLength="207.3984" x="1068.2866" y="543.6885">in CARP and International Registry</text><line style="stroke:#000000;stroke-width:1.5;" x1="694.1611" x2="694.1611" y1="66.3389" y2="1344.627"/><rect fill="transparent" height="723.3979" style="stroke:#000000;stroke-width:1.5;" width="656.2617" x="1354.1147" y="122.292"/><path d="M1694.981,122.292 L1694.981,131.5889 L1684.981,141.5889 L1354.1147,141.5889 " fill="transparent" style="stroke:#000000;stroke-width:1.5;"/><text fill="#000000" font-family="sans-serif" font-size="14" lengthAdjust="spacing" textLength="330.8662" x="1357.1147" y="136.2871">ITMOs do not yet exist in International Registry</text><path d="M1386.7402,633.5259 L1386.7402,779.7212 A0,0 0 0 0 1386.7402,779.7212 L1746.3716,779.7212 A0,0 0 0 0 1746.3716,779.7212 L1746.3716,710.6235 L1766.3716,706.6235 L1746.3716,702.6235 L1746.3716,643.5259 L1736.3716,633.5259 L1386.7402,633.5259 A0,0 0 0 0 1386.7402,633.5259 " fill="#FEFFDD" style="stroke:#181818;stroke-width:0.5;"/><path d="M1736.3716,633.5259 L1736.3716,643.5259 L1746.3716,643.5259 L1736.3716,633.5259 " fill="#FEFFDD" style="stroke:#181818;stroke-width:0.5;"/><ellipse cx="1398.2402" cy="646.1587" fill="#000000" rx="2.5" ry="2.5"/><text fill="#000000" font-family="sans-serif" font-size="13" lengthAdjust="spacing" textLength="24.2861" x="1404.7402" y="650.5928">Use</text><text fill="#000000" font-family="sans-serif" font-size="13" font-style="italic" lengthAdjust="spacing" textLength="83.6431" x="1433.1587" y="650.5928">registerITMO</text><text fill="#000000" font-family="sans-serif" font-size="13" lengthAdjust="spacing" textLength="20.5664" x="1520.9341" y="650.5928">API</text><ellipse cx="1398.2402" cy="661.2915" fill="#000000" rx="2.5" ry="2.5"/><text fill="#000000" font-family="sans-serif" font-size="13" lengthAdjust="spacing" textLength="283.5308" x="1404.7402" y="665.7256">This registers the ITMOs for Interoperability</text><text fill="#000000" font-family="sans-serif" font-size="13" lengthAdjust="spacing" textLength="172.8467" x="1409.2695" y="680.8584">with International Registry</text><text fill="#000000" font-family="sans-serif" font-size="13" lengthAdjust="spacing" textLength="208.749" x="1409.2695" y="695.9912">and other like-minded registries</text><ellipse cx="1398.2402" cy="706.6899" fill="#000000" rx="2.5" ry="2.5"/><text fill="#000000" font-family="sans-serif" font-size="13" lengthAdjust="spacing" textLength="294.125" x="1404.7402" y="711.124">Registry must provide account ID for ITMO(s)</text><text fill="#000000" font-family="sans-serif" font-size="13" lengthAdjust="spacing" textLength="294.4678" x="1401.0049" y="726.2568">* If account does not exists, it will be created</text><ellipse cx="1398.2402" cy="736.9556" fill="#000000" rx="2.5" ry="2.5"/><text fill="#000000" font-family="sans-serif" font-size="13" lengthAdjust="spacing" textLength="326.6313" x="1404.7402" y="741.3896">ITMOs will be created in the International Registry</text><ellipse cx="1398.2402" cy="752.0884" fill="#000000" rx="2.5" ry="2.5"/><text fill="#000000" font-family="sans-serif" font-size="13" lengthAdjust="spacing" textLength="273.8379" x="1404.7402" y="756.5225">unique ITMOID will be returned to registry</text><text fill="#000000" font-family="sans-serif" font-size="13" lengthAdjust="spacing" textLength="209.9678" x="1401.0049" y="771.6553">* registryID-serialFirst-serialLast</text><rect fill="#F1F1F1" height="61.9063" rx="12.5" ry="12.5" style="stroke:#181818;stroke-width:0.5;" width="179.5508" x="1766.3716" y="675.6704"/><text fill="#000000" font-family="sans-serif" font-size="12" lengthAdjust="spacing" textLength="81.4043" x="1776.3716" y="696.8091">Party registry</text><text fill="#000000" font-family="sans-serif" font-size="12" lengthAdjust="spacing" textLength="93.5273" x="1776.3716" y="710.7778">registers ITMOs</text><text fill="#000000" font-family="sans-serif" font-size="12" lengthAdjust="spacing" textLength="159.5508" x="1776.3716" y="724.7466">with International Registry</text><rect fill="transparent" height="488.937" style="stroke:#000000;stroke-width:1.5;" width="632.2617" x="1366.1147" y="855.6899"/><path d="M1630.8628,855.6899 L1630.8628,864.9868 L1620.8628,874.9868 L1366.1147,874.9868 " fill="transparent" style="stroke:#000000;stroke-width:1.5;"/><text fill="#000000" font-family="sans-serif" font-size="14" lengthAdjust="spacing" textLength="254.748" x="1369.1147" y="869.6851">ITMOs exist in International Registry</text><path d="M1394.1147,944.5488 L1394.1147,984.8145 A0,0 0 0 0 1394.1147,984.8145 L1723.687,984.8145 A0,0 0 0 0 1723.687,984.8145 L1723.687,968.6816 L1743.687,964.6816 L1723.687,960.6816 L1723.687,954.5488 L1713.687,944.5488 L1394.1147,944.5488 A0,0 0 0 0 1394.1147,944.5488 " fill="#FEFFDD" style="stroke:#181818;stroke-width:0.5;"/><path d="M1713.687,944.5488 L1713.687,954.5488 L1723.687,954.5488 L1713.687,944.5488 " fill="#FEFFDD" style="stroke:#181818;stroke-width:0.5;"/><ellipse cx="1405.6147" cy="957.1816" fill="#000000" rx="2.5" ry="2.5"/><text fill="#000000" font-family="sans-serif" font-size="13" lengthAdjust="spacing" textLength="174.6875" x="1412.1147" y="961.6157">Other operations on ITMOs</text><text fill="#000000" font-family="sans-serif" font-size="13" lengthAdjust="spacing" textLength="292.043" x="1416.644" y="976.7485">such as internal/external transfer, update, ...</text><rect fill="#F1F1F1" height="33.9688" rx="12.5" ry="12.5" style="stroke:#181818;stroke-width:0.5;" width="224.9199" x="1743.687" y="947.6973"/><text fill="#000000" font-family="sans-serif" font-size="12" lengthAdjust="spacing" textLength="204.9199" x="1753.687" y="968.8359">Initiate other operations on ITMOs</text><rect fill="#F1F1F1" height="33.9688" rx="12.5" ry="12.5" style="stroke:#181818;stroke-width:0.5;" width="228.459" x="1741.9175" y="1058.7832"/><text fill="#000000" font-family="sans-serif" font-size="12" lengthAdjust="spacing" textLength="208.459" x="1751.9175" y="1079.9219">Finalise other operations on ITMOs</text><polygon fill="#F1F1F1" points="1856.147,891.9868,1856.147,891.9868,1868.147,903.9868,1856.147,915.9868,1856.147,915.9868,1844.147,903.9868,1856.147,891.9868" style="stroke:#181818;stroke-width:0.5;"/><text fill="#000000" font-family="sans-serif" font-size="11" lengthAdjust="spacing" textLength="124.8833" x="1860.147" y="926.1973">Other ITMO operations</text><text fill="#000000" font-family="sans-serif" font-size="11" lengthAdjust="spacing" textLength="113.3999" x="1730.7471" y="901.3926">Use or Cancel ITMOs</text><rect fill="#F1F1F1" height="33.9688" rx="12.5" ry="12.5" style="stroke:#181818;stroke-width:0.5;" width="189.4824" x="1761.4058" y="1134.752"/><text fill="#000000" font-family="sans-serif" font-size="12" lengthAdjust="spacing" textLength="169.4824" x="1771.4058" y="1155.8906">Initiate Use or Cancel ITMOs</text><rect fill="#F1F1F1" height="33.9688" rx="12.5" ry="12.5" style="stroke:#181818;stroke-width:0.5;" width="193.0215" x="1759.6362" y="1256.6582"/><text fill="#000000" font-family="sans-serif" font-size="12" lengthAdjust="spacing" textLength="173.0215" x="1769.6362" y="1277.7969">Finalise Use or Cancel ITMOs</text><ellipse cx="1856.147" cy="1321.627" fill="transparent" rx="11" ry="11" style="stroke:#222222;stroke-width:1;"/><ellipse cx="1856.147" cy="1321.627" fill="#222222" rx="6" ry="6" style="stroke:#222222;stroke-width:1;"/><line style="stroke:#000000;stroke-width:1.5;" x1="1348.1147" x2="1348.1147" y1="66.3389" y2="1344.627"/><rect fill="transparent" height="723.3979" style="stroke:#000000;stroke-width:1.5;" width="289.5" x="2020.3765" y="122.292"/><path d="M2361.2427,122.292 L2361.2427,131.5889 L2351.2427,141.5889 L2020.3765,141.5889 " fill="transparent" style="stroke:#000000;stroke-width:1.5;"/><text fill="#000000" font-family="sans-serif" font-size="14" lengthAdjust="spacing" textLength="330.8662" x="2023.3765" y="136.2871">ITMOs do not yet exist in International Registry</text><rect fill="#F1F1F1" height="33.9688" rx="12.5" ry="12.5" style="stroke:#181818;stroke-width:0.5;" width="186.7695" x="2082.7417" y="799.7212"/><text fill="#000000" font-family="sans-serif" font-size="12" lengthAdjust="spacing" textLength="166.7695" x="2092.7417" y="820.8599">Validate and register ITMOs</text><rect fill="transparent" height="488.937" style="stroke:#000000;stroke-width:1.5;" width="265.5" x="2032.3765" y="855.6899"/><path d="M2297.1245,855.6899 L2297.1245,864.9868 L2287.1245,874.9868 L2032.3765,874.9868 " fill="transparent" style="stroke:#000000;stroke-width:1.5;"/><text fill="#000000" font-family="sans-serif" font-size="14" lengthAdjust="spacing" textLength="254.748" x="2035.3765" y="869.6851">ITMOs exist in International Registry</text><rect fill="#F1F1F1" height="33.9688" rx="12.5" ry="12.5" style="stroke:#181818;stroke-width:0.5;" width="219.5" x="2066.3765" y="1004.8145"/><text fill="#000000" font-family="sans-serif" font-size="12" lengthAdjust="spacing" textLength="199.5" x="2076.3765" y="1025.9531">Validate and facilitate operations</text><rect fill="#F1F1F1" height="47.9375" rx="12.5" ry="12.5" style="stroke:#181818;stroke-width:0.5;" width="151.8184" x="2100.2173" y="1188.7207"/><text fill="#000000" font-family="sans-serif" font-size="12" lengthAdjust="spacing" textLength="131.8184" x="2110.2173" y="1209.8594">Validate and facilitate</text><text fill="#000000" font-family="sans-serif" font-size="12" lengthAdjust="spacing" textLength="123.709" x="2110.2173" y="1223.8281">Use or Cancel ITMOs</text><line style="stroke:#000000;stroke-width:1.5;" x1="2014.3765" x2="2014.3765" y1="66.3389" y2="1344.627"/><line style="stroke:#000000;stroke-width:1.5;" x1="2313.8765" x2="2313.8765" y1="66.3389" y2="1344.627"/><line style="stroke:#181818;stroke-width:1;" x1="538.1465" x2="538.1465" y1="195.5576" y2="228.1514"/><polygon fill="#181818" points="534.1465,218.1514,538.1465,228.1514,542.1465,218.1514,538.1465,222.1514" style="stroke:#181818;stroke-width:1;"/><line style="stroke:#181818;stroke-width:1;" x1="631.4595" x2="656.1611" y1="599.8154" y2="599.8154"/><polygon fill="#181818" points="646.1611,595.8154,656.1611,599.8154,646.1611,603.8154,650.1611,599.8154" style="stroke:#181818;stroke-width:1;"/><line style="stroke:#181818;stroke-width:1;" x1="538.1465" x2="538.1465" y1="112.292" y2="161.5889"/><polygon fill="#181818" points="534.1465,151.5889,538.1465,161.5889,542.1465,151.5889,538.1465,155.5889" style="stroke:#181818;stroke-width:1;"/><line style="stroke:#181818;stroke-width:1;" x1="1856.147" x2="1856.147" y1="915.9868" y2="947.6973"/><polygon fill="#181818" points="1852.147,937.6973,1856.147,947.6973,1860.147,937.6973,1856.147,941.6973" style="stroke:#181818;stroke-width:1;"/><line style="stroke:#181818;stroke-width:1;" x1="1856.147" x2="1856.147" y1="1092.752" y2="1102.752"/><line style="stroke:#181818;stroke-width:1;" x1="1856.147" x2="1982.3765" y1="1102.752" y2="1102.752"/><polygon fill="#181818" points="1978.3765,1010.248,1982.3765,1000.248,1986.3765,1010.248,1982.3765,1006.248" style="stroke:#181818;stroke-width:1;"/><line style="stroke:#181818;stroke-width:1;" x1="1982.3765" x2="1982.3765" y1="903.9868" y2="1102.752"/><line style="stroke:#181818;stroke-width:1;" x1="1982.3765" x2="1868.147" y1="903.9868" y2="903.9868"/><polygon fill="#181818" points="1878.147,899.9868,1868.147,903.9868,1878.147,907.9868,1874.147,903.9868" style="stroke:#181818;stroke-width:1;"/><line style="stroke:#181818;stroke-width:1;" x1="1844.147" x2="1382.1147" y1="903.9868" y2="903.9868"/><polygon fill="#181818" points="1378.1147,996.248,1382.1147,1006.248,1386.1147,996.248,1382.1147,1000.248" style="stroke:#181818;stroke-width:1;"/><line style="stroke:#181818;stroke-width:1;" x1="1382.1147" x2="1382.1147" y1="903.9868" y2="1114.752"/><line style="stroke:#181818;stroke-width:1;" x1="1382.1147" x2="1856.147" y1="1114.752" y2="1114.752"/><line style="stroke:#181818;stroke-width:1;" x1="1856.147" x2="1856.147" y1="1114.752" y2="1134.752"/><polygon fill="#181818" points="1852.147,1124.752,1856.147,1134.752,1860.147,1124.752,1856.147,1128.752" style="stroke:#181818;stroke-width:1;"/><line style="stroke:#181818;stroke-width:1;" x1="1856.147" x2="1856.147" y1="1290.627" y2="1310.627"/><polygon fill="#181818" points="1852.147,1300.627,1856.147,1310.627,1860.147,1300.627,1856.147,1304.627" style="stroke:#181818;stroke-width:1;"/><line style="stroke:#181818;stroke-width:1;" x1="2176.1265" x2="2176.1265" y1="833.6899" y2="850.6899"/><line style="stroke:#181818;stroke-width:1;" x1="2176.1265" x2="1856.147" y1="850.6899" y2="850.6899"/><line style="stroke:#181818;stroke-width:1;" x1="1856.147" x2="1856.147" y1="850.6899" y2="891.9868"/><polygon fill="#181818" points="1852.147,881.9868,1856.147,891.9868,1860.147,881.9868,1856.147,885.9868" style="stroke:#181818;stroke-width:1;"/><line style="stroke:#181818;stroke-width:1;" x1="538.1465" x2="538.1465" y1="290.0576" y2="314.5029"/><line style="stroke:#181818;stroke-width:1;" x1="538.1465" x2="1191.7729" y1="314.5029" y2="314.5029"/><line style="stroke:#181818;stroke-width:1;" x1="1191.7729" x2="1191.7729" y1="314.5029" y2="329.5029"/><polygon fill="#181818" points="1187.7729,319.5029,1191.7729,329.5029,1195.7729,319.5029,1191.7729,323.5029" style="stroke:#181818;stroke-width:1;"/><line style="stroke:#181818;stroke-width:1;" x1="1191.7729" x2="1191.7729" y1="405.3779" y2="410.3779"/><line style="stroke:#181818;stroke-width:1;" x1="1191.7729" x2="538.1465" y1="410.3779" y2="410.3779"/><line style="stroke:#181818;stroke-width:1;" x1="538.1465" x2="538.1465" y1="410.3779" y2="425.3779"/><polygon fill="#181818" points="534.1465,415.3779,538.1465,425.3779,542.1465,415.3779,538.1465,419.3779" style="stroke:#181818;stroke-width:1;"/><line style="stroke:#181818;stroke-width:1;" x1="538.1465" x2="538.1465" y1="487.2842" y2="492.2842"/><line style="stroke:#181818;stroke-width:1;" x1="538.1465" x2="1191.7729" y1="492.2842" y2="492.2842"/><line style="stroke:#181818;stroke-width:1;" x1="1191.7729" x2="1191.7729" y1="492.2842" y2="508.5811"/><polygon fill="#181818" points="1187.7729,498.5811,1191.7729,508.5811,1195.7729,498.5811,1191.7729,502.5811" style="stroke:#181818;stroke-width:1;"/><line style="stroke:#181818;stroke-width:1;" x1="1856.147" x2="1856.147" y1="737.5767" y2="776.1489"/><line style="stroke:#181818;stroke-width:1;" x1="1856.147" x2="2176.1265" y1="776.1489" y2="776.1489"/><line style="stroke:#181818;stroke-width:1;" x1="2176.1265" x2="2176.1265" y1="776.1489" y2="799.7212"/><polygon fill="#181818" points="2172.1265,789.7212,2176.1265,799.7212,2180.1265,789.7212,2176.1265,793.7212" style="stroke:#181818;stroke-width:1;"/><line style="stroke:#181818;stroke-width:1;" x1="538.1465" x2="538.1465" y1="611.8154" y2="642.397"/><line style="stroke:#181818;stroke-width:1;" x1="538.1465" x2="1856.147" y1="642.397" y2="642.397"/><line style="stroke:#181818;stroke-width:1;" x1="1856.147" x2="1856.147" y1="642.397" y2="675.6704"/><polygon fill="#181818" points="1852.147,665.6704,1856.147,675.6704,1860.147,665.6704,1856.147,669.6704" style="stroke:#181818;stroke-width:1;"/><line style="stroke:#181818;stroke-width:1;" x1="1191.7729" x2="1191.7729" y1="556.5186" y2="572.8154"/><line style="stroke:#181818;stroke-width:1;" x1="1191.7729" x2="538.1465" y1="572.8154" y2="572.8154"/><line style="stroke:#181818;stroke-width:1;" x1="538.1465" x2="538.1465" y1="572.8154" y2="587.8154"/><polygon fill="#181818" points="534.1465,577.8154,538.1465,587.8154,542.1465,577.8154,538.1465,581.8154" style="stroke:#181818;stroke-width:1;"/><line style="stroke:#181818;stroke-width:1;" x1="1856.147" x2="1856.147" y1="981.666" y2="989.8145"/><line style="stroke:#181818;stroke-width:1;" x1="1856.147" x2="2176.1265" y1="989.8145" y2="989.8145"/><line style="stroke:#181818;stroke-width:1;" x1="2176.1265" x2="2176.1265" y1="989.8145" y2="1004.8145"/><polygon fill="#181818" points="2172.1265,994.8145,2176.1265,1004.8145,2180.1265,994.8145,2176.1265,998.8145" style="stroke:#181818;stroke-width:1;"/><line style="stroke:#181818;stroke-width:1;" x1="2176.1265" x2="2176.1265" y1="1038.7832" y2="1043.7832"/><line style="stroke:#181818;stroke-width:1;" x1="2176.1265" x2="1856.147" y1="1043.7832" y2="1043.7832"/><line style="stroke:#181818;stroke-width:1;" x1="1856.147" x2="1856.147" y1="1043.7832" y2="1058.7832"/><polygon fill="#181818" points="1852.147,1048.7832,1856.147,1058.7832,1860.147,1048.7832,1856.147,1052.7832" style="stroke:#181818;stroke-width:1;"/><line style="stroke:#181818;stroke-width:1;" x1="1856.147" x2="1856.147" y1="1168.7207" y2="1173.7207"/><line style="stroke:#181818;stroke-width:1;" x1="1856.147" x2="2176.1265" y1="1173.7207" y2="1173.7207"/><line style="stroke:#181818;stroke-width:1;" x1="2176.1265" x2="2176.1265" y1="1173.7207" y2="1188.7207"/><polygon fill="#181818" points="2172.1265,1178.7207,2176.1265,1188.7207,2180.1265,1178.7207,2176.1265,1182.7207" style="stroke:#181818;stroke-width:1;"/><line style="stroke:#181818;stroke-width:1;" x1="2176.1265" x2="2176.1265" y1="1236.6582" y2="1241.6582"/><line style="stroke:#181818;stroke-width:1;" x1="2176.1265" x2="1856.147" y1="1241.6582" y2="1241.6582"/><line style="stroke:#181818;stroke-width:1;" x1="1856.147" x2="1856.147" y1="1241.6582" y2="1256.6582"/><polygon fill="#181818" points="1852.147,1246.6582,1856.147,1256.6582,1860.147,1246.6582,1856.147,1250.6582" style="stroke:#181818;stroke-width:1;"/><text fill="#000000" font-family="sans-serif" font-size="18" lengthAdjust="spacing" textLength="166.3066" x="271.4272" y="83.0469">Participating Party</text><text fill="#000000" font-family="sans-serif" font-size="18" lengthAdjust="spacing" textLength="99.4482" x="971.4138" y="83.0469">Secretariat</text><text fill="#000000" font-family="sans-serif" font-size="18" lengthAdjust="spacing" textLength="181.8018" x="1590.3447" y="83.0469">Interoperating Party</text><text fill="#000000" font-family="sans-serif" font-size="18" lengthAdjust="spacing" textLength="195.416" x="2066.4185" y="83.0469">International Registry</text><!--SRC=[tLQnRjim4Dtr5JVAXckZxL8aGs4u3M0WQO8qxTI5bausMubKIIg9M-VVUoGbMP8bEqYtPWWiwlXuxzwx4mqtASBo_le6hdY2qJQYn-yYsDqoPNZ4SsQuM8Dzskw2G1lw4GIvVMcu56wdXbY2a0QsQ02Vk3R0wOqmg0IpKIo5ErpJkjh2dm3ep_qxMqYPewAG1uHvdYl9eWtC2xEHYl_6-Dn5WOL6I34nvJD0Z17NzlXtiBYUJzzFW0c1JnEWn1Yy_H2kHtNi6F93Ai2gKpJqPL7kHX6xquCgOxzPEJAej5liPL7XE_ukx96R3Np1I27La3FpUdODQZuVNQmoRZHLdKIXOYlCfJ9WP9rfJpuUu4OWI0MPL0YHp5RSAwP19kqzTgNULz8-v3rfXNXpA4nzvIaViy7UUbcASMll9s4THlA4X_BHyiVHeKG0kqPzTrwnnWg4NEl2WfJCpDQZCAtvcXZEcuHXUJ5rRvi8jVB3hY7hB-PtjvOG1MKP8NsM6Og8gb0erCEwZmyIWAoWPbfXcI6sIxGYvHkvKNbHQ3e22i5_5IXGwmPsayOZJrDWgMuOf8LSTqSCSlK38-UjWOxkrQ5tUlHra3_N6YNKet_g6ijncRWvn5A5BDwVGZGSJjU_9zgs7U_1LBE1QiulCT-Uic-BGwvDv_JN-d_tpWdpy0H2xn-P4sn2WylXEY5NFBKDRKUCW72BUbHDROBSXtKnEvQiS-h8LQuw6ntNfb-ThnfXDgj0BUHi1lFRPIFaViDrurWxAhrJ-dYsIduagxOqL6T9k0fI_XFVP5p4f599d8Pg8vdwU-rSHDtnm6EoKXJ9GXZhBfUKRzjk2rPHiQJnRVlHtGdq17Zf7Z8b-OcPXYV79TVEUsiTLuZZvCQbRHq89LUXa6aBHTRVVmfR5HdNYykBDnh9tkabLzgKlw-OtalOcc-LemuogZtrZQKy9WQkvdMZE8xdmMbNOaf-2OMiQZlS4m3QoBowL56MF0cUWs00ktjnU_5jxN73wM8OZe0y6juu3xbBOta2tG_gTZjRkci8SVTUsuT0TUxG7AFxoD2MXcowi9FQZXMNSph39_y3Q3mBdQ2QG97RwazWEftsVg2EoTSMBs6HxJZ7fqxhF3WXuDabtQHIhayKWP8gAsi71BNKWea8KnymwfIp9-JyzMpSonEG9wWDxdQMzDPv3lu2]--></g></svg>