<svg xmlns="http://www.w3.org/2000/svg" xmlns:xlink="http://www.w3.org/1999/xlink" contentStyleType="text/css" data-diagram-type="ACTIVITY" height="1521px" preserveAspectRatio="none" style="width:1602px;height:1521px;background:#FFFFFF;" version="1.1" viewBox="0 0 1602 1521" width="1602px" zoomAndPan="magnify"><title>ITMO Lifecycle </title><defs/><g><text fill="#000000" font-family="sans-serif" font-size="14" font-weight="bold" lengthAdjust="spacing" textLength="114.7891" x="740.1625" y="32.9951">ITMO Lifecycle</text><text fill="#000000" font-family="sans-serif" font-size="14" font-weight="bold" lengthAdjust="spacing" textLength="4.874" x="797.557" y="49.292">&#160;</text><rect fill="transparent" height="41.9063" style="stroke:transparent;stroke-width:1;" width="1569.988" x="15" y="66.3389"/><ellipse cx="409.3823" cy="123.2451" fill="#222222" rx="10" ry="10" style="stroke:#222222;stroke-width:1;"/><path d="M20,143.2451 L20,198.6436 A0,0 0 0 0 20,198.6436 L277.9771,198.6436 A0,0 0 0 0 277.9771,198.6436 L277.9771,174.9443 L297.9771,170.9443 L277.9771,166.9443 L277.9771,153.2451 L267.9771,143.2451 L20,143.2451 A0,0 0 0 0 20,143.2451 " fill="#FEFFDD" style="stroke:#181818;stroke-width:0.5;"/><path d="M267.9771,143.2451 L267.9771,153.2451 L277.9771,153.2451 L267.9771,143.2451 " fill="#FEFFDD" style="stroke:#181818;stroke-width:0.5;"/><text fill="#000000" font-family="sans-serif" font-size="13" lengthAdjust="spacing" textLength="236.9771" x="26" y="160.312">decision 2 CMA.3, annex, para 18(g)</text><ellipse cx="31.5" cy="171.0107" fill="#000000" rx="2.5" ry="2.5"/><text fill="#000000" font-family="sans-serif" font-size="13" lengthAdjust="spacing" textLength="192.7021" x="38" y="175.4448">participating Party authorizes</text><text fill="#000000" font-family="sans-serif" font-size="13" lengthAdjust="spacing" textLength="145.1265" x="34.2646" y="190.5776">Cooperative Approach</text><rect fill="#F1F1F1" height="33.9688" rx="12.5" ry="12.5" style="stroke:#181818;stroke-width:0.5;" width="222.8105" x="297.9771" y="153.96"/><text fill="#000000" font-family="sans-serif" font-size="12" lengthAdjust="spacing" textLength="202.8105" x="307.9771" y="175.0986">Cooperative Approach Authorized</text><path d="M72.8193,208.6436 L72.8193,354.8389 A0,0 0 0 0 72.8193,354.8389 L312.4009,354.8389 A0,0 0 0 0 312.4009,354.8389 L312.4009,285.7412 L332.4009,281.7412 L312.4009,277.7412 L312.4009,218.6436 L302.4009,208.6436 L72.8193,208.6436 A0,0 0 0 0 72.8193,208.6436 " fill="#FEFFDD" style="stroke:#181818;stroke-width:0.5;"/><path d="M302.4009,208.6436 L302.4009,218.6436 L312.4009,218.6436 L302.4009,208.6436 " fill="#FEFFDD" style="stroke:#181818;stroke-width:0.5;"/><text fill="#000000" font-family="sans-serif" font-size="13" lengthAdjust="spacing" textLength="218.5815" x="78.8193" y="225.7104">decision 2 CMA.3, annex, para 18</text><ellipse cx="84.3193" cy="236.4092" fill="#000000" rx="2.5" ry="2.5"/><text fill="#000000" font-family="sans-serif" font-size="13" lengthAdjust="spacing" textLength="173.4878" x="90.8193" y="240.8433">Party submits initial report</text><text fill="#000000" font-family="sans-serif" font-size="13" lengthAdjust="spacing" textLength="157.8789" x="95.3486" y="255.9761">to register authorization</text><ellipse cx="84.3193" cy="266.6748" fill="#000000" rx="2.5" ry="2.5"/><text fill="#000000" font-family="sans-serif" font-size="13" lengthAdjust="spacing" textLength="173.6338" x="90.8193" y="271.1089">One or more combinations</text><text fill="#000000" font-family="sans-serif" font-size="13" lengthAdjust="spacing" textLength="126.2422" x="95.3486" y="286.2417">of authorizations of</text><text fill="#000000" font-family="sans-serif" font-size="13" lengthAdjust="spacing" textLength="157.2124" x="95.3486" y="301.3745">Coooperative Approach,</text><text fill="#000000" font-family="sans-serif" font-size="13" lengthAdjust="spacing" textLength="136.8999" x="95.3486" y="316.5073">ITMOs relating to the</text><text fill="#000000" font-family="sans-serif" font-size="13" lengthAdjust="spacing" textLength="177.8486" x="95.3486" y="331.6401">Cooperative Approach, and</text><text fill="#000000" font-family="sans-serif" font-size="13" lengthAdjust="spacing" textLength="48.6421" x="95.3486" y="346.7729">Entities</text><rect fill="#F1F1F1" height="61.9063" rx="12.5" ry="12.5" style="stroke:#181818;stroke-width:0.5;" width="153.9629" x="332.4009" y="250.7881"/><text fill="#000000" font-family="sans-serif" font-size="12" lengthAdjust="spacing" textLength="87.9375" x="342.4009" y="271.9268">Party registers</text><text fill="#000000" font-family="sans-serif" font-size="12" lengthAdjust="spacing" textLength="133.9629" x="342.4009" y="285.8955">Cooperative Approach</text><text fill="#000000" font-family="sans-serif" font-size="12" lengthAdjust="spacing" textLength="79.5176" x="342.4009" y="299.8643">authorization</text><path d="M116.7354,501.9053 L116.7354,557.3037 A0,0 0 0 0 116.7354,557.3037 L314.5747,557.3037 A0,0 0 0 0 314.5747,557.3037 L314.5747,533.6045 L334.5747,529.6045 L314.5747,525.6045 L314.5747,511.9053 L304.5747,501.9053 L116.7354,501.9053 A0,0 0 0 0 116.7354,501.9053 " fill="#FEFFDD" style="stroke:#181818;stroke-width:0.5;"/><path d="M304.5747,501.9053 L304.5747,511.9053 L314.5747,511.9053 L304.5747,501.9053 " fill="#FEFFDD" style="stroke:#181818;stroke-width:0.5;"/><text fill="#000000" font-family="sans-serif" font-size="13" lengthAdjust="spacing" textLength="157.5996" x="122.7354" y="518.9722">If not already registered</text><text fill="#000000" font-family="sans-serif" font-size="13" lengthAdjust="spacing" textLength="176.8394" x="122.7354" y="534.105">with Cooperative Approach</text><text fill="#000000" font-family="sans-serif" font-size="13" lengthAdjust="spacing" textLength="165.5659" x="122.7354" y="549.2378">authorization registration</text><rect fill="#F1F1F1" height="61.9063" rx="12.5" ry="12.5" style="stroke:#181818;stroke-width:0.5;" width="149.6152" x="334.5747" y="498.6514"/><text fill="#000000" font-family="sans-serif" font-size="12" lengthAdjust="spacing" textLength="87.9375" x="344.5747" y="519.79">Party registers</text><text fill="#000000" font-family="sans-serif" font-size="12" lengthAdjust="spacing" textLength="129.6152" x="344.5747" y="533.7588">ITMO(s) authorization</text><text fill="#000000" font-family="sans-serif" font-size="12" lengthAdjust="spacing" textLength="95.5723" x="344.5747" y="547.7275">with Secretariat</text><polygon fill="#F1F1F1" points="328.0693,681.3271,490.6953,681.3271,502.6953,693.3271,490.6953,705.3271,328.0693,705.3271,316.0693,693.3271,328.0693,681.3271" style="stroke:#181818;stroke-width:0.5;"/><text fill="#000000" font-family="sans-serif" font-size="11" lengthAdjust="spacing" textLength="19.0083" x="413.3823" y="715.5376">yes</text><text fill="#000000" font-family="sans-serif" font-size="11" lengthAdjust="spacing" textLength="162.626" x="328.0693" y="697.1353">Party opts for Interoperability</text><text fill="#000000" font-family="sans-serif" font-size="11" lengthAdjust="spacing" textLength="13.7017" x="502.6953" y="690.7329">no</text><ellipse cx="538.397" cy="693.3271" fill="transparent" rx="11" ry="11" style="stroke:#222222;stroke-width:1;"/><ellipse cx="538.397" cy="693.3271" fill="#222222" rx="6" ry="6" style="stroke:#222222;stroke-width:1;"/><line style="stroke:#000000;stroke-width:1.5;" x1="15" x2="15" y1="66.3389" y2="1509.248"/><path d="M590.0591,399.0459 L590.0591,454.4443 A0,0 0 0 0 590.0591,454.4443 L771.6357,454.4443 A0,0 0 0 0 771.6357,454.4443 L771.6357,430.7451 L791.6357,426.7451 L771.6357,422.7451 L771.6357,409.0459 L761.6357,399.0459 L590.0591,399.0459 A0,0 0 0 0 590.0591,399.0459 " fill="#FEFFDD" style="stroke:#181818;stroke-width:0.5;"/><path d="M761.6357,399.0459 L761.6357,409.0459 L771.6357,409.0459 L761.6357,399.0459 " fill="#FEFFDD" style="stroke:#181818;stroke-width:0.5;"/><text fill="#000000" font-family="sans-serif" font-size="13" lengthAdjust="spacing" textLength="160.5767" x="596.0591" y="416.1128">Authorization Id must be</text><text fill="#000000" font-family="sans-serif" font-size="13" lengthAdjust="spacing" textLength="152.4199" x="596.0591" y="431.2456">assigned by secretariat</text><text fill="#000000" font-family="sans-serif" font-size="13" lengthAdjust="spacing" textLength="140.2705" x="596.0591" y="446.3784">to ensure uniqueness</text><rect fill="#F1F1F1" height="103.8125" rx="12.5" ry="12.5" style="stroke:#181818;stroke-width:0.5;" width="218.7148" x="791.6357" y="374.8389"/><text fill="#000000" font-family="sans-serif" font-size="12" lengthAdjust="spacing" textLength="179.9766" x="801.6357" y="395.9775">Secretariat (issuing authority)</text><text fill="#000000" font-family="sans-serif" font-size="12" lengthAdjust="spacing" textLength="151.9688" x="801.6357" y="409.9463">- assigns Authorization Id</text><text fill="#000000" font-family="sans-serif" font-size="12" lengthAdjust="spacing" textLength="198.7148" x="801.6357" y="423.915">- registers Cooperative Approach</text><text fill="#000000" font-family="sans-serif" font-size="12" lengthAdjust="spacing" textLength="105.9082" x="809.2646" y="437.8838">and authorization</text><text fill="#000000" font-family="sans-serif" font-size="12" lengthAdjust="spacing" textLength="73.3066" x="809.2646" y="451.8525">in CARP and</text><text fill="#000000" font-family="sans-serif" font-size="12" lengthAdjust="spacing" textLength="149.0215" x="809.2646" y="465.8213">Common Nomenclatures</text><path d="M558.397,575.6631 L558.397,661.3271 A0,0 0 0 0 558.397,661.3271 L773.8096,661.3271 A0,0 0 0 0 773.8096,661.3271 L773.8096,622.4951 L793.8096,618.4951 L773.8096,614.4951 L773.8096,585.6631 L763.8096,575.6631 L558.397,575.6631 A0,0 0 0 0 558.397,575.6631 " fill="#FEFFDD" style="stroke:#181818;stroke-width:0.5;"/><path d="M763.8096,575.6631 L763.8096,585.6631 L773.8096,585.6631 L763.8096,575.6631 " fill="#FEFFDD" style="stroke:#181818;stroke-width:0.5;"/><ellipse cx="569.897" cy="588.2959" fill="#000000" rx="2.5" ry="2.5"/><text fill="#000000" font-family="sans-serif" font-size="13" lengthAdjust="spacing" textLength="160.5767" x="576.397" y="592.73">Authorization Id must be</text><text fill="#000000" font-family="sans-serif" font-size="13" lengthAdjust="spacing" textLength="152.4199" x="580.9263" y="607.8628">assigned by secretariat</text><text fill="#000000" font-family="sans-serif" font-size="13" lengthAdjust="spacing" textLength="140.2705" x="580.9263" y="622.9956">to ensure uniqueness</text><ellipse cx="569.897" cy="633.6943" fill="#000000" rx="2.5" ry="2.5"/><text fill="#000000" font-family="sans-serif" font-size="13" lengthAdjust="spacing" textLength="182.4126" x="576.397" y="638.1284">Secretariat will also register</text><text fill="#000000" font-family="sans-serif" font-size="13" lengthAdjust="spacing" textLength="122.0845" x="580.9263" y="653.2612">authorized entities</text><rect fill="#F1F1F1" height="75.875" rx="12.5" ry="12.5" style="stroke:#181818;stroke-width:0.5;" width="214.3672" x="793.8096" y="580.5576"/><text fill="#000000" font-family="sans-serif" font-size="12" lengthAdjust="spacing" textLength="66.2988" x="803.8096" y="601.6963">Secretariat</text><text fill="#000000" font-family="sans-serif" font-size="12" lengthAdjust="spacing" textLength="151.9688" x="803.8096" y="615.665">- assigns Authorization Id</text><text fill="#000000" font-family="sans-serif" font-size="12" lengthAdjust="spacing" textLength="194.3672" x="803.8096" y="629.6338">- registers ITMO(s) authorization</text><text fill="#000000" font-family="sans-serif" font-size="12" lengthAdjust="spacing" textLength="46.916" x="811.4385" y="643.6025">in CARP</text><line style="stroke:#000000;stroke-width:1.5;" x1="553.397" x2="553.397" y1="66.3389" y2="1509.248"/><path d="M1019.3506,727.0376 L1019.3506,858.1001 A0,0 0 0 0 1019.3506,858.1001 L1238.3052,858.1001 A0,0 0 0 0 1238.3052,858.1001 L1238.3052,796.5688 L1258.3052,792.5688 L1238.3052,788.5688 L1238.3052,737.0376 L1228.3052,727.0376 L1019.3506,727.0376 A0,0 0 0 0 1019.3506,727.0376 " fill="#FEFFDD" style="stroke:#181818;stroke-width:0.5;"/><path d="M1228.3052,727.0376 L1228.3052,737.0376 L1238.3052,737.0376 L1228.3052,727.0376 " fill="#FEFFDD" style="stroke:#181818;stroke-width:0.5;"/><ellipse cx="1030.8506" cy="739.6704" fill="#000000" rx="2.5" ry="2.5"/><text fill="#000000" font-family="sans-serif" font-size="13" lengthAdjust="spacing" textLength="24.2861" x="1037.3506" y="744.1045">Use</text><text fill="#000000" font-family="sans-serif" font-size="13" font-style="italic" lengthAdjust="spacing" textLength="93.4692" x="1065.769" y="744.1045">proposeAction</text><text fill="#000000" font-family="sans-serif" font-size="13" lengthAdjust="spacing" textLength="20.5664" x="1163.3706" y="744.1045">API</text><ellipse cx="1030.8506" cy="754.8032" fill="#000000" rx="2.5" ry="2.5"/><text fill="#000000" font-family="sans-serif" font-size="13" lengthAdjust="spacing" textLength="116.562" x="1037.3506" y="759.2373">Action is Issuance</text><ellipse cx="1030.8506" cy="769.936" fill="#000000" rx="2.5" ry="2.5"/><text fill="#000000" font-family="sans-serif" font-size="13" lengthAdjust="spacing" textLength="185.9546" x="1037.3506" y="774.3701">Registry provides account Id</text><text fill="#000000" font-family="sans-serif" font-size="13" lengthAdjust="spacing" textLength="124.979" x="1041.8799" y="789.5029">to hold the ITMO(s)</text><ellipse cx="1030.8506" cy="800.2017" fill="#000000" rx="2.5" ry="2.5"/><text fill="#000000" font-family="sans-serif" font-size="13" lengthAdjust="spacing" textLength="155.8984" x="1037.3506" y="804.6357">ITMOs will be created in</text><text fill="#000000" font-family="sans-serif" font-size="13" lengthAdjust="spacing" textLength="166.6006" x="1033.6152" y="819.7686">the International Registry</text><ellipse cx="1030.8506" cy="830.4673" fill="#000000" rx="2.5" ry="2.5"/><text fill="#000000" font-family="sans-serif" font-size="13" lengthAdjust="spacing" textLength="140.0039" x="1037.3506" y="834.9014">unique ITMOId will be</text><text fill="#000000" font-family="sans-serif" font-size="13" lengthAdjust="spacing" textLength="127.9434" x="1033.6152" y="850.0342">returned to registry</text><rect fill="#F1F1F1" height="61.9063" rx="12.5" ry="12.5" style="stroke:#181818;stroke-width:0.5;" width="131.252" x="1258.3052" y="761.6157"/><text fill="#000000" font-family="sans-serif" font-size="12" lengthAdjust="spacing" textLength="100.8223" x="1268.3052" y="782.7544">First transferring</text><text fill="#000000" font-family="sans-serif" font-size="12" lengthAdjust="spacing" textLength="111.252" x="1268.3052" y="796.7231">participating Party</text><text fill="#000000" font-family="sans-serif" font-size="12" lengthAdjust="spacing" textLength="77.8125" x="1268.3052" y="810.6919">issues ITMOs</text><rect fill="#F1F1F1" height="47.9375" rx="12.5" ry="12.5" style="stroke:#181818;stroke-width:0.5;" width="134.6504" x="1256.606" y="960.0063"/><text fill="#000000" font-family="sans-serif" font-size="12" lengthAdjust="spacing" textLength="101.9473" x="1266.606" y="981.145">Finalize Issuance</text><text fill="#000000" font-family="sans-serif" font-size="12" lengthAdjust="spacing" textLength="114.6504" x="1266.606" y="995.1138">and record ITMO Id</text><path d="M1080.353,1087.4902 L1080.353,1127.7559 A0,0 0 0 0 1080.353,1127.7559 L1242.5884,1127.7559 A0,0 0 0 0 1242.5884,1127.7559 L1242.5884,1111.623 L1262.5884,1107.623 L1242.5884,1103.623 L1242.5884,1097.4902 L1232.5884,1087.4902 L1080.353,1087.4902 A0,0 0 0 0 1080.353,1087.4902 " fill="#FEFFDD" style="stroke:#181818;stroke-width:0.5;"/><path d="M1232.5884,1087.4902 L1232.5884,1097.4902 L1242.5884,1097.4902 L1232.5884,1087.4902 " fill="#FEFFDD" style="stroke:#181818;stroke-width:0.5;"/><text fill="#000000" font-family="sans-serif" font-size="13" lengthAdjust="spacing" textLength="141.2354" x="1086.353" y="1104.5571">Other actions such as</text><text fill="#000000" font-family="sans-serif" font-size="13" lengthAdjust="spacing" textLength="139.6167" x="1086.353" y="1119.6899">transfers, updates, ...</text><rect fill="#F1F1F1" height="47.9375" rx="12.5" ry="12.5" style="stroke:#181818;stroke-width:0.5;" width="122.6855" x="1262.5884" y="1083.6543"/><text fill="#000000" font-family="sans-serif" font-size="12" lengthAdjust="spacing" textLength="83.8887" x="1272.5884" y="1104.793">Propose other</text><text fill="#000000" font-family="sans-serif" font-size="12" lengthAdjust="spacing" textLength="102.6855" x="1272.5884" y="1118.7617">actions on ITMOs</text><rect fill="#F1F1F1" height="47.9375" rx="12.5" ry="12.5" style="stroke:#181818;stroke-width:0.5;" width="122.6855" x="1262.5884" y="1233.498"/><text fill="#000000" font-family="sans-serif" font-size="12" lengthAdjust="spacing" textLength="81.2813" x="1272.5884" y="1254.6367">Finalise other</text><text fill="#000000" font-family="sans-serif" font-size="12" lengthAdjust="spacing" textLength="102.6855" x="1272.5884" y="1268.6055">actions on ITMOs</text><polygon fill="#F1F1F1" points="1243.4265,1027.9438,1404.4358,1027.9438,1416.4358,1039.9438,1404.4358,1051.9438,1243.4265,1051.9438,1231.4265,1039.9438,1243.4265,1027.9438" style="stroke:#181818;stroke-width:0.5;"/><text fill="#000000" font-family="sans-serif" font-size="11" lengthAdjust="spacing" textLength="13.7017" x="1327.9312" y="1062.1543">no</text><text fill="#000000" font-family="sans-serif" font-size="11" lengthAdjust="spacing" textLength="161.0093" x="1243.4265" y="1043.752">Propose Use or Cancel action</text><text fill="#000000" font-family="sans-serif" font-size="11" lengthAdjust="spacing" textLength="19.0083" x="1212.4182" y="1037.3496">yes</text><rect fill="#F1F1F1" height="47.9375" rx="12.5" ry="12.5" style="stroke:#181818;stroke-width:0.5;" width="107.8203" x="1270.021" y="1419.3105"/><text fill="#000000" font-family="sans-serif" font-size="12" lengthAdjust="spacing" textLength="87.8203" x="1280.021" y="1440.4492">Finalise Use or</text><text fill="#000000" font-family="sans-serif" font-size="12" lengthAdjust="spacing" textLength="87.6563" x="1280.021" y="1454.418">Cancel actions</text><ellipse cx="1323.9312" cy="1498.248" fill="transparent" rx="11" ry="11" style="stroke:#222222;stroke-width:1;"/><ellipse cx="1323.9312" cy="1498.248" fill="#222222" rx="6" ry="6" style="stroke:#222222;stroke-width:1;"/><line style="stroke:#000000;stroke-width:1.5;" x1="1014.3506" x2="1014.3506" y1="66.3389" y2="1509.248"/><rect fill="#F1F1F1" height="61.9063" rx="12.5" ry="12.5" style="stroke:#181818;stroke-width:0.5;" width="125.6914" x="1453.4358" y="878.1001"/><text fill="#000000" font-family="sans-serif" font-size="12" lengthAdjust="spacing" textLength="105.6914" x="1463.4358" y="899.2388">Validate Issuance</text><text fill="#000000" font-family="sans-serif" font-size="12" lengthAdjust="spacing" textLength="22.5762" x="1463.4358" y="913.2075">and</text><text fill="#000000" font-family="sans-serif" font-size="12" lengthAdjust="spacing" textLength="94.7813" x="1463.4358" y="927.1763">provide ITMO Id</text><rect fill="#F1F1F1" height="61.9063" rx="12.5" ry="12.5" style="stroke:#181818;stroke-width:0.5;" width="98.9727" x="1466.7952" y="1151.5918"/><text fill="#000000" font-family="sans-serif" font-size="12" lengthAdjust="spacing" textLength="75.6797" x="1476.7952" y="1172.7305">Validate and</text><text fill="#000000" font-family="sans-serif" font-size="12" lengthAdjust="spacing" textLength="52.3242" x="1476.7952" y="1186.6992">facilitate</text><text fill="#000000" font-family="sans-serif" font-size="12" lengthAdjust="spacing" textLength="78.9727" x="1476.7952" y="1200.668">other actions</text><rect fill="#F1F1F1" height="75.875" rx="12.5" ry="12.5" style="stroke:#181818;stroke-width:0.5;" width="102.9746" x="1464.7942" y="1323.4355"/><text fill="#000000" font-family="sans-serif" font-size="12" lengthAdjust="spacing" textLength="75.6797" x="1474.7942" y="1344.5742">Validate and</text><text fill="#000000" font-family="sans-serif" font-size="12" lengthAdjust="spacing" textLength="52.3242" x="1474.7942" y="1358.543">facilitate</text><text fill="#000000" font-family="sans-serif" font-size="12" lengthAdjust="spacing" textLength="82.9746" x="1474.7942" y="1372.5117">Use or Cancel</text><text fill="#000000" font-family="sans-serif" font-size="12" lengthAdjust="spacing" textLength="36.9375" x="1474.7942" y="1386.4805">action</text><line style="stroke:#000000;stroke-width:1.5;" x1="1447.4358" x2="1447.4358" y1="66.3389" y2="1509.248"/><line style="stroke:#000000;stroke-width:1.5;" x1="1583.1272" x2="1583.1272" y1="66.3389" y2="1509.248"/><line style="stroke:#181818;stroke-width:1;" x1="409.3823" x2="409.3823" y1="133.2451" y2="153.96"/><polygon fill="#181818" points="405.3823,143.96,409.3823,153.96,413.3823,143.96,409.3823,147.96" style="stroke:#181818;stroke-width:1;"/><line style="stroke:#181818;stroke-width:1;" x1="409.3823" x2="409.3823" y1="187.9287" y2="250.7881"/><polygon fill="#181818" points="405.3823,240.7881,409.3823,250.7881,413.3823,240.7881,409.3823,244.7881" style="stroke:#181818;stroke-width:1;"/><line style="stroke:#181818;stroke-width:1;" x1="502.6953" x2="527.397" y1="693.3271" y2="693.3271"/><polygon fill="#181818" points="517.397,689.3271,527.397,693.3271,517.397,697.3271,521.397,693.3271" style="stroke:#181818;stroke-width:1;"/><line style="stroke:#181818;stroke-width:1;" x1="1323.9312" x2="1323.9312" y1="1007.9438" y2="1027.9438"/><polygon fill="#181818" points="1319.9312,1017.9438,1323.9312,1027.9438,1327.9312,1017.9438,1323.9312,1021.9438" style="stroke:#181818;stroke-width:1;"/><line style="stroke:#181818;stroke-width:1;" x1="1323.9312" x2="1323.9312" y1="1051.9438" y2="1083.6543"/><polygon fill="#181818" points="1319.9312,1073.6543,1323.9312,1083.6543,1327.9312,1073.6543,1323.9312,1077.6543" style="stroke:#181818;stroke-width:1;"/><line style="stroke:#181818;stroke-width:1;" x1="1323.9312" x2="1323.9312" y1="1281.4355" y2="1291.4355"/><line style="stroke:#181818;stroke-width:1;" x1="1323.9312" x2="1428.4358" y1="1291.4355" y2="1291.4355"/><polygon fill="#181818" points="1424.4358,1174.1426,1428.4358,1164.1426,1432.4358,1174.1426,1428.4358,1170.1426" style="stroke:#181818;stroke-width:1;"/><line style="stroke:#181818;stroke-width:1;" x1="1428.4358" x2="1428.4358" y1="1039.9438" y2="1291.4355"/><line style="stroke:#181818;stroke-width:1;" x1="1428.4358" x2="1416.4358" y1="1039.9438" y2="1039.9438"/><polygon fill="#181818" points="1426.4358,1035.9438,1416.4358,1039.9438,1426.4358,1043.9438,1422.4358,1039.9438" style="stroke:#181818;stroke-width:1;"/><line style="stroke:#181818;stroke-width:1;" x1="1231.4265" x2="1068.353" y1="1039.9438" y2="1039.9438"/><polygon fill="#181818" points="1064.353,1168.8926,1068.353,1178.8926,1072.353,1168.8926,1068.353,1172.8926" style="stroke:#181818;stroke-width:1;"/><line style="stroke:#181818;stroke-width:1;" x1="1068.353" x2="1068.353" y1="1039.9438" y2="1308.4355"/><line style="stroke:#181818;stroke-width:1;" x1="1068.353" x2="1516.2815" y1="1308.4355" y2="1308.4355"/><line style="stroke:#181818;stroke-width:1;" x1="1516.2815" x2="1516.2815" y1="1308.4355" y2="1323.4355"/><polygon fill="#181818" points="1512.2815,1313.4355,1516.2815,1323.4355,1520.2815,1313.4355,1516.2815,1317.4355" style="stroke:#181818;stroke-width:1;"/><line style="stroke:#181818;stroke-width:1;" x1="1323.9312" x2="1323.9312" y1="1467.248" y2="1487.248"/><polygon fill="#181818" points="1319.9312,1477.248,1323.9312,1487.248,1327.9312,1477.248,1323.9312,1481.248" style="stroke:#181818;stroke-width:1;"/><line style="stroke:#181818;stroke-width:1;" x1="409.3823" x2="409.3823" y1="312.6943" y2="351.2666"/><line style="stroke:#181818;stroke-width:1;" x1="409.3823" x2="900.9932" y1="351.2666" y2="351.2666"/><line style="stroke:#181818;stroke-width:1;" x1="900.9932" x2="900.9932" y1="351.2666" y2="374.8389"/><polygon fill="#181818" points="896.9932,364.8389,900.9932,374.8389,904.9932,364.8389,900.9932,368.8389" style="stroke:#181818;stroke-width:1;"/><line style="stroke:#181818;stroke-width:1;" x1="900.9932" x2="900.9932" y1="478.6514" y2="483.6514"/><line style="stroke:#181818;stroke-width:1;" x1="900.9932" x2="409.3823" y1="483.6514" y2="483.6514"/><line style="stroke:#181818;stroke-width:1;" x1="409.3823" x2="409.3823" y1="483.6514" y2="498.6514"/><polygon fill="#181818" points="405.3823,488.6514,409.3823,498.6514,413.3823,488.6514,409.3823,492.6514" style="stroke:#181818;stroke-width:1;"/><line style="stroke:#181818;stroke-width:1;" x1="409.3823" x2="409.3823" y1="560.5576" y2="565.5576"/><line style="stroke:#181818;stroke-width:1;" x1="409.3823" x2="900.9932" y1="565.5576" y2="565.5576"/><line style="stroke:#181818;stroke-width:1;" x1="900.9932" x2="900.9932" y1="565.5576" y2="580.5576"/><polygon fill="#181818" points="896.9932,570.5576,900.9932,580.5576,904.9932,570.5576,900.9932,574.5576" style="stroke:#181818;stroke-width:1;"/><line style="stroke:#181818;stroke-width:1;" x1="1323.9312" x2="1323.9312" y1="823.522" y2="858.311"/><line style="stroke:#181818;stroke-width:1;" x1="1323.9312" x2="1516.2815" y1="858.311" y2="858.311"/><line style="stroke:#181818;stroke-width:1;" x1="1516.2815" x2="1516.2815" y1="858.311" y2="878.1001"/><polygon fill="#181818" points="1512.2815,868.1001,1516.2815,878.1001,1520.2815,868.1001,1516.2815,872.1001" style="stroke:#181818;stroke-width:1;"/><line style="stroke:#181818;stroke-width:1;" x1="1516.2815" x2="1516.2815" y1="940.0063" y2="945.0063"/><line style="stroke:#181818;stroke-width:1;" x1="1516.2815" x2="1323.9312" y1="945.0063" y2="945.0063"/><line style="stroke:#181818;stroke-width:1;" x1="1323.9312" x2="1323.9312" y1="945.0063" y2="960.0063"/><polygon fill="#181818" points="1319.9312,950.0063,1323.9312,960.0063,1327.9312,950.0063,1323.9312,954.0063" style="stroke:#181818;stroke-width:1;"/><line style="stroke:#181818;stroke-width:1;" x1="409.3823" x2="409.3823" y1="705.3271" y2="732.1255"/><line style="stroke:#181818;stroke-width:1;" x1="409.3823" x2="1323.9312" y1="732.1255" y2="732.1255"/><line style="stroke:#181818;stroke-width:1;" x1="1323.9312" x2="1323.9312" y1="732.1255" y2="761.6157"/><polygon fill="#181818" points="1319.9312,751.6157,1323.9312,761.6157,1327.9312,751.6157,1323.9312,755.6157" style="stroke:#181818;stroke-width:1;"/><line style="stroke:#181818;stroke-width:1;" x1="900.9932" x2="900.9932" y1="656.4326" y2="666.3271"/><line style="stroke:#181818;stroke-width:1;" x1="900.9932" x2="409.3823" y1="666.3271" y2="666.3271"/><line style="stroke:#181818;stroke-width:1;" x1="409.3823" x2="409.3823" y1="666.3271" y2="681.3271"/><polygon fill="#181818" points="405.3823,671.3271,409.3823,681.3271,413.3823,671.3271,409.3823,675.3271" style="stroke:#181818;stroke-width:1;"/><line style="stroke:#181818;stroke-width:1;" x1="1323.9312" x2="1323.9312" y1="1131.5918" y2="1136.5918"/><line style="stroke:#181818;stroke-width:1;" x1="1323.9312" x2="1516.2815" y1="1136.5918" y2="1136.5918"/><line style="stroke:#181818;stroke-width:1;" x1="1516.2815" x2="1516.2815" y1="1136.5918" y2="1151.5918"/><polygon fill="#181818" points="1512.2815,1141.5918,1516.2815,1151.5918,1520.2815,1141.5918,1516.2815,1145.5918" style="stroke:#181818;stroke-width:1;"/><line style="stroke:#181818;stroke-width:1;" x1="1516.2815" x2="1516.2815" y1="1213.498" y2="1218.498"/><line style="stroke:#181818;stroke-width:1;" x1="1516.2815" x2="1323.9312" y1="1218.498" y2="1218.498"/><line style="stroke:#181818;stroke-width:1;" x1="1323.9312" x2="1323.9312" y1="1218.498" y2="1233.498"/><polygon fill="#181818" points="1319.9312,1223.498,1323.9312,1233.498,1327.9312,1223.498,1323.9312,1227.498" style="stroke:#181818;stroke-width:1;"/><line style="stroke:#181818;stroke-width:1;" x1="1516.2815" x2="1516.2815" y1="1399.3105" y2="1404.3105"/><line style="stroke:#181818;stroke-width:1;" x1="1516.2815" x2="1323.9312" y1="1404.3105" y2="1404.3105"/><line style="stroke:#181818;stroke-width:1;" x1="1323.9312" x2="1323.9312" y1="1404.3105" y2="1419.3105"/><polygon fill="#181818" points="1319.9312,1409.3105,1323.9312,1419.3105,1327.9312,1409.3105,1323.9312,1413.3105" style="stroke:#181818;stroke-width:1;"/><text fill="#000000" font-family="sans-serif" font-size="18" lengthAdjust="spacing" textLength="166.3066" x="201.0452" y="83.0469">Participating Party</text><text fill="#000000" font-family="sans-serif" font-size="18" lengthAdjust="spacing" textLength="99.4482" x="734.1497" y="83.0469">Secretariat</text><text fill="#000000" font-family="sans-serif" font-size="18" lengthAdjust="spacing" textLength="181.8018" x="1139.9923" y="83.0469">Interoperating Party</text><text fill="#000000" font-family="sans-serif" font-size="18" lengthAdjust="spacing" textLength="115.1982" x="1456.988" y="83.0469">International</text><text fill="#000000" font-family="sans-serif" font-size="18" lengthAdjust="spacing" textLength="116.5869" x="1456.988" y="104">Registry Hub</text><!--SRC=[hLPDRzf04BtxLyoHH1JKzbAr9uHQ5QbfKFfnuhBOOnZ9xBgxwwHK_FZEVjYiYGb9LKvuFNxpPjwRiItP2c7n_UOMlb29-JxdovNC3akXBULK2qjo0-vgVyWoO_bFbcN0l_TpfMhK772FCAjhhKI-XLbZjqhJ7om- -2W0gIn2XQMDrm05vcH8INW3yvlPvEqOX9JuUmorq09UlnjjhhhOQtTuoWH4cyLqWG13VE9jb8NdmPU1Uu3Hk25ZKGUKiy-tsVYMalzULb9JI6-QzOwi0P9aILHCfrRQ9XK1MDMHxDD8m6ubWjAmKneXLxirIHzXUa2gx3zl-AGNmDK_Bd_S2t4sCSod2b8mDxl5Kv376Do6eXVrKLekkDCk4GVWy0rpZMmp4lOGj4fEO4J6D2vvBCRkWrLUWJ26DbpMBAqI5aMytKdzb4sOw62NIS9yThVqzxEsqjsEyR-g7SgS6z9eDEUjSKeATesni3usBx370jPiYsEzMU83b8QJG2FfLuCIpN3x1kTsoFAX42Vfo5mDLFr0TWj9wyyNnoYbEmPHQHJ5CGUcidky9th_QD0YZ4w5w6fzXbTUwelphUWCSBu7rvSbVexC5wHsUT9fUA2gugwRP4dqqtNBc267P-w2QwY4KJ2EgdbJbRnd5fBpU1dNLBa1T5j0mcYFvghThmnv33l5P9a-aURciBRIbAWr1wpam9vVIJVk6BJfncku_pyCmdJAbggLmLdkL9XEORPSf1hvOo06P5mXSqnktWMxxO4nxgdWh2BFLIDjQvP4eAsg2bTsQve49Yn9hyoQzp5FXENsaqmW_8EkFM5Hy-PlSoSuGNmFnsQAU0a8cw3HpahTAo9vlBSJMZ7QR2lPbVgvMNUQ_1GL5Kpsj3V7xHqR4puN5lo2VwRMd9CzE83Bn7EbYoEWvrwnaYEfsgQUDoU0iQhsVpDVCvLPTeQCu_gm9Vww6Is3HxnZsCzpnud7o7lZofaZ9ezhCqOhLas7pu4yla1btvUdhhnrJtJHfk6l8z7ENsjzCuQcTbtdFvF9P72bNnJlA5shLIboDviYGgYKoOViWcPHiOirCylOqJZw_uLhJvKazmje1uZmJPUA6qltflaB]--></g></svg>