<svg xmlns="http://www.w3.org/2000/svg" xmlns:xlink="http://www.w3.org/1999/xlink" contentStyleType="text/css" data-diagram-type="SEQUENCE" height="802px" preserveAspectRatio="none" style="width:1334px;height:802px;background:#FFFFFF;" version="1.1" viewBox="0 0 1334 802" width="1334px" zoomAndPan="magnify"><title>ITMO Update Notification</title><defs/><g><text fill="#000000" font-family="sans-serif" font-size="14" font-weight="bold" lengthAdjust="spacing" textLength="199.9238" x="571.7583" y="27.9951">ITMO Update Notification</text><g><title>First transferring</title><rect fill="#FFFFFF" height="176.6641" style="stroke:#181818;stroke-width:1;" width="10" x="98.813" y="116.1875"/></g><g><title>Interoperability</title><rect fill="#FFFFFF" height="113.3984" style="stroke:#181818;stroke-width:1;" width="10" x="389.2476" y="179.4531"/></g><g><title>Interoperability</title><rect fill="#FFFFFF" height="32.1328" style="stroke:#181818;stroke-width:1;" width="10" x="389.2476" y="324.9844"/></g><g><title>Interoperability</title><rect fill="#FFFFFF" height="68.1328" style="stroke:#181818;stroke-width:1;" width="10" x="389.2476" y="515.6484"/></g><g><title>Interoperability</title><rect fill="#FFFFFF" height="32.1328" style="stroke:#181818;stroke-width:1;" width="10" x="389.2476" y="622.9141"/></g><g><title>Holding</title><rect fill="#FFFFFF" height="252.7969" style="stroke:#181818;stroke-width:1;" width="10" x="703.0332" y="292.8516"/></g><g><title>Holding</title><rect fill="#FFFFFF" height="151.3984" style="stroke:#181818;stroke-width:1;" width="10" x="708.0332" y="394.25"/></g><g><title>Holding</title><rect fill="#FFFFFF" height="165.7305" style="stroke:#181818;stroke-width:1;" width="10" x="1021.2368" y="585.7813"/></g><g><title>Holding</title><rect fill="#FFFFFF" height="59.332" style="stroke:#181818;stroke-width:1;" width="10" x="1026.2368" y="692.1797"/></g><g><title>First transferring</title><rect fill="transparent" height="689.5234" width="8" x="99.813" y="106.1875"/><line style="stroke:#181818;stroke-width:0.5;stroke-dasharray:5.0,5.0;" x1="103" x2="103" y1="106.1875" y2="795.7109"/></g><g><title>Interoperability</title><rect fill="transparent" height="689.5234" width="8" x="390.2476" y="106.1875"/><line style="stroke:#181818;stroke-width:0.5;stroke-dasharray:5.0,5.0;" x1="393.4521" x2="393.4521" y1="106.1875" y2="795.7109"/></g><g><title>Holding</title><rect fill="transparent" height="689.5234" width="8" x="704.0332" y="106.1875"/><line style="stroke:#181818;stroke-width:0.5;stroke-dasharray:5.0,5.0;" x1="707.3696" x2="707.3696" y1="106.1875" y2="795.7109"/></g><g><title>Holding</title><rect fill="transparent" height="689.5234" width="8" x="1022.2368" y="106.1875"/><line style="stroke:#181818;stroke-width:0.5;stroke-dasharray:5.0,5.0;" x1="1025.5732" x2="1025.5732" y1="106.1875" y2="795.7109"/></g><rect fill="#E2E2F0" height="62.8906" rx="2.5" ry="2.5" style="stroke:#181818;stroke-width:0.5;" width="131.626" x="38" y="42.2969"/><text fill="#000000" font-family="sans-serif" font-size="14" lengthAdjust="spacing" textLength="117.626" x="45" y="62.292">First transferring</text><text fill="#000000" font-family="sans-serif" font-size="14" lengthAdjust="spacing" textLength="88.792" x="59.417" y="78.5889">participating</text><text fill="#000000" font-family="sans-serif" font-size="14" lengthAdjust="spacing" textLength="94.9717" x="56.3271" y="94.8857">Party registry</text><rect fill="#E2E2F0" height="46.5938" rx="2.5" ry="2.5" style="stroke:#181818;stroke-width:0.5;" width="121.5908" x="333.4521" y="58.5938"/><text fill="#000000" font-family="sans-serif" font-size="14" lengthAdjust="spacing" textLength="107.5908" x="340.4521" y="78.5889">Interoperability</text><text fill="#000000" font-family="sans-serif" font-size="14" lengthAdjust="spacing" textLength="28.2871" x="380.104" y="94.8857">Hub</text><rect fill="#E2E2F0" height="46.5938" rx="2.5" ry="2.5" style="stroke:#181818;stroke-width:0.5;" width="81.3271" x="667.3696" y="58.5938"/><text fill="#000000" font-family="sans-serif" font-size="14" lengthAdjust="spacing" textLength="53.5186" x="681.2739" y="78.5889">Holding</text><text fill="#000000" font-family="sans-serif" font-size="14" lengthAdjust="spacing" textLength="67.3271" x="674.3696" y="94.8857">registry 1</text><rect fill="#E2E2F0" height="46.5938" rx="2.5" ry="2.5" style="stroke:#181818;stroke-width:0.5;" width="81.3271" x="985.5732" y="58.5938"/><text fill="#000000" font-family="sans-serif" font-size="14" lengthAdjust="spacing" textLength="53.5186" x="999.4775" y="78.5889">Holding</text><text fill="#000000" font-family="sans-serif" font-size="14" lengthAdjust="spacing" textLength="67.3271" x="992.5732" y="94.8857">registry 2</text><g><title>First transferring</title><rect fill="#FFFFFF" height="176.6641" style="stroke:#181818;stroke-width:1;" width="10" x="98.813" y="116.1875"/></g><g><title>Interoperability</title><rect fill="#FFFFFF" height="113.3984" style="stroke:#181818;stroke-width:1;" width="10" x="389.2476" y="179.4531"/></g><g><title>Interoperability</title><rect fill="#FFFFFF" height="32.1328" style="stroke:#181818;stroke-width:1;" width="10" x="389.2476" y="324.9844"/></g><g><title>Interoperability</title><rect fill="#FFFFFF" height="68.1328" style="stroke:#181818;stroke-width:1;" width="10" x="389.2476" y="515.6484"/></g><g><title>Interoperability</title><rect fill="#FFFFFF" height="32.1328" style="stroke:#181818;stroke-width:1;" width="10" x="389.2476" y="622.9141"/></g><g><title>Holding</title><rect fill="#FFFFFF" height="252.7969" style="stroke:#181818;stroke-width:1;" width="10" x="703.0332" y="292.8516"/></g><g><title>Holding</title><rect fill="#FFFFFF" height="151.3984" style="stroke:#181818;stroke-width:1;" width="10" x="708.0332" y="394.25"/></g><g><title>Holding</title><rect fill="#FFFFFF" height="165.7305" style="stroke:#181818;stroke-width:1;" width="10" x="1021.2368" y="585.7813"/></g><g><title>Holding</title><rect fill="#FFFFFF" height="59.332" style="stroke:#181818;stroke-width:1;" width="10" x="1026.2368" y="692.1797"/></g><line style="stroke:#181818;stroke-width:1;" x1="108.813" x2="150.813" y1="137.3203" y2="137.3203"/><line style="stroke:#181818;stroke-width:1;" x1="150.813" x2="150.813" y1="137.3203" y2="150.3203"/><line style="stroke:#181818;stroke-width:1;" x1="109.813" x2="150.813" y1="150.3203" y2="150.3203"/><polygon fill="#181818" points="119.813,146.3203,109.813,150.3203,119.813,154.3203" style="stroke:#181818;stroke-width:1;"/><text fill="#000000" font-family="sans-serif" font-size="13" lengthAdjust="spacing" textLength="118.498" x="115.813" y="132.2544">updateITMO(itmo)</text><polygon fill="#181818" points="377.2476,175.4531,387.2476,179.4531,377.2476,183.4531" style="stroke:#181818;stroke-width:1;"/><line style="stroke:#181818;stroke-width:1;" x1="108.813" x2="383.2476" y1="179.4531" y2="179.4531"/><text fill="#000000" font-family="sans-serif" font-size="13" lengthAdjust="spacing" textLength="261.4346" x="115.813" y="174.3872">notifyITMOUpdate(itmoId, attributes, ...)</text><line style="stroke:#181818;stroke-width:1;" x1="399.2476" x2="441.2476" y1="208.5859" y2="208.5859"/><line style="stroke:#181818;stroke-width:1;" x1="441.2476" x2="441.2476" y1="208.5859" y2="221.5859"/><line style="stroke:#181818;stroke-width:1;" x1="400.2476" x2="441.2476" y1="221.5859" y2="221.5859"/><polygon fill="#181818" points="410.2476,217.5859,400.2476,221.5859,410.2476,225.5859" style="stroke:#181818;stroke-width:1;"/><text fill="#000000" font-family="sans-serif" font-size="13" lengthAdjust="spacing" textLength="252.751" x="406.2476" y="203.52">verifyNewAttributes(itmoid, attributes)</text><line style="stroke:#181818;stroke-width:1;" x1="399.2476" x2="441.2476" y1="250.7188" y2="250.7188"/><line style="stroke:#181818;stroke-width:1;" x1="441.2476" x2="441.2476" y1="250.7188" y2="263.7188"/><line style="stroke:#181818;stroke-width:1;" x1="400.2476" x2="441.2476" y1="263.7188" y2="263.7188"/><polygon fill="#181818" points="410.2476,259.7188,400.2476,263.7188,410.2476,267.7188" style="stroke:#181818;stroke-width:1;"/><text fill="#000000" font-family="sans-serif" font-size="13" lengthAdjust="spacing" textLength="243.02" x="406.2476" y="245.6528">addNotification(itmoId, attributes, ...)</text><path d="M671.02,238.0859 L671.02,263.0859 L875.02,263.0859 L875.02,248.0859 L865.02,238.0859 L671.02,238.0859 " fill="#FEFFDD" style="stroke:#181818;stroke-width:0.5;"/><path d="M865.02,238.0859 L865.02,248.0859 L875.02,248.0859 L865.02,238.0859 " fill="#FEFFDD" style="stroke:#181818;stroke-width:0.5;"/><text fill="#000000" font-family="sans-serif" font-size="13" lengthAdjust="spacing" textLength="183.9106" x="677.02" y="255.1528">notificationStatus -- Created</text><polygon fill="#181818" points="114.813,288.8516,104.813,292.8516,114.813,296.8516" style="stroke:#181818;stroke-width:1;"/><line style="stroke:#181818;stroke-width:1;stroke-dasharray:2.0,2.0;" x1="108.813" x2="393.2476" y1="292.8516" y2="292.8516"/><text fill="#000000" font-family="sans-serif" font-size="13" font-style="italic" lengthAdjust="spacing" textLength="85.1919" x="120.813" y="287.7856">notificationId</text><polygon fill="#181818" points="410.2476,320.9844,400.2476,324.9844,410.2476,328.9844" style="stroke:#181818;stroke-width:1;"/><line style="stroke:#181818;stroke-width:1;" x1="404.2476" x2="702.0332" y1="324.9844" y2="324.9844"/><text fill="#000000" font-family="sans-serif" font-size="13" lengthAdjust="spacing" textLength="165.2866" x="416.2476" y="319.9185">getPendingNotifications()</text><path d="M5,305.8516 L5,330.8516 L384,330.8516 L384,315.8516 L374,305.8516 L5,305.8516 " fill="#FEFFDD" style="stroke:#181818;stroke-width:0.5;"/><path d="M374,305.8516 L374,315.8516 L384,315.8516 L374,305.8516 " fill="#FEFFDD" style="stroke:#181818;stroke-width:0.5;"/><text fill="#000000" font-family="sans-serif" font-size="13" lengthAdjust="spacing" textLength="358.3379" x="11" y="322.9185">R1.party.notificationId.NotificationStatus == Retrieved</text><polygon fill="#181818" points="691.0332,353.1172,701.0332,357.1172,691.0332,361.1172" style="stroke:#181818;stroke-width:1;"/><line style="stroke:#181818;stroke-width:1;stroke-dasharray:2.0,2.0;" x1="394.2476" x2="697.0332" y1="357.1172" y2="357.1172"/><text fill="#000000" font-family="sans-serif" font-size="13" font-style="italic" lengthAdjust="spacing" textLength="121.8052" x="401.2476" y="352.0513">R1's notifications[]</text><line style="stroke:#181818;stroke-width:1;" x1="713.0332" x2="760.0332" y1="381.25" y2="381.25"/><line style="stroke:#181818;stroke-width:1;" x1="760.0332" x2="760.0332" y1="381.25" y2="394.25"/><line style="stroke:#181818;stroke-width:1;" x1="719.0332" x2="760.0332" y1="394.25" y2="394.25"/><polygon fill="#181818" points="729.0332,390.25,719.0332,394.25,729.0332,398.25" style="stroke:#181818;stroke-width:1;"/><text fill="#000000" font-family="sans-serif" font-size="13" lengthAdjust="spacing" textLength="284.2036" x="725.0332" y="376.1841">processPendingNotifications(notifications[])</text><line style="stroke:#181818;stroke-width:1;" x1="718.0332" x2="760.0332" y1="428.3828" y2="428.3828"/><line style="stroke:#181818;stroke-width:1;" x1="760.0332" x2="760.0332" y1="428.3828" y2="441.3828"/><line style="stroke:#181818;stroke-width:1;" x1="719.0332" x2="760.0332" y1="441.3828" y2="441.3828"/><polygon fill="#181818" points="729.0332,437.3828,719.0332,441.3828,729.0332,445.3828" style="stroke:#181818;stroke-width:1;"/><text fill="#000000" font-family="sans-serif" font-size="13" lengthAdjust="spacing" textLength="208.0825" x="725.0332" y="423.3169">processNotification(notification)</text><line style="stroke:#181818;stroke-width:1;" x1="718.0332" x2="760.0332" y1="470.5156" y2="470.5156"/><line style="stroke:#181818;stroke-width:1;" x1="760.0332" x2="760.0332" y1="470.5156" y2="483.5156"/><line style="stroke:#181818;stroke-width:1;" x1="719.0332" x2="760.0332" y1="483.5156" y2="483.5156"/><polygon fill="#181818" points="729.0332,479.5156,719.0332,483.5156,729.0332,487.5156" style="stroke:#181818;stroke-width:1;"/><text fill="#000000" font-family="sans-serif" font-size="13" lengthAdjust="spacing" textLength="222.9868" x="725.0332" y="465.4497">updateITMO(itmoId, attributes, ...)</text><polygon fill="#181818" points="410.2476,511.6484,400.2476,515.6484,410.2476,519.6484" style="stroke:#181818;stroke-width:1;"/><line style="stroke:#181818;stroke-width:1;" x1="404.2476" x2="707.0332" y1="515.6484" y2="515.6484"/><text fill="#000000" font-family="sans-serif" font-size="13" lengthAdjust="spacing" textLength="255.5059" x="416.2476" y="510.5825">acknowledgeNotification(notificationId)</text><path d="M723,496.5156 L723,521.5156 L950,521.5156 L950,506.5156 L940,496.5156 L723,496.5156 " fill="#FEFFDD" style="stroke:#181818;stroke-width:0.5;"/><path d="M940,496.5156 L940,506.5156 L950,506.5156 L940,496.5156 " fill="#FEFFDD" style="stroke:#181818;stroke-width:0.5;"/><text fill="#000000" font-family="sans-serif" font-size="13" lengthAdjust="spacing" textLength="206.248" x="729" y="513.5825">actionStatus == Acknowledged</text><line style="stroke:#181818;stroke-width:1;" x1="399.2476" x2="441.2476" y1="582.7813" y2="582.7813"/><line style="stroke:#181818;stroke-width:1;" x1="441.2476" x2="441.2476" y1="582.7813" y2="595.7813"/><line style="stroke:#181818;stroke-width:1;" x1="394.2476" x2="441.2476" y1="595.7813" y2="595.7813"/><polygon fill="#181818" points="404.2476,591.7813,394.2476,595.7813,404.2476,599.7813" style="stroke:#181818;stroke-width:1;"/><text fill="#000000" font-family="sans-serif" font-size="13" lengthAdjust="spacing" textLength="279.7856" x="406.2476" y="577.7153">updateNotification(R1.party, notificationId)</text><path d="M198,565.1484 L198,590.1484 L383,590.1484 L383,575.1484 L373,565.1484 L198,565.1484 " fill="#FEFFDD" style="stroke:#181818;stroke-width:0.5;"/><path d="M373,565.1484 L373,575.1484 L383,575.1484 L373,565.1484 " fill="#FEFFDD" style="stroke:#181818;stroke-width:0.5;"/><text fill="#000000" font-family="sans-serif" font-size="13" lengthAdjust="spacing" textLength="164.7534" x="204" y="582.2153">status == Acknowledged</text><polygon fill="#181818" points="410.2476,618.9141,400.2476,622.9141,410.2476,626.9141" style="stroke:#181818;stroke-width:1;"/><line style="stroke:#181818;stroke-width:1;" x1="404.2476" x2="1020.2368" y1="622.9141" y2="622.9141"/><text fill="#000000" font-family="sans-serif" font-size="13" lengthAdjust="spacing" textLength="165.2866" x="416.2476" y="617.8481">getPendingNotifications()</text><path d="M5,603.7813 L5,628.7813 L384,628.7813 L384,613.7813 L374,603.7813 L5,603.7813 " fill="#FEFFDD" style="stroke:#181818;stroke-width:0.5;"/><path d="M374,603.7813 L374,613.7813 L384,613.7813 L374,603.7813 " fill="#FEFFDD" style="stroke:#181818;stroke-width:0.5;"/><text fill="#000000" font-family="sans-serif" font-size="13" lengthAdjust="spacing" textLength="358.3379" x="11" y="620.8481">R2.party.notificationId.NotificationStatus == Retrieved</text><polygon fill="#181818" points="1009.2368,651.0469,1019.2368,655.0469,1009.2368,659.0469" style="stroke:#181818;stroke-width:1;"/><line style="stroke:#181818;stroke-width:1;stroke-dasharray:2.0,2.0;" x1="394.2476" x2="1015.2368" y1="655.0469" y2="655.0469"/><text fill="#000000" font-family="sans-serif" font-size="13" font-style="italic" lengthAdjust="spacing" textLength="121.8052" x="401.2476" y="649.981">R2's notifications[]</text><line style="stroke:#181818;stroke-width:1;" x1="1031.2368" x2="1078.2368" y1="679.1797" y2="679.1797"/><line style="stroke:#181818;stroke-width:1;" x1="1078.2368" x2="1078.2368" y1="679.1797" y2="692.1797"/><line style="stroke:#181818;stroke-width:1;" x1="1037.2368" x2="1078.2368" y1="692.1797" y2="692.1797"/><polygon fill="#181818" points="1047.2368,688.1797,1037.2368,692.1797,1047.2368,696.1797" style="stroke:#181818;stroke-width:1;"/><text fill="#000000" font-family="sans-serif" font-size="13" lengthAdjust="spacing" textLength="284.2036" x="1043.2368" y="674.1138">processPendingNotifications(notifications[])</text><line style="stroke:#181818;stroke-width:1;" x1="1036.2368" x2="1078.2368" y1="750.5117" y2="750.5117"/><line style="stroke:#181818;stroke-width:1;" x1="1078.2368" x2="1078.2368" y1="750.5117" y2="763.5117"/><line style="stroke:#181818;stroke-width:1;" x1="1031.2368" x2="1078.2368" y1="763.5117" y2="763.5117"/><polygon fill="#181818" points="1041.2368,759.5117,1031.2368,763.5117,1041.2368,767.5117" style="stroke:#181818;stroke-width:1;"/><text fill="#000000" font-family="sans-serif" font-size="13" lengthAdjust="spacing" textLength="208.0825" x="1043.2368" y="745.4458">processNotification(notification)</text><path d="M707,710.1797 L707,780.1797 L1016,780.1797 L1016,720.1797 L1006,710.1797 L707,710.1797 " fill="#FEFFDD" style="stroke:#181818;stroke-width:0.5;"/><path d="M1006,710.1797 L1006,720.1797 L1016,720.1797 L1006,710.1797 " fill="#FEFFDD" style="stroke:#181818;stroke-width:0.5;"/><text fill="#000000" font-family="sans-serif" font-size="13" lengthAdjust="spacing" textLength="203.874" x="713" y="727.2466">R2 does not act on notification,</text><text fill="#000000" font-family="sans-serif" font-size="13" lengthAdjust="spacing" textLength="147.8242" x="713" y="742.3794">does not update ITMO,</text><text fill="#000000" font-family="sans-serif" font-size="13" lengthAdjust="spacing" textLength="288.0693" x="713" y="757.5122">thus R2.party.notificationId.noticationStatus</text><text fill="#000000" font-family="sans-serif" font-size="13" lengthAdjust="spacing" textLength="123.8872" x="713" y="772.645">remains Retrieved.</text><!--SRC=[fLLDRzf04BtlhnZbqg1W8toqcaXHfIe-b4QaFPKU5kz0LZ5hQtSWyh_lxWBsBfXIDHVC3FFntfidGv8gXEB7j-_min6S46OroPKiESbQCMRUf6guvXimrDfAGrgMjDrKZDaqoL8sN17SV9NQ493cognGQwdM2zKLa0-VRTY2nhMqGzeRu0PUK0dKyQH24UgwGSsNifBKBjJJTkchxJCkVQehuKSVXyBK5ywnHBb3FRrMdaNb6MEy9BbpAXoGxH-GF1mIEMozIawmMqcRUiI26WlmxWvoK4x2rjNiDVMLXHW39olVSajenf2cwOZPZkJ1VkHWzzkU6Ru_TZM-JKPjlkEmAWSkH7Yjosl0GKBGSlrA1tY7dXVYj3MG9F15euKgZdG-svHVCfc4zOMOJ9Z0Kvs2ZBjIhsD_YkvRfrGEQwHdEy0U9UHXRZl45QuiuFaqTOTiqnX9EZidSdzlLrhskBDK-fK1c_dqauaaCBz-nvmyWmXk5-JGwBf4OmPXdqmTNPNXV6vqpt3Uw6BdYIC73J0aFY_VLFrUeLZZnQs56B7GEevGgFLZFqE44lPy1vEzYPFaI232SBpu64xHHCOmmq3ETSyw1RB_i5_sCVjbaVsoVx5VXBOBFkg-xDhSlxXlu8xPS39I3aIDdg-p3jGgeZvUgExdlGdyFv5DqwiLyvBkBWnLTo_q3PVAzDgdZFq1]--></g></svg>