<svg xmlns="http://www.w3.org/2000/svg" xmlns:xlink="http://www.w3.org/1999/xlink" contentStyleType="text/css" data-diagram-type="ACTIVITY" height="1551px" preserveAspectRatio="none" style="width:1540px;height:1551px;background:#FFFFFF;" version="1.1" viewBox="0 0 1540 1551" width="1540px" zoomAndPan="magnify"><title>ITMO Lifecycle </title><defs/><g><text fill="#000000" font-family="sans-serif" font-size="14" font-weight="bold" lengthAdjust="spacing" textLength="114.7891" x="709.1167" y="32.9951">ITMO Lifecycle</text><text fill="#000000" font-family="sans-serif" font-size="14" font-weight="bold" lengthAdjust="spacing" textLength="4.874" x="766.5112" y="49.292">&#160;</text><rect fill="transparent" height="41.9063" style="stroke:transparent;stroke-width:1;" width="1507.8965" x="15" y="66.3389"/><ellipse cx="342.6836" cy="123.2451" fill="#222222" rx="10" ry="10" style="stroke:#222222;stroke-width:1;"/><path d="M20,143.2451 L20,213.7764 A0,0 0 0 0 20,213.7764 L245.7021,213.7764 A0,0 0 0 0 245.7021,213.7764 L245.7021,182.5107 L265.7021,178.5107 L245.7021,174.5107 L245.7021,153.2451 L235.7021,143.2451 L20,143.2451 A0,0 0 0 0 20,143.2451 " fill="#FEFFDD" style="stroke:#181818;stroke-width:0.5;"/><path d="M235.7021,143.2451 L235.7021,153.2451 L245.7021,153.2451 L235.7021,143.2451 " fill="#FEFFDD" style="stroke:#181818;stroke-width:0.5;"/><text fill="#000000" font-family="sans-serif" font-size="13" lengthAdjust="spacing" textLength="117.603" x="26" y="160.312">Decision 2 CMA.3,</text><text fill="#000000" font-family="sans-serif" font-size="13" lengthAdjust="spacing" textLength="117" x="26" y="175.4448">annex, para 18(g)</text><ellipse cx="31.5" cy="186.1436" fill="#000000" rx="2.5" ry="2.5"/><text fill="#000000" font-family="sans-serif" font-size="13" lengthAdjust="spacing" textLength="192.7021" x="38" y="190.5776">participating Party authorizes</text><text fill="#000000" font-family="sans-serif" font-size="13" lengthAdjust="spacing" textLength="145.1265" x="34.2646" y="205.7104">Cooperative Approach</text><rect fill="#F1F1F1" height="47.9375" rx="12.5" ry="12.5" style="stroke:#181818;stroke-width:0.5;" width="153.9629" x="265.7021" y="154.542"/><text fill="#000000" font-family="sans-serif" font-size="12" lengthAdjust="spacing" textLength="133.9629" x="275.7021" y="175.6807">Cooperative Approach</text><text fill="#000000" font-family="sans-serif" font-size="12" lengthAdjust="spacing" textLength="65.0332" x="275.7021" y="189.6494">Authorized</text><path d="M30.3242,223.7764 L30.3242,385.1045 A0,0 0 0 0 30.3242,385.1045 L245.7021,385.1045 A0,0 0 0 0 245.7021,385.1045 L245.7021,308.4404 L265.7021,304.4404 L245.7021,300.4404 L245.7021,233.7764 L235.7021,223.7764 L30.3242,223.7764 A0,0 0 0 0 30.3242,223.7764 " fill="#FEFFDD" style="stroke:#181818;stroke-width:0.5;"/><path d="M235.7021,223.7764 L235.7021,233.7764 L245.7021,233.7764 L235.7021,223.7764 " fill="#FEFFDD" style="stroke:#181818;stroke-width:0.5;"/><text fill="#000000" font-family="sans-serif" font-size="13" lengthAdjust="spacing" textLength="117.603" x="36.3242" y="240.8433">Decision 2 CMA.3,</text><text fill="#000000" font-family="sans-serif" font-size="13" lengthAdjust="spacing" textLength="98.6045" x="36.3242" y="255.9761">annex, para 18</text><ellipse cx="41.8242" cy="266.6748" fill="#000000" rx="2.5" ry="2.5"/><text fill="#000000" font-family="sans-serif" font-size="13" lengthAdjust="spacing" textLength="173.4878" x="48.3242" y="271.1089">Party submits initial report</text><text fill="#000000" font-family="sans-serif" font-size="13" lengthAdjust="spacing" textLength="157.8789" x="52.8535" y="286.2417">to register authorization</text><ellipse cx="41.8242" cy="296.9404" fill="#000000" rx="2.5" ry="2.5"/><text fill="#000000" font-family="sans-serif" font-size="13" lengthAdjust="spacing" textLength="173.6338" x="48.3242" y="301.3745">One or more combinations</text><text fill="#000000" font-family="sans-serif" font-size="13" lengthAdjust="spacing" textLength="126.2422" x="52.8535" y="316.5073">of authorizations of</text><text fill="#000000" font-family="sans-serif" font-size="13" lengthAdjust="spacing" textLength="157.2124" x="52.8535" y="331.6401">Coooperative Approach,</text><text fill="#000000" font-family="sans-serif" font-size="13" lengthAdjust="spacing" textLength="136.8999" x="52.8535" y="346.7729">ITMOs relating to the</text><text fill="#000000" font-family="sans-serif" font-size="13" lengthAdjust="spacing" textLength="177.8486" x="52.8535" y="361.9058">Cooperative Approach, and</text><text fill="#000000" font-family="sans-serif" font-size="13" lengthAdjust="spacing" textLength="48.6421" x="52.8535" y="377.0386">Entities</text><rect fill="#F1F1F1" height="61.9063" rx="12.5" ry="12.5" style="stroke:#181818;stroke-width:0.5;" width="153.9629" x="265.7021" y="273.4873"/><text fill="#000000" font-family="sans-serif" font-size="12" lengthAdjust="spacing" textLength="87.9375" x="275.7021" y="294.626">Party registers</text><text fill="#000000" font-family="sans-serif" font-size="12" lengthAdjust="spacing" textLength="133.9629" x="275.7021" y="308.5947">Cooperative Approach</text><text fill="#000000" font-family="sans-serif" font-size="12" lengthAdjust="spacing" textLength="79.5176" x="275.7021" y="322.5635">authorization</text><path d="M50.0366,532.1709 L50.0366,587.5693 A0,0 0 0 0 50.0366,587.5693 L247.876,587.5693 A0,0 0 0 0 247.876,587.5693 L247.876,563.8701 L267.876,559.8701 L247.876,555.8701 L247.876,542.1709 L237.876,532.1709 L50.0366,532.1709 A0,0 0 0 0 50.0366,532.1709 " fill="#FEFFDD" style="stroke:#181818;stroke-width:0.5;"/><path d="M237.876,532.1709 L237.876,542.1709 L247.876,542.1709 L237.876,532.1709 " fill="#FEFFDD" style="stroke:#181818;stroke-width:0.5;"/><text fill="#000000" font-family="sans-serif" font-size="13" lengthAdjust="spacing" textLength="157.5996" x="56.0366" y="549.2378">If not already registered</text><text fill="#000000" font-family="sans-serif" font-size="13" lengthAdjust="spacing" textLength="176.8394" x="56.0366" y="564.3706">with Cooperative Approach</text><text fill="#000000" font-family="sans-serif" font-size="13" lengthAdjust="spacing" textLength="165.5659" x="56.0366" y="579.5034">authorization registration</text><rect fill="#F1F1F1" height="61.9063" rx="12.5" ry="12.5" style="stroke:#181818;stroke-width:0.5;" width="149.6152" x="267.876" y="528.917"/><text fill="#000000" font-family="sans-serif" font-size="12" lengthAdjust="spacing" textLength="87.9375" x="277.876" y="550.0557">Party registers</text><text fill="#000000" font-family="sans-serif" font-size="12" lengthAdjust="spacing" textLength="129.6152" x="277.876" y="564.0244">ITMO(s) authorization</text><text fill="#000000" font-family="sans-serif" font-size="12" lengthAdjust="spacing" textLength="95.5723" x="277.876" y="577.9932">with Secretariat</text><polygon fill="#F1F1F1" points="261.3706,711.5928,423.9966,711.5928,435.9966,723.5928,423.9966,735.5928,261.3706,735.5928,249.3706,723.5928,261.3706,711.5928" style="stroke:#181818;stroke-width:0.5;"/><text fill="#000000" font-family="sans-serif" font-size="11" lengthAdjust="spacing" textLength="19.0083" x="346.6836" y="745.8032">yes</text><text fill="#000000" font-family="sans-serif" font-size="11" lengthAdjust="spacing" textLength="162.626" x="261.3706" y="727.4009">Party opts for Interoperability</text><text fill="#000000" font-family="sans-serif" font-size="11" lengthAdjust="spacing" textLength="13.7017" x="435.9966" y="720.9985">no</text><ellipse cx="471.6982" cy="723.5928" fill="transparent" rx="11" ry="11" style="stroke:#222222;stroke-width:1;"/><ellipse cx="471.6982" cy="723.5928" fill="#222222" rx="6" ry="6" style="stroke:#222222;stroke-width:1;"/><line style="stroke:#000000;stroke-width:1.5;" x1="15" x2="15" y1="66.3389" y2="1539.5137"/><path d="M523.3604,429.3115 L523.3604,484.71 A0,0 0 0 0 523.3604,484.71 L704.937,484.71 A0,0 0 0 0 704.937,484.71 L704.937,461.0107 L724.937,457.0107 L704.937,453.0107 L704.937,439.3115 L694.937,429.3115 L523.3604,429.3115 A0,0 0 0 0 523.3604,429.3115 " fill="#FEFFDD" style="stroke:#181818;stroke-width:0.5;"/><path d="M694.937,429.3115 L694.937,439.3115 L704.937,439.3115 L694.937,429.3115 " fill="#FEFFDD" style="stroke:#181818;stroke-width:0.5;"/><text fill="#000000" font-family="sans-serif" font-size="13" lengthAdjust="spacing" textLength="160.5767" x="529.3604" y="446.3784">Authorization Id must be</text><text fill="#000000" font-family="sans-serif" font-size="13" lengthAdjust="spacing" textLength="152.4199" x="529.3604" y="461.5112">assigned by secretariat</text><text fill="#000000" font-family="sans-serif" font-size="13" lengthAdjust="spacing" textLength="140.2705" x="529.3604" y="476.644">to ensure uniqueness</text><rect fill="#F1F1F1" height="103.8125" rx="12.5" ry="12.5" style="stroke:#181818;stroke-width:0.5;" width="218.7148" x="724.937" y="405.1045"/><text fill="#000000" font-family="sans-serif" font-size="12" lengthAdjust="spacing" textLength="179.9766" x="734.937" y="426.2432">Secretariat (issuing authority)</text><text fill="#000000" font-family="sans-serif" font-size="12" lengthAdjust="spacing" textLength="151.9688" x="734.937" y="440.2119">- assigns Authorization Id</text><text fill="#000000" font-family="sans-serif" font-size="12" lengthAdjust="spacing" textLength="198.7148" x="734.937" y="454.1807">- registers Cooperative Approach</text><text fill="#000000" font-family="sans-serif" font-size="12" lengthAdjust="spacing" textLength="105.9082" x="742.5659" y="468.1494">and authorization</text><text fill="#000000" font-family="sans-serif" font-size="12" lengthAdjust="spacing" textLength="73.3066" x="742.5659" y="482.1182">in CARP and</text><text fill="#000000" font-family="sans-serif" font-size="12" lengthAdjust="spacing" textLength="149.0215" x="742.5659" y="496.0869">Common Nomenclatures</text><path d="M491.6982,605.9287 L491.6982,691.5928 A0,0 0 0 0 491.6982,691.5928 L707.1108,691.5928 A0,0 0 0 0 707.1108,691.5928 L707.1108,652.7607 L727.1108,648.7607 L707.1108,644.7607 L707.1108,615.9287 L697.1108,605.9287 L491.6982,605.9287 A0,0 0 0 0 491.6982,605.9287 " fill="#FEFFDD" style="stroke:#181818;stroke-width:0.5;"/><path d="M697.1108,605.9287 L697.1108,615.9287 L707.1108,615.9287 L697.1108,605.9287 " fill="#FEFFDD" style="stroke:#181818;stroke-width:0.5;"/><ellipse cx="503.1982" cy="618.5615" fill="#000000" rx="2.5" ry="2.5"/><text fill="#000000" font-family="sans-serif" font-size="13" lengthAdjust="spacing" textLength="160.5767" x="509.6982" y="622.9956">Authorization Id must be</text><text fill="#000000" font-family="sans-serif" font-size="13" lengthAdjust="spacing" textLength="152.4199" x="514.2275" y="638.1284">assigned by secretariat</text><text fill="#000000" font-family="sans-serif" font-size="13" lengthAdjust="spacing" textLength="140.2705" x="514.2275" y="653.2612">to ensure uniqueness</text><ellipse cx="503.1982" cy="663.96" fill="#000000" rx="2.5" ry="2.5"/><text fill="#000000" font-family="sans-serif" font-size="13" lengthAdjust="spacing" textLength="182.4126" x="509.6982" y="668.394">Secretariat will also register</text><text fill="#000000" font-family="sans-serif" font-size="13" lengthAdjust="spacing" textLength="122.0845" x="514.2275" y="683.5269">authorized entities</text><rect fill="#F1F1F1" height="75.875" rx="12.5" ry="12.5" style="stroke:#181818;stroke-width:0.5;" width="214.3672" x="727.1108" y="610.8232"/><text fill="#000000" font-family="sans-serif" font-size="12" lengthAdjust="spacing" textLength="66.2988" x="737.1108" y="631.9619">Secretariat</text><text fill="#000000" font-family="sans-serif" font-size="12" lengthAdjust="spacing" textLength="151.9688" x="737.1108" y="645.9307">- assigns Authorization Id</text><text fill="#000000" font-family="sans-serif" font-size="12" lengthAdjust="spacing" textLength="194.3672" x="737.1108" y="659.8994">- registers ITMO(s) authorization</text><text fill="#000000" font-family="sans-serif" font-size="12" lengthAdjust="spacing" textLength="46.916" x="744.7397" y="673.8682">in CARP</text><line style="stroke:#000000;stroke-width:1.5;" x1="486.6982" x2="486.6982" y1="66.3389" y2="1539.5137"/><path d="M952.6519,757.3032 L952.6519,888.3657 A0,0 0 0 0 952.6519,888.3657 L1171.6064,888.3657 A0,0 0 0 0 1171.6064,888.3657 L1171.6064,826.8345 L1191.6064,822.8345 L1171.6064,818.8345 L1171.6064,767.3032 L1161.6064,757.3032 L952.6519,757.3032 A0,0 0 0 0 952.6519,757.3032 " fill="#FEFFDD" style="stroke:#181818;stroke-width:0.5;"/><path d="M1161.6064,757.3032 L1161.6064,767.3032 L1171.6064,767.3032 L1161.6064,757.3032 " fill="#FEFFDD" style="stroke:#181818;stroke-width:0.5;"/><ellipse cx="964.1519" cy="769.936" fill="#000000" rx="2.5" ry="2.5"/><text fill="#000000" font-family="sans-serif" font-size="13" lengthAdjust="spacing" textLength="24.2861" x="970.6519" y="774.3701">Use</text><text fill="#000000" font-family="sans-serif" font-size="13" font-style="italic" lengthAdjust="spacing" textLength="76.4004" x="999.0703" y="774.3701">proposeTxn</text><text fill="#000000" font-family="sans-serif" font-size="13" lengthAdjust="spacing" textLength="20.5664" x="1079.603" y="774.3701">API</text><ellipse cx="964.1519" cy="785.0688" fill="#000000" rx="2.5" ry="2.5"/><text fill="#000000" font-family="sans-serif" font-size="13" lengthAdjust="spacing" textLength="132.666" x="970.6519" y="789.5029">Txn type is Issuance</text><ellipse cx="964.1519" cy="800.2017" fill="#000000" rx="2.5" ry="2.5"/><text fill="#000000" font-family="sans-serif" font-size="13" lengthAdjust="spacing" textLength="185.9546" x="970.6519" y="804.6357">Registry provides account Id</text><text fill="#000000" font-family="sans-serif" font-size="13" lengthAdjust="spacing" textLength="124.979" x="975.1812" y="819.7686">to hold the ITMO(s)</text><ellipse cx="964.1519" cy="830.4673" fill="#000000" rx="2.5" ry="2.5"/><text fill="#000000" font-family="sans-serif" font-size="13" lengthAdjust="spacing" textLength="155.8984" x="970.6519" y="834.9014">ITMOs will be created in</text><text fill="#000000" font-family="sans-serif" font-size="13" lengthAdjust="spacing" textLength="166.6006" x="966.9165" y="850.0342">the International Registry</text><ellipse cx="964.1519" cy="860.7329" fill="#000000" rx="2.5" ry="2.5"/><text fill="#000000" font-family="sans-serif" font-size="13" lengthAdjust="spacing" textLength="140.0039" x="970.6519" y="865.167">unique ITMOId will be</text><text fill="#000000" font-family="sans-serif" font-size="13" lengthAdjust="spacing" textLength="127.9434" x="966.9165" y="880.2998">returned to registry</text><rect fill="#F1F1F1" height="61.9063" rx="12.5" ry="12.5" style="stroke:#181818;stroke-width:0.5;" width="131.252" x="1191.6064" y="791.8813"/><text fill="#000000" font-family="sans-serif" font-size="12" lengthAdjust="spacing" textLength="100.8223" x="1201.6064" y="813.02">First transferring</text><text fill="#000000" font-family="sans-serif" font-size="12" lengthAdjust="spacing" textLength="111.252" x="1201.6064" y="826.9888">participating Party</text><text fill="#000000" font-family="sans-serif" font-size="12" lengthAdjust="spacing" textLength="77.8125" x="1201.6064" y="840.9575">issues ITMOs</text><rect fill="#F1F1F1" height="47.9375" rx="12.5" ry="12.5" style="stroke:#181818;stroke-width:0.5;" width="134.6504" x="1189.9072" y="990.272"/><text fill="#000000" font-family="sans-serif" font-size="12" lengthAdjust="spacing" textLength="101.9473" x="1199.9072" y="1011.4106">Finalize Issuance</text><text fill="#000000" font-family="sans-serif" font-size="12" lengthAdjust="spacing" textLength="114.6504" x="1199.9072" y="1025.3794">and record ITMO Id</text><path d="M1024.0356,1117.7559 L1024.0356,1158.0215 A0,0 0 0 0 1024.0356,1158.0215 L1184.6523,1158.0215 A0,0 0 0 0 1184.6523,1158.0215 L1184.6523,1141.8887 L1204.6523,1137.8887 L1184.6523,1133.8887 L1184.6523,1127.7559 L1174.6523,1117.7559 L1024.0356,1117.7559 A0,0 0 0 0 1024.0356,1117.7559 " fill="#FEFFDD" style="stroke:#181818;stroke-width:0.5;"/><path d="M1174.6523,1117.7559 L1174.6523,1127.7559 L1184.6523,1127.7559 L1174.6523,1117.7559 " fill="#FEFFDD" style="stroke:#181818;stroke-width:0.5;"/><text fill="#000000" font-family="sans-serif" font-size="13" lengthAdjust="spacing" textLength="122.2495" x="1030.0356" y="1134.8228">Other txns such as</text><text fill="#000000" font-family="sans-serif" font-size="13" lengthAdjust="spacing" textLength="139.6167" x="1030.0356" y="1149.9556">transfers, updates, ...</text><rect fill="#F1F1F1" height="47.9375" rx="12.5" ry="12.5" style="stroke:#181818;stroke-width:0.5;" width="105.1602" x="1204.6523" y="1113.9199"/><text fill="#000000" font-family="sans-serif" font-size="12" lengthAdjust="spacing" textLength="83.8887" x="1214.6523" y="1135.0586">Propose other</text><text fill="#000000" font-family="sans-serif" font-size="12" lengthAdjust="spacing" textLength="85.1602" x="1214.6523" y="1149.0273">txns on ITMOs</text><rect fill="#F1F1F1" height="47.9375" rx="12.5" ry="12.5" style="stroke:#181818;stroke-width:0.5;" width="105.1602" x="1204.6523" y="1263.7637"/><text fill="#000000" font-family="sans-serif" font-size="12" lengthAdjust="spacing" textLength="81.2813" x="1214.6523" y="1284.9023">Finalise other</text><text fill="#000000" font-family="sans-serif" font-size="12" lengthAdjust="spacing" textLength="85.1602" x="1214.6523" y="1298.8711">txns on ITMOs</text><polygon fill="#F1F1F1" points="1184.7603,1058.2095,1329.7046,1058.2095,1341.7046,1070.2095,1329.7046,1082.2095,1184.7603,1082.2095,1172.7603,1070.2095,1184.7603,1058.2095" style="stroke:#181818;stroke-width:0.5;"/><text fill="#000000" font-family="sans-serif" font-size="11" lengthAdjust="spacing" textLength="13.7017" x="1261.2324" y="1092.4199">no</text><text fill="#000000" font-family="sans-serif" font-size="11" lengthAdjust="spacing" textLength="144.9443" x="1184.7603" y="1074.0176">Propose Use or Cancel txn</text><text fill="#000000" font-family="sans-serif" font-size="11" lengthAdjust="spacing" textLength="19.0083" x="1153.752" y="1067.6152">yes</text><rect fill="#F1F1F1" height="47.9375" rx="12.5" ry="12.5" style="stroke:#181818;stroke-width:0.5;" width="107.8203" x="1203.3223" y="1449.5762"/><text fill="#000000" font-family="sans-serif" font-size="12" lengthAdjust="spacing" textLength="87.8203" x="1213.3223" y="1470.7148">Finalise Use or</text><text fill="#000000" font-family="sans-serif" font-size="12" lengthAdjust="spacing" textLength="70.1309" x="1213.3223" y="1484.6836">Cancel txns</text><ellipse cx="1257.2324" cy="1528.5137" fill="transparent" rx="11" ry="11" style="stroke:#222222;stroke-width:1;"/><ellipse cx="1257.2324" cy="1528.5137" fill="#222222" rx="6" ry="6" style="stroke:#222222;stroke-width:1;"/><line style="stroke:#000000;stroke-width:1.5;" x1="947.6519" x2="947.6519" y1="66.3389" y2="1539.5137"/><rect fill="#F1F1F1" height="61.9063" rx="12.5" ry="12.5" style="stroke:#181818;stroke-width:0.5;" width="125.6914" x="1385.0244" y="908.3657"/><text fill="#000000" font-family="sans-serif" font-size="12" lengthAdjust="spacing" textLength="105.6914" x="1395.0244" y="929.5044">Validate Issuance</text><text fill="#000000" font-family="sans-serif" font-size="12" lengthAdjust="spacing" textLength="22.5762" x="1395.0244" y="943.4731">and</text><text fill="#000000" font-family="sans-serif" font-size="12" lengthAdjust="spacing" textLength="94.7813" x="1395.0244" y="957.4419">provide ITMO Id</text><rect fill="#F1F1F1" height="61.9063" rx="12.5" ry="12.5" style="stroke:#181818;stroke-width:0.5;" width="95.6797" x="1400.0303" y="1181.8574"/><text fill="#000000" font-family="sans-serif" font-size="12" lengthAdjust="spacing" textLength="75.6797" x="1410.0303" y="1202.9961">Validate and</text><text fill="#000000" font-family="sans-serif" font-size="12" lengthAdjust="spacing" textLength="52.3242" x="1410.0303" y="1216.9648">facilitate</text><text fill="#000000" font-family="sans-serif" font-size="12" lengthAdjust="spacing" textLength="61.4473" x="1410.0303" y="1230.9336">other txns</text><rect fill="#F1F1F1" height="75.875" rx="12.5" ry="12.5" style="stroke:#181818;stroke-width:0.5;" width="102.9746" x="1396.3828" y="1353.7012"/><text fill="#000000" font-family="sans-serif" font-size="12" lengthAdjust="spacing" textLength="75.6797" x="1406.3828" y="1374.8398">Validate and</text><text fill="#000000" font-family="sans-serif" font-size="12" lengthAdjust="spacing" textLength="52.3242" x="1406.3828" y="1388.8086">facilitate</text><text fill="#000000" font-family="sans-serif" font-size="12" lengthAdjust="spacing" textLength="82.9746" x="1406.3828" y="1402.7773">Use or Cancel</text><text fill="#000000" font-family="sans-serif" font-size="12" lengthAdjust="spacing" textLength="25.6641" x="1406.3828" y="1416.7461">txns</text><line style="stroke:#000000;stroke-width:1.5;" x1="1372.7046" x2="1372.7046" y1="66.3389" y2="1539.5137"/><line style="stroke:#000000;stroke-width:1.5;" x1="1521.0356" x2="1521.0356" y1="66.3389" y2="1539.5137"/><line style="stroke:#181818;stroke-width:1;" x1="342.6836" x2="342.6836" y1="133.2451" y2="154.542"/><polygon fill="#181818" points="338.6836,144.542,342.6836,154.542,346.6836,144.542,342.6836,148.542" style="stroke:#181818;stroke-width:1;"/><line style="stroke:#181818;stroke-width:1;" x1="342.6836" x2="342.6836" y1="202.4795" y2="273.4873"/><polygon fill="#181818" points="338.6836,263.4873,342.6836,273.4873,346.6836,263.4873,342.6836,267.4873" style="stroke:#181818;stroke-width:1;"/><line style="stroke:#181818;stroke-width:1;" x1="435.9966" x2="460.6982" y1="723.5928" y2="723.5928"/><polygon fill="#181818" points="450.6982,719.5928,460.6982,723.5928,450.6982,727.5928,454.6982,723.5928" style="stroke:#181818;stroke-width:1;"/><line style="stroke:#181818;stroke-width:1;" x1="1257.2324" x2="1257.2324" y1="1038.2095" y2="1058.2095"/><polygon fill="#181818" points="1253.2324,1048.2095,1257.2324,1058.2095,1261.2324,1048.2095,1257.2324,1052.2095" style="stroke:#181818;stroke-width:1;"/><line style="stroke:#181818;stroke-width:1;" x1="1257.2324" x2="1257.2324" y1="1082.2095" y2="1113.9199"/><polygon fill="#181818" points="1253.2324,1103.9199,1257.2324,1113.9199,1261.2324,1103.9199,1257.2324,1107.9199" style="stroke:#181818;stroke-width:1;"/><line style="stroke:#181818;stroke-width:1;" x1="1257.2324" x2="1257.2324" y1="1311.7012" y2="1321.7012"/><line style="stroke:#181818;stroke-width:1;" x1="1257.2324" x2="1353.7046" y1="1321.7012" y2="1321.7012"/><polygon fill="#181818" points="1349.7046,1204.4082,1353.7046,1194.4082,1357.7046,1204.4082,1353.7046,1200.4082" style="stroke:#181818;stroke-width:1;"/><line style="stroke:#181818;stroke-width:1;" x1="1353.7046" x2="1353.7046" y1="1070.2095" y2="1321.7012"/><line style="stroke:#181818;stroke-width:1;" x1="1353.7046" x2="1341.7046" y1="1070.2095" y2="1070.2095"/><polygon fill="#181818" points="1351.7046,1066.2095,1341.7046,1070.2095,1351.7046,1074.2095,1347.7046,1070.2095" style="stroke:#181818;stroke-width:1;"/><line style="stroke:#181818;stroke-width:1;" x1="1172.7603" x2="1012.0356" y1="1070.2095" y2="1070.2095"/><polygon fill="#181818" points="1008.0356,1199.1582,1012.0356,1209.1582,1016.0356,1199.1582,1012.0356,1203.1582" style="stroke:#181818;stroke-width:1;"/><line style="stroke:#181818;stroke-width:1;" x1="1012.0356" x2="1012.0356" y1="1070.2095" y2="1338.7012"/><line style="stroke:#181818;stroke-width:1;" x1="1012.0356" x2="1447.8701" y1="1338.7012" y2="1338.7012"/><line style="stroke:#181818;stroke-width:1;" x1="1447.8701" x2="1447.8701" y1="1338.7012" y2="1353.7012"/><polygon fill="#181818" points="1443.8701,1343.7012,1447.8701,1353.7012,1451.8701,1343.7012,1447.8701,1347.7012" style="stroke:#181818;stroke-width:1;"/><line style="stroke:#181818;stroke-width:1;" x1="1257.2324" x2="1257.2324" y1="1497.5137" y2="1517.5137"/><polygon fill="#181818" points="1253.2324,1507.5137,1257.2324,1517.5137,1261.2324,1507.5137,1257.2324,1511.5137" style="stroke:#181818;stroke-width:1;"/><line style="stroke:#181818;stroke-width:1;" x1="342.6836" x2="342.6836" y1="335.3936" y2="377.749"/><line style="stroke:#181818;stroke-width:1;" x1="342.6836" x2="834.2944" y1="377.749" y2="377.749"/><line style="stroke:#181818;stroke-width:1;" x1="834.2944" x2="834.2944" y1="377.749" y2="405.1045"/><polygon fill="#181818" points="830.2944,395.1045,834.2944,405.1045,838.2944,395.1045,834.2944,399.1045" style="stroke:#181818;stroke-width:1;"/><line style="stroke:#181818;stroke-width:1;" x1="834.2944" x2="834.2944" y1="508.917" y2="513.917"/><line style="stroke:#181818;stroke-width:1;" x1="834.2944" x2="342.6836" y1="513.917" y2="513.917"/><line style="stroke:#181818;stroke-width:1;" x1="342.6836" x2="342.6836" y1="513.917" y2="528.917"/><polygon fill="#181818" points="338.6836,518.917,342.6836,528.917,346.6836,518.917,342.6836,522.917" style="stroke:#181818;stroke-width:1;"/><line style="stroke:#181818;stroke-width:1;" x1="342.6836" x2="342.6836" y1="590.8232" y2="595.8232"/><line style="stroke:#181818;stroke-width:1;" x1="342.6836" x2="834.2944" y1="595.8232" y2="595.8232"/><line style="stroke:#181818;stroke-width:1;" x1="834.2944" x2="834.2944" y1="595.8232" y2="610.8232"/><polygon fill="#181818" points="830.2944,600.8232,834.2944,610.8232,838.2944,600.8232,834.2944,604.8232" style="stroke:#181818;stroke-width:1;"/><line style="stroke:#181818;stroke-width:1;" x1="1257.2324" x2="1257.2324" y1="853.7876" y2="888.5767"/><line style="stroke:#181818;stroke-width:1;" x1="1257.2324" x2="1447.8701" y1="888.5767" y2="888.5767"/><line style="stroke:#181818;stroke-width:1;" x1="1447.8701" x2="1447.8701" y1="888.5767" y2="908.3657"/><polygon fill="#181818" points="1443.8701,898.3657,1447.8701,908.3657,1451.8701,898.3657,1447.8701,902.3657" style="stroke:#181818;stroke-width:1;"/><line style="stroke:#181818;stroke-width:1;" x1="1447.8701" x2="1447.8701" y1="970.272" y2="975.272"/><line style="stroke:#181818;stroke-width:1;" x1="1447.8701" x2="1257.2324" y1="975.272" y2="975.272"/><line style="stroke:#181818;stroke-width:1;" x1="1257.2324" x2="1257.2324" y1="975.272" y2="990.272"/><polygon fill="#181818" points="1253.2324,980.272,1257.2324,990.272,1261.2324,980.272,1257.2324,984.272" style="stroke:#181818;stroke-width:1;"/><line style="stroke:#181818;stroke-width:1;" x1="342.6836" x2="342.6836" y1="735.5928" y2="762.3911"/><line style="stroke:#181818;stroke-width:1;" x1="342.6836" x2="1257.2324" y1="762.3911" y2="762.3911"/><line style="stroke:#181818;stroke-width:1;" x1="1257.2324" x2="1257.2324" y1="762.3911" y2="791.8813"/><polygon fill="#181818" points="1253.2324,781.8813,1257.2324,791.8813,1261.2324,781.8813,1257.2324,785.8813" style="stroke:#181818;stroke-width:1;"/><line style="stroke:#181818;stroke-width:1;" x1="834.2944" x2="834.2944" y1="686.6982" y2="696.5928"/><line style="stroke:#181818;stroke-width:1;" x1="834.2944" x2="342.6836" y1="696.5928" y2="696.5928"/><line style="stroke:#181818;stroke-width:1;" x1="342.6836" x2="342.6836" y1="696.5928" y2="711.5928"/><polygon fill="#181818" points="338.6836,701.5928,342.6836,711.5928,346.6836,701.5928,342.6836,705.5928" style="stroke:#181818;stroke-width:1;"/><line style="stroke:#181818;stroke-width:1;" x1="1257.2324" x2="1257.2324" y1="1161.8574" y2="1166.8574"/><line style="stroke:#181818;stroke-width:1;" x1="1257.2324" x2="1447.8701" y1="1166.8574" y2="1166.8574"/><line style="stroke:#181818;stroke-width:1;" x1="1447.8701" x2="1447.8701" y1="1166.8574" y2="1181.8574"/><polygon fill="#181818" points="1443.8701,1171.8574,1447.8701,1181.8574,1451.8701,1171.8574,1447.8701,1175.8574" style="stroke:#181818;stroke-width:1;"/><line style="stroke:#181818;stroke-width:1;" x1="1447.8701" x2="1447.8701" y1="1243.7637" y2="1248.7637"/><line style="stroke:#181818;stroke-width:1;" x1="1447.8701" x2="1257.2324" y1="1248.7637" y2="1248.7637"/><line style="stroke:#181818;stroke-width:1;" x1="1257.2324" x2="1257.2324" y1="1248.7637" y2="1263.7637"/><polygon fill="#181818" points="1253.2324,1253.7637,1257.2324,1263.7637,1261.2324,1253.7637,1257.2324,1257.7637" style="stroke:#181818;stroke-width:1;"/><line style="stroke:#181818;stroke-width:1;" x1="1447.8701" x2="1447.8701" y1="1429.5762" y2="1434.5762"/><line style="stroke:#181818;stroke-width:1;" x1="1447.8701" x2="1257.2324" y1="1434.5762" y2="1434.5762"/><line style="stroke:#181818;stroke-width:1;" x1="1257.2324" x2="1257.2324" y1="1434.5762" y2="1449.5762"/><polygon fill="#181818" points="1253.2324,1439.5762,1257.2324,1449.5762,1261.2324,1439.5762,1257.2324,1443.5762" style="stroke:#181818;stroke-width:1;"/><text fill="#000000" font-family="sans-serif" font-size="18" lengthAdjust="spacing" textLength="166.3066" x="167.6958" y="83.0469">Participating Party</text><text fill="#000000" font-family="sans-serif" font-size="18" lengthAdjust="spacing" textLength="99.4482" x="667.4509" y="83.0469">Secretariat</text><text fill="#000000" font-family="sans-serif" font-size="18" lengthAdjust="spacing" textLength="181.8018" x="1069.2773" y="83.0469">Interoperating Party</text><text fill="#000000" font-family="sans-serif" font-size="18" lengthAdjust="spacing" textLength="138.3311" x="1377.7046" y="83.0469">Interoperability</text><text fill="#000000" font-family="sans-serif" font-size="18" lengthAdjust="spacing" textLength="36.3691" x="1377.7046" y="104">Hub</text><!--SRC=[fLR1Sjem4BtxA_O86GhJzj9fJWnjfymq3PEcFN4HzXeqOrQk92UXmyTtPSb69WQI2ISihTxkllUqjfMsG9ZVtzp23vbZkalvSKd9VY6qbQaiXPMq1lUqsoU9iVmdIHBWt-UPKYLg3dX0c9QbLYBTB6bQsOtIyXzcrtKO02cBK61kmpF05qobaOhW0ynkfkEFetP74E7J24gX1Rp_D5WFsvqhjtXS4eWccsa30VeA2zj8MLqFF_ecF8p6jJGMjKSvURx9nbkAtjvUr9ilmrIhhRG694ahHS5bbKhRg3C0gzfYk-L4OBU4e3HibKP8rNObgOum7I2LTyyRNka4C0lFQHXrGfnl3DTJU4cuDhl1Ov3d64n3redwIfORRZMCH0BO_y9K8_jE2hltcaKhC936L2vvQCRkl6NUWJ16hhcjQTmbpBEmtKf-pYvSQ2_Bac0slLlK-qdJwNRB-3_L5YbbGYgDvhH5Zek2RMKih0xa-UenWnNRuj1l4la0oN0Ig4Z-hP3GzDFNUv7xhEyRSP8EpB2dwqTfDn1HVxevHidTCeX2eyWEEJ2MlSOxm_sp2nTWT2n4s-iBlF9QNvoceZN0QGwkBaly4falIEtonBVXKHO5iswY8T5DrmvdXko_SnTS8tCOUEEeaYTLpdDcJfodbd4b2tS1tHGW6EpG39ivov27i6DCbkcRr4mEQqicHwqvO4azytv9xhgZrwQzNlty_pO8ambRgbG6xvzeCe7fOXu5y1hONOaW6OzX1QKORTzvj-s08Hvanab5cggAREELI9-DAZBNTUEP2CRFo5gO5OzZlX2MsPSKGTG77Jj-JlFWRt97E5xx6ewz5F0Y4FP0fPsJsZT4TBmp4ZfQUCcMzBrQjMBy4ONCkCnZLWvZEr3YFnpc_AP_eSZS6vkl1vTBJfNE3e1rrGLBE23Lq7dQbG36ghB-czJToZn9JXJZQdtSIFxE6IoyEMghi95dhgO2x1CDdIT2vZ0iGwXYiNIzn67ypgIk5O-DUEl2VQYfqWtVzx3HMDsCe2eTsVndF1xtZl0pQXsqQiJ9HUg2H3YisWAkamiA1NtEDycL1VB2zNvZVHtgsvIlgDK3-E-sLhy0K9iY-Gy0]--></g></svg>