<svg xmlns="http://www.w3.org/2000/svg" xmlns:xlink="http://www.w3.org/1999/xlink" contentStyleType="text/css" data-diagram-type="ACTIVITY" height="917px" preserveAspectRatio="none" style="width:691px;height:917px;background:#FFFFFF;" version="1.1" viewBox="0 0 691 917" width="691px" zoomAndPan="magnify"><title>ITMO Lifecycle </title><defs/><g><text fill="#000000" font-family="sans-serif" font-size="14" font-weight="bold" lengthAdjust="spacing" textLength="114.7891" x="284.4126" y="32.9951">ITMO Lifecycle</text><text fill="#000000" font-family="sans-serif" font-size="14" font-weight="bold" lengthAdjust="spacing" textLength="4.874" x="341.8071" y="49.292">&#160;</text><ellipse cx="528.1465" cy="73.5938" fill="#222222" rx="10" ry="10" style="stroke:#222222;stroke-width:1;"/><rect fill="transparent" height="543.4995" style="stroke:#000000;stroke-width:1.5;" width="669.4883" x="11" y="93.5938"/><path d="M351.8662,93.5938 L351.8662,102.8906 L341.8662,112.8906 L11,112.8906 " fill="transparent" style="stroke:#000000;stroke-width:1.5;"/><text fill="#000000" font-family="sans-serif" font-size="14" lengthAdjust="spacing" textLength="330.8662" x="14" y="107.5889">ITMOs do not yet exist in International Registry</text><path d="M21.7803,129.7422 L21.7803,170.0078 A0,0 0 0 0 21.7803,170.0078 L396.7412,170.0078 A0,0 0 0 0 396.7412,170.0078 L396.7412,153.875 L416.7412,149.875 L396.7412,145.875 L396.7412,139.7422 L386.7412,129.7422 L21.7803,129.7422 A0,0 0 0 0 21.7803,129.7422 " fill="#FEFFDD" style="stroke:#181818;stroke-width:0.5;"/><path d="M386.7412,129.7422 L386.7412,139.7422 L396.7412,139.7422 L386.7412,129.7422 " fill="#FEFFDD" style="stroke:#181818;stroke-width:0.5;"/><text fill="#000000" font-family="sans-serif" font-size="13" lengthAdjust="spacing" textLength="236.9771" x="27.7803" y="146.8091">decision 2 CMA.3, annex, para 18(g)</text><ellipse cx="33.2803" cy="157.5078" fill="#000000" rx="2.5" ry="2.5"/><text fill="#000000" font-family="sans-serif" font-size="13" lengthAdjust="spacing" textLength="341.9609" x="39.7803" y="161.9419">participating Party authorizes Cooperative Approach</text><rect fill="#F1F1F1" height="33.9688" rx="12.5" ry="12.5" style="stroke:#181818;stroke-width:0.5;" width="222.8105" x="416.7412" y="132.8906"/><text fill="#000000" font-family="sans-serif" font-size="12" lengthAdjust="spacing" textLength="202.8105" x="426.7412" y="154.0293">Cooperative Approach Authorized</text><path d="M21,180.0078 L21,280.8047 A0,0 0 0 0 21,280.8047 L389.499,280.8047 A0,0 0 0 0 389.499,280.8047 L389.499,234.4063 L409.499,230.4063 L389.499,226.4063 L389.499,190.0078 L379.499,180.0078 L21,180.0078 A0,0 0 0 0 21,180.0078 " fill="#FEFFDD" style="stroke:#181818;stroke-width:0.5;"/><path d="M379.499,180.0078 L379.499,190.0078 L389.499,190.0078 L379.499,180.0078 " fill="#FEFFDD" style="stroke:#181818;stroke-width:0.5;"/><text fill="#000000" font-family="sans-serif" font-size="13" lengthAdjust="spacing" textLength="218.5815" x="27" y="197.0747">decision 2 CMA.3, annex, para 18</text><ellipse cx="32.5" cy="207.7734" fill="#000000" rx="2.5" ry="2.5"/><text fill="#000000" font-family="sans-serif" font-size="13" lengthAdjust="spacing" textLength="335.499" x="39" y="212.2075">Party submits initial report to register authorization</text><ellipse cx="32.5" cy="222.9063" fill="#000000" rx="2.5" ry="2.5"/><text fill="#000000" font-family="sans-serif" font-size="13" lengthAdjust="spacing" textLength="304.0083" x="39" y="227.3403">One or more combinations of authorizations of</text><text fill="#000000" font-family="sans-serif" font-size="13" lengthAdjust="spacing" textLength="157.2124" x="43.5293" y="242.4731">Coooperative Approach,</text><text fill="#000000" font-family="sans-serif" font-size="13" lengthAdjust="spacing" textLength="318.8809" x="43.5293" y="257.606">ITMOs relating to the Cooperative Approach, and</text><text fill="#000000" font-family="sans-serif" font-size="13" lengthAdjust="spacing" textLength="201.0303" x="43.5293" y="272.7388">Entities (participating Parties?)</text><rect fill="#F1F1F1" height="61.9063" rx="12.5" ry="12.5" style="stroke:#181818;stroke-width:0.5;" width="237.2949" x="409.499" y="199.4531"/><text fill="#000000" font-family="sans-serif" font-size="12" lengthAdjust="spacing" textLength="87.9375" x="419.499" y="220.5918">Party registers</text><text fill="#000000" font-family="sans-serif" font-size="12" lengthAdjust="spacing" textLength="217.2949" x="419.499" y="234.5605">Cooperative Approach authorization</text><text fill="#000000" font-family="sans-serif" font-size="12" lengthAdjust="spacing" textLength="95.5723" x="419.499" y="248.5293">with Secretariat</text><path d="M48.5347,303.4766 L48.5347,374.0078 A0,0 0 0 0 48.5347,374.0078 L367.8047,374.0078 A0,0 0 0 0 367.8047,374.0078 L367.8047,342.7422 L387.8047,338.7422 L367.8047,334.7422 L367.8047,313.4766 L357.8047,303.4766 L48.5347,303.4766 A0,0 0 0 0 48.5347,303.4766 " fill="#FEFFDD" style="stroke:#181818;stroke-width:0.5;"/><path d="M357.8047,303.4766 L357.8047,313.4766 L367.8047,313.4766 L357.8047,303.4766 " fill="#FEFFDD" style="stroke:#181818;stroke-width:0.5;"/><ellipse cx="60.0347" cy="316.1094" fill="#000000" rx="2.5" ry="2.5"/><text fill="#000000" font-family="sans-serif" font-size="13" lengthAdjust="spacing" textLength="224.3325" x="66.5347" y="320.5435">Authorization ID must be assigned</text><text fill="#000000" font-family="sans-serif" font-size="13" lengthAdjust="spacing" textLength="234.8252" x="71.064" y="335.6763">by secretariat to ensure uniqueness</text><ellipse cx="60.0347" cy="346.375" fill="#000000" rx="2.5" ry="2.5"/><text fill="#000000" font-family="sans-serif" font-size="13" lengthAdjust="spacing" textLength="182.4126" x="66.5347" y="350.8091">Secretariat will also register</text><text fill="#000000" font-family="sans-serif" font-size="13" lengthAdjust="spacing" textLength="281.7407" x="71.064" y="365.9419">authorized objects in International Registry</text><rect fill="#F1F1F1" height="75.875" rx="12.5" ry="12.5" style="stroke:#181818;stroke-width:0.5;" width="280.6836" x="387.8047" y="300.8047"/><text fill="#000000" font-family="sans-serif" font-size="12" lengthAdjust="spacing" textLength="179.9766" x="397.8047" y="321.9434">Secretariat (issuing authority)</text><text fill="#000000" font-family="sans-serif" font-size="12" lengthAdjust="spacing" textLength="149.2617" x="397.8047" y="335.9121">assigns Authorization ID.</text><text fill="#000000" font-family="sans-serif" font-size="12" lengthAdjust="spacing" textLength="260.6836" x="397.8047" y="349.8809">Secretariat registers Cooperative Approach</text><text fill="#000000" font-family="sans-serif" font-size="12" lengthAdjust="spacing" textLength="226.1426" x="397.8047" y="363.8496">in CARP and Common Nomenclatures</text><path d="M164.5391,399.9336 L164.5391,455.332 A0,0 0 0 0 164.5391,455.332 L433.3389,455.332 A0,0 0 0 0 433.3389,455.332 L433.3389,431.6328 L453.3389,427.6328 L433.3389,423.6328 L433.3389,409.9336 L423.3389,399.9336 L164.5391,399.9336 A0,0 0 0 0 164.5391,399.9336 " fill="#FEFFDD" style="stroke:#181818;stroke-width:0.5;"/><path d="M423.3389,399.9336 L423.3389,409.9336 L433.3389,409.9336 L423.3389,399.9336 " fill="#FEFFDD" style="stroke:#181818;stroke-width:0.5;"/><ellipse cx="176.0391" cy="412.5664" fill="#000000" rx="2.5" ry="2.5"/><text fill="#000000" font-family="sans-serif" font-size="13" lengthAdjust="spacing" textLength="189.3125" x="182.5391" y="417.0005">If not already registered with</text><text fill="#000000" font-family="sans-serif" font-size="13" lengthAdjust="spacing" textLength="235.4028" x="178.8037" y="432.1333">Cooperative Approach authorization</text><text fill="#000000" font-family="sans-serif" font-size="13" lengthAdjust="spacing" textLength="75.2896" x="178.8037" y="447.2661">registration</text><rect fill="#F1F1F1" height="61.9063" rx="12.5" ry="12.5" style="stroke:#181818;stroke-width:0.5;" width="149.6152" x="453.3389" y="396.6797"/><text fill="#000000" font-family="sans-serif" font-size="12" lengthAdjust="spacing" textLength="87.9375" x="463.3389" y="417.8184">Party registers</text><text fill="#000000" font-family="sans-serif" font-size="12" lengthAdjust="spacing" textLength="129.6152" x="463.3389" y="431.7871">ITMO(s) authorization</text><text fill="#000000" font-family="sans-serif" font-size="12" lengthAdjust="spacing" textLength="95.5723" x="463.3389" y="445.7559">with Secretariat</text><path d="M58.7397,524.2964 L58.7397,625.0933 A0,0 0 0 0 58.7397,625.0933 L418.3711,625.0933 A0,0 0 0 0 418.3711,625.0933 L418.3711,578.6948 L438.3711,574.6948 L418.3711,570.6948 L418.3711,534.2964 L408.3711,524.2964 L58.7397,524.2964 A0,0 0 0 0 58.7397,524.2964 " fill="#FEFFDD" style="stroke:#181818;stroke-width:0.5;"/><path d="M408.3711,524.2964 L408.3711,534.2964 L418.3711,534.2964 L408.3711,524.2964 " fill="#FEFFDD" style="stroke:#181818;stroke-width:0.5;"/><ellipse cx="70.2397" cy="536.9292" fill="#000000" rx="2.5" ry="2.5"/><text fill="#000000" font-family="sans-serif" font-size="13" lengthAdjust="spacing" textLength="24.2861" x="76.7397" y="541.3633">Use</text><text fill="#000000" font-family="sans-serif" font-size="13" font-style="italic" lengthAdjust="spacing" textLength="83.6431" x="105.1582" y="541.3633">registerITMO</text><text fill="#000000" font-family="sans-serif" font-size="13" lengthAdjust="spacing" textLength="20.5664" x="192.9336" y="541.3633">API</text><ellipse cx="70.2397" cy="552.062" fill="#000000" rx="2.5" ry="2.5"/><text fill="#000000" font-family="sans-serif" font-size="13" lengthAdjust="spacing" textLength="294.125" x="76.7397" y="556.4961">Registry must provide account ID for ITMO(s)</text><text fill="#000000" font-family="sans-serif" font-size="13" lengthAdjust="spacing" textLength="294.4678" x="73.0044" y="571.6289">* If account does not exists, it will be created</text><ellipse cx="70.2397" cy="582.3276" fill="#000000" rx="2.5" ry="2.5"/><text fill="#000000" font-family="sans-serif" font-size="13" lengthAdjust="spacing" textLength="326.6313" x="76.7397" y="586.7617">ITMOs will be created in the International Registry</text><ellipse cx="70.2397" cy="597.4604" fill="#000000" rx="2.5" ry="2.5"/><text fill="#000000" font-family="sans-serif" font-size="13" lengthAdjust="spacing" textLength="273.8379" x="76.7397" y="601.8945">unique ITMOID will be returned to registry</text><text fill="#000000" font-family="sans-serif" font-size="13" lengthAdjust="spacing" textLength="209.9678" x="73.0044" y="617.0273">* registryID-serialFirst-serialLast</text><rect fill="#F1F1F1" height="61.9063" rx="12.5" ry="12.5" style="stroke:#181818;stroke-width:0.5;" width="179.5508" x="438.3711" y="543.7417"/><text fill="#000000" font-family="sans-serif" font-size="12" lengthAdjust="spacing" textLength="81.4043" x="448.3711" y="564.8804">Party registry</text><text fill="#000000" font-family="sans-serif" font-size="12" lengthAdjust="spacing" textLength="93.5273" x="448.3711" y="578.8491">registers ITMOs</text><text fill="#000000" font-family="sans-serif" font-size="12" lengthAdjust="spacing" textLength="159.5508" x="448.3711" y="592.8179">with International Registry</text><polygon fill="#F1F1F1" points="446.8335,478.5859,609.4595,478.5859,621.4595,490.5859,609.4595,502.5859,446.8335,502.5859,434.8335,490.5859,446.8335,478.5859" style="stroke:#181818;stroke-width:0.5;"/><text fill="#000000" font-family="sans-serif" font-size="11" lengthAdjust="spacing" textLength="19.0083" x="532.1465" y="512.7964">yes</text><text fill="#000000" font-family="sans-serif" font-size="11" lengthAdjust="spacing" textLength="162.626" x="446.8335" y="494.394">Party opts for Interoperability</text><text fill="#000000" font-family="sans-serif" font-size="11" lengthAdjust="spacing" textLength="13.7017" x="621.4595" y="487.9917">no</text><ellipse cx="657.1611" cy="490.5859" fill="transparent" rx="11" ry="11" style="stroke:#222222;stroke-width:1;"/><ellipse cx="657.1611" cy="490.5859" fill="#222222" rx="6" ry="6" style="stroke:#222222;stroke-width:1;"/><rect fill="transparent" height="259.0933" style="stroke:#000000;stroke-width:1.5;" width="608.0806" x="53.9492" y="647.0933"/><path d="M318.6973,647.0933 L318.6973,656.3901 L308.6973,666.3901 L53.9492,666.3901 " fill="transparent" style="stroke:#000000;stroke-width:1.5;"/><text fill="#000000" font-family="sans-serif" font-size="14" lengthAdjust="spacing" textLength="254.748" x="56.9492" y="661.0884">ITMOs exist in International Registry</text><path d="M87.9492,735.9521 L87.9492,776.2178 A0,0 0 0 0 87.9492,776.2178 L417.5215,776.2178 A0,0 0 0 0 417.5215,776.2178 L417.5215,760.085 L437.5215,756.085 L417.5215,752.085 L417.5215,745.9521 L407.5215,735.9521 L87.9492,735.9521 A0,0 0 0 0 87.9492,735.9521 " fill="#FEFFDD" style="stroke:#181818;stroke-width:0.5;"/><path d="M407.5215,735.9521 L407.5215,745.9521 L417.5215,745.9521 L407.5215,735.9521 " fill="#FEFFDD" style="stroke:#181818;stroke-width:0.5;"/><ellipse cx="99.4492" cy="748.585" fill="#000000" rx="2.5" ry="2.5"/><text fill="#000000" font-family="sans-serif" font-size="13" lengthAdjust="spacing" textLength="174.6875" x="105.9492" y="753.019">Other operations on ITMOs</text><text fill="#000000" font-family="sans-serif" font-size="13" lengthAdjust="spacing" textLength="292.043" x="110.4785" y="768.1519">such as internal/external transfer, update, ...</text><rect fill="#F1F1F1" height="33.9688" rx="12.5" ry="12.5" style="stroke:#181818;stroke-width:0.5;" width="181.25" x="437.5215" y="739.1006"/><text fill="#000000" font-family="sans-serif" font-size="12" lengthAdjust="spacing" textLength="161.25" x="447.5215" y="760.2393">Other operations on ITMOs</text><polygon fill="#F1F1F1" points="528.1465,683.3901,528.1465,683.3901,540.1465,695.3901,528.1465,707.3901,528.1465,707.3901,516.1465,695.3901,528.1465,683.3901" style="stroke:#181818;stroke-width:0.5;"/><text fill="#000000" font-family="sans-serif" font-size="11" lengthAdjust="spacing" textLength="124.8833" x="532.1465" y="717.6006">Other ITMO operations</text><text fill="#000000" font-family="sans-serif" font-size="11" lengthAdjust="spacing" textLength="113.3999" x="402.7466" y="692.7959">Use or Cancel ITMOs</text><rect fill="#F1F1F1" height="33.9688" rx="12.5" ry="12.5" style="stroke:#181818;stroke-width:0.5;" width="143.709" x="456.292" y="818.2178"/><text fill="#000000" font-family="sans-serif" font-size="12" lengthAdjust="spacing" textLength="123.709" x="466.292" y="839.3564">Use or Cancel ITMOs</text><ellipse cx="528.1465" cy="883.1865" fill="transparent" rx="11" ry="11" style="stroke:#222222;stroke-width:1;"/><ellipse cx="528.1465" cy="883.1865" fill="#222222" rx="6" ry="6" style="stroke:#222222;stroke-width:1;"/><line style="stroke:#181818;stroke-width:1;" x1="528.1465" x2="528.1465" y1="166.8594" y2="199.4531"/><polygon fill="#181818" points="524.1465,189.4531,528.1465,199.4531,532.1465,189.4531,528.1465,193.4531" style="stroke:#181818;stroke-width:1;"/><line style="stroke:#181818;stroke-width:1;" x1="528.1465" x2="528.1465" y1="261.3594" y2="300.8047"/><polygon fill="#181818" points="524.1465,290.8047,528.1465,300.8047,532.1465,290.8047,528.1465,294.8047" style="stroke:#181818;stroke-width:1;"/><line style="stroke:#181818;stroke-width:1;" x1="528.1465" x2="528.1465" y1="376.6797" y2="396.6797"/><polygon fill="#181818" points="524.1465,386.6797,528.1465,396.6797,532.1465,386.6797,528.1465,390.6797" style="stroke:#181818;stroke-width:1;"/><line style="stroke:#181818;stroke-width:1;" x1="528.1465" x2="528.1465" y1="502.5859" y2="543.7417"/><polygon fill="#181818" points="524.1465,533.7417,528.1465,543.7417,532.1465,533.7417,528.1465,537.7417" style="stroke:#181818;stroke-width:1;"/><line style="stroke:#181818;stroke-width:1;" x1="621.4595" x2="646.1611" y1="490.5859" y2="490.5859"/><polygon fill="#181818" points="636.1611,486.5859,646.1611,490.5859,636.1611,494.5859,640.1611,490.5859" style="stroke:#181818;stroke-width:1;"/><line style="stroke:#181818;stroke-width:1;" x1="528.1465" x2="528.1465" y1="605.6479" y2="683.3901"/><polygon fill="#181818" points="524.1465,673.3901,528.1465,683.3901,532.1465,673.3901,528.1465,677.3901" style="stroke:#181818;stroke-width:1;"/><line style="stroke:#181818;stroke-width:1;" x1="528.1465" x2="528.1465" y1="458.5859" y2="478.5859"/><polygon fill="#181818" points="524.1465,468.5859,528.1465,478.5859,532.1465,468.5859,528.1465,472.5859" style="stroke:#181818;stroke-width:1;"/><line style="stroke:#181818;stroke-width:1;" x1="528.1465" x2="528.1465" y1="83.5938" y2="132.8906"/><polygon fill="#181818" points="524.1465,122.8906,528.1465,132.8906,532.1465,122.8906,528.1465,126.8906" style="stroke:#181818;stroke-width:1;"/><line style="stroke:#181818;stroke-width:1;" x1="528.1465" x2="528.1465" y1="707.3901" y2="739.1006"/><polygon fill="#181818" points="524.1465,729.1006,528.1465,739.1006,532.1465,729.1006,528.1465,733.1006" style="stroke:#181818;stroke-width:1;"/><line style="stroke:#181818;stroke-width:1;" x1="528.1465" x2="528.1465" y1="773.0693" y2="786.2178"/><line style="stroke:#181818;stroke-width:1;" x1="528.1465" x2="630.7715" y1="786.2178" y2="786.2178"/><polygon fill="#181818" points="626.7715,747.6826,630.7715,737.6826,634.7715,747.6826,630.7715,743.6826" style="stroke:#181818;stroke-width:1;"/><line style="stroke:#181818;stroke-width:1;" x1="630.7715" x2="630.7715" y1="695.3901" y2="786.2178"/><line style="stroke:#181818;stroke-width:1;" x1="630.7715" x2="540.1465" y1="695.3901" y2="695.3901"/><polygon fill="#181818" points="550.1465,691.3901,540.1465,695.3901,550.1465,699.3901,546.1465,695.3901" style="stroke:#181818;stroke-width:1;"/><line style="stroke:#181818;stroke-width:1;" x1="516.1465" x2="75.9492" y1="695.3901" y2="695.3901"/><polygon fill="#181818" points="71.9492,733.6826,75.9492,743.6826,79.9492,733.6826,75.9492,737.6826" style="stroke:#181818;stroke-width:1;"/><line style="stroke:#181818;stroke-width:1;" x1="75.9492" x2="75.9492" y1="695.3901" y2="798.2178"/><line style="stroke:#181818;stroke-width:1;" x1="75.9492" x2="528.1465" y1="798.2178" y2="798.2178"/><line style="stroke:#181818;stroke-width:1;" x1="528.1465" x2="528.1465" y1="798.2178" y2="818.2178"/><polygon fill="#181818" points="524.1465,808.2178,528.1465,818.2178,532.1465,808.2178,528.1465,812.2178" style="stroke:#181818;stroke-width:1;"/><line style="stroke:#181818;stroke-width:1;" x1="528.1465" x2="528.1465" y1="852.1865" y2="872.1865"/><polygon fill="#181818" points="524.1465,862.1865,528.1465,872.1865,532.1465,862.1865,528.1465,866.1865" style="stroke:#181818;stroke-width:1;"/><!--SRC=[dLLDRzim3BtxL_3e55c2RPUXFGn1kW41shNejbilYaqd6cp94-MssT3_Fago7Rcnjs8v6B74h_VuI5jfIuJDj-iRk985PeUCN-zLaf0LnYP9pKzffLRUXY3NeBI50rh09qaM9DyeYqO9PoLAkCCTdvi3_4w0V_vnljQwHiCc3mYhkZPQP7jODNQlZVo5-OMt0XSQeSJ2jky0EMQINFftiBvUBTxFGIY5JtFWmWIy_P3kPhtj6VXgCrbp8hM3MtuxWEYo48nLqNgZodtsfAiuE1iF1Wtvmr4KNNoFtvizIhk7hvWPP0wbiF-FBe8Mwg5cMqbBp3etXSasM6jZmUg-qf5wGe0RXQ0DLDeWPBhQoj0n0bqCVTn9xzV2FiKz7vW4SHWi0_DSZztZA5yEOZxm_QISmhWzwMdx-FZZRAf54SMGIgB6URLGx26u2IAvOqYh625iBXV-DexGjtfQ9gprzUhkrY5WewhYI5zqXIfZs8r1ccxqsKa1K3KyFLjiAyGX9rjkTLGRyucAE0KqIlviK25H53k6yIZB4aH9aI86aVjno45lVs3cnJGnmgV4Jqn7E7KYI6dsweb8fhZQ57x9YDAWo8zfk6GVA1b8ynyJ6Lk7GEPOrqj9oGBI04tNJ4p1y-APyKcsidIoSifMa1wGPftR2q9wuexy-FbeJps6SS8l-cB7QFbE2Cjb5zI5N2vXTRk9JFhbwzN5V3p8d2MMPRfHrgdEGmfzYeZnb7TMkUPPTFpx1KzpaAsgMApSGM4ZhPwra__YtadABO2_oifv1pdx85nS5uLbqXWUYUDUYvoSMtUukNn3o88gFqj3jlr_9UZ8sa2xRRkmP29JfJi6oEgw4oJRoo9vFltmlVfhzxYN_0bDPo1vezqm2u5mQ8NA-xNNpNcuFjv0bsvga_0QdtA92AB6JO4RR5zgkSIdy0TO_8eAD7DewfmxDOV5OZ4nvlpUOd72OzsiXSgm3Da2T-SZDw5qpsc8z9py0G00]--></g></svg>