<svg xmlns="http://www.w3.org/2000/svg" xmlns:xlink="http://www.w3.org/1999/xlink" contentStyleType="text/css" data-diagram-type="ACTIVITY" height="1497px" preserveAspectRatio="none" style="width:2275px;height:1497px;background:#FFFFFF;" version="1.1" viewBox="0 0 2275 1497" width="2275px" zoomAndPan="magnify"><title>ITMO Lifecycle </title><defs/><g><text fill="#000000" font-family="sans-serif" font-size="14" font-weight="bold" lengthAdjust="spacing" textLength="114.7891" x="1076.213" y="32.9951">ITMO Lifecycle</text><text fill="#000000" font-family="sans-serif" font-size="14" font-weight="bold" lengthAdjust="spacing" textLength="4.874" x="1133.6075" y="49.292">&#160;</text><rect fill="transparent" height="20.9531" style="stroke:transparent;stroke-width:1;" width="2123.9021" x="15" y="66.3389"/><ellipse cx="538.1465" cy="102.292" fill="#222222" rx="10" ry="10" style="stroke:#222222;stroke-width:1;"/><rect fill="transparent" height="865.8354" style="stroke:#000000;stroke-width:1.5;" width="669.1611" x="21" y="122.292"/><path d="M361.8662,122.292 L361.8662,131.5889 L351.8662,141.5889 L21,141.5889 " fill="transparent" style="stroke:#000000;stroke-width:1.5;"/><text fill="#000000" font-family="sans-serif" font-size="14" lengthAdjust="spacing" textLength="330.8662" x="24" y="136.2871">ITMOs do not yet exist in International Registry</text><path d="M31.7803,158.4404 L31.7803,198.7061 A0,0 0 0 0 31.7803,198.7061 L406.7412,198.7061 A0,0 0 0 0 406.7412,198.7061 L406.7412,182.5732 L426.7412,178.5732 L406.7412,174.5732 L406.7412,168.4404 L396.7412,158.4404 L31.7803,158.4404 A0,0 0 0 0 31.7803,158.4404 " fill="#FEFFDD" style="stroke:#181818;stroke-width:0.5;"/><path d="M396.7412,158.4404 L396.7412,168.4404 L406.7412,168.4404 L396.7412,158.4404 " fill="#FEFFDD" style="stroke:#181818;stroke-width:0.5;"/><text fill="#000000" font-family="sans-serif" font-size="13" lengthAdjust="spacing" textLength="236.9771" x="37.7803" y="175.5073">decision 2 CMA.3, annex, para 18(g)</text><ellipse cx="43.2803" cy="186.2061" fill="#000000" rx="2.5" ry="2.5"/><text fill="#000000" font-family="sans-serif" font-size="13" lengthAdjust="spacing" textLength="341.9609" x="49.7803" y="190.6401">participating Party authorizes Cooperative Approach</text><rect fill="#F1F1F1" height="33.9688" rx="12.5" ry="12.5" style="stroke:#181818;stroke-width:0.5;" width="222.8105" x="426.7412" y="161.5889"/><text fill="#000000" font-family="sans-serif" font-size="12" lengthAdjust="spacing" textLength="202.8105" x="436.7412" y="182.7275">Cooperative Approach Authorized</text><path d="M31,208.7061 L31,309.5029 A0,0 0 0 0 31,309.5029 L399.499,309.5029 A0,0 0 0 0 399.499,309.5029 L399.499,263.1045 L419.499,259.1045 L399.499,255.1045 L399.499,218.7061 L389.499,208.7061 L31,208.7061 A0,0 0 0 0 31,208.7061 " fill="#FEFFDD" style="stroke:#181818;stroke-width:0.5;"/><path d="M389.499,208.7061 L389.499,218.7061 L399.499,218.7061 L389.499,208.7061 " fill="#FEFFDD" style="stroke:#181818;stroke-width:0.5;"/><text fill="#000000" font-family="sans-serif" font-size="13" lengthAdjust="spacing" textLength="218.5815" x="37" y="225.7729">decision 2 CMA.3, annex, para 18</text><ellipse cx="42.5" cy="236.4717" fill="#000000" rx="2.5" ry="2.5"/><text fill="#000000" font-family="sans-serif" font-size="13" lengthAdjust="spacing" textLength="335.499" x="49" y="240.9058">Party submits initial report to register authorization</text><ellipse cx="42.5" cy="251.6045" fill="#000000" rx="2.5" ry="2.5"/><text fill="#000000" font-family="sans-serif" font-size="13" lengthAdjust="spacing" textLength="304.0083" x="49" y="256.0386">One or more combinations of authorizations of</text><text fill="#000000" font-family="sans-serif" font-size="13" lengthAdjust="spacing" textLength="157.2124" x="53.5293" y="271.1714">Coooperative Approach,</text><text fill="#000000" font-family="sans-serif" font-size="13" lengthAdjust="spacing" textLength="318.8809" x="53.5293" y="286.3042">ITMOs relating to the Cooperative Approach, and</text><text fill="#000000" font-family="sans-serif" font-size="13" lengthAdjust="spacing" textLength="201.0303" x="53.5293" y="301.437">Entities (participating Parties?)</text><rect fill="#F1F1F1" height="61.9063" rx="12.5" ry="12.5" style="stroke:#181818;stroke-width:0.5;" width="237.2949" x="419.499" y="228.1514"/><text fill="#000000" font-family="sans-serif" font-size="12" lengthAdjust="spacing" textLength="87.9375" x="429.499" y="249.29">Party registers</text><text fill="#000000" font-family="sans-serif" font-size="12" lengthAdjust="spacing" textLength="217.2949" x="429.499" y="263.2588">Cooperative Approach authorization</text><text fill="#000000" font-family="sans-serif" font-size="12" lengthAdjust="spacing" textLength="95.5723" x="429.499" y="277.2275">with Secretariat</text><path d="M174.5391,428.6318 L174.5391,484.0303 A0,0 0 0 0 174.5391,484.0303 L443.3389,484.0303 A0,0 0 0 0 443.3389,484.0303 L443.3389,460.3311 L463.3389,456.3311 L443.3389,452.3311 L443.3389,438.6318 L433.3389,428.6318 L174.5391,428.6318 A0,0 0 0 0 174.5391,428.6318 " fill="#FEFFDD" style="stroke:#181818;stroke-width:0.5;"/><path d="M433.3389,428.6318 L433.3389,438.6318 L443.3389,438.6318 L433.3389,428.6318 " fill="#FEFFDD" style="stroke:#181818;stroke-width:0.5;"/><ellipse cx="186.0391" cy="441.2646" fill="#000000" rx="2.5" ry="2.5"/><text fill="#000000" font-family="sans-serif" font-size="13" lengthAdjust="spacing" textLength="189.3125" x="192.5391" y="445.6987">If not already registered with</text><text fill="#000000" font-family="sans-serif" font-size="13" lengthAdjust="spacing" textLength="235.4028" x="188.8037" y="460.8315">Cooperative Approach authorization</text><text fill="#000000" font-family="sans-serif" font-size="13" lengthAdjust="spacing" textLength="75.2896" x="188.8037" y="475.9644">registration</text><rect fill="#F1F1F1" height="61.9063" rx="12.5" ry="12.5" style="stroke:#181818;stroke-width:0.5;" width="149.6152" x="463.3389" y="425.3779"/><text fill="#000000" font-family="sans-serif" font-size="12" lengthAdjust="spacing" textLength="87.9375" x="473.3389" y="446.5166">Party registers</text><text fill="#000000" font-family="sans-serif" font-size="12" lengthAdjust="spacing" textLength="129.6152" x="473.3389" y="460.4854">ITMO(s) authorization</text><text fill="#000000" font-family="sans-serif" font-size="12" lengthAdjust="spacing" textLength="95.5723" x="473.3389" y="474.4541">with Secretariat</text><polygon fill="#F1F1F1" points="456.8335,587.8154,619.4595,587.8154,631.4595,599.8154,619.4595,611.8154,456.8335,611.8154,444.8335,599.8154,456.8335,587.8154" style="stroke:#181818;stroke-width:0.5;"/><text fill="#000000" font-family="sans-serif" font-size="11" lengthAdjust="spacing" textLength="19.0083" x="542.1465" y="622.0259">yes</text><text fill="#000000" font-family="sans-serif" font-size="11" lengthAdjust="spacing" textLength="162.626" x="456.8335" y="603.6235">Party opts for Interoperability</text><text fill="#000000" font-family="sans-serif" font-size="11" lengthAdjust="spacing" textLength="13.7017" x="631.4595" y="597.2212">no</text><ellipse cx="667.1611" cy="599.8154" fill="transparent" rx="11" ry="11" style="stroke:#222222;stroke-width:1;"/><ellipse cx="667.1611" cy="599.8154" fill="#222222" rx="6" ry="6" style="stroke:#222222;stroke-width:1;"/><line style="stroke:#000000;stroke-width:1.5;" x1="15" x2="15" y1="66.3389" y2="1485.8223"/><rect fill="transparent" height="865.8354" style="stroke:#000000;stroke-width:1.5;" width="643.9536" x="700.1611" y="122.292"/><path d="M1041.0273,122.292 L1041.0273,131.5889 L1031.0273,141.5889 L700.1611,141.5889 " fill="transparent" style="stroke:#000000;stroke-width:1.5;"/><text fill="#000000" font-family="sans-serif" font-size="14" lengthAdjust="spacing" textLength="330.8662" x="703.1611" y="136.2871">ITMOs do not yet exist in International Registry</text><path d="M712.1611,332.1748 L712.1611,402.7061 A0,0 0 0 0 712.1611,402.7061 L1031.4312,402.7061 A0,0 0 0 0 1031.4312,402.7061 L1031.4312,371.4404 L1051.4312,367.4404 L1031.4312,363.4404 L1031.4312,342.1748 L1021.4312,332.1748 L712.1611,332.1748 A0,0 0 0 0 712.1611,332.1748 " fill="#FEFFDD" style="stroke:#181818;stroke-width:0.5;"/><path d="M1021.4312,332.1748 L1021.4312,342.1748 L1031.4312,342.1748 L1021.4312,332.1748 " fill="#FEFFDD" style="stroke:#181818;stroke-width:0.5;"/><ellipse cx="723.6611" cy="344.8076" fill="#000000" rx="2.5" ry="2.5"/><text fill="#000000" font-family="sans-serif" font-size="13" lengthAdjust="spacing" textLength="224.3325" x="730.1611" y="349.2417">Authorization ID must be assigned</text><text fill="#000000" font-family="sans-serif" font-size="13" lengthAdjust="spacing" textLength="234.8252" x="734.6904" y="364.3745">by secretariat to ensure uniqueness</text><ellipse cx="723.6611" cy="375.0732" fill="#000000" rx="2.5" ry="2.5"/><text fill="#000000" font-family="sans-serif" font-size="13" lengthAdjust="spacing" textLength="182.4126" x="730.1611" y="379.5073">Secretariat will also register</text><text fill="#000000" font-family="sans-serif" font-size="13" lengthAdjust="spacing" textLength="281.7407" x="734.6904" y="394.6401">authorized objects in International Registry</text><rect fill="#F1F1F1" height="75.875" rx="12.5" ry="12.5" style="stroke:#181818;stroke-width:0.5;" width="280.6836" x="1051.4312" y="329.5029"/><text fill="#000000" font-family="sans-serif" font-size="12" lengthAdjust="spacing" textLength="179.9766" x="1061.4312" y="350.6416">Secretariat (issuing authority)</text><text fill="#000000" font-family="sans-serif" font-size="12" lengthAdjust="spacing" textLength="149.2617" x="1061.4312" y="364.6104">assigns Authorization ID.</text><text fill="#000000" font-family="sans-serif" font-size="12" lengthAdjust="spacing" textLength="260.6836" x="1061.4312" y="378.5791">Secretariat registers Cooperative Approach</text><text fill="#000000" font-family="sans-serif" font-size="12" lengthAdjust="spacing" textLength="226.1426" x="1061.4312" y="392.5479">in CARP and Common Nomenclatures</text><path d="M719.0166,497.2842 L719.0166,567.8154 A0,0 0 0 0 719.0166,567.8154 L1038.2866,567.8154 A0,0 0 0 0 1038.2866,567.8154 L1038.2866,536.5498 L1058.2866,532.5498 L1038.2866,528.5498 L1038.2866,507.2842 L1028.2866,497.2842 L719.0166,497.2842 A0,0 0 0 0 719.0166,497.2842 " fill="#FEFFDD" style="stroke:#181818;stroke-width:0.5;"/><path d="M1028.2866,497.2842 L1028.2866,507.2842 L1038.2866,507.2842 L1028.2866,497.2842 " fill="#FEFFDD" style="stroke:#181818;stroke-width:0.5;"/><ellipse cx="730.5166" cy="509.917" fill="#000000" rx="2.5" ry="2.5"/><text fill="#000000" font-family="sans-serif" font-size="13" lengthAdjust="spacing" textLength="224.3325" x="737.0166" y="514.3511">Authorization ID must be assigned</text><text fill="#000000" font-family="sans-serif" font-size="13" lengthAdjust="spacing" textLength="234.8252" x="741.5459" y="529.4839">by secretariat to ensure uniqueness</text><ellipse cx="730.5166" cy="540.1826" fill="#000000" rx="2.5" ry="2.5"/><text fill="#000000" font-family="sans-serif" font-size="13" lengthAdjust="spacing" textLength="182.4126" x="737.0166" y="544.6167">Secretariat will also register</text><text fill="#000000" font-family="sans-serif" font-size="13" lengthAdjust="spacing" textLength="281.7407" x="741.5459" y="559.7495">authorized objects in International Registry</text><rect fill="#F1F1F1" height="47.9375" rx="12.5" ry="12.5" style="stroke:#181818;stroke-width:0.5;" width="266.9727" x="1058.2866" y="508.5811"/><text fill="#000000" font-family="sans-serif" font-size="12" lengthAdjust="spacing" textLength="246.9727" x="1068.2866" y="529.7197">Secretariat registers ITMOs authorization</text><text fill="#000000" font-family="sans-serif" font-size="12" lengthAdjust="spacing" textLength="207.3984" x="1068.2866" y="543.6885">in CARP and International Registry</text><line style="stroke:#000000;stroke-width:1.5;" x1="694.1611" x2="694.1611" y1="66.3389" y2="1485.8223"/><rect fill="transparent" height="865.8354" style="stroke:#000000;stroke-width:1.5;" width="558.1082" x="1354.1147" y="122.292"/><path d="M1694.981,122.292 L1694.981,131.5889 L1684.981,141.5889 L1354.1147,141.5889 " fill="transparent" style="stroke:#000000;stroke-width:1.5;"/><text fill="#000000" font-family="sans-serif" font-size="14" lengthAdjust="spacing" textLength="330.8662" x="1357.1147" y="136.2871">ITMOs do not yet exist in International Registry</text><path d="M1366.1147,633.5259 L1366.1147,840.2524 A0,0 0 0 0 1366.1147,840.2524 L1693.2397,840.2524 A0,0 0 0 0 1693.2397,840.2524 L1693.2397,740.8892 L1713.2397,736.8892 L1693.2397,732.8892 L1693.2397,643.5259 L1683.2397,633.5259 L1366.1147,633.5259 A0,0 0 0 0 1366.1147,633.5259 " fill="#FEFFDD" style="stroke:#181818;stroke-width:0.5;"/><path d="M1683.2397,633.5259 L1683.2397,643.5259 L1693.2397,643.5259 L1683.2397,633.5259 " fill="#FEFFDD" style="stroke:#181818;stroke-width:0.5;"/><ellipse cx="1377.6147" cy="646.1587" fill="#000000" rx="2.5" ry="2.5"/><text fill="#000000" font-family="sans-serif" font-size="13" lengthAdjust="spacing" textLength="24.2861" x="1384.1147" y="650.5928">Use</text><text fill="#000000" font-family="sans-serif" font-size="13" font-style="italic" lengthAdjust="spacing" textLength="93.4692" x="1412.5332" y="650.5928">proposeAction</text><text fill="#000000" font-family="sans-serif" font-size="13" lengthAdjust="spacing" textLength="20.5664" x="1510.1348" y="650.5928">API</text><ellipse cx="1377.6147" cy="661.2915" fill="#000000" rx="2.5" ry="2.5"/><text fill="#000000" font-family="sans-serif" font-size="13" lengthAdjust="spacing" textLength="116.562" x="1384.1147" y="665.7256">Action is Issuance</text><ellipse cx="1377.6147" cy="676.4243" fill="#000000" rx="2.5" ry="2.5"/><text fill="#000000" font-family="sans-serif" font-size="13" lengthAdjust="spacing" textLength="179.4927" x="1384.1147" y="680.8584">This registers the ITMOs for</text><text fill="#000000" font-family="sans-serif" font-size="13" lengthAdjust="spacing" textLength="131.3965" x="1388.644" y="695.9912">interoperability with</text><text fill="#000000" font-family="sans-serif" font-size="13" lengthAdjust="spacing" textLength="169.7236" x="1388.644" y="711.124">International Registry and</text><text fill="#000000" font-family="sans-serif" font-size="13" lengthAdjust="spacing" textLength="180.1592" x="1388.644" y="726.2568">other like-minded registries</text><ellipse cx="1377.6147" cy="736.9556" fill="#000000" rx="2.5" ry="2.5"/><text fill="#000000" font-family="sans-serif" font-size="13" lengthAdjust="spacing" textLength="294.125" x="1384.1147" y="741.3896">Registry must provide account ID for ITMO(s)</text><text fill="#000000" font-family="sans-serif" font-size="13" lengthAdjust="spacing" textLength="181.708" x="1380.3794" y="756.5225">* If account does not exists,</text><text fill="#000000" font-family="sans-serif" font-size="13" lengthAdjust="spacing" textLength="108.6274" x="1388.644" y="771.6553">it will be created</text><ellipse cx="1377.6147" cy="782.354" fill="#000000" rx="2.5" ry="2.5"/><text fill="#000000" font-family="sans-serif" font-size="13" lengthAdjust="spacing" textLength="155.8984" x="1384.1147" y="786.7881">ITMOs will be created in</text><text fill="#000000" font-family="sans-serif" font-size="13" lengthAdjust="spacing" textLength="166.6006" x="1380.3794" y="801.9209">the International Registry</text><ellipse cx="1377.6147" cy="812.6196" fill="#000000" rx="2.5" ry="2.5"/><text fill="#000000" font-family="sans-serif" font-size="13" lengthAdjust="spacing" textLength="273.8379" x="1384.1147" y="817.0537">unique ITMOID will be returned to registry</text><text fill="#000000" font-family="sans-serif" font-size="13" lengthAdjust="spacing" textLength="209.9678" x="1380.3794" y="832.1865">* registryID-serialFirst-serialLast</text><rect fill="#F1F1F1" height="33.9688" rx="12.5" ry="12.5" style="stroke:#181818;stroke-width:0.5;" width="132.957" x="1713.2397" y="719.9048"/><text fill="#000000" font-family="sans-serif" font-size="12" lengthAdjust="spacing" textLength="112.957" x="1723.2397" y="741.0435">Party issues ITMOs</text><rect fill="#F1F1F1" height="47.9375" rx="12.5" ry="12.5" style="stroke:#181818;stroke-width:0.5;" width="136.2734" x="1711.5815" y="928.1899"/><text fill="#000000" font-family="sans-serif" font-size="12" lengthAdjust="spacing" textLength="101.9473" x="1721.5815" y="949.3286">Finalize Issuance</text><text fill="#000000" font-family="sans-serif" font-size="12" lengthAdjust="spacing" textLength="116.2734" x="1721.5815" y="963.2974">and record ITMO ID</text><rect fill="transparent" height="487.6948" style="stroke:#000000;stroke-width:1.5;" width="410.0828" x="1490.1401" y="998.1274"/><path d="M1754.8882,998.1274 L1754.8882,1007.4243 L1744.8882,1017.4243 L1490.1401,1017.4243 " fill="transparent" style="stroke:#000000;stroke-width:1.5;"/><text fill="#000000" font-family="sans-serif" font-size="14" lengthAdjust="spacing" textLength="254.748" x="1493.1401" y="1012.1226">ITMOs exist in International Registry</text><path d="M1524.1401,1093.9707 L1524.1401,1134.2363 A0,0 0 0 0 1524.1401,1134.2363 L1698.3755,1134.2363 A0,0 0 0 0 1698.3755,1134.2363 L1698.3755,1118.1035 L1718.3755,1114.1035 L1698.3755,1110.1035 L1698.3755,1103.9707 L1688.3755,1093.9707 L1524.1401,1093.9707 A0,0 0 0 0 1524.1401,1093.9707 " fill="#FEFFDD" style="stroke:#181818;stroke-width:0.5;"/><path d="M1688.3755,1093.9707 L1688.3755,1103.9707 L1698.3755,1103.9707 L1688.3755,1093.9707 " fill="#FEFFDD" style="stroke:#181818;stroke-width:0.5;"/><ellipse cx="1535.6401" cy="1106.6035" fill="#000000" rx="2.5" ry="2.5"/><text fill="#000000" font-family="sans-serif" font-size="13" lengthAdjust="spacing" textLength="141.2354" x="1542.1401" y="1111.0376">Other actions such as</text><text fill="#000000" font-family="sans-serif" font-size="13" lengthAdjust="spacing" textLength="139.6167" x="1538.4048" y="1126.1704">transfers, updates, ...</text><rect fill="#F1F1F1" height="47.9375" rx="12.5" ry="12.5" style="stroke:#181818;stroke-width:0.5;" width="122.6855" x="1718.3755" y="1090.1348"/><text fill="#000000" font-family="sans-serif" font-size="12" lengthAdjust="spacing" textLength="83.8887" x="1728.3755" y="1111.2734">Propose other</text><text fill="#000000" font-family="sans-serif" font-size="12" lengthAdjust="spacing" textLength="102.6855" x="1728.3755" y="1125.2422">actions on ITMOs</text><rect fill="#F1F1F1" height="47.9375" rx="12.5" ry="12.5" style="stroke:#181818;stroke-width:0.5;" width="122.6855" x="1718.3755" y="1226.0098"/><text fill="#000000" font-family="sans-serif" font-size="12" lengthAdjust="spacing" textLength="81.2813" x="1728.3755" y="1247.1484">Finalise other</text><text fill="#000000" font-family="sans-serif" font-size="12" lengthAdjust="spacing" textLength="102.6855" x="1728.3755" y="1261.1172">actions on ITMOs</text><polygon fill="#F1F1F1" points="1699.2136,1034.4243,1860.2229,1034.4243,1872.2229,1046.4243,1860.2229,1058.4243,1699.2136,1058.4243,1687.2136,1046.4243,1699.2136,1034.4243" style="stroke:#181818;stroke-width:0.5;"/><text fill="#000000" font-family="sans-serif" font-size="11" lengthAdjust="spacing" textLength="13.7017" x="1783.7183" y="1068.6348">no</text><text fill="#000000" font-family="sans-serif" font-size="11" lengthAdjust="spacing" textLength="161.0093" x="1699.2136" y="1050.2324">Propose Use or Cancel action</text><text fill="#000000" font-family="sans-serif" font-size="11" lengthAdjust="spacing" textLength="19.0083" x="1668.2053" y="1043.8301">yes</text><rect fill="#F1F1F1" height="47.9375" rx="12.5" ry="12.5" style="stroke:#181818;stroke-width:0.5;" width="107.8203" x="1725.8081" y="1383.8848"/><text fill="#000000" font-family="sans-serif" font-size="12" lengthAdjust="spacing" textLength="87.8203" x="1735.8081" y="1405.0234">Finalise Use or</text><text fill="#000000" font-family="sans-serif" font-size="12" lengthAdjust="spacing" textLength="87.6563" x="1735.8081" y="1418.9922">Cancel actions</text><ellipse cx="1779.7183" cy="1462.8223" fill="transparent" rx="11" ry="11" style="stroke:#222222;stroke-width:1;"/><ellipse cx="1779.7183" cy="1462.8223" fill="#222222" rx="6" ry="6" style="stroke:#222222;stroke-width:1;"/><line style="stroke:#000000;stroke-width:1.5;" x1="1348.1147" x2="1348.1147" y1="66.3389" y2="1485.8223"/><rect fill="transparent" height="865.8354" style="stroke:#000000;stroke-width:1.5;" width="210.8184" x="1922.2229" y="122.292"/><path d="M2263.0891,122.292 L2263.0891,131.5889 L2253.0891,141.5889 L1922.2229,141.5889 " fill="transparent" style="stroke:#000000;stroke-width:1.5;"/><text fill="#000000" font-family="sans-serif" font-size="14" lengthAdjust="spacing" textLength="330.8662" x="1925.2229" y="136.2871">ITMOs do not yet exist in International Registry</text><rect fill="#F1F1F1" height="47.9375" rx="12.5" ry="12.5" style="stroke:#181818;stroke-width:0.5;" width="142.7949" x="1961.7346" y="860.2524"/><text fill="#000000" font-family="sans-serif" font-size="12" lengthAdjust="spacing" textLength="105.6914" x="1971.7346" y="881.3911">Validate Issuance</text><text fill="#000000" font-family="sans-serif" font-size="12" lengthAdjust="spacing" textLength="122.7949" x="1971.7346" y="895.3599">and provide ITMO ID</text><rect fill="transparent" height="487.6948" style="stroke:#000000;stroke-width:1.5;" width="186.8184" x="1934.2229" y="998.1274"/><path d="M2198.9709,998.1274 L2198.9709,1007.4243 L2188.9709,1017.4243 L1934.2229,1017.4243 " fill="transparent" style="stroke:#000000;stroke-width:1.5;"/><text fill="#000000" font-family="sans-serif" font-size="14" lengthAdjust="spacing" textLength="254.748" x="1937.2229" y="1012.1226">ITMOs exist in International Registry</text><rect fill="#F1F1F1" height="47.9375" rx="12.5" ry="12.5" style="stroke:#181818;stroke-width:0.5;" width="151.8184" x="1957.2229" y="1158.0723"/><text fill="#000000" font-family="sans-serif" font-size="12" lengthAdjust="spacing" textLength="131.8184" x="1967.2229" y="1179.2109">Validate and facilitate</text><text fill="#000000" font-family="sans-serif" font-size="12" lengthAdjust="spacing" textLength="78.9727" x="1967.2229" y="1193.1797">other actions</text><rect fill="#F1F1F1" height="47.9375" rx="12.5" ry="12.5" style="stroke:#181818;stroke-width:0.5;" width="151.8184" x="1957.2229" y="1315.9473"/><text fill="#000000" font-family="sans-serif" font-size="12" lengthAdjust="spacing" textLength="131.8184" x="1967.2229" y="1337.0859">Validate and facilitate</text><text fill="#000000" font-family="sans-serif" font-size="12" lengthAdjust="spacing" textLength="123.7266" x="1967.2229" y="1351.0547">Use or Cancel action</text><line style="stroke:#000000;stroke-width:1.5;" x1="1916.2229" x2="1916.2229" y1="66.3389" y2="1485.8223"/><line style="stroke:#000000;stroke-width:1.5;" x1="2137.0413" x2="2137.0413" y1="66.3389" y2="1485.8223"/><line style="stroke:#181818;stroke-width:1;" x1="538.1465" x2="538.1465" y1="195.5576" y2="228.1514"/><polygon fill="#181818" points="534.1465,218.1514,538.1465,228.1514,542.1465,218.1514,538.1465,222.1514" style="stroke:#181818;stroke-width:1;"/><line style="stroke:#181818;stroke-width:1;" x1="631.4595" x2="656.1611" y1="599.8154" y2="599.8154"/><polygon fill="#181818" points="646.1611,595.8154,656.1611,599.8154,646.1611,603.8154,650.1611,599.8154" style="stroke:#181818;stroke-width:1;"/><line style="stroke:#181818;stroke-width:1;" x1="538.1465" x2="538.1465" y1="112.292" y2="161.5889"/><polygon fill="#181818" points="534.1465,151.5889,538.1465,161.5889,542.1465,151.5889,538.1465,155.5889" style="stroke:#181818;stroke-width:1;"/><line style="stroke:#181818;stroke-width:1;" x1="1779.7183" x2="1779.7183" y1="976.1274" y2="1034.4243"/><polygon fill="#181818" points="1775.7183,1024.4243,1779.7183,1034.4243,1783.7183,1024.4243,1779.7183,1028.4243" style="stroke:#181818;stroke-width:1;"/><line style="stroke:#181818;stroke-width:1;" x1="1779.7183" x2="1779.7183" y1="1058.4243" y2="1090.1348"/><polygon fill="#181818" points="1775.7183,1080.1348,1779.7183,1090.1348,1783.7183,1080.1348,1779.7183,1084.1348" style="stroke:#181818;stroke-width:1;"/><line style="stroke:#181818;stroke-width:1;" x1="1779.7183" x2="1779.7183" y1="1273.9473" y2="1283.9473"/><line style="stroke:#181818;stroke-width:1;" x1="1779.7183" x2="1884.2229" y1="1283.9473" y2="1283.9473"/><polygon fill="#181818" points="1880.2229,1173.6387,1884.2229,1163.6387,1888.2229,1173.6387,1884.2229,1169.6387" style="stroke:#181818;stroke-width:1;"/><line style="stroke:#181818;stroke-width:1;" x1="1884.2229" x2="1884.2229" y1="1046.4243" y2="1283.9473"/><line style="stroke:#181818;stroke-width:1;" x1="1884.2229" x2="1872.2229" y1="1046.4243" y2="1046.4243"/><polygon fill="#181818" points="1882.2229,1042.4243,1872.2229,1046.4243,1882.2229,1050.4243,1878.2229,1046.4243" style="stroke:#181818;stroke-width:1;"/><line style="stroke:#181818;stroke-width:1;" x1="1687.2136" x2="1512.1401" y1="1046.4243" y2="1046.4243"/><polygon fill="#181818" points="1508.1401,1168.3887,1512.1401,1178.3887,1516.1401,1168.3887,1512.1401,1172.3887" style="stroke:#181818;stroke-width:1;"/><line style="stroke:#181818;stroke-width:1;" x1="1512.1401" x2="1512.1401" y1="1046.4243" y2="1300.9473"/><line style="stroke:#181818;stroke-width:1;" x1="1512.1401" x2="2033.1321" y1="1300.9473" y2="1300.9473"/><line style="stroke:#181818;stroke-width:1;" x1="2033.1321" x2="2033.1321" y1="1300.9473" y2="1315.9473"/><polygon fill="#181818" points="2029.1321,1305.9473,2033.1321,1315.9473,2037.1321,1305.9473,2033.1321,1309.9473" style="stroke:#181818;stroke-width:1;"/><line style="stroke:#181818;stroke-width:1;" x1="1779.7183" x2="1779.7183" y1="1431.8223" y2="1451.8223"/><polygon fill="#181818" points="1775.7183,1441.8223,1779.7183,1451.8223,1783.7183,1441.8223,1779.7183,1445.8223" style="stroke:#181818;stroke-width:1;"/><line style="stroke:#181818;stroke-width:1;" x1="538.1465" x2="538.1465" y1="290.0576" y2="314.5029"/><line style="stroke:#181818;stroke-width:1;" x1="538.1465" x2="1191.7729" y1="314.5029" y2="314.5029"/><line style="stroke:#181818;stroke-width:1;" x1="1191.7729" x2="1191.7729" y1="314.5029" y2="329.5029"/><polygon fill="#181818" points="1187.7729,319.5029,1191.7729,329.5029,1195.7729,319.5029,1191.7729,323.5029" style="stroke:#181818;stroke-width:1;"/><line style="stroke:#181818;stroke-width:1;" x1="1191.7729" x2="1191.7729" y1="405.3779" y2="410.3779"/><line style="stroke:#181818;stroke-width:1;" x1="1191.7729" x2="538.1465" y1="410.3779" y2="410.3779"/><line style="stroke:#181818;stroke-width:1;" x1="538.1465" x2="538.1465" y1="410.3779" y2="425.3779"/><polygon fill="#181818" points="534.1465,415.3779,538.1465,425.3779,542.1465,415.3779,538.1465,419.3779" style="stroke:#181818;stroke-width:1;"/><line style="stroke:#181818;stroke-width:1;" x1="538.1465" x2="538.1465" y1="487.2842" y2="492.2842"/><line style="stroke:#181818;stroke-width:1;" x1="538.1465" x2="1191.7729" y1="492.2842" y2="492.2842"/><line style="stroke:#181818;stroke-width:1;" x1="1191.7729" x2="1191.7729" y1="492.2842" y2="508.5811"/><polygon fill="#181818" points="1187.7729,498.5811,1191.7729,508.5811,1195.7729,498.5811,1191.7729,502.5811" style="stroke:#181818;stroke-width:1;"/><line style="stroke:#181818;stroke-width:1;" x1="1779.7183" x2="1779.7183" y1="753.8735" y2="814.563"/><line style="stroke:#181818;stroke-width:1;" x1="1779.7183" x2="2033.1321" y1="814.563" y2="814.563"/><line style="stroke:#181818;stroke-width:1;" x1="2033.1321" x2="2033.1321" y1="814.563" y2="860.2524"/><polygon fill="#181818" points="2029.1321,850.2524,2033.1321,860.2524,2037.1321,850.2524,2033.1321,854.2524" style="stroke:#181818;stroke-width:1;"/><line style="stroke:#181818;stroke-width:1;" x1="2033.1321" x2="2033.1321" y1="908.1899" y2="913.1899"/><line style="stroke:#181818;stroke-width:1;" x1="2033.1321" x2="1779.7183" y1="913.1899" y2="913.1899"/><line style="stroke:#181818;stroke-width:1;" x1="1779.7183" x2="1779.7183" y1="913.1899" y2="928.1899"/><polygon fill="#181818" points="1775.7183,918.1899,1779.7183,928.1899,1783.7183,918.1899,1779.7183,922.1899" style="stroke:#181818;stroke-width:1;"/><line style="stroke:#181818;stroke-width:1;" x1="538.1465" x2="538.1465" y1="611.8154" y2="664.5142"/><line style="stroke:#181818;stroke-width:1;" x1="538.1465" x2="1779.7183" y1="664.5142" y2="664.5142"/><line style="stroke:#181818;stroke-width:1;" x1="1779.7183" x2="1779.7183" y1="664.5142" y2="719.9048"/><polygon fill="#181818" points="1775.7183,709.9048,1779.7183,719.9048,1783.7183,709.9048,1779.7183,713.9048" style="stroke:#181818;stroke-width:1;"/><line style="stroke:#181818;stroke-width:1;" x1="1191.7729" x2="1191.7729" y1="556.5186" y2="572.8154"/><line style="stroke:#181818;stroke-width:1;" x1="1191.7729" x2="538.1465" y1="572.8154" y2="572.8154"/><line style="stroke:#181818;stroke-width:1;" x1="538.1465" x2="538.1465" y1="572.8154" y2="587.8154"/><polygon fill="#181818" points="534.1465,577.8154,538.1465,587.8154,542.1465,577.8154,538.1465,581.8154" style="stroke:#181818;stroke-width:1;"/><line style="stroke:#181818;stroke-width:1;" x1="1779.7183" x2="1779.7183" y1="1138.0723" y2="1143.0723"/><line style="stroke:#181818;stroke-width:1;" x1="1779.7183" x2="2033.1321" y1="1143.0723" y2="1143.0723"/><line style="stroke:#181818;stroke-width:1;" x1="2033.1321" x2="2033.1321" y1="1143.0723" y2="1158.0723"/><polygon fill="#181818" points="2029.1321,1148.0723,2033.1321,1158.0723,2037.1321,1148.0723,2033.1321,1152.0723" style="stroke:#181818;stroke-width:1;"/><line style="stroke:#181818;stroke-width:1;" x1="2033.1321" x2="2033.1321" y1="1206.0098" y2="1211.0098"/><line style="stroke:#181818;stroke-width:1;" x1="2033.1321" x2="1779.7183" y1="1211.0098" y2="1211.0098"/><line style="stroke:#181818;stroke-width:1;" x1="1779.7183" x2="1779.7183" y1="1211.0098" y2="1226.0098"/><polygon fill="#181818" points="1775.7183,1216.0098,1779.7183,1226.0098,1783.7183,1216.0098,1779.7183,1220.0098" style="stroke:#181818;stroke-width:1;"/><line style="stroke:#181818;stroke-width:1;" x1="2033.1321" x2="2033.1321" y1="1363.8848" y2="1368.8848"/><line style="stroke:#181818;stroke-width:1;" x1="2033.1321" x2="1779.7183" y1="1368.8848" y2="1368.8848"/><line style="stroke:#181818;stroke-width:1;" x1="1779.7183" x2="1779.7183" y1="1368.8848" y2="1383.8848"/><polygon fill="#181818" points="1775.7183,1373.8848,1779.7183,1383.8848,1783.7183,1373.8848,1779.7183,1377.8848" style="stroke:#181818;stroke-width:1;"/><text fill="#000000" font-family="sans-serif" font-size="18" lengthAdjust="spacing" textLength="166.3066" x="271.4272" y="83.0469">Participating Party</text><text fill="#000000" font-family="sans-serif" font-size="18" lengthAdjust="spacing" textLength="99.4482" x="971.4138" y="83.0469">Secretariat</text><text fill="#000000" font-family="sans-serif" font-size="18" lengthAdjust="spacing" textLength="181.8018" x="1541.2679" y="83.0469">Interoperating Party</text><text fill="#000000" font-family="sans-serif" font-size="18" lengthAdjust="spacing" textLength="195.416" x="1928.9241" y="83.0469">International Registry</text><!--SRC=[tLPDSzCm4BtxL-mnwRJ901U679XCIcSoqz9EAPouAFOw4JYIaUIsWVI_i_gm8pjE0_H63XbRbfxsxRwtak6cG9ZVNLt39SyntQJq-bKasnkc34zvoGmNIx1lcssIQ4CFILBQZuPBuLPgo2G8QM231l2HQmESlWY3IZ0xYnLmYqiQLnlubG3ztD-xcPGbAffoZp0jIoLPke9fPLPIyP-OJTmiiD081UOcl0Dac79jjtyDiwlfwCqfC27myHGeC0QltWwMmsRk2PJxL83LksZeYoAiHf6vtPCwOhzOEJAej1liPL7ZE_vksWCtA_Y4gKBA8MVctzb5r7mykbgikT6KTIeA9LjXAPK18vj8U-Bn0DS2GIfOIuMGolM2-uffa7bxZHrfrWNQ-xnFMrEyE1GMFlCKZrbXRxuinQorzeEm2gFo3FRBHyFlX_ib0jX6-TtwYaKZCE1QLnOaC3CRZyAqvajYE8q9m_nyvBx624tb3wk6f3-RtjvOGZHflIQaZtAD8gKiL0hruRgVx0K0wuhCjC0G8RPJjA3AHx5HUb5esW8gmNzKA53h23kcyS2B0bYX8u6qa1jtP20Ntp1rsZhWwDuwz7QFFWVvVQrG1dhu8jTOZlFSzI5MA6JPRXUYuN2w-ZrYs_Py3wPY0pMS_qHyEyhU5ljSO-Nqv_f_ryuHyV0S1bu_iYJOd1gNmtM5NF326jgs60633UfXtRK9SZUjYzb8qlO63CMPD8pwClrP8up7f9XIQfocbjDu3DERULmDDqoWC2TS9bACFjwjk8xqO9kYrmGnQkMITzWv6RTRRFyfs-scalPGKF3lUBRc8gFQ13bJAuq2QzOxxH33UvwHWD9KLi9OJRcKUxDsZLVFoYHbqRhGtGHq-qJWGJyaIr8KCv4gJq8EEjyf1n62IzLpKh8uNi8EZaAkyKZ0bI8Rx8x5Q95TLW_EpyyqajIB2wwq2S-NJEyaqEfrjRhs8chqzOKLF2CkNIbOdzSvTZUm-Vaa-IF5Nj0nNP35-X0Lfb9bEq0NS46I7GXP5-smnG2qaMLzHoEYF4-UakH0EDrxuF7B7u4-h3ZTCGSttZ_EJQIgcQL1ZSNvPcYD4-8DnqQOxOJi3-qqN4j4sxDTnz8Tnuc_dgyhs-TtggUMBdHEFZo5ghHbeeVHQDHxh3rNw5sPRHLobbh7ih1InY5CaYCL3lKzIfU22yaCxUub8VRLuIyYzSlzXJY626oTgfwItm00]--></g></svg>