<svg xmlns="http://www.w3.org/2000/svg" xmlns:xlink="http://www.w3.org/1999/xlink" contentStyleType="text/css" data-diagram-type="SEQUENCE" height="2178px" preserveAspectRatio="none" style="width:1202px;height:2178px;background:#FFFFFF;" version="1.1" viewBox="0 0 1202 2178" width="1202px" zoomAndPan="magnify"><title>ITMO Update Notification</title><defs/><g><text fill="#000000" font-family="sans-serif" font-size="14" font-weight="bold" lengthAdjust="spacing" textLength="199.9238" x="510.9919" y="27.9951">ITMO Update Notification</text><g><title>First transferring</title><rect fill="#FFFFFF" height="96.2656" style="stroke:#181818;stroke-width:1;" width="10" x="80.813" y="116.1875"/></g><g><title>First transferring</title><rect fill="#FFFFFF" height="293.9297" style="stroke:#181818;stroke-width:1;" width="10" x="80.813" y="796.7109"/></g><g><title>First transferring</title><rect fill="#FFFFFF" height="193.5313" style="stroke:#181818;stroke-width:1;" width="10" x="85.813" y="897.1094"/></g><g><title>First transferring</title><rect fill="#FFFFFF" height="293.9297" style="stroke:#181818;stroke-width:1;" width="10" x="80.813" y="1559.2344"/></g><g><title>First transferring</title><rect fill="#FFFFFF" height="193.5313" style="stroke:#181818;stroke-width:1;" width="10" x="85.813" y="1659.6328"/></g><g><title>Interoperability</title><rect fill="#FFFFFF" height="30" style="stroke:#181818;stroke-width:1;" width="10" x="394.2456" y="182.4531"/></g><g><title>Interoperability</title><rect fill="#FFFFFF" height="143.5977" style="stroke:#181818;stroke-width:1;" width="10" x="394.2456" y="252.5859"/></g><g><title>Interoperability</title><rect fill="#FFFFFF" height="39.6992" style="stroke:#181818;stroke-width:1;" width="10" x="394.2456" y="462.082"/></g><g><title>Interoperability</title><rect fill="#FFFFFF" height="110.2656" style="stroke:#181818;stroke-width:1;" width="10" x="394.2456" y="684.4453"/></g><g><title>Interoperability</title><rect fill="#FFFFFF" height="29.1328" style="stroke:#181818;stroke-width:1;" width="10" x="394.2456" y="830.8438"/></g><g><title>Interoperability</title><rect fill="#FFFFFF" height="152.3984" style="stroke:#181818;stroke-width:1;" width="10" x="394.2456" y="1060.6406"/></g><g><title>Interoperability</title><rect fill="#FFFFFF" height="39.6992" style="stroke:#181818;stroke-width:1;" width="10" x="394.2456" y="1259.7383"/></g><g><title>Interoperability</title><rect fill="#FFFFFF" height="110.2656" style="stroke:#181818;stroke-width:1;" width="10" x="394.2456" y="1446.9688"/></g><g><title>Interoperability</title><rect fill="#FFFFFF" height="29.1328" style="stroke:#181818;stroke-width:1;" width="10" x="394.2456" y="1593.3672"/></g><g><title>Interoperability</title><rect fill="#FFFFFF" height="152.3984" style="stroke:#181818;stroke-width:1;" width="10" x="394.2456" y="1823.1641"/></g><g><title>Interoperability</title><rect fill="#FFFFFF" height="39.6992" style="stroke:#181818;stroke-width:1;" width="10" x="394.2456" y="2022.2617"/></g><g><title>Receiver</title><rect fill="#FFFFFF" height="316.2617" style="stroke:#181818;stroke-width:1;" width="10" x="904.4751" y="398.1836"/></g><g><title>Receiver</title><rect fill="#FFFFFF" height="175.5313" style="stroke:#181818;stroke-width:1;" width="10" x="909.4751" y="538.9141"/></g><g><title>Receiver</title><rect fill="#FFFFFF" height="161.6641" style="stroke:#181818;stroke-width:1;" width="10" x="904.4751" y="1215.0391"/></g><g><title>Receiver</title><rect fill="#FFFFFF" height="40.1328" style="stroke:#181818;stroke-width:1;" width="10" x="909.4751" y="1336.5703"/></g><g><title>Receiver</title><rect fill="#FFFFFF" height="161.6641" style="stroke:#181818;stroke-width:1;" width="10" x="904.4751" y="1977.5625"/></g><g><title>Receiver</title><rect fill="#FFFFFF" height="40.1328" style="stroke:#181818;stroke-width:1;" width="10" x="909.4751" y="2099.0938"/></g><rect fill="transparent" height="748.5234" style="stroke:#000000;stroke-width:1.5;" width="1161.1001" x="10" y="643.1797"/><rect fill="transparent" height="748.5234" style="stroke:#000000;stroke-width:1.5;" width="1161.1001" x="10" y="1405.7031"/><g><title>First transferring</title><rect fill="transparent" height="2065.0391" width="8" x="81.813" y="106.1875"/><line style="stroke:#181818;stroke-width:0.5;stroke-dasharray:5.0,5.0;" x1="85" x2="85" y1="106.1875" y2="2171.2266"/></g><g><title>Interoperability</title><rect fill="transparent" height="2065.0391" width="8" x="395.2456" y="106.1875"/><line style="stroke:#181818;stroke-width:0.5;stroke-dasharray:5.0,5.0;" x1="398.4502" x2="398.4502" y1="106.1875" y2="2171.2266"/></g><g><title>Receiving</title><rect fill="transparent" height="2065.0391" width="8" x="724.1641" y="106.1875"/><line style="stroke:#181818;stroke-width:0.5;stroke-dasharray:5.0,5.0;" x1="727.9263" x2="727.9263" y1="106.1875" y2="2171.2266"/></g><g><title>Receiving</title><rect fill="transparent" height="2065.0391" width="8" x="816.6396" y="106.1875"/><line style="stroke:#181818;stroke-width:0.5;stroke-dasharray:5.0,5.0;" x1="820.4019" x2="820.4019" y1="106.1875" y2="2171.2266"/></g><g><title>Receiver</title><rect fill="transparent" height="2065.0391" width="8" x="905.4751" y="106.1875"/><line style="stroke:#181818;stroke-width:0.5;stroke-dasharray:5.0,5.0;" x1="908.8774" x2="908.8774" y1="106.1875" y2="2171.2266"/></g><rect fill="#E2E2F0" height="62.8906" rx="2.5" ry="2.5" style="stroke:#181818;stroke-width:0.5;" width="131.626" x="20" y="42.2969"/><text fill="#000000" font-family="sans-serif" font-size="14" lengthAdjust="spacing" textLength="117.626" x="27" y="62.292">First transferring</text><text fill="#000000" font-family="sans-serif" font-size="14" lengthAdjust="spacing" textLength="88.792" x="41.417" y="78.5889">participating</text><text fill="#000000" font-family="sans-serif" font-size="14" lengthAdjust="spacing" textLength="94.9717" x="38.3271" y="94.8857">Party registry</text><rect fill="#E2E2F0" height="46.5938" rx="2.5" ry="2.5" style="stroke:#181818;stroke-width:0.5;" width="121.5908" x="338.4502" y="58.5938"/><text fill="#000000" font-family="sans-serif" font-size="14" lengthAdjust="spacing" textLength="107.5908" x="345.4502" y="78.5889">Interoperability</text><text fill="#000000" font-family="sans-serif" font-size="14" lengthAdjust="spacing" textLength="28.2871" x="385.1021" y="94.8857">Hub</text><rect fill="#E2E2F0" height="46.5938" rx="2.5" ry="2.5" style="stroke:#181818;stroke-width:0.5;" width="82.4756" x="686.9263" y="58.5938"/><text fill="#000000" font-family="sans-serif" font-size="14" lengthAdjust="spacing" textLength="68.4756" x="693.9263" y="78.5889">Receiving</text><text fill="#000000" font-family="sans-serif" font-size="14" lengthAdjust="spacing" textLength="67.3271" x="694.5005" y="94.8857">registry 1</text><rect fill="#E2E2F0" height="46.5938" rx="2.5" ry="2.5" style="stroke:#181818;stroke-width:0.5;" width="82.4756" x="779.4019" y="58.5938"/><text fill="#000000" font-family="sans-serif" font-size="14" lengthAdjust="spacing" textLength="68.4756" x="786.4019" y="78.5889">Receiving</text><text fill="#000000" font-family="sans-serif" font-size="14" lengthAdjust="spacing" textLength="67.3271" x="786.9761" y="94.8857">registry 2</text><rect fill="#E2E2F0" height="30.2969" rx="2.5" ry="2.5" style="stroke:#181818;stroke-width:0.5;" width="75.1953" x="871.8774" y="74.8906"/><text fill="#000000" font-family="sans-serif" font-size="14" lengthAdjust="spacing" textLength="61.1953" x="878.8774" y="94.8857">Receiver</text><g><title>First transferring</title><rect fill="#FFFFFF" height="96.2656" style="stroke:#181818;stroke-width:1;" width="10" x="80.813" y="116.1875"/></g><g><title>First transferring</title><rect fill="#FFFFFF" height="293.9297" style="stroke:#181818;stroke-width:1;" width="10" x="80.813" y="796.7109"/></g><g><title>First transferring</title><rect fill="#FFFFFF" height="193.5313" style="stroke:#181818;stroke-width:1;" width="10" x="85.813" y="897.1094"/></g><g><title>First transferring</title><rect fill="#FFFFFF" height="293.9297" style="stroke:#181818;stroke-width:1;" width="10" x="80.813" y="1559.2344"/></g><g><title>First transferring</title><rect fill="#FFFFFF" height="193.5313" style="stroke:#181818;stroke-width:1;" width="10" x="85.813" y="1659.6328"/></g><g><title>Interoperability</title><rect fill="#FFFFFF" height="30" style="stroke:#181818;stroke-width:1;" width="10" x="394.2456" y="182.4531"/></g><g><title>Interoperability</title><rect fill="#FFFFFF" height="143.5977" style="stroke:#181818;stroke-width:1;" width="10" x="394.2456" y="252.5859"/></g><g><title>Interoperability</title><rect fill="#FFFFFF" height="39.6992" style="stroke:#181818;stroke-width:1;" width="10" x="394.2456" y="462.082"/></g><g><title>Interoperability</title><rect fill="#FFFFFF" height="110.2656" style="stroke:#181818;stroke-width:1;" width="10" x="394.2456" y="684.4453"/></g><g><title>Interoperability</title><rect fill="#FFFFFF" height="29.1328" style="stroke:#181818;stroke-width:1;" width="10" x="394.2456" y="830.8438"/></g><g><title>Interoperability</title><rect fill="#FFFFFF" height="152.3984" style="stroke:#181818;stroke-width:1;" width="10" x="394.2456" y="1060.6406"/></g><g><title>Interoperability</title><rect fill="#FFFFFF" height="39.6992" style="stroke:#181818;stroke-width:1;" width="10" x="394.2456" y="1259.7383"/></g><g><title>Interoperability</title><rect fill="#FFFFFF" height="110.2656" style="stroke:#181818;stroke-width:1;" width="10" x="394.2456" y="1446.9688"/></g><g><title>Interoperability</title><rect fill="#FFFFFF" height="29.1328" style="stroke:#181818;stroke-width:1;" width="10" x="394.2456" y="1593.3672"/></g><g><title>Interoperability</title><rect fill="#FFFFFF" height="152.3984" style="stroke:#181818;stroke-width:1;" width="10" x="394.2456" y="1823.1641"/></g><g><title>Interoperability</title><rect fill="#FFFFFF" height="39.6992" style="stroke:#181818;stroke-width:1;" width="10" x="394.2456" y="2022.2617"/></g><g><title>Receiver</title><rect fill="#FFFFFF" height="316.2617" style="stroke:#181818;stroke-width:1;" width="10" x="904.4751" y="398.1836"/></g><g><title>Receiver</title><rect fill="#FFFFFF" height="175.5313" style="stroke:#181818;stroke-width:1;" width="10" x="909.4751" y="538.9141"/></g><g><title>Receiver</title><rect fill="#FFFFFF" height="161.6641" style="stroke:#181818;stroke-width:1;" width="10" x="904.4751" y="1215.0391"/></g><g><title>Receiver</title><rect fill="#FFFFFF" height="40.1328" style="stroke:#181818;stroke-width:1;" width="10" x="909.4751" y="1336.5703"/></g><g><title>Receiver</title><rect fill="#FFFFFF" height="161.6641" style="stroke:#181818;stroke-width:1;" width="10" x="904.4751" y="1977.5625"/></g><g><title>Receiver</title><rect fill="#FFFFFF" height="40.1328" style="stroke:#181818;stroke-width:1;" width="10" x="909.4751" y="2099.0938"/></g><line style="stroke:#181818;stroke-width:1;" x1="90.813" x2="132.813" y1="137.3203" y2="137.3203"/><line style="stroke:#181818;stroke-width:1;" x1="132.813" x2="132.813" y1="137.3203" y2="150.3203"/><line style="stroke:#181818;stroke-width:1;" x1="91.813" x2="132.813" y1="150.3203" y2="150.3203"/><polygon fill="#181818" points="101.813,146.3203,91.813,150.3203,101.813,154.3203" style="stroke:#181818;stroke-width:1;"/><text fill="#000000" font-family="sans-serif" font-size="13" lengthAdjust="spacing" textLength="118.498" x="97.813" y="132.2544">updateITMO(itmo)</text><polygon fill="#181818" points="382.2456,178.4531,392.2456,182.4531,382.2456,186.4531" style="stroke:#181818;stroke-width:1;"/><line style="stroke:#181818;stroke-width:1;" x1="90.813" x2="388.2456" y1="182.4531" y2="182.4531"/><text fill="#000000" font-family="sans-serif" font-size="13" lengthAdjust="spacing" textLength="199.3228" x="97.813" y="177.3872">proposeAction(actionProposal)</text><path d="M409,163.3203 L409,188.3203 L601,188.3203 L601,173.3203 L591,163.3203 L409,163.3203 " fill="#FEFFDD" style="stroke:#181818;stroke-width:0.5;"/><path d="M591,163.3203 L591,173.3203 L601,173.3203 L591,163.3203 " fill="#FEFFDD" style="stroke:#181818;stroke-width:0.5;"/><text fill="#000000" font-family="sans-serif" font-size="13" lengthAdjust="spacing" textLength="171.8564" x="415" y="180.3872">actionStatus == Proposed</text><line style="stroke:#181818;stroke-width:1;" x1="399.2456" x2="446.2456" y1="239.5859" y2="239.5859"/><line style="stroke:#181818;stroke-width:1;" x1="446.2456" x2="446.2456" y1="239.5859" y2="252.5859"/><line style="stroke:#181818;stroke-width:1;" x1="405.2456" x2="446.2456" y1="252.5859" y2="252.5859"/><polygon fill="#181818" points="415.2456,248.5859,405.2456,252.5859,415.2456,256.5859" style="stroke:#181818;stroke-width:1;"/><text fill="#000000" font-family="sans-serif" font-size="13" lengthAdjust="spacing" textLength="173.1958" x="411.2456" y="234.52">splitITMOs(actionProposal)</text><path d="M596.1958,231.9531 L596.1958,256.9531 L873.1958,256.9531 L873.1958,241.9531 L863.1958,231.9531 L596.1958,231.9531 " fill="#FEFFDD" style="stroke:#181818;stroke-width:0.5;"/><path d="M863.1958,231.9531 L863.1958,241.9531 L873.1958,241.9531 L863.1958,231.9531 " fill="#FEFFDD" style="stroke:#181818;stroke-width:0.5;"/><text fill="#000000" font-family="sans-serif" font-size="13" lengthAdjust="spacing" textLength="156.7046" x="602.1958" y="249.02">split ITMOs according to</text><text fill="#000000" font-family="sans-serif" font-size="13" font-style="italic" lengthAdjust="spacing" textLength="95.71" x="763.0327" y="249.02">actionProposal</text><line style="stroke:#181818;stroke-width:1;" x1="404.2456" x2="446.2456" y1="286.7188" y2="286.7188"/><line style="stroke:#181818;stroke-width:1;" x1="446.2456" x2="446.2456" y1="286.7188" y2="299.7188"/><line style="stroke:#181818;stroke-width:1;" x1="405.2456" x2="446.2456" y1="299.7188" y2="299.7188"/><polygon fill="#181818" points="415.2456,295.7188,405.2456,299.7188,415.2456,303.7188" style="stroke:#181818;stroke-width:1;"/><text fill="#000000" font-family="sans-serif" font-size="13" lengthAdjust="spacing" textLength="140.1436" x="411.2456" y="281.6528">lockITMOs(iTMOIDs[])</text><line style="stroke:#181818;stroke-width:1;" x1="404.2456" x2="446.2456" y1="328.8516" y2="328.8516"/><line style="stroke:#181818;stroke-width:1;" x1="446.2456" x2="446.2456" y1="328.8516" y2="341.8516"/><line style="stroke:#181818;stroke-width:1;" x1="405.2456" x2="446.2456" y1="341.8516" y2="341.8516"/><polygon fill="#181818" points="415.2456,337.8516,405.2456,341.8516,415.2456,345.8516" style="stroke:#181818;stroke-width:1;"/><text fill="#000000" font-family="sans-serif" font-size="13" lengthAdjust="spacing" textLength="213.7446" x="411.2456" y="323.7856">validateProposal(actionProposal)</text><line style="stroke:#181818;stroke-width:1;" x1="404.2456" x2="446.2456" y1="395.1836" y2="395.1836"/><line style="stroke:#181818;stroke-width:1;" x1="446.2456" x2="446.2456" y1="395.1836" y2="408.1836"/><line style="stroke:#181818;stroke-width:1;" x1="399.2456" x2="446.2456" y1="408.1836" y2="408.1836"/><polygon fill="#181818" points="409.2456,404.1836,399.2456,408.1836,409.2456,412.1836" style="stroke:#181818;stroke-width:1;"/><text fill="#000000" font-family="sans-serif" font-size="13" lengthAdjust="spacing" textLength="218.8608" x="411.2456" y="390.1177">createNextAction(actionProposal)</text><path d="M195,354.8516 L195,424.8516 L389,424.8516 L389,364.8516 L379,354.8516 L195,354.8516 " fill="#FEFFDD" style="stroke:#181818;stroke-width:0.5;"/><path d="M379,354.8516 L379,364.8516 L389,364.8516 L379,354.8516 " fill="#FEFFDD" style="stroke:#181818;stroke-width:0.5;"/><text fill="#000000" font-family="sans-serif" font-size="13" lengthAdjust="spacing" textLength="173.1387" x="201" y="371.9185">actionStatus == Validated</text><text fill="#000000" font-family="sans-serif" font-size="13" lengthAdjust="spacing" textLength="4.1323" x="201" y="387.0513">&#160;</text><text fill="#000000" font-family="sans-serif" font-size="13" lengthAdjust="spacing" textLength="147.8179" x="201" y="402.1841">(may include warnings</text><text fill="#000000" font-family="sans-serif" font-size="13" lengthAdjust="spacing" textLength="110.4492" x="201" y="417.3169">logged in Action)</text><polygon fill="#181818" points="415.2456,458.082,405.2456,462.082,415.2456,466.082" style="stroke:#181818;stroke-width:1;"/><line style="stroke:#181818;stroke-width:1;" x1="409.2456" x2="903.4751" y1="462.082" y2="462.082"/><text fill="#000000" font-family="sans-serif" font-size="13" lengthAdjust="spacing" textLength="131.6377" x="421.2456" y="457.0161">getPendingActions()</text><path d="M919,435.3828 L919,475.3828 L1084,475.3828 L1084,445.3828 L1074,435.3828 L919,435.3828 " fill="#FEFFDD" style="stroke:#181818;stroke-width:0.5;"/><path d="M1074,435.3828 L1074,445.3828 L1084,445.3828 L1074,435.3828 " fill="#FEFFDD" style="stroke:#181818;stroke-width:0.5;"/><text fill="#000000" font-family="sans-serif" font-size="13" lengthAdjust="spacing" textLength="144.0029" x="925" y="452.4497">Registry polls the Hub</text><text fill="#000000" font-family="sans-serif" font-size="13" lengthAdjust="spacing" textLength="126.6992" x="925" y="467.5825">for pending Actions</text><polygon fill="#181818" points="892.4751,497.7813,902.4751,501.7813,892.4751,505.7813" style="stroke:#181818;stroke-width:1;"/><line style="stroke:#181818;stroke-width:1;stroke-dasharray:2.0,2.0;" x1="399.2456" x2="898.4751" y1="501.7813" y2="501.7813"/><text fill="#000000" font-family="sans-serif" font-size="13" font-style="italic" lengthAdjust="spacing" textLength="56.9321" x="406.2456" y="496.7153">actions[]</text><line style="stroke:#181818;stroke-width:1;" x1="914.4751" x2="961.4751" y1="525.9141" y2="525.9141"/><line style="stroke:#181818;stroke-width:1;" x1="961.4751" x2="961.4751" y1="525.9141" y2="538.9141"/><line style="stroke:#181818;stroke-width:1;" x1="920.4751" x2="961.4751" y1="538.9141" y2="538.9141"/><polygon fill="#181818" points="930.4751,534.9141,920.4751,538.9141,930.4751,542.9141" style="stroke:#181818;stroke-width:1;"/><text fill="#000000" font-family="sans-serif" font-size="13" lengthAdjust="spacing" textLength="217.4644" x="926.4751" y="520.8481">processPendingActions(actions[])</text><line style="stroke:#181818;stroke-width:1;" x1="919.4751" x2="961.4751" y1="573.0469" y2="573.0469"/><line style="stroke:#181818;stroke-width:1;" x1="961.4751" x2="961.4751" y1="573.0469" y2="586.0469"/><line style="stroke:#181818;stroke-width:1;" x1="920.4751" x2="961.4751" y1="586.0469" y2="586.0469"/><polygon fill="#181818" points="930.4751,582.0469,920.4751,586.0469,930.4751,590.0469" style="stroke:#181818;stroke-width:1;"/><text fill="#000000" font-family="sans-serif" font-size="13" lengthAdjust="spacing" textLength="269.4326" x="926.4751" y="567.981">processActionStatusAndWarnings(action)</text><path d="M705,560.4141 L705,585.4141 L899,585.4141 L899,570.4141 L889,560.4141 L705,560.4141 " fill="#FEFFDD" style="stroke:#181818;stroke-width:0.5;"/><path d="M889,560.4141 L889,570.4141 L899,570.4141 L889,560.4141 " fill="#FEFFDD" style="stroke:#181818;stroke-width:0.5;"/><text fill="#000000" font-family="sans-serif" font-size="13" lengthAdjust="spacing" textLength="173.1387" x="711" y="577.481">actionStatus == Validated</text><line style="stroke:#181818;stroke-width:1;" x1="919.4751" x2="961.4751" y1="615.1797" y2="615.1797"/><line style="stroke:#181818;stroke-width:1;" x1="961.4751" x2="961.4751" y1="615.1797" y2="628.1797"/><line style="stroke:#181818;stroke-width:1;" x1="920.4751" x2="961.4751" y1="628.1797" y2="628.1797"/><polygon fill="#181818" points="930.4751,624.1797,920.4751,628.1797,930.4751,632.1797" style="stroke:#181818;stroke-width:1;"/><text fill="#000000" font-family="sans-serif" font-size="13" lengthAdjust="spacing" textLength="141.3433" x="926.4751" y="610.1138">processAction(action)</text><path d="M10,643.1797 L74.4429,643.1797 L74.4429,650.3125 L64.4429,660.3125 L10,660.3125 L10,643.1797 " fill="#EEEEEE" style="stroke:#000000;stroke-width:1.5;"/><rect fill="transparent" height="748.5234" style="stroke:#000000;stroke-width:1.5;" width="1161.1001" x="10" y="643.1797"/><text fill="#000000" font-family="sans-serif" font-size="13" font-weight="bold" lengthAdjust="spacing" textLength="19.4429" x="25" y="656.2466">alt</text><text fill="#000000" font-family="sans-serif" font-size="11" font-weight="bold" lengthAdjust="spacing" textLength="395.6025" x="89.4429" y="655.3901">[No warnings or Receiving Registry proceeds despite warnings]</text><polygon fill="#181818" points="415.2456,680.4453,405.2456,684.4453,415.2456,688.4453" style="stroke:#181818;stroke-width:1;"/><line style="stroke:#181818;stroke-width:1;" x1="409.2456" x2="908.4751" y1="684.4453" y2="684.4453"/><text fill="#000000" font-family="sans-serif" font-size="13" lengthAdjust="spacing" textLength="243.1343" x="421.2456" y="679.3794">processAction(actionId, actionStatus)</text><path d="M924,665.3125 L924,690.3125 L1117,690.3125 L1117,675.3125 L1107,665.3125 L924,665.3125 " fill="#FEFFDD" style="stroke:#181818;stroke-width:0.5;"/><path d="M1107,665.3125 L1107,675.3125 L1117,675.3125 L1107,665.3125 " fill="#FEFFDD" style="stroke:#181818;stroke-width:0.5;"/><text fill="#000000" font-family="sans-serif" font-size="13" lengthAdjust="spacing" textLength="172.2754" x="930" y="682.3794">actionStatus == Accepted</text><line style="stroke:#181818;stroke-width:1;" x1="404.2456" x2="446.2456" y1="746.5781" y2="746.5781"/><line style="stroke:#181818;stroke-width:1;" x1="446.2456" x2="446.2456" y1="746.5781" y2="759.5781"/><line style="stroke:#181818;stroke-width:1;" x1="405.2456" x2="446.2456" y1="759.5781" y2="759.5781"/><polygon fill="#181818" points="415.2456,755.5781,405.2456,759.5781,415.2456,763.5781" style="stroke:#181818;stroke-width:1;"/><text fill="#000000" font-family="sans-serif" font-size="13" lengthAdjust="spacing" textLength="294.9185" x="411.2456" y="741.5122">validateProcessAction(actionId, actionStatus)</text><line style="stroke:#181818;stroke-width:1;" x1="404.2456" x2="446.2456" y1="793.7109" y2="793.7109"/><line style="stroke:#181818;stroke-width:1;" x1="446.2456" x2="446.2456" y1="793.7109" y2="806.7109"/><line style="stroke:#181818;stroke-width:1;" x1="399.2456" x2="446.2456" y1="806.7109" y2="806.7109"/><polygon fill="#181818" points="409.2456,802.7109,399.2456,806.7109,409.2456,810.7109" style="stroke:#181818;stroke-width:1;"/><text fill="#000000" font-family="sans-serif" font-size="13" lengthAdjust="spacing" textLength="243.1343" x="411.2456" y="788.645">processAction(actionId, actionStatus)</text><path d="M195,776.0781 L195,801.0781 L388,801.0781 L388,786.0781 L378,776.0781 L195,776.0781 " fill="#FEFFDD" style="stroke:#181818;stroke-width:0.5;"/><path d="M378,776.0781 L378,786.0781 L388,786.0781 L378,776.0781 " fill="#FEFFDD" style="stroke:#181818;stroke-width:0.5;"/><text fill="#000000" font-family="sans-serif" font-size="13" lengthAdjust="spacing" textLength="172.2754" x="201" y="793.145">actionStatus == Accepted</text><polygon fill="#181818" points="382.2456,826.8438,392.2456,830.8438,382.2456,834.8438" style="stroke:#181818;stroke-width:1;"/><line style="stroke:#181818;stroke-width:1;" x1="90.813" x2="388.2456" y1="830.8438" y2="830.8438"/><text fill="#000000" font-family="sans-serif" font-size="13" lengthAdjust="spacing" textLength="131.6377" x="97.813" y="825.7778">getPendingActions()</text><polygon fill="#181818" points="101.813,855.9766,91.813,859.9766,101.813,863.9766" style="stroke:#181818;stroke-width:1;"/><line style="stroke:#181818;stroke-width:1;stroke-dasharray:2.0,2.0;" x1="95.813" x2="398.2456" y1="859.9766" y2="859.9766"/><text fill="#000000" font-family="sans-serif" font-size="13" font-style="italic" lengthAdjust="spacing" textLength="56.9321" x="107.813" y="854.9106">actions[]</text><line style="stroke:#181818;stroke-width:1;" x1="90.813" x2="137.813" y1="884.1094" y2="884.1094"/><line style="stroke:#181818;stroke-width:1;" x1="137.813" x2="137.813" y1="884.1094" y2="897.1094"/><line style="stroke:#181818;stroke-width:1;" x1="96.813" x2="137.813" y1="897.1094" y2="897.1094"/><polygon fill="#181818" points="106.813,893.1094,96.813,897.1094,106.813,901.1094" style="stroke:#181818;stroke-width:1;"/><text fill="#000000" font-family="sans-serif" font-size="13" lengthAdjust="spacing" textLength="217.4644" x="102.813" y="879.0435">processPendingActions(actions[])</text><line style="stroke:#181818;stroke-width:1;" x1="95.813" x2="137.813" y1="931.2422" y2="931.2422"/><line style="stroke:#181818;stroke-width:1;" x1="137.813" x2="137.813" y1="931.2422" y2="944.2422"/><line style="stroke:#181818;stroke-width:1;" x1="96.813" x2="137.813" y1="944.2422" y2="944.2422"/><polygon fill="#181818" points="106.813,940.2422,96.813,944.2422,106.813,948.2422" style="stroke:#181818;stroke-width:1;"/><text fill="#000000" font-family="sans-serif" font-size="13" lengthAdjust="spacing" textLength="269.4326" x="102.813" y="926.1763">processActionStatusAndWarnings(action)</text><path d="M398.4326,918.6094 L398.4326,943.6094 L591.4326,943.6094 L591.4326,928.6094 L581.4326,918.6094 L398.4326,918.6094 " fill="#FEFFDD" style="stroke:#181818;stroke-width:0.5;"/><path d="M581.4326,918.6094 L581.4326,928.6094 L591.4326,928.6094 L581.4326,918.6094 " fill="#FEFFDD" style="stroke:#181818;stroke-width:0.5;"/><text fill="#000000" font-family="sans-serif" font-size="13" lengthAdjust="spacing" textLength="172.2754" x="404.4326" y="935.6763">actionStatus == Accepted</text><line style="stroke:#181818;stroke-width:1;" x1="95.813" x2="137.813" y1="973.375" y2="973.375"/><line style="stroke:#181818;stroke-width:1;" x1="137.813" x2="137.813" y1="973.375" y2="986.375"/><line style="stroke:#181818;stroke-width:1;" x1="96.813" x2="137.813" y1="986.375" y2="986.375"/><polygon fill="#181818" points="106.813,982.375,96.813,986.375,106.813,990.375" style="stroke:#181818;stroke-width:1;"/><text fill="#000000" font-family="sans-serif" font-size="13" lengthAdjust="spacing" textLength="141.3433" x="102.813" y="968.3091">processAction(action)</text><line style="stroke:#181818;stroke-width:1;" x1="95.813" x2="137.813" y1="1015.5078" y2="1015.5078"/><line style="stroke:#181818;stroke-width:1;" x1="137.813" x2="137.813" y1="1015.5078" y2="1028.5078"/><line style="stroke:#181818;stroke-width:1;" x1="96.813" x2="137.813" y1="1028.5078" y2="1028.5078"/><polygon fill="#181818" points="106.813,1024.5078,96.813,1028.5078,106.813,1032.5078" style="stroke:#181818;stroke-width:1;"/><text fill="#000000" font-family="sans-serif" font-size="13" lengthAdjust="spacing" textLength="156.6221" x="102.813" y="1010.4419">unlockITMOs(iTMOIDs[])</text><polygon fill="#181818" points="382.2456,1056.6406,392.2456,1060.6406,382.2456,1064.6406" style="stroke:#181818;stroke-width:1;"/><line style="stroke:#181818;stroke-width:1;" x1="95.813" x2="388.2456" y1="1060.6406" y2="1060.6406"/><text fill="#000000" font-family="sans-serif" font-size="13" lengthAdjust="spacing" textLength="243.1343" x="102.813" y="1055.5747">processAction(actionId, actionStatus)</text><path d="M409,1041.5078 L409,1066.5078 L612,1066.5078 L612,1051.5078 L602,1041.5078 L409,1041.5078 " fill="#FEFFDD" style="stroke:#181818;stroke-width:0.5;"/><path d="M602,1041.5078 L602,1051.5078 L612,1051.5078 L602,1041.5078 " fill="#FEFFDD" style="stroke:#181818;stroke-width:0.5;"/><text fill="#000000" font-family="sans-serif" font-size="13" lengthAdjust="spacing" textLength="182.3936" x="415" y="1058.5747">actionStatus == Completed</text><line style="stroke:#181818;stroke-width:1;" x1="404.2456" x2="446.2456" y1="1122.7734" y2="1122.7734"/><line style="stroke:#181818;stroke-width:1;" x1="446.2456" x2="446.2456" y1="1122.7734" y2="1135.7734"/><line style="stroke:#181818;stroke-width:1;" x1="405.2456" x2="446.2456" y1="1135.7734" y2="1135.7734"/><polygon fill="#181818" points="415.2456,1131.7734,405.2456,1135.7734,415.2456,1139.7734" style="stroke:#181818;stroke-width:1;"/><text fill="#000000" font-family="sans-serif" font-size="13" lengthAdjust="spacing" textLength="294.9185" x="411.2456" y="1117.7075">validateProcessAction(actionId, actionStatus)</text><line style="stroke:#181818;stroke-width:1;" x1="404.2456" x2="446.2456" y1="1164.9063" y2="1164.9063"/><line style="stroke:#181818;stroke-width:1;" x1="446.2456" x2="446.2456" y1="1164.9063" y2="1177.9063"/><line style="stroke:#181818;stroke-width:1;" x1="405.2456" x2="446.2456" y1="1177.9063" y2="1177.9063"/><polygon fill="#181818" points="415.2456,1173.9063,405.2456,1177.9063,415.2456,1181.9063" style="stroke:#181818;stroke-width:1;"/><text fill="#000000" font-family="sans-serif" font-size="13" lengthAdjust="spacing" textLength="243.1343" x="411.2456" y="1159.8403">processAction(actionId, actionStatus)</text><path d="M676.1343,1152.2734 L676.1343,1177.2734 L879.1343,1177.2734 L879.1343,1162.2734 L869.1343,1152.2734 L676.1343,1152.2734 " fill="#FEFFDD" style="stroke:#181818;stroke-width:0.5;"/><path d="M869.1343,1152.2734 L869.1343,1162.2734 L879.1343,1162.2734 L869.1343,1152.2734 " fill="#FEFFDD" style="stroke:#181818;stroke-width:0.5;"/><text fill="#000000" font-family="sans-serif" font-size="13" lengthAdjust="spacing" textLength="182.3936" x="682.1343" y="1169.3403">actionStatus == Completed</text><line style="stroke:#181818;stroke-width:1;" x1="404.2456" x2="446.2456" y1="1212.0391" y2="1212.0391"/><line style="stroke:#181818;stroke-width:1;" x1="446.2456" x2="446.2456" y1="1212.0391" y2="1225.0391"/><line style="stroke:#181818;stroke-width:1;" x1="399.2456" x2="446.2456" y1="1225.0391" y2="1225.0391"/><polygon fill="#181818" points="409.2456,1221.0391,399.2456,1225.0391,409.2456,1229.0391" style="stroke:#181818;stroke-width:1;"/><text fill="#000000" font-family="sans-serif" font-size="13" lengthAdjust="spacing" textLength="156.6221" x="411.2456" y="1206.9731">unlockITMOs(iTMOIDs[])</text><polygon fill="#181818" points="415.2456,1255.7383,405.2456,1259.7383,415.2456,1263.7383" style="stroke:#181818;stroke-width:1;"/><line style="stroke:#181818;stroke-width:1;" x1="409.2456" x2="903.4751" y1="1259.7383" y2="1259.7383"/><text fill="#000000" font-family="sans-serif" font-size="13" lengthAdjust="spacing" textLength="136.7983" x="421.2456" y="1254.6724">getFinalizedActions()</text><path d="M919,1233.0391 L919,1273.0391 L1084,1273.0391 L1084,1243.0391 L1074,1233.0391 L919,1233.0391 " fill="#FEFFDD" style="stroke:#181818;stroke-width:0.5;"/><path d="M1074,1233.0391 L1074,1243.0391 L1084,1243.0391 L1074,1233.0391 " fill="#FEFFDD" style="stroke:#181818;stroke-width:0.5;"/><text fill="#000000" font-family="sans-serif" font-size="13" lengthAdjust="spacing" textLength="144.0029" x="925" y="1250.106">Registry polls the Hub</text><text fill="#000000" font-family="sans-serif" font-size="13" lengthAdjust="spacing" textLength="128.5464" x="925" y="1265.2388">for finalized Actions</text><polygon fill="#181818" points="892.4751,1295.4375,902.4751,1299.4375,892.4751,1303.4375" style="stroke:#181818;stroke-width:1;"/><line style="stroke:#181818;stroke-width:1;stroke-dasharray:2.0,2.0;" x1="399.2456" x2="898.4751" y1="1299.4375" y2="1299.4375"/><text fill="#000000" font-family="sans-serif" font-size="13" font-style="italic" lengthAdjust="spacing" textLength="56.9321" x="406.2456" y="1294.3716">actions[]</text><line style="stroke:#181818;stroke-width:1;" x1="914.4751" x2="961.4751" y1="1323.5703" y2="1323.5703"/><line style="stroke:#181818;stroke-width:1;" x1="961.4751" x2="961.4751" y1="1323.5703" y2="1336.5703"/><line style="stroke:#181818;stroke-width:1;" x1="920.4751" x2="961.4751" y1="1336.5703" y2="1336.5703"/><polygon fill="#181818" points="930.4751,1332.5703,920.4751,1336.5703,930.4751,1340.5703" style="stroke:#181818;stroke-width:1;"/><text fill="#000000" font-family="sans-serif" font-size="13" lengthAdjust="spacing" textLength="222.625" x="926.4751" y="1318.5044">processFinalizedActions(actions[])</text><line style="stroke:#181818;stroke-width:1;" x1="919.4751" x2="961.4751" y1="1375.7031" y2="1375.7031"/><line style="stroke:#181818;stroke-width:1;" x1="961.4751" x2="961.4751" y1="1375.7031" y2="1388.7031"/><line style="stroke:#181818;stroke-width:1;" x1="914.4751" x2="961.4751" y1="1388.7031" y2="1388.7031"/><polygon fill="#181818" points="924.4751,1384.7031,914.4751,1388.7031,924.4751,1392.7031" style="stroke:#181818;stroke-width:1;"/><text fill="#000000" font-family="sans-serif" font-size="13" lengthAdjust="spacing" textLength="141.3433" x="926.4751" y="1370.6372">processAction(action)</text><path d="M696,1358.0703 L696,1383.0703 L899,1383.0703 L899,1368.0703 L889,1358.0703 L696,1358.0703 " fill="#FEFFDD" style="stroke:#181818;stroke-width:0.5;"/><path d="M889,1358.0703 L889,1368.0703 L899,1368.0703 L889,1358.0703 " fill="#FEFFDD" style="stroke:#181818;stroke-width:0.5;"/><text fill="#000000" font-family="sans-serif" font-size="13" lengthAdjust="spacing" textLength="182.3936" x="702" y="1375.1372">actionStatus == Completed</text><path d="M10,1405.7031 L74.4429,1405.7031 L74.4429,1412.8359 L64.4429,1422.8359 L10,1422.8359 L10,1405.7031 " fill="#EEEEEE" style="stroke:#000000;stroke-width:1.5;"/><rect fill="transparent" height="748.5234" style="stroke:#000000;stroke-width:1.5;" width="1161.1001" x="10" y="1405.7031"/><text fill="#000000" font-family="sans-serif" font-size="13" font-weight="bold" lengthAdjust="spacing" textLength="19.4429" x="25" y="1418.77">alt</text><text fill="#000000" font-family="sans-serif" font-size="11" font-weight="bold" lengthAdjust="spacing" textLength="237.9341" x="89.4429" y="1417.9136">[Receiving Registry does not proceed]</text><polygon fill="#181818" points="415.2456,1442.9688,405.2456,1446.9688,415.2456,1450.9688" style="stroke:#181818;stroke-width:1;"/><line style="stroke:#181818;stroke-width:1;" x1="409.2456" x2="908.4751" y1="1446.9688" y2="1446.9688"/><text fill="#000000" font-family="sans-serif" font-size="13" lengthAdjust="spacing" textLength="243.1343" x="421.2456" y="1441.9028">processAction(actionId, actionStatus)</text><path d="M914,1427.8359 L914,1452.8359 L1103,1452.8359 L1103,1437.8359 L1093,1427.8359 L914,1427.8359 " fill="#FEFFDD" style="stroke:#181818;stroke-width:0.5;"/><path d="M1093,1427.8359 L1093,1437.8359 L1103,1437.8359 L1093,1427.8359 " fill="#FEFFDD" style="stroke:#181818;stroke-width:0.5;"/><text fill="#000000" font-family="sans-serif" font-size="13" lengthAdjust="spacing" textLength="168.6255" x="920" y="1444.9028">actionStatus == Rejected</text><line style="stroke:#181818;stroke-width:1;" x1="404.2456" x2="446.2456" y1="1509.1016" y2="1509.1016"/><line style="stroke:#181818;stroke-width:1;" x1="446.2456" x2="446.2456" y1="1509.1016" y2="1522.1016"/><line style="stroke:#181818;stroke-width:1;" x1="405.2456" x2="446.2456" y1="1522.1016" y2="1522.1016"/><polygon fill="#181818" points="415.2456,1518.1016,405.2456,1522.1016,415.2456,1526.1016" style="stroke:#181818;stroke-width:1;"/><text fill="#000000" font-family="sans-serif" font-size="13" lengthAdjust="spacing" textLength="294.9185" x="411.2456" y="1504.0356">validateProcessAction(actionId, actionStatus)</text><line style="stroke:#181818;stroke-width:1;" x1="404.2456" x2="446.2456" y1="1556.2344" y2="1556.2344"/><line style="stroke:#181818;stroke-width:1;" x1="446.2456" x2="446.2456" y1="1556.2344" y2="1569.2344"/><line style="stroke:#181818;stroke-width:1;" x1="399.2456" x2="446.2456" y1="1569.2344" y2="1569.2344"/><polygon fill="#181818" points="409.2456,1565.2344,399.2456,1569.2344,409.2456,1573.2344" style="stroke:#181818;stroke-width:1;"/><text fill="#000000" font-family="sans-serif" font-size="13" lengthAdjust="spacing" textLength="243.1343" x="411.2456" y="1551.1685">processAction(actionId, actionStatus)</text><path d="M199,1538.6016 L199,1563.6016 L388,1563.6016 L388,1548.6016 L378,1538.6016 L199,1538.6016 " fill="#FEFFDD" style="stroke:#181818;stroke-width:0.5;"/><path d="M378,1538.6016 L378,1548.6016 L388,1548.6016 L378,1538.6016 " fill="#FEFFDD" style="stroke:#181818;stroke-width:0.5;"/><text fill="#000000" font-family="sans-serif" font-size="13" lengthAdjust="spacing" textLength="168.6255" x="205" y="1555.6685">actionStatus == Rejected</text><polygon fill="#181818" points="382.2456,1589.3672,392.2456,1593.3672,382.2456,1597.3672" style="stroke:#181818;stroke-width:1;"/><line style="stroke:#181818;stroke-width:1;" x1="90.813" x2="388.2456" y1="1593.3672" y2="1593.3672"/><text fill="#000000" font-family="sans-serif" font-size="13" lengthAdjust="spacing" textLength="131.6377" x="97.813" y="1588.3013">getPendingActions()</text><polygon fill="#181818" points="101.813,1618.5,91.813,1622.5,101.813,1626.5" style="stroke:#181818;stroke-width:1;"/><line style="stroke:#181818;stroke-width:1;stroke-dasharray:2.0,2.0;" x1="95.813" x2="398.2456" y1="1622.5" y2="1622.5"/><text fill="#000000" font-family="sans-serif" font-size="13" font-style="italic" lengthAdjust="spacing" textLength="56.9321" x="107.813" y="1617.4341">actions[]</text><line style="stroke:#181818;stroke-width:1;" x1="90.813" x2="137.813" y1="1646.6328" y2="1646.6328"/><line style="stroke:#181818;stroke-width:1;" x1="137.813" x2="137.813" y1="1646.6328" y2="1659.6328"/><line style="stroke:#181818;stroke-width:1;" x1="96.813" x2="137.813" y1="1659.6328" y2="1659.6328"/><polygon fill="#181818" points="106.813,1655.6328,96.813,1659.6328,106.813,1663.6328" style="stroke:#181818;stroke-width:1;"/><text fill="#000000" font-family="sans-serif" font-size="13" lengthAdjust="spacing" textLength="217.4644" x="102.813" y="1641.5669">processPendingActions(actions[])</text><line style="stroke:#181818;stroke-width:1;" x1="95.813" x2="137.813" y1="1693.7656" y2="1693.7656"/><line style="stroke:#181818;stroke-width:1;" x1="137.813" x2="137.813" y1="1693.7656" y2="1706.7656"/><line style="stroke:#181818;stroke-width:1;" x1="96.813" x2="137.813" y1="1706.7656" y2="1706.7656"/><polygon fill="#181818" points="106.813,1702.7656,96.813,1706.7656,106.813,1710.7656" style="stroke:#181818;stroke-width:1;"/><text fill="#000000" font-family="sans-serif" font-size="13" lengthAdjust="spacing" textLength="269.4326" x="102.813" y="1688.6997">processActionStatusAndWarnings(action)</text><path d="M398.4326,1681.1328 L398.4326,1706.1328 L587.4326,1706.1328 L587.4326,1691.1328 L577.4326,1681.1328 L398.4326,1681.1328 " fill="#FEFFDD" style="stroke:#181818;stroke-width:0.5;"/><path d="M577.4326,1681.1328 L577.4326,1691.1328 L587.4326,1691.1328 L577.4326,1681.1328 " fill="#FEFFDD" style="stroke:#181818;stroke-width:0.5;"/><text fill="#000000" font-family="sans-serif" font-size="13" lengthAdjust="spacing" textLength="168.6255" x="404.4326" y="1698.1997">actionStatus == Rejected</text><line style="stroke:#181818;stroke-width:1;" x1="95.813" x2="137.813" y1="1735.8984" y2="1735.8984"/><line style="stroke:#181818;stroke-width:1;" x1="137.813" x2="137.813" y1="1735.8984" y2="1748.8984"/><line style="stroke:#181818;stroke-width:1;" x1="96.813" x2="137.813" y1="1748.8984" y2="1748.8984"/><polygon fill="#181818" points="106.813,1744.8984,96.813,1748.8984,106.813,1752.8984" style="stroke:#181818;stroke-width:1;"/><text fill="#000000" font-family="sans-serif" font-size="13" lengthAdjust="spacing" textLength="141.3433" x="102.813" y="1730.8325">processAction(action)</text><line style="stroke:#181818;stroke-width:1;" x1="95.813" x2="137.813" y1="1778.0313" y2="1778.0313"/><line style="stroke:#181818;stroke-width:1;" x1="137.813" x2="137.813" y1="1778.0313" y2="1791.0313"/><line style="stroke:#181818;stroke-width:1;" x1="96.813" x2="137.813" y1="1791.0313" y2="1791.0313"/><polygon fill="#181818" points="106.813,1787.0313,96.813,1791.0313,106.813,1795.0313" style="stroke:#181818;stroke-width:1;"/><text fill="#000000" font-family="sans-serif" font-size="13" lengthAdjust="spacing" textLength="156.6221" x="102.813" y="1772.9653">unlockITMOs(iTMOIDs[])</text><polygon fill="#181818" points="382.2456,1819.1641,392.2456,1823.1641,382.2456,1827.1641" style="stroke:#181818;stroke-width:1;"/><line style="stroke:#181818;stroke-width:1;" x1="95.813" x2="388.2456" y1="1823.1641" y2="1823.1641"/><text fill="#000000" font-family="sans-serif" font-size="13" lengthAdjust="spacing" textLength="243.1343" x="102.813" y="1818.0981">processAction(actionId, actionStatus)</text><path d="M409,1804.0313 L409,1829.0313 L616,1829.0313 L616,1814.0313 L606,1804.0313 L409,1804.0313 " fill="#FEFFDD" style="stroke:#181818;stroke-width:0.5;"/><path d="M606,1804.0313 L606,1814.0313 L616,1814.0313 L606,1804.0313 " fill="#FEFFDD" style="stroke:#181818;stroke-width:0.5;"/><text fill="#000000" font-family="sans-serif" font-size="13" lengthAdjust="spacing" textLength="186.6021" x="415" y="1821.0981">actionStatus == Terminated</text><line style="stroke:#181818;stroke-width:1;" x1="404.2456" x2="446.2456" y1="1885.2969" y2="1885.2969"/><line style="stroke:#181818;stroke-width:1;" x1="446.2456" x2="446.2456" y1="1885.2969" y2="1898.2969"/><line style="stroke:#181818;stroke-width:1;" x1="405.2456" x2="446.2456" y1="1898.2969" y2="1898.2969"/><polygon fill="#181818" points="415.2456,1894.2969,405.2456,1898.2969,415.2456,1902.2969" style="stroke:#181818;stroke-width:1;"/><text fill="#000000" font-family="sans-serif" font-size="13" lengthAdjust="spacing" textLength="294.9185" x="411.2456" y="1880.231">validateProcessAction(actionId, actionStatus)</text><line style="stroke:#181818;stroke-width:1;" x1="404.2456" x2="446.2456" y1="1927.4297" y2="1927.4297"/><line style="stroke:#181818;stroke-width:1;" x1="446.2456" x2="446.2456" y1="1927.4297" y2="1940.4297"/><line style="stroke:#181818;stroke-width:1;" x1="405.2456" x2="446.2456" y1="1940.4297" y2="1940.4297"/><polygon fill="#181818" points="415.2456,1936.4297,405.2456,1940.4297,415.2456,1944.4297" style="stroke:#181818;stroke-width:1;"/><text fill="#000000" font-family="sans-serif" font-size="13" lengthAdjust="spacing" textLength="243.1343" x="411.2456" y="1922.3638">processAction(actionId, actionStatus)</text><path d="M676.1343,1914.7969 L676.1343,1939.7969 L883.1343,1939.7969 L883.1343,1924.7969 L873.1343,1914.7969 L676.1343,1914.7969 " fill="#FEFFDD" style="stroke:#181818;stroke-width:0.5;"/><path d="M873.1343,1914.7969 L873.1343,1924.7969 L883.1343,1924.7969 L873.1343,1914.7969 " fill="#FEFFDD" style="stroke:#181818;stroke-width:0.5;"/><text fill="#000000" font-family="sans-serif" font-size="13" lengthAdjust="spacing" textLength="186.6021" x="682.1343" y="1931.8638">actionStatus == Terminated</text><line style="stroke:#181818;stroke-width:1;" x1="404.2456" x2="446.2456" y1="1974.5625" y2="1974.5625"/><line style="stroke:#181818;stroke-width:1;" x1="446.2456" x2="446.2456" y1="1974.5625" y2="1987.5625"/><line style="stroke:#181818;stroke-width:1;" x1="399.2456" x2="446.2456" y1="1987.5625" y2="1987.5625"/><polygon fill="#181818" points="409.2456,1983.5625,399.2456,1987.5625,409.2456,1991.5625" style="stroke:#181818;stroke-width:1;"/><text fill="#000000" font-family="sans-serif" font-size="13" lengthAdjust="spacing" textLength="156.6221" x="411.2456" y="1969.4966">unlockITMOs(iTMOIDs[])</text><polygon fill="#181818" points="415.2456,2018.2617,405.2456,2022.2617,415.2456,2026.2617" style="stroke:#181818;stroke-width:1;"/><line style="stroke:#181818;stroke-width:1;" x1="409.2456" x2="903.4751" y1="2022.2617" y2="2022.2617"/><text fill="#000000" font-family="sans-serif" font-size="13" lengthAdjust="spacing" textLength="136.7983" x="421.2456" y="2017.1958">getFinalizedActions()</text><path d="M919,1995.5625 L919,2035.5625 L1084,2035.5625 L1084,2005.5625 L1074,1995.5625 L919,1995.5625 " fill="#FEFFDD" style="stroke:#181818;stroke-width:0.5;"/><path d="M1074,1995.5625 L1074,2005.5625 L1084,2005.5625 L1074,1995.5625 " fill="#FEFFDD" style="stroke:#181818;stroke-width:0.5;"/><text fill="#000000" font-family="sans-serif" font-size="13" lengthAdjust="spacing" textLength="144.0029" x="925" y="2012.6294">Registry polls the Hub</text><text fill="#000000" font-family="sans-serif" font-size="13" lengthAdjust="spacing" textLength="128.5464" x="925" y="2027.7622">for finalized Actions</text><polygon fill="#181818" points="892.4751,2057.9609,902.4751,2061.9609,892.4751,2065.9609" style="stroke:#181818;stroke-width:1;"/><line style="stroke:#181818;stroke-width:1;stroke-dasharray:2.0,2.0;" x1="399.2456" x2="898.4751" y1="2061.9609" y2="2061.9609"/><text fill="#000000" font-family="sans-serif" font-size="13" font-style="italic" lengthAdjust="spacing" textLength="56.9321" x="406.2456" y="2056.895">actions[]</text><line style="stroke:#181818;stroke-width:1;" x1="914.4751" x2="961.4751" y1="2086.0938" y2="2086.0938"/><line style="stroke:#181818;stroke-width:1;" x1="961.4751" x2="961.4751" y1="2086.0938" y2="2099.0938"/><line style="stroke:#181818;stroke-width:1;" x1="920.4751" x2="961.4751" y1="2099.0938" y2="2099.0938"/><polygon fill="#181818" points="930.4751,2095.0938,920.4751,2099.0938,930.4751,2103.0938" style="stroke:#181818;stroke-width:1;"/><text fill="#000000" font-family="sans-serif" font-size="13" lengthAdjust="spacing" textLength="222.625" x="926.4751" y="2081.0278">processFinalizedActions(actions[])</text><line style="stroke:#181818;stroke-width:1;" x1="919.4751" x2="961.4751" y1="2138.2266" y2="2138.2266"/><line style="stroke:#181818;stroke-width:1;" x1="961.4751" x2="961.4751" y1="2138.2266" y2="2151.2266"/><line style="stroke:#181818;stroke-width:1;" x1="914.4751" x2="961.4751" y1="2151.2266" y2="2151.2266"/><polygon fill="#181818" points="924.4751,2147.2266,914.4751,2151.2266,924.4751,2155.2266" style="stroke:#181818;stroke-width:1;"/><text fill="#000000" font-family="sans-serif" font-size="13" lengthAdjust="spacing" textLength="141.3433" x="926.4751" y="2133.1606">processAction(action)</text><path d="M691,2120.5938 L691,2145.5938 L898,2145.5938 L898,2130.5938 L888,2120.5938 L691,2120.5938 " fill="#FEFFDD" style="stroke:#181818;stroke-width:0.5;"/><path d="M888,2120.5938 L888,2130.5938 L898,2130.5938 L888,2120.5938 " fill="#FEFFDD" style="stroke:#181818;stroke-width:0.5;"/><text fill="#000000" font-family="sans-serif" font-size="13" lengthAdjust="spacing" textLength="186.6021" x="697" y="2137.6606">actionStatus == Terminated</text><!--SRC=[xLLBRnCn4BxxLunwIbIYg3r652a2LUH0YTe21yB1jIUfwSPUsKuX_7fcd_4-iqYLIX6NVSpEyvlFtthb8uJ5xOUFy2cMt2DS6Q_MId2lZ6RCFIWTSyktuFoUF9stIlZTDcACp5u95NFjuUHIMUV1MwxT6grLUhFIfODFNvVqkWUB6qL9zYV07ToWbcYhcHRQepKnMdwd8kNtA_r-TvTwqxtgUeq2rMEQl4WBPwbhzWNjsV60yqh0EMDSUFMO895tbzrWyYOtp62N8fM0Db9-QyOiyA4cJqzX1Z7DO1pEHOBZYAUtPMhZqPXfG_cjsjpx6MJVRZptEmSN5v1veMGIwwq4bWGCHfUovWnSJ7WbNRdUUgbRkd97jOMnaW01Rs0whOPDfq616KH6F6JP5LqNxzpNR-EAmoEFL09C4T_euk0ycSn0M2JdA_pf-q2ASDs2qUUyb5pfbHvj-HwK5j5E8lpWLjCyRgKZizcWf0-GvHy7gotMpOg70COD-YN1JKcoE3SQCu0GmUk2Ex698WV-Fbt7Ig-DXJWBpMiwYZpKU3sPP4WLI1E4179zgs5FnNDAA87ErLehyuoF3DT8D0yWdMlv9SSjppWC_I4LoeICHvxKfTmG45hbWGmmJO9HEf3eOkKF6sM4PSkwseejvAjAqya20vHBWBgiVSTpBWJ6oUm07UGVr4uOEtI4dfK4NTNf152N4O2cNhMpFlVBYGjrvZQA4Tl3v8LW7kLkVu-rDCUOEtX_Hoe42Ll-0RfL3vlO_k5wExf-QxPnX8q5bs2rsPw5dWFwh_u6ke5iEvdjUdsfDCtt2sN8tU6QlIx20zLEcNnCkTlvtokAZLRRJq77oCLp0bmNLtjKeeD5PJ5YJYRJBRei3ReaTo7GNHiQkBMd8DKrVaVHFKsNzI-IxVO9dbYs_mNLBe5wMR9zYtPB1_xbwdPbWF_2_Lp2tSMZYdB_1W00]--></g></svg>