<svg xmlns="http://www.w3.org/2000/svg" xmlns:xlink="http://www.w3.org/1999/xlink" contentStyleType="text/css" data-diagram-type="ACTIVITY" height="724px" preserveAspectRatio="none" style="width:811px;height:724px;background:#FFFFFF;" version="1.1" viewBox="0 0 811 724" width="811px" zoomAndPan="magnify"><title>ITMO Lifecycle </title><defs/><g><text fill="#000000" font-family="sans-serif" font-size="14" font-weight="bold" lengthAdjust="spacing" textLength="114.7891" x="344.1812" y="32.9951">ITMO Lifecycle</text><text fill="#000000" font-family="sans-serif" font-size="14" font-weight="bold" lengthAdjust="spacing" textLength="4.874" x="401.5757" y="49.292">&#160;</text><ellipse cx="616.8887" cy="73.5938" fill="#222222" rx="10" ry="10" style="stroke:#222222;stroke-width:1;"/><rect fill="transparent" height="184.0781" style="stroke:#000000;stroke-width:1.5;" width="742.8916" x="11" y="93.5938"/><path d="M178.2129,93.5938 L178.2129,102.8906 L168.2129,112.8906 L11,112.8906 " fill="transparent" style="stroke:#000000;stroke-width:1.5;"/><text fill="#000000" font-family="sans-serif" font-size="14" lengthAdjust="spacing" textLength="157.2129" x="14" y="107.5889">ITMOs do not yet exist</text><path d="M21,122.8906 L21,208.5547 A0,0 0 0 0 21,208.5547 L469.8857,208.5547 A0,0 0 0 0 469.8857,208.5547 L469.8857,169.7227 L489.8857,165.7227 L469.8857,161.7227 L469.8857,132.8906 L459.8857,122.8906 L21,122.8906 A0,0 0 0 0 21,122.8906 " fill="#FEFFDD" style="stroke:#181818;stroke-width:0.5;"/><path d="M459.8857,122.8906 L459.8857,132.8906 L469.8857,132.8906 L459.8857,122.8906 " fill="#FEFFDD" style="stroke:#181818;stroke-width:0.5;"/><ellipse cx="32.5" cy="135.5234" fill="#000000" rx="2.5" ry="2.5"/><text fill="#000000" font-family="sans-serif" font-size="13" lengthAdjust="spacing" textLength="360.1089" x="39" y="139.9575">FTP Registry has been created in International Registry</text><ellipse cx="32.5" cy="150.6563" fill="#000000" rx="2.5" ry="2.5"/><text fill="#000000" font-family="sans-serif" font-size="13" lengthAdjust="spacing" textLength="415.8857" x="39" y="155.0903">Cooperative Approach or Mitigation Outcome authorised by FTP</text><ellipse cx="32.5" cy="165.7891" fill="#000000" rx="2.5" ry="2.5"/><text fill="#000000" font-family="sans-serif" font-size="13" lengthAdjust="spacing" textLength="376.0352" x="39" y="170.2231">FTP Registry sends authorisation to International Registry</text><ellipse cx="32.5" cy="180.9219" fill="#000000" rx="2.5" ry="2.5"/><text fill="#000000" font-family="sans-serif" font-size="13" lengthAdjust="spacing" textLength="362.229" x="39" y="185.356">Note that there are no ITMOs involved in authorizations</text><ellipse cx="32.5" cy="196.0547" fill="#000000" rx="2.5" ry="2.5"/><text fill="#000000" font-family="sans-serif" font-size="13" lengthAdjust="spacing" textLength="320.3979" x="39" y="200.4888">Authorizations involve the quantity of GHG offset</text><rect fill="#F1F1F1" height="33.9688" rx="12.5" ry="12.5" style="stroke:#181818;stroke-width:0.5;" width="254.0059" x="489.8857" y="148.7383"/><text fill="#000000" font-family="sans-serif" font-size="12" lengthAdjust="spacing" textLength="234.0059" x="499.8857" y="169.877">CoopApproach/MitOutcome Authorized</text><path d="M175.4902,225.4063 L175.4902,265.6719 A0,0 0 0 0 175.4902,265.6719 L496.877,265.6719 A0,0 0 0 0 496.877,265.6719 L496.877,249.5391 L516.877,245.5391 L496.877,241.5391 L496.877,235.4063 L486.877,225.4063 L175.4902,225.4063 A0,0 0 0 0 175.4902,225.4063 " fill="#FEFFDD" style="stroke:#181818;stroke-width:0.5;"/><path d="M486.877,225.4063 L486.877,235.4063 L496.877,235.4063 L486.877,225.4063 " fill="#FEFFDD" style="stroke:#181818;stroke-width:0.5;"/><ellipse cx="186.9902" cy="238.0391" fill="#000000" rx="2.5" ry="2.5"/><text fill="#000000" font-family="sans-serif" font-size="13" lengthAdjust="spacing" textLength="288.3867" x="193.4902" y="242.4731">Use International Registry InsertAccount API</text><text fill="#000000" font-family="sans-serif" font-size="13" lengthAdjust="spacing" textLength="200.2241" x="198.0195" y="257.606">to insert accounts into registry</text><rect fill="#F1F1F1" height="33.9688" rx="12.5" ry="12.5" style="stroke:#181818;stroke-width:0.5;" width="200.0234" x="516.877" y="228.5547"/><text fill="#000000" font-family="sans-serif" font-size="12" lengthAdjust="spacing" textLength="180.0234" x="526.877" y="249.6934">Insert Acccounts into Registry</text><rect fill="transparent" height="136.2344" style="stroke:#000000;stroke-width:1.5;" width="717.3999" x="11.4897" y="287.6719"/><path d="M219.2192,287.6719 L219.2192,296.9688 L209.2192,306.9688 L11.4897,306.9688 " fill="transparent" style="stroke:#000000;stroke-width:1.5;"/><text fill="#000000" font-family="sans-serif" font-size="14" lengthAdjust="spacing" textLength="197.7295" x="14.4897" y="301.667">ITMOs exist in Party registry</text><path d="M201.1006,328.3867 L201.1006,353.5195 A0,0 0 0 0 201.1006,353.5195 L494.8877,353.5195 A0,0 0 0 0 494.8877,353.5195 L494.8877,346.3867 L514.8877,340.9531 L494.8877,338.3867 L494.8877,338.3867 L484.8877,328.3867 L201.1006,328.3867 A0,0 0 0 0 201.1006,328.3867 " fill="#FEFFDD" style="stroke:#181818;stroke-width:0.5;"/><path d="M484.8877,328.3867 L484.8877,338.3867 L494.8877,338.3867 L484.8877,328.3867 " fill="#FEFFDD" style="stroke:#181818;stroke-width:0.5;"/><ellipse cx="212.6006" cy="341.0195" fill="#000000" rx="2.5" ry="2.5"/><text fill="#000000" font-family="sans-serif" font-size="13" lengthAdjust="spacing" textLength="260.7871" x="219.1006" y="345.4536">ITMOs created internally in FTP Registry</text><rect fill="#F1F1F1" height="33.9688" rx="12.5" ry="12.5" style="stroke:#181818;stroke-width:0.5;" width="204.002" x="514.8877" y="323.9688"/><text fill="#000000" font-family="sans-serif" font-size="12" lengthAdjust="spacing" textLength="184.002" x="524.8877" y="345.1074">ITMOs created by FTP Registry</text><path d="M21.4897,382.3555 L21.4897,407.4883 A0,0 0 0 0 21.4897,407.4883 L518.8525,407.4883 A0,0 0 0 0 518.8525,407.4883 L518.8525,400.3555 L538.8525,394.9219 L518.8525,392.3555 L518.8525,392.3555 L508.8525,382.3555 L21.4897,382.3555 A0,0 0 0 0 21.4897,382.3555 " fill="#FEFFDD" style="stroke:#181818;stroke-width:0.5;"/><path d="M508.8525,382.3555 L508.8525,392.3555 L518.8525,392.3555 L508.8525,382.3555 " fill="#FEFFDD" style="stroke:#181818;stroke-width:0.5;"/><ellipse cx="32.9897" cy="394.9883" fill="#000000" rx="2.5" ry="2.5"/><text fill="#000000" font-family="sans-serif" font-size="13" lengthAdjust="spacing" textLength="464.3628" x="39.4897" y="399.4224">This is an internal transfer Action proposal to the International Registry</text><rect fill="#F1F1F1" height="33.9688" rx="12.5" ry="12.5" style="stroke:#181818;stroke-width:0.5;" width="156.0723" x="538.8525" y="377.9375"/><text fill="#000000" font-family="sans-serif" font-size="12" lengthAdjust="spacing" textLength="136.0723" x="548.8525" y="399.0762">First Transfer of ITMOs</text><rect fill="transparent" height="279.2656" style="stroke:#000000;stroke-width:1.5;" width="350.2734" x="449.752" y="433.9063"/><path d="M714.5,433.9063 L714.5,443.2031 L704.5,453.2031 L449.752,453.2031 " fill="transparent" style="stroke:#000000;stroke-width:1.5;"/><text fill="#000000" font-family="sans-serif" font-size="14" lengthAdjust="spacing" textLength="254.748" x="452.752" y="447.9014">ITMOs exist in International Registry</text><rect fill="#555555" height="6" rx="2.5" ry="2.5" style="stroke:#555555;stroke-width:1;" width="312.2734" x="459.752" y="514.2031"/><rect fill="#F1F1F1" height="33.9688" rx="12.5" ry="12.5" style="stroke:#181818;stroke-width:0.5;" width="147.5234" x="473.752" y="540.2031"/><text fill="#000000" font-family="sans-serif" font-size="12" lengthAdjust="spacing" textLength="123.709" x="487.5664" y="561.3418">Use or Cancel ITMOs</text><ellipse cx="547.5137" cy="620.1719" fill="transparent" rx="11" ry="11" style="stroke:#222222;stroke-width:1;"/><ellipse cx="547.5137" cy="620.1719" fill="#222222" rx="6" ry="6" style="stroke:#222222;stroke-width:1;"/><rect fill="#F1F1F1" height="33.9688" rx="12.5" ry="12.5" style="stroke:#181818;stroke-width:0.5;" width="110.75" x="649.2754" y="568.7031"/><text fill="#000000" font-family="sans-serif" font-size="12" lengthAdjust="spacing" textLength="90.75" x="659.2754" y="589.8418">Transfer ITMOs</text><rect fill="#555555" height="6" rx="2.5" ry="2.5" style="stroke:#555555;stroke-width:1;" width="312.2734" x="459.752" y="651.1719"/><polygon fill="#F1F1F1" points="616.8887,470.2031,628.8887,482.2031,616.8887,494.2031,604.8887,482.2031,616.8887,470.2031" style="stroke:#181818;stroke-width:0.5;"/><polygon fill="#F1F1F1" points="616.8887,677.1719,616.8887,677.1719,628.8887,689.1719,616.8887,701.1719,616.8887,701.1719,604.8887,689.1719,616.8887,677.1719" style="stroke:#181818;stroke-width:0.5;"/><line style="stroke:#181818;stroke-width:1;" x1="616.8887" x2="616.8887" y1="182.707" y2="228.5547"/><polygon fill="#181818" points="612.8887,218.5547,616.8887,228.5547,620.8887,218.5547,616.8887,222.5547" style="stroke:#181818;stroke-width:1;"/><line style="stroke:#181818;stroke-width:1;" x1="616.8887" x2="616.8887" y1="83.5938" y2="148.7383"/><polygon fill="#181818" points="612.8887,138.7383,616.8887,148.7383,620.8887,138.7383,616.8887,142.7383" style="stroke:#181818;stroke-width:1;"/><line style="stroke:#181818;stroke-width:1;" x1="616.8887" x2="616.8887" y1="357.9375" y2="377.9375"/><polygon fill="#181818" points="612.8887,367.9375,616.8887,377.9375,620.8887,367.9375,616.8887,371.9375" style="stroke:#181818;stroke-width:1;"/><line style="stroke:#181818;stroke-width:1;" x1="616.8887" x2="616.8887" y1="262.5234" y2="323.9688"/><polygon fill="#181818" points="612.8887,313.9688,616.8887,323.9688,620.8887,313.9688,616.8887,317.9688" style="stroke:#181818;stroke-width:1;"/><line style="stroke:#181818;stroke-width:1;" x1="547.5137" x2="547.5137" y1="574.1719" y2="609.1719"/><polygon fill="#181818" points="543.5137,599.1719,547.5137,609.1719,551.5137,599.1719,547.5137,603.1719" style="stroke:#181818;stroke-width:1;"/><line style="stroke:#181818;stroke-width:1;" x1="547.5137" x2="547.5137" y1="520.2031" y2="540.2031"/><polygon fill="#181818" points="543.5137,530.2031,547.5137,540.2031,551.5137,530.2031,547.5137,534.2031" style="stroke:#181818;stroke-width:1;"/><line style="stroke:#181818;stroke-width:1;" x1="704.6504" x2="704.6504" y1="520.2031" y2="568.7031"/><polygon fill="#181818" points="700.6504,558.7031,704.6504,568.7031,708.6504,558.7031,704.6504,562.7031" style="stroke:#181818;stroke-width:1;"/><line style="stroke:#181818;stroke-width:1;" x1="704.6504" x2="704.6504" y1="602.6719" y2="651.1719"/><polygon fill="#181818" points="700.6504,641.1719,704.6504,651.1719,708.6504,641.1719,704.6504,645.1719" style="stroke:#181818;stroke-width:1;"/><line style="stroke:#181818;stroke-width:1;" x1="616.8887" x2="616.8887" y1="494.2031" y2="514.2031"/><polygon fill="#181818" points="612.8887,504.2031,616.8887,514.2031,620.8887,504.2031,616.8887,508.2031" style="stroke:#181818;stroke-width:1;"/><line style="stroke:#181818;stroke-width:1;" x1="628.8887" x2="784.0254" y1="689.1719" y2="689.1719"/><polygon fill="#181818" points="780.0254,595.6875,784.0254,585.6875,788.0254,595.6875,784.0254,591.6875" style="stroke:#181818;stroke-width:1;"/><line style="stroke:#181818;stroke-width:1;" x1="784.0254" x2="784.0254" y1="482.2031" y2="689.1719"/><line style="stroke:#181818;stroke-width:1;" x1="784.0254" x2="628.8887" y1="482.2031" y2="482.2031"/><polygon fill="#181818" points="638.8887,478.2031,628.8887,482.2031,638.8887,486.2031,634.8887,482.2031" style="stroke:#181818;stroke-width:1;"/><line style="stroke:#181818;stroke-width:1;" x1="616.8887" x2="616.8887" y1="657.1719" y2="677.1719"/><polygon fill="#181818" points="612.8887,667.1719,616.8887,677.1719,620.8887,667.1719,616.8887,671.1719" style="stroke:#181818;stroke-width:1;"/><line style="stroke:#181818;stroke-width:1;" x1="616.8887" x2="616.8887" y1="411.9063" y2="470.2031"/><polygon fill="#181818" points="612.8887,460.2031,616.8887,470.2031,620.8887,460.2031,616.8887,464.2031" style="stroke:#181818;stroke-width:1;"/><!--SRC=[ZLJDJiCm3BxtANm4Bjp7gK829W6RqBXn2PcxHfIu9DwW8DuT9rbBmxIDICiKnVd-x8qDDmZJnTqCRas5kjDoVB95uLavBefMTiE6RApni2ImnD0X0tuOp_1LWAouJIw9sh9j7IbTdzyPdgrPqoj2kUQQdFd4vSLljS0WD5XnF8Lr1bUBEJpWId1T1xNoy8neGJjKZ4im8i8oEgk28DKCfIE4806T56o4TYi5o86eCQlu3dfLAgdoWlpS1UfzGZpQfH_A4mZJSIttmI7NYcL39uJoiRGDqjWDDPlaQWlz6R7y2A7CBlet0GxUrifAPpgW2gvlhkMhyfYo5BantL5dfjQZOoYrrhIs7A34GQ_vI5SUFUun2mctJAXGpgV3ix24mYHYbV6wSLQxQhztnoxDcaGrbujk0CYcBrNsmv9Q-b-B-LkJp3PD5oZ7CFlolJ9Ez2sSihv25teI4O-mBceZYSXesO4IkCSeTVGl8zoI3nSK-tvWwd9TXrBSqyrHcWvRoUBt75P5xYNhxoIEXlowBfNLs8mzzyipjHa0g9KoDeSPSli340nbf2Dfy5uR-QiwEUtT_W00]--></g></svg>