<svg xmlns="http://www.w3.org/2000/svg" xmlns:xlink="http://www.w3.org/1999/xlink" contentStyleType="text/css" data-diagram-type="SEQUENCE" height="802px" preserveAspectRatio="none" style="width:1334px;height:802px;background:#FFFFFF;" version="1.1" viewBox="0 0 1334 802" width="1334px" zoomAndPan="magnify"><title>ITMO Update Notification</title><defs/><g><text fill="#000000" font-family="sans-serif" font-size="14" font-weight="bold" lengthAdjust="spacing" textLength="199.9238" x="571.7583" y="27.9951">ITMO Update Notification</text><g><title>First transferring</title><rect fill="#FFFFFF" height="134.5313" style="stroke:#181818;stroke-width:1;" width="10" x="98.813" y="116.1875"/></g><g><title>Interoperability</title><rect fill="#FFFFFF" height="71.2656" style="stroke:#181818;stroke-width:1;" width="10" x="389.2476" y="179.4531"/></g><g><title>Interoperability</title><rect fill="#FFFFFF" height="32.1328" style="stroke:#181818;stroke-width:1;" width="10" x="389.2476" y="282.8516"/></g><g><title>Interoperability</title><rect fill="#FFFFFF" height="110.2656" style="stroke:#181818;stroke-width:1;" width="10" x="389.2476" y="473.5156"/></g><g><title>Interoperability</title><rect fill="#FFFFFF" height="32.1328" style="stroke:#181818;stroke-width:1;" width="10" x="389.2476" y="622.9141"/></g><g><title>Holding</title><rect fill="#FFFFFF" height="252.7969" style="stroke:#181818;stroke-width:1;" width="10" x="703.0332" y="250.7188"/></g><g><title>Holding</title><rect fill="#FFFFFF" height="151.3984" style="stroke:#181818;stroke-width:1;" width="10" x="708.0332" y="352.1172"/></g><g><title>Holding</title><rect fill="#FFFFFF" height="165.7305" style="stroke:#181818;stroke-width:1;" width="10" x="1021.2368" y="585.7813"/></g><g><title>Holding</title><rect fill="#FFFFFF" height="59.332" style="stroke:#181818;stroke-width:1;" width="10" x="1026.2368" y="692.1797"/></g><g><title>First transferring</title><rect fill="transparent" height="689.5234" width="8" x="99.813" y="106.1875"/><line style="stroke:#181818;stroke-width:0.5;stroke-dasharray:5.0,5.0;" x1="103" x2="103" y1="106.1875" y2="795.7109"/></g><g><title>Interoperability</title><rect fill="transparent" height="689.5234" width="8" x="390.2476" y="106.1875"/><line style="stroke:#181818;stroke-width:0.5;stroke-dasharray:5.0,5.0;" x1="393.4521" x2="393.4521" y1="106.1875" y2="795.7109"/></g><g><title>Holding</title><rect fill="transparent" height="689.5234" width="8" x="704.0332" y="106.1875"/><line style="stroke:#181818;stroke-width:0.5;stroke-dasharray:5.0,5.0;" x1="707.3696" x2="707.3696" y1="106.1875" y2="795.7109"/></g><g><title>Holding</title><rect fill="transparent" height="689.5234" width="8" x="1022.2368" y="106.1875"/><line style="stroke:#181818;stroke-width:0.5;stroke-dasharray:5.0,5.0;" x1="1025.5732" x2="1025.5732" y1="106.1875" y2="795.7109"/></g><rect fill="#E2E2F0" height="62.8906" rx="2.5" ry="2.5" style="stroke:#181818;stroke-width:0.5;" width="131.626" x="38" y="42.2969"/><text fill="#000000" font-family="sans-serif" font-size="14" lengthAdjust="spacing" textLength="117.626" x="45" y="62.292">First transferring</text><text fill="#000000" font-family="sans-serif" font-size="14" lengthAdjust="spacing" textLength="88.792" x="59.417" y="78.5889">participating</text><text fill="#000000" font-family="sans-serif" font-size="14" lengthAdjust="spacing" textLength="94.9717" x="56.3271" y="94.8857">Party registry</text><rect fill="#E2E2F0" height="46.5938" rx="2.5" ry="2.5" style="stroke:#181818;stroke-width:0.5;" width="121.5908" x="333.4521" y="58.5938"/><text fill="#000000" font-family="sans-serif" font-size="14" lengthAdjust="spacing" textLength="107.5908" x="340.4521" y="78.5889">Interoperability</text><text fill="#000000" font-family="sans-serif" font-size="14" lengthAdjust="spacing" textLength="28.2871" x="380.104" y="94.8857">Hub</text><rect fill="#E2E2F0" height="46.5938" rx="2.5" ry="2.5" style="stroke:#181818;stroke-width:0.5;" width="81.3271" x="667.3696" y="58.5938"/><text fill="#000000" font-family="sans-serif" font-size="14" lengthAdjust="spacing" textLength="53.5186" x="681.2739" y="78.5889">Holding</text><text fill="#000000" font-family="sans-serif" font-size="14" lengthAdjust="spacing" textLength="67.3271" x="674.3696" y="94.8857">registry 1</text><rect fill="#E2E2F0" height="46.5938" rx="2.5" ry="2.5" style="stroke:#181818;stroke-width:0.5;" width="81.3271" x="985.5732" y="58.5938"/><text fill="#000000" font-family="sans-serif" font-size="14" lengthAdjust="spacing" textLength="53.5186" x="999.4775" y="78.5889">Holding</text><text fill="#000000" font-family="sans-serif" font-size="14" lengthAdjust="spacing" textLength="67.3271" x="992.5732" y="94.8857">registry 2</text><g><title>First transferring</title><rect fill="#FFFFFF" height="134.5313" style="stroke:#181818;stroke-width:1;" width="10" x="98.813" y="116.1875"/></g><g><title>Interoperability</title><rect fill="#FFFFFF" height="71.2656" style="stroke:#181818;stroke-width:1;" width="10" x="389.2476" y="179.4531"/></g><g><title>Interoperability</title><rect fill="#FFFFFF" height="32.1328" style="stroke:#181818;stroke-width:1;" width="10" x="389.2476" y="282.8516"/></g><g><title>Interoperability</title><rect fill="#FFFFFF" height="110.2656" style="stroke:#181818;stroke-width:1;" width="10" x="389.2476" y="473.5156"/></g><g><title>Interoperability</title><rect fill="#FFFFFF" height="32.1328" style="stroke:#181818;stroke-width:1;" width="10" x="389.2476" y="622.9141"/></g><g><title>Holding</title><rect fill="#FFFFFF" height="252.7969" style="stroke:#181818;stroke-width:1;" width="10" x="703.0332" y="250.7188"/></g><g><title>Holding</title><rect fill="#FFFFFF" height="151.3984" style="stroke:#181818;stroke-width:1;" width="10" x="708.0332" y="352.1172"/></g><g><title>Holding</title><rect fill="#FFFFFF" height="165.7305" style="stroke:#181818;stroke-width:1;" width="10" x="1021.2368" y="585.7813"/></g><g><title>Holding</title><rect fill="#FFFFFF" height="59.332" style="stroke:#181818;stroke-width:1;" width="10" x="1026.2368" y="692.1797"/></g><line style="stroke:#181818;stroke-width:1;" x1="108.813" x2="150.813" y1="137.3203" y2="137.3203"/><line style="stroke:#181818;stroke-width:1;" x1="150.813" x2="150.813" y1="137.3203" y2="150.3203"/><line style="stroke:#181818;stroke-width:1;" x1="109.813" x2="150.813" y1="150.3203" y2="150.3203"/><polygon fill="#181818" points="119.813,146.3203,109.813,150.3203,119.813,154.3203" style="stroke:#181818;stroke-width:1;"/><text fill="#000000" font-family="sans-serif" font-size="13" lengthAdjust="spacing" textLength="118.498" x="115.813" y="132.2544">updateITMO(itmo)</text><polygon fill="#181818" points="377.2476,175.4531,387.2476,179.4531,377.2476,183.4531" style="stroke:#181818;stroke-width:1;"/><line style="stroke:#181818;stroke-width:1;" x1="108.813" x2="383.2476" y1="179.4531" y2="179.4531"/><text fill="#000000" font-family="sans-serif" font-size="13" lengthAdjust="spacing" textLength="261.4346" x="115.813" y="174.3872">notifyITMOUpdate(itmoId, attributes, ...)</text><line style="stroke:#181818;stroke-width:1;" x1="399.2476" x2="441.2476" y1="208.5859" y2="208.5859"/><line style="stroke:#181818;stroke-width:1;" x1="441.2476" x2="441.2476" y1="208.5859" y2="221.5859"/><line style="stroke:#181818;stroke-width:1;" x1="400.2476" x2="441.2476" y1="221.5859" y2="221.5859"/><polygon fill="#181818" points="410.2476,217.5859,400.2476,221.5859,410.2476,225.5859" style="stroke:#181818;stroke-width:1;"/><text fill="#000000" font-family="sans-serif" font-size="13" lengthAdjust="spacing" textLength="243.02" x="406.2476" y="203.52">addNotification(itmoId, attributes, ...)</text><path d="M671.02,195.9531 L671.02,220.9531 L875.02,220.9531 L875.02,205.9531 L865.02,195.9531 L671.02,195.9531 " fill="#FEFFDD" style="stroke:#181818;stroke-width:0.5;"/><path d="M865.02,195.9531 L865.02,205.9531 L875.02,205.9531 L865.02,195.9531 " fill="#FEFFDD" style="stroke:#181818;stroke-width:0.5;"/><text fill="#000000" font-family="sans-serif" font-size="13" lengthAdjust="spacing" textLength="183.9106" x="677.02" y="213.02">notificationStatus -- Created</text><polygon fill="#181818" points="114.813,246.7188,104.813,250.7188,114.813,254.7188" style="stroke:#181818;stroke-width:1;"/><line style="stroke:#181818;stroke-width:1;stroke-dasharray:2.0,2.0;" x1="108.813" x2="393.2476" y1="250.7188" y2="250.7188"/><text fill="#000000" font-family="sans-serif" font-size="13" font-style="italic" lengthAdjust="spacing" textLength="85.1919" x="120.813" y="245.6528">notificationId</text><polygon fill="#181818" points="410.2476,278.8516,400.2476,282.8516,410.2476,286.8516" style="stroke:#181818;stroke-width:1;"/><line style="stroke:#181818;stroke-width:1;" x1="404.2476" x2="702.0332" y1="282.8516" y2="282.8516"/><text fill="#000000" font-family="sans-serif" font-size="13" lengthAdjust="spacing" textLength="165.2866" x="416.2476" y="277.7856">getPendingNotifications()</text><path d="M5,263.7188 L5,288.7188 L384,288.7188 L384,273.7188 L374,263.7188 L5,263.7188 " fill="#FEFFDD" style="stroke:#181818;stroke-width:0.5;"/><path d="M374,263.7188 L374,273.7188 L384,273.7188 L374,263.7188 " fill="#FEFFDD" style="stroke:#181818;stroke-width:0.5;"/><text fill="#000000" font-family="sans-serif" font-size="13" lengthAdjust="spacing" textLength="358.3379" x="11" y="280.7856">R1.party.notificationId.NotificationStatus == Retrieved</text><polygon fill="#181818" points="691.0332,310.9844,701.0332,314.9844,691.0332,318.9844" style="stroke:#181818;stroke-width:1;"/><line style="stroke:#181818;stroke-width:1;stroke-dasharray:2.0,2.0;" x1="394.2476" x2="697.0332" y1="314.9844" y2="314.9844"/><text fill="#000000" font-family="sans-serif" font-size="13" font-style="italic" lengthAdjust="spacing" textLength="121.8052" x="401.2476" y="309.9185">R1's notifications[]</text><line style="stroke:#181818;stroke-width:1;" x1="713.0332" x2="760.0332" y1="339.1172" y2="339.1172"/><line style="stroke:#181818;stroke-width:1;" x1="760.0332" x2="760.0332" y1="339.1172" y2="352.1172"/><line style="stroke:#181818;stroke-width:1;" x1="719.0332" x2="760.0332" y1="352.1172" y2="352.1172"/><polygon fill="#181818" points="729.0332,348.1172,719.0332,352.1172,729.0332,356.1172" style="stroke:#181818;stroke-width:1;"/><text fill="#000000" font-family="sans-serif" font-size="13" lengthAdjust="spacing" textLength="284.2036" x="725.0332" y="334.0513">processPendingNotifications(notifications[])</text><line style="stroke:#181818;stroke-width:1;" x1="718.0332" x2="760.0332" y1="386.25" y2="386.25"/><line style="stroke:#181818;stroke-width:1;" x1="760.0332" x2="760.0332" y1="386.25" y2="399.25"/><line style="stroke:#181818;stroke-width:1;" x1="719.0332" x2="760.0332" y1="399.25" y2="399.25"/><polygon fill="#181818" points="729.0332,395.25,719.0332,399.25,729.0332,403.25" style="stroke:#181818;stroke-width:1;"/><text fill="#000000" font-family="sans-serif" font-size="13" lengthAdjust="spacing" textLength="208.0825" x="725.0332" y="381.1841">processNotification(notification)</text><line style="stroke:#181818;stroke-width:1;" x1="718.0332" x2="760.0332" y1="428.3828" y2="428.3828"/><line style="stroke:#181818;stroke-width:1;" x1="760.0332" x2="760.0332" y1="428.3828" y2="441.3828"/><line style="stroke:#181818;stroke-width:1;" x1="719.0332" x2="760.0332" y1="441.3828" y2="441.3828"/><polygon fill="#181818" points="729.0332,437.3828,719.0332,441.3828,729.0332,445.3828" style="stroke:#181818;stroke-width:1;"/><text fill="#000000" font-family="sans-serif" font-size="13" lengthAdjust="spacing" textLength="222.9868" x="725.0332" y="423.3169">updateITMO(itmoId, attributes, ...)</text><polygon fill="#181818" points="410.2476,469.5156,400.2476,473.5156,410.2476,477.5156" style="stroke:#181818;stroke-width:1;"/><line style="stroke:#181818;stroke-width:1;" x1="404.2476" x2="707.0332" y1="473.5156" y2="473.5156"/><text fill="#000000" font-family="sans-serif" font-size="13" lengthAdjust="spacing" textLength="255.5059" x="416.2476" y="468.4497">acknowledgeNotification(notificationId)</text><path d="M723,454.3828 L723,479.3828 L950,479.3828 L950,464.3828 L940,454.3828 L723,454.3828 " fill="#FEFFDD" style="stroke:#181818;stroke-width:0.5;"/><path d="M940,454.3828 L940,464.3828 L950,464.3828 L940,454.3828 " fill="#FEFFDD" style="stroke:#181818;stroke-width:0.5;"/><text fill="#000000" font-family="sans-serif" font-size="13" lengthAdjust="spacing" textLength="206.248" x="729" y="471.4497">actionStatus == Acknowledged</text><line style="stroke:#181818;stroke-width:1;" x1="399.2476" x2="441.2476" y1="535.6484" y2="535.6484"/><line style="stroke:#181818;stroke-width:1;" x1="441.2476" x2="441.2476" y1="535.6484" y2="548.6484"/><line style="stroke:#181818;stroke-width:1;" x1="400.2476" x2="441.2476" y1="548.6484" y2="548.6484"/><polygon fill="#181818" points="410.2476,544.6484,400.2476,548.6484,410.2476,552.6484" style="stroke:#181818;stroke-width:1;"/><text fill="#000000" font-family="sans-serif" font-size="13" lengthAdjust="spacing" textLength="222.9868" x="406.2476" y="530.5825">updateITMO(itmoId, attributes, ...)</text><line style="stroke:#181818;stroke-width:1;" x1="399.2476" x2="441.2476" y1="582.7813" y2="582.7813"/><line style="stroke:#181818;stroke-width:1;" x1="441.2476" x2="441.2476" y1="582.7813" y2="595.7813"/><line style="stroke:#181818;stroke-width:1;" x1="394.2476" x2="441.2476" y1="595.7813" y2="595.7813"/><polygon fill="#181818" points="404.2476,591.7813,394.2476,595.7813,404.2476,599.7813" style="stroke:#181818;stroke-width:1;"/><text fill="#000000" font-family="sans-serif" font-size="13" lengthAdjust="spacing" textLength="279.7856" x="406.2476" y="577.7153">updateNotification(R1.party, notificationId)</text><path d="M198,565.1484 L198,590.1484 L383,590.1484 L383,575.1484 L373,565.1484 L198,565.1484 " fill="#FEFFDD" style="stroke:#181818;stroke-width:0.5;"/><path d="M373,565.1484 L373,575.1484 L383,575.1484 L373,565.1484 " fill="#FEFFDD" style="stroke:#181818;stroke-width:0.5;"/><text fill="#000000" font-family="sans-serif" font-size="13" lengthAdjust="spacing" textLength="164.7534" x="204" y="582.2153">status == Acknowledged</text><polygon fill="#181818" points="410.2476,618.9141,400.2476,622.9141,410.2476,626.9141" style="stroke:#181818;stroke-width:1;"/><line style="stroke:#181818;stroke-width:1;" x1="404.2476" x2="1020.2368" y1="622.9141" y2="622.9141"/><text fill="#000000" font-family="sans-serif" font-size="13" lengthAdjust="spacing" textLength="165.2866" x="416.2476" y="617.8481">getPendingNotifications()</text><path d="M5,603.7813 L5,628.7813 L384,628.7813 L384,613.7813 L374,603.7813 L5,603.7813 " fill="#FEFFDD" style="stroke:#181818;stroke-width:0.5;"/><path d="M374,603.7813 L374,613.7813 L384,613.7813 L374,603.7813 " fill="#FEFFDD" style="stroke:#181818;stroke-width:0.5;"/><text fill="#000000" font-family="sans-serif" font-size="13" lengthAdjust="spacing" textLength="358.3379" x="11" y="620.8481">R2.party.notificationId.NotificationStatus == Retrieved</text><polygon fill="#181818" points="1009.2368,651.0469,1019.2368,655.0469,1009.2368,659.0469" style="stroke:#181818;stroke-width:1;"/><line style="stroke:#181818;stroke-width:1;stroke-dasharray:2.0,2.0;" x1="394.2476" x2="1015.2368" y1="655.0469" y2="655.0469"/><text fill="#000000" font-family="sans-serif" font-size="13" font-style="italic" lengthAdjust="spacing" textLength="121.8052" x="401.2476" y="649.981">R2's notifications[]</text><line style="stroke:#181818;stroke-width:1;" x1="1031.2368" x2="1078.2368" y1="679.1797" y2="679.1797"/><line style="stroke:#181818;stroke-width:1;" x1="1078.2368" x2="1078.2368" y1="679.1797" y2="692.1797"/><line style="stroke:#181818;stroke-width:1;" x1="1037.2368" x2="1078.2368" y1="692.1797" y2="692.1797"/><polygon fill="#181818" points="1047.2368,688.1797,1037.2368,692.1797,1047.2368,696.1797" style="stroke:#181818;stroke-width:1;"/><text fill="#000000" font-family="sans-serif" font-size="13" lengthAdjust="spacing" textLength="284.2036" x="1043.2368" y="674.1138">processPendingNotifications(notifications[])</text><line style="stroke:#181818;stroke-width:1;" x1="1036.2368" x2="1078.2368" y1="750.5117" y2="750.5117"/><line style="stroke:#181818;stroke-width:1;" x1="1078.2368" x2="1078.2368" y1="750.5117" y2="763.5117"/><line style="stroke:#181818;stroke-width:1;" x1="1031.2368" x2="1078.2368" y1="763.5117" y2="763.5117"/><polygon fill="#181818" points="1041.2368,759.5117,1031.2368,763.5117,1041.2368,767.5117" style="stroke:#181818;stroke-width:1;"/><text fill="#000000" font-family="sans-serif" font-size="13" lengthAdjust="spacing" textLength="208.0825" x="1043.2368" y="745.4458">processNotification(notification)</text><path d="M707,710.1797 L707,780.1797 L1016,780.1797 L1016,720.1797 L1006,710.1797 L707,710.1797 " fill="#FEFFDD" style="stroke:#181818;stroke-width:0.5;"/><path d="M1006,710.1797 L1006,720.1797 L1016,720.1797 L1006,710.1797 " fill="#FEFFDD" style="stroke:#181818;stroke-width:0.5;"/><text fill="#000000" font-family="sans-serif" font-size="13" lengthAdjust="spacing" textLength="203.874" x="713" y="727.2466">R2 does not act on notification,</text><text fill="#000000" font-family="sans-serif" font-size="13" lengthAdjust="spacing" textLength="147.8242" x="713" y="742.3794">does not update ITMO,</text><text fill="#000000" font-family="sans-serif" font-size="13" lengthAdjust="spacing" textLength="288.0693" x="713" y="757.5122">thus R2.party.notificationId.noticationStatus</text><text fill="#000000" font-family="sans-serif" font-size="13" lengthAdjust="spacing" textLength="123.8872" x="713" y="772.645">remains Retrieved.</text><!--SRC=[fLN1Zfim4BtxAqPxwQ8DHE68kfMgIjLow7QLRKzD3mwUiDOIW-mX5NzVcoHW9wHPTK_WoPkPzvwV24cg4F8Vtxx3pqPmGdYiIMvamKdMYZ7pAbN3DT-2eSuY3MbPKBkj6BDbaeLik2Au-Igr8I3DbTcWrbALApK0g3y-sMC76ajfXtGtm0qyenAemqcv8jHrWvglPIMfMwc7TjsZxJE4FjILw4SVXyAY1ownGBb3lRW6JmDuoXWlIEwS2mTc-mV4dmw53DhU9MVOhQHj7J4FOmdUtK46obdOESpUqnwPYnbmilQjMq8pWoH98cOx3eqPS25yxoytWLk0e6NvGeTbXvvdujGQY6Fuej4k5aTo7ssfNpAV-_XSpETCuAbgh-8y7rqPZHtU1jqPb4XFTe2rsDTXRWV65MuiuUKYSTVI9I6JvF5SoFszNMdLuyvA6LTwQfQB3oQmmFpw7Mhg5GHqXqC6ZQuBD6QIzidKwAeDvtE3-_JdHHSxJ_8r6O0fytdngke_5OeIBsxDHSJyw3X1ljUVnnd2jt3KErdqG_mM-YC-ZeyT0UTZGcPmoZu8afacVdvFwU1O-XznJTyNrpI8Q_gMk0PiXyDxqvfUc_kFj4xSUpfT39m3KMElrqKDQXL8dwtKyFC-1Ft_a2tJYpNpak_kwBlkFkTRBfKPlKyO-mi0]--></g></svg>