<svg xmlns="http://www.w3.org/2000/svg" xmlns:xlink="http://www.w3.org/1999/xlink" contentStyleType="text/css" data-diagram-type="ACTIVITY" height="935px" preserveAspectRatio="none" style="width:919px;height:935px;background:#FFFFFF;" version="1.1" viewBox="0 0 919 935" width="919px" zoomAndPan="magnify"><title>ITMO Lifecycle </title><defs/><g><text fill="#000000" font-family="sans-serif" font-size="14" font-weight="bold" lengthAdjust="spacing" textLength="114.7891" x="398.1892" y="32.9951">ITMO Lifecycle</text><text fill="#000000" font-family="sans-serif" font-size="14" font-weight="bold" lengthAdjust="spacing" textLength="4.874" x="455.5837" y="49.292">&#160;</text><ellipse cx="716.9048" cy="73.5938" fill="#222222" rx="10" ry="10" style="stroke:#222222;stroke-width:1;"/><rect fill="transparent" height="395.3516" style="stroke:#000000;stroke-width:1.5;" width="890.5239" x="11" y="93.5938"/><path d="M178.2129,93.5938 L178.2129,102.8906 L168.2129,112.8906 L11,112.8906 " fill="transparent" style="stroke:#000000;stroke-width:1.5;"/><text fill="#000000" font-family="sans-serif" font-size="14" lengthAdjust="spacing" textLength="157.2129" x="14" y="107.5889">ITMOs do not yet exist</text><path d="M210.5386,129.7422 L210.5386,170.0078 A0,0 0 0 0 210.5386,170.0078 L585.4995,170.0078 A0,0 0 0 0 585.4995,170.0078 L585.4995,153.875 L605.4995,149.875 L585.4995,145.875 L585.4995,139.7422 L575.4995,129.7422 L210.5386,129.7422 A0,0 0 0 0 210.5386,129.7422 " fill="#FEFFDD" style="stroke:#181818;stroke-width:0.5;"/><path d="M575.4995,129.7422 L575.4995,139.7422 L585.4995,139.7422 L575.4995,129.7422 " fill="#FEFFDD" style="stroke:#181818;stroke-width:0.5;"/><text fill="#000000" font-family="sans-serif" font-size="13" lengthAdjust="spacing" textLength="236.9771" x="216.5386" y="146.8091">decision 2 CMA.3, annex, para 18(g)</text><ellipse cx="222.0386" cy="157.5078" fill="#000000" rx="2.5" ry="2.5"/><text fill="#000000" font-family="sans-serif" font-size="13" lengthAdjust="spacing" textLength="341.9609" x="228.5386" y="161.9419">participating Party authorizes Cooperative Approach</text><rect fill="#F1F1F1" height="33.9688" rx="12.5" ry="12.5" style="stroke:#181818;stroke-width:0.5;" width="222.8105" x="605.4995" y="132.8906"/><text fill="#000000" font-family="sans-serif" font-size="12" lengthAdjust="spacing" textLength="202.8105" x="615.4995" y="154.0293">Cooperative Approach Authorized</text><path d="M163.8823,180.0078 L163.8823,280.8047 A0,0 0 0 0 163.8823,280.8047 L532.3813,280.8047 A0,0 0 0 0 532.3813,280.8047 L532.3813,234.4063 L552.3813,230.4063 L532.3813,226.4063 L532.3813,190.0078 L522.3813,180.0078 L163.8823,180.0078 A0,0 0 0 0 163.8823,180.0078 " fill="#FEFFDD" style="stroke:#181818;stroke-width:0.5;"/><path d="M522.3813,180.0078 L522.3813,190.0078 L532.3813,190.0078 L522.3813,180.0078 " fill="#FEFFDD" style="stroke:#181818;stroke-width:0.5;"/><text fill="#000000" font-family="sans-serif" font-size="13" lengthAdjust="spacing" textLength="218.5815" x="169.8823" y="197.0747">decision 2 CMA.3, annex, para 18</text><ellipse cx="175.3823" cy="207.7734" fill="#000000" rx="2.5" ry="2.5"/><text fill="#000000" font-family="sans-serif" font-size="13" lengthAdjust="spacing" textLength="335.499" x="181.8823" y="212.2075">Party submits initial report to register authorization</text><ellipse cx="175.3823" cy="222.9063" fill="#000000" rx="2.5" ry="2.5"/><text fill="#000000" font-family="sans-serif" font-size="13" lengthAdjust="spacing" textLength="304.0083" x="181.8823" y="227.3403">One or more combinations of authorizations of</text><text fill="#000000" font-family="sans-serif" font-size="13" lengthAdjust="spacing" textLength="157.2124" x="186.4116" y="242.4731">Coooperative Approach,</text><text fill="#000000" font-family="sans-serif" font-size="13" lengthAdjust="spacing" textLength="318.8809" x="186.4116" y="257.606">ITMOs relating to the Cooperative Approach, and</text><text fill="#000000" font-family="sans-serif" font-size="13" lengthAdjust="spacing" textLength="201.0303" x="186.4116" y="272.7388">Entities (participating Parties?)</text><rect fill="#F1F1F1" height="33.9688" rx="12.5" ry="12.5" style="stroke:#181818;stroke-width:0.5;" width="329.0469" x="552.3813" y="213.4219"/><text fill="#000000" font-family="sans-serif" font-size="12" lengthAdjust="spacing" textLength="309.0469" x="562.3813" y="234.5605">Party registers Cooperative Approach authorization</text><path d="M21,311.625 L21,351.8906 A0,0 0 0 0 21,351.8906 L522.2856,351.8906 A0,0 0 0 0 522.2856,351.8906 L522.2856,335.7578 L542.2856,331.7578 L522.2856,327.7578 L522.2856,321.625 L512.2856,311.625 L21,311.625 A0,0 0 0 0 21,311.625 " fill="#FEFFDD" style="stroke:#181818;stroke-width:0.5;"/><path d="M512.2856,311.625 L512.2856,321.625 L522.2856,321.625 L512.2856,311.625 " fill="#FEFFDD" style="stroke:#181818;stroke-width:0.5;"/><ellipse cx="32.5" cy="324.2578" fill="#000000" rx="2.5" ry="2.5"/><text fill="#000000" font-family="sans-serif" font-size="13" lengthAdjust="spacing" textLength="463.29" x="39" y="328.6919">Authorization ID must be assigned by secretariat to ensure uniqueness</text><ellipse cx="32.5" cy="339.3906" fill="#000000" rx="2.5" ry="2.5"/><text fill="#000000" font-family="sans-serif" font-size="13" lengthAdjust="spacing" textLength="468.2856" x="39" y="343.8247">Secretariat will also register authorized objects in International Registry</text><rect fill="#F1F1F1" height="61.9063" rx="12.5" ry="12.5" style="stroke:#181818;stroke-width:0.5;" width="349.2383" x="542.2856" y="300.8047"/><text fill="#000000" font-family="sans-serif" font-size="12" lengthAdjust="spacing" textLength="329.2383" x="552.2856" y="321.9434">Secretariat (issuing authority) assigns Authorization ID</text><text fill="#000000" font-family="sans-serif" font-size="12" lengthAdjust="spacing" textLength="260.6836" x="552.2856" y="335.9121">Secretariat registers Cooperative Approach</text><text fill="#000000" font-family="sans-serif" font-size="12" lengthAdjust="spacing" textLength="226.1426" x="552.2856" y="349.8809">in CARP and Common Nomenclatures</text><path d="M235.7852,379.5625 L235.7852,419.8281 A0,0 0 0 0 235.7852,419.8281 L625.6948,419.8281 A0,0 0 0 0 625.6948,419.8281 L625.6948,403.6953 L645.6948,399.6953 L625.6948,395.6953 L625.6948,389.5625 L615.6948,379.5625 L235.7852,379.5625 A0,0 0 0 0 235.7852,379.5625 " fill="#FEFFDD" style="stroke:#181818;stroke-width:0.5;"/><path d="M615.6948,379.5625 L615.6948,389.5625 L625.6948,389.5625 L615.6948,379.5625 " fill="#FEFFDD" style="stroke:#181818;stroke-width:0.5;"/><ellipse cx="247.2852" cy="392.1953" fill="#000000" rx="2.5" ry="2.5"/><text fill="#000000" font-family="sans-serif" font-size="13" lengthAdjust="spacing" textLength="356.9097" x="253.7852" y="396.6294">If not previously registered with Cooperative Approach</text><text fill="#000000" font-family="sans-serif" font-size="13" lengthAdjust="spacing" textLength="4.1323" x="241.7852" y="411.7622">&#160;</text><rect fill="#F1F1F1" height="33.9688" rx="12.5" ry="12.5" style="stroke:#181818;stroke-width:0.5;" width="142.4199" x="645.6948" y="382.7109"/><text fill="#000000" font-family="sans-serif" font-size="12" lengthAdjust="spacing" textLength="122.4199" x="655.6948" y="403.8496">Party registers ITMO</text><path d="M275.5063,436.6797 L275.5063,476.9453 A0,0 0 0 0 275.5063,476.9453 L596.8931,476.9453 A0,0 0 0 0 596.8931,476.9453 L596.8931,460.8125 L616.8931,456.8125 L596.8931,452.8125 L596.8931,446.6797 L586.8931,436.6797 L275.5063,436.6797 A0,0 0 0 0 275.5063,436.6797 " fill="#FEFFDD" style="stroke:#181818;stroke-width:0.5;"/><path d="M586.8931,436.6797 L586.8931,446.6797 L596.8931,446.6797 L586.8931,436.6797 " fill="#FEFFDD" style="stroke:#181818;stroke-width:0.5;"/><ellipse cx="287.0063" cy="449.3125" fill="#000000" rx="2.5" ry="2.5"/><text fill="#000000" font-family="sans-serif" font-size="13" lengthAdjust="spacing" textLength="288.3867" x="293.5063" y="453.7466">Use International Registry InsertAccount API</text><text fill="#000000" font-family="sans-serif" font-size="13" lengthAdjust="spacing" textLength="200.2241" x="298.0356" y="468.8794">to insert accounts into registry</text><rect fill="#F1F1F1" height="33.9688" rx="12.5" ry="12.5" style="stroke:#181818;stroke-width:0.5;" width="200.0234" x="616.8931" y="439.8281"/><text fill="#000000" font-family="sans-serif" font-size="12" lengthAdjust="spacing" textLength="180.0234" x="626.8931" y="460.9668">Insert Acccounts into Registry</text><rect fill="transparent" height="136.2344" style="stroke:#000000;stroke-width:1.5;" width="717.3999" x="111.5059" y="498.9453"/><path d="M319.2354,498.9453 L319.2354,508.2422 L309.2354,518.2422 L111.5059,518.2422 " fill="transparent" style="stroke:#000000;stroke-width:1.5;"/><text fill="#000000" font-family="sans-serif" font-size="14" lengthAdjust="spacing" textLength="197.7295" x="114.5059" y="512.9404">ITMOs exist in Party registry</text><path d="M301.1167,539.6602 L301.1167,564.793 A0,0 0 0 0 301.1167,564.793 L594.9038,564.793 A0,0 0 0 0 594.9038,564.793 L594.9038,557.6602 L614.9038,552.2266 L594.9038,549.6602 L594.9038,549.6602 L584.9038,539.6602 L301.1167,539.6602 A0,0 0 0 0 301.1167,539.6602 " fill="#FEFFDD" style="stroke:#181818;stroke-width:0.5;"/><path d="M584.9038,539.6602 L584.9038,549.6602 L594.9038,549.6602 L584.9038,539.6602 " fill="#FEFFDD" style="stroke:#181818;stroke-width:0.5;"/><ellipse cx="312.6167" cy="552.293" fill="#000000" rx="2.5" ry="2.5"/><text fill="#000000" font-family="sans-serif" font-size="13" lengthAdjust="spacing" textLength="260.7871" x="319.1167" y="556.7271">ITMOs created internally in FTP Registry</text><rect fill="#F1F1F1" height="33.9688" rx="12.5" ry="12.5" style="stroke:#181818;stroke-width:0.5;" width="204.002" x="614.9038" y="535.2422"/><text fill="#000000" font-family="sans-serif" font-size="12" lengthAdjust="spacing" textLength="184.002" x="624.9038" y="556.3809">ITMOs created by FTP Registry</text><path d="M121.5059,593.6289 L121.5059,618.7617 A0,0 0 0 0 121.5059,618.7617 L618.8687,618.7617 A0,0 0 0 0 618.8687,618.7617 L618.8687,611.6289 L638.8687,606.1953 L618.8687,603.6289 L618.8687,603.6289 L608.8687,593.6289 L121.5059,593.6289 A0,0 0 0 0 121.5059,593.6289 " fill="#FEFFDD" style="stroke:#181818;stroke-width:0.5;"/><path d="M608.8687,593.6289 L608.8687,603.6289 L618.8687,603.6289 L608.8687,593.6289 " fill="#FEFFDD" style="stroke:#181818;stroke-width:0.5;"/><ellipse cx="133.0059" cy="606.2617" fill="#000000" rx="2.5" ry="2.5"/><text fill="#000000" font-family="sans-serif" font-size="13" lengthAdjust="spacing" textLength="464.3628" x="139.5059" y="610.6958">This is an internal transfer Action proposal to the International Registry</text><rect fill="#F1F1F1" height="33.9688" rx="12.5" ry="12.5" style="stroke:#181818;stroke-width:0.5;" width="156.0723" x="638.8687" y="589.2109"/><text fill="#000000" font-family="sans-serif" font-size="12" lengthAdjust="spacing" textLength="136.0723" x="648.8687" y="610.3496">First Transfer of ITMOs</text><rect fill="transparent" height="279.2656" style="stroke:#000000;stroke-width:1.5;" width="358.2734" x="549.7681" y="645.1797"/><path d="M814.5161,645.1797 L814.5161,654.4766 L804.5161,664.4766 L549.7681,664.4766 " fill="transparent" style="stroke:#000000;stroke-width:1.5;"/><text fill="#000000" font-family="sans-serif" font-size="14" lengthAdjust="spacing" textLength="254.748" x="552.7681" y="659.1748">ITMOs exist in International Registry</text><rect fill="#555555" height="6" rx="2.5" ry="2.5" style="stroke:#555555;stroke-width:1;" width="314.2734" x="559.7681" y="725.4766"/><rect fill="#F1F1F1" height="33.9688" rx="12.5" ry="12.5" style="stroke:#181818;stroke-width:0.5;" width="147.5234" x="573.7681" y="751.4766"/><text fill="#000000" font-family="sans-serif" font-size="12" lengthAdjust="spacing" textLength="123.709" x="587.5825" y="772.6152">Use or Cancel ITMOs</text><ellipse cx="647.5298" cy="831.4453" fill="transparent" rx="11" ry="11" style="stroke:#222222;stroke-width:1;"/><ellipse cx="647.5298" cy="831.4453" fill="#222222" rx="6" ry="6" style="stroke:#222222;stroke-width:1;"/><rect fill="#F1F1F1" height="33.9688" rx="12.5" ry="12.5" style="stroke:#181818;stroke-width:0.5;" width="110.75" x="749.2915" y="779.9766"/><text fill="#000000" font-family="sans-serif" font-size="12" lengthAdjust="spacing" textLength="90.75" x="759.2915" y="801.1152">Transfer ITMOs</text><rect fill="#555555" height="6" rx="2.5" ry="2.5" style="stroke:#555555;stroke-width:1;" width="314.2734" x="559.7681" y="862.4453"/><polygon fill="#F1F1F1" points="716.9048,681.4766,728.9048,693.4766,716.9048,705.4766,704.9048,693.4766,716.9048,681.4766" style="stroke:#181818;stroke-width:0.5;"/><polygon fill="#F1F1F1" points="716.9048,888.4453,716.9048,888.4453,728.9048,900.4453,716.9048,912.4453,716.9048,912.4453,704.9048,900.4453,716.9048,888.4453" style="stroke:#181818;stroke-width:0.5;"/><line style="stroke:#181818;stroke-width:1;" x1="716.9048" x2="716.9048" y1="166.8594" y2="213.4219"/><polygon fill="#181818" points="712.9048,203.4219,716.9048,213.4219,720.9048,203.4219,716.9048,207.4219" style="stroke:#181818;stroke-width:1;"/><line style="stroke:#181818;stroke-width:1;" x1="716.9048" x2="716.9048" y1="247.3906" y2="300.8047"/><polygon fill="#181818" points="712.9048,290.8047,716.9048,300.8047,720.9048,290.8047,716.9048,294.8047" style="stroke:#181818;stroke-width:1;"/><line style="stroke:#181818;stroke-width:1;" x1="716.9048" x2="716.9048" y1="362.7109" y2="382.7109"/><polygon fill="#181818" points="712.9048,372.7109,716.9048,382.7109,720.9048,372.7109,716.9048,376.7109" style="stroke:#181818;stroke-width:1;"/><line style="stroke:#181818;stroke-width:1;" x1="716.9048" x2="716.9048" y1="416.6797" y2="439.8281"/><polygon fill="#181818" points="712.9048,429.8281,716.9048,439.8281,720.9048,429.8281,716.9048,433.8281" style="stroke:#181818;stroke-width:1;"/><line style="stroke:#181818;stroke-width:1;" x1="716.9048" x2="716.9048" y1="83.5938" y2="132.8906"/><polygon fill="#181818" points="712.9048,122.8906,716.9048,132.8906,720.9048,122.8906,716.9048,126.8906" style="stroke:#181818;stroke-width:1;"/><line style="stroke:#181818;stroke-width:1;" x1="716.9048" x2="716.9048" y1="569.2109" y2="589.2109"/><polygon fill="#181818" points="712.9048,579.2109,716.9048,589.2109,720.9048,579.2109,716.9048,583.2109" style="stroke:#181818;stroke-width:1;"/><line style="stroke:#181818;stroke-width:1;" x1="716.9048" x2="716.9048" y1="473.7969" y2="535.2422"/><polygon fill="#181818" points="712.9048,525.2422,716.9048,535.2422,720.9048,525.2422,716.9048,529.2422" style="stroke:#181818;stroke-width:1;"/><line style="stroke:#181818;stroke-width:1;" x1="647.5298" x2="647.5298" y1="785.4453" y2="820.4453"/><polygon fill="#181818" points="643.5298,810.4453,647.5298,820.4453,651.5298,810.4453,647.5298,814.4453" style="stroke:#181818;stroke-width:1;"/><line style="stroke:#181818;stroke-width:1;" x1="647.5298" x2="647.5298" y1="731.4766" y2="751.4766"/><polygon fill="#181818" points="643.5298,741.4766,647.5298,751.4766,651.5298,741.4766,647.5298,745.4766" style="stroke:#181818;stroke-width:1;"/><line style="stroke:#181818;stroke-width:1;" x1="804.6665" x2="804.6665" y1="731.4766" y2="779.9766"/><polygon fill="#181818" points="800.6665,769.9766,804.6665,779.9766,808.6665,769.9766,804.6665,773.9766" style="stroke:#181818;stroke-width:1;"/><line style="stroke:#181818;stroke-width:1;" x1="804.6665" x2="804.6665" y1="813.9453" y2="862.4453"/><polygon fill="#181818" points="800.6665,852.4453,804.6665,862.4453,808.6665,852.4453,804.6665,856.4453" style="stroke:#181818;stroke-width:1;"/><line style="stroke:#181818;stroke-width:1;" x1="716.9048" x2="716.9048" y1="705.4766" y2="725.4766"/><polygon fill="#181818" points="712.9048,715.4766,716.9048,725.4766,720.9048,715.4766,716.9048,719.4766" style="stroke:#181818;stroke-width:1;"/><line style="stroke:#181818;stroke-width:1;" x1="728.9048" x2="886.0415" y1="900.4453" y2="900.4453"/><polygon fill="#181818" points="882.0415,806.9609,886.0415,796.9609,890.0415,806.9609,886.0415,802.9609" style="stroke:#181818;stroke-width:1;"/><line style="stroke:#181818;stroke-width:1;" x1="886.0415" x2="886.0415" y1="693.4766" y2="900.4453"/><line style="stroke:#181818;stroke-width:1;" x1="886.0415" x2="728.9048" y1="693.4766" y2="693.4766"/><polygon fill="#181818" points="738.9048,689.4766,728.9048,693.4766,738.9048,697.4766,734.9048,693.4766" style="stroke:#181818;stroke-width:1;"/><line style="stroke:#181818;stroke-width:1;" x1="716.9048" x2="716.9048" y1="868.4453" y2="888.4453"/><polygon fill="#181818" points="712.9048,878.4453,716.9048,888.4453,720.9048,878.4453,716.9048,882.4453" style="stroke:#181818;stroke-width:1;"/><line style="stroke:#181818;stroke-width:1;" x1="716.9048" x2="716.9048" y1="623.1797" y2="681.4766"/><polygon fill="#181818" points="712.9048,671.4766,716.9048,681.4766,720.9048,671.4766,716.9048,675.4766" style="stroke:#181818;stroke-width:1;"/><!--SRC=[dLLBZzCm4BxdLyonNLL8m0Nj7b1KMAaIorPBkN5ndKapaDZ1ThPR4F-TiTs7iscw21ygEPcPxp6JgIDN8onMT_VmYKgKEydNRohBh1F6PLdBl-H8gn1ZeT2Wj8CTEi0diWv-Py0d_5pFjMxH24UF27dR6Yra1NddActe5nOt8Gfy0OGQIxU_0nGeoNgGDp2_or-zdO5G2fzcmF02Nh-RRAR7s2i8d2Ir3AGsiEJR3iG1nS8v5ljiL4L0pmwCOxB13Kj1SpxtM5ju7_vVHA8WmjfktP2pG8eT5ZNJQBLnuFIHK1ywAN2l4BI1HXi4gPirgH1XGPVz7F_acESFAnnAdFL2OgSDrj5WvkCgF6kDbrZqSZygFoxSXScmI_pu_NIi4rzG6kIP8-5WGjPsFcilnUsc8Aob3Sl9KtMm-12oq-JBpGpXf62UFomzUGvg6YxqMJUe92lk3Dhn7byDyA7f-2jOuvuW5h3cpYPys3vKbij2f-XdXmgjJUgbrBTKro1gUsO0kAvUVqSPnWKMYj_5blFSF8HWinjQEpRcliCtf_VdT2xAyA6t1Xz9TxO-fJELBRdglBtP28E5iiYpdKifTQU22ZRcmFm5BbyjZaY6M3UFLI5VBdhJo10KWKKFrwIE3Td-6UwzkEpO-jHAna_NNupaTWeNn-1sjVnNYVrSYc9hTfqXqp9Z_jwIONuh8vGjUMnu3OIABw2kAc97B7y8HqXmXngv3FgviQss_aNS0nTchy_haeiZtKpSv6N8Nfpk_fJQ_EZrzpgC1Y_2kL0IwrJpuLYdsru141j1gb_cwDkp0bvG3pIX1jkA-BzoCZse_Gi0]--></g></svg>