<svg xmlns="http://www.w3.org/2000/svg" xmlns:xlink="http://www.w3.org/1999/xlink" contentStyleType="text/css" data-diagram-type="SEQUENCE" height="1350px" preserveAspectRatio="none" style="width:1540px;height:1350px;background:#FFFFFF;" version="1.1" viewBox="0 0 1540 1350" width="1540.625px" zoomAndPan="magnify"><defs><filter height="300%" id="fh48dgfiue3or" width="300%" x="-1" y="-1"><feGaussianBlur result="blurOut" stdDeviation="6.25"/><feColorMatrix in="blurOut" result="blurOut2" type="matrix" values="0 0 0 0 0 0 0 0 0 0 0 0 0 0 0 0 0 0 .4 0"/><feOffset dx="12.5" dy="12.5" in="blurOut2" result="blurOut3"/><feBlend in="SourceGraphic" in2="blurOut3" mode="normal"/></filter></defs><g><rect fill="transparent" filter="url(#fh48dgfiue3or)" height="417.7002" style="stroke:#000000;stroke-width:4.6875;" width="1474.6826" x="31.25" y="358.0078"/><rect fill="transparent" filter="url(#fh48dgfiue3or)" height="367.2852" style="stroke:#000000;stroke-width:4.6875;" width="1474.6826" x="31.25" y="819.458"/><g><title>Sending registry</title><rect fill="transparent" height="1208.1055" width="25" x="256.7642" y="122.8027"/><line style="stroke:#181818;stroke-width:1.5625;stroke-dasharray:5.0,5.0;" x1="268.75" x2="268.75" y1="122.8027" y2="1330.9082"/></g><g><title>Interoperability hub</title><rect fill="transparent" height="1208.1055" width="25" x="738.0188" y="122.8027"/><line style="stroke:#181818;stroke-width:1.5625;stroke-dasharray:5.0,5.0;" x1="747.9034" x2="747.9034" y1="122.8027" y2="1330.9082"/></g><g><title>Receiving registry</title><rect fill="transparent" height="1208.1055" width="25" x="1237.3459" y="122.8027"/><line style="stroke:#181818;stroke-width:1.5625;stroke-dasharray:5.0,5.0;" x1="1246.8842" x2="1246.8842" y1="122.8027" y2="1330.9082"/></g><rect fill="#E3E3E3" filter="url(#fh48dgfiue3or)" height="94.6777" rx="7.8125" ry="7.8125" style="stroke:#181818;stroke-width:1.5625;" width="404.1534" x="62.5" y="15.625"/><text fill="#000000" font-family="sans-serif" font-size="43.75" lengthAdjust="spacing" textLength="360.4034" x="84.375" y="78.1097">Sending registry</text><rect fill="#E3E3E3" filter="url(#fh48dgfiue3or)" height="94.6777" rx="7.8125" ry="7.8125" style="stroke:#181818;stroke-width:1.5625;" width="477.1057" x="507.2784" y="15.625"/><text fill="#000000" font-family="sans-serif" font-size="43.75" lengthAdjust="spacing" textLength="433.3557" x="529.1534" y="78.1097">Interoperability hub</text><rect fill="#E3E3E3" filter="url(#fh48dgfiue3or)" height="94.6777" rx="7.8125" ry="7.8125" style="stroke:#181818;stroke-width:1.5625;" width="440.2985" x="1025.0092" y="15.625"/><text fill="#000000" font-family="sans-serif" font-size="43.75" lengthAdjust="spacing" textLength="396.5485" x="1046.8842" y="78.1097">Receiving registry</text><polygon fill="#181818" points="713.0188,207.5928,744.2688,220.0928,713.0188,232.5928,725.5188,220.0928" style="stroke:#181818;stroke-width:3.125;"/><line style="stroke:#181818;stroke-width:3.125;" x1="269.2642" x2="731.7688" y1="220.0928" y2="220.0928"/><text fill="#000000" font-family="sans-serif" font-size="40.625" lengthAdjust="spacing" textLength="174.0448" x="291.1392" y="204.2618">Proposal</text><polygon fill="#181818" points="1212.3459,298.6328,1243.5959,311.1328,1212.3459,323.6328,1224.8459,311.1328" style="stroke:#181818;stroke-width:3.125;"/><line style="stroke:#181818;stroke-width:3.125;" x1="750.5188" x2="1231.0959" y1="311.1328" y2="311.1328"/><text fill="#000000" font-family="sans-serif" font-size="40.625" lengthAdjust="spacing" textLength="174.0448" x="772.3938" y="295.3018">Proposal</text><path d="M31.25,358.0078 L1082.3471,358.0078 L1082.3471,380.2979 L1051.0971,411.5479 L31.25,411.5479 L31.25,358.0078 " fill="#EEEEEE" style="stroke:#000000;stroke-width:4.6875;"/><rect fill="transparent" height="417.7002" style="stroke:#000000;stroke-width:4.6875;" width="1474.6826" x="31.25" y="358.0078"/><text fill="#000000" font-family="sans-serif" font-size="40.625" font-weight="bold" lengthAdjust="spacing" textLength="910.4721" x="78.125" y="398.8419">Message replay by a registry (example)</text><line style="stroke:#181818;stroke-width:6.25;" x1="772.3938" x2="803.6438" y1="461.9629" y2="493.2129"/><line style="stroke:#181818;stroke-width:6.25;" x1="772.3938" x2="803.6438" y1="493.2129" y2="461.9629"/><line style="stroke:#181818;stroke-width:3.125;" x1="788.0188" x2="1246.7209" y1="477.5879" y2="477.5879"/><text fill="#000000" font-family="sans-serif" font-size="40.625" lengthAdjust="spacing" textLength="307.6035" x="803.6438" y="461.7569">Acceptance (1)</text><line style="stroke:#181818;stroke-width:6.25;" x1="772.3938" x2="803.6438" y1="553.0029" y2="584.2529"/><line style="stroke:#181818;stroke-width:6.25;" x1="772.3938" x2="803.6438" y1="584.2529" y2="553.0029"/><line style="stroke:#181818;stroke-width:3.125;" x1="788.0188" x2="1246.7209" y1="568.6279" y2="568.6279"/><text fill="#000000" font-family="sans-serif" font-size="40.625" lengthAdjust="spacing" textLength="307.6035" x="803.6438" y="552.7969">Acceptance (2)</text><polygon fill="#181818" points="784.8938,647.168,753.6438,659.668,784.8938,672.168,772.3938,659.668" style="stroke:#181818;stroke-width:3.125;"/><line style="stroke:#181818;stroke-width:3.125;" x1="766.1438" x2="1246.7209" y1="659.668" y2="659.668"/><text fill="#000000" font-family="sans-serif" font-size="40.625" lengthAdjust="spacing" textLength="307.6035" x="803.6438" y="643.837">Acceptance (3)</text><polygon fill="#181818" points="303.6392,738.208,272.3892,750.708,303.6392,763.208,291.1392,750.708" style="stroke:#181818;stroke-width:3.125;"/><line style="stroke:#181818;stroke-width:3.125;" x1="284.8892" x2="747.3938" y1="750.708" y2="750.708"/><text fill="#000000" font-family="sans-serif" font-size="40.625" lengthAdjust="spacing" textLength="237.1445" x="322.3892" y="734.877">Acceptance</text><path d="M31.25,819.458 L1037.0407,819.458 L1037.0407,841.748 L1005.7907,872.998 L31.25,872.998 L31.25,819.458 " fill="#EEEEEE" style="stroke:#000000;stroke-width:4.6875;"/><rect fill="transparent" height="367.2852" style="stroke:#000000;stroke-width:4.6875;" width="1474.6826" x="31.25" y="819.458"/><text fill="#000000" font-family="sans-serif" font-size="40.625" font-weight="bold" lengthAdjust="spacing" textLength="865.1657" x="78.125" y="860.2921">Message replay by the hub (example)</text><line style="stroke:#181818;stroke-width:6.25;" x1="772.3938" x2="803.6438" y1="923.4131" y2="954.6631"/><line style="stroke:#181818;stroke-width:6.25;" x1="772.3938" x2="803.6438" y1="954.6631" y2="923.4131"/><line style="stroke:#181818;stroke-width:3.125;" x1="788.0188" x2="1246.7209" y1="939.0381" y2="939.0381"/><text fill="#000000" font-family="sans-serif" font-size="40.625" lengthAdjust="spacing" textLength="237.1445" x="803.6438" y="923.2071">Acceptance</text><line style="stroke:#181818;stroke-width:3.125;" x1="750.5188" x2="881.7688" y1="1030.0781" y2="1030.0781"/><line style="stroke:#181818;stroke-width:3.125;" x1="881.7688" x2="881.7688" y1="1030.0781" y2="1070.7031"/><line style="stroke:#181818;stroke-width:3.125;" x1="753.6438" x2="881.7688" y1="1070.7031" y2="1070.7031"/><polygon fill="#181818" points="784.8938,1058.2031,753.6438,1070.7031,784.8938,1083.2031,772.3938,1070.7031" style="stroke:#181818;stroke-width:3.125;"/><text fill="#000000" font-family="sans-serif" font-size="40.625" lengthAdjust="spacing" textLength="237.1445" x="772.3938" y="1014.2471">Acceptance</text><polygon fill="#181818" points="303.6392,1149.2432,272.3892,1161.7432,303.6392,1174.2432,291.1392,1161.7432" style="stroke:#181818;stroke-width:3.125;"/><line style="stroke:#181818;stroke-width:3.125;" x1="284.8892" x2="747.3938" y1="1161.7432" y2="1161.7432"/><text fill="#000000" font-family="sans-serif" font-size="40.625" lengthAdjust="spacing" textLength="237.1445" x="322.3892" y="1145.9122">Acceptance</text><polygon fill="#181818" points="713.0188,1262.1582,744.2688,1274.6582,713.0188,1287.1582,725.5188,1274.6582" style="stroke:#181818;stroke-width:3.125;"/><line style="stroke:#181818;stroke-width:3.125;" x1="269.2642" x2="731.7688" y1="1274.6582" y2="1274.6582"/><text fill="#000000" font-family="sans-serif" font-size="40.625" lengthAdjust="spacing" textLength="232.6813" x="291.1392" y="1258.8272">Completion</text><!--SRC=[XP11JiD034NtFeNLLLbKAdJ7eX9YnQ8IWXCu4vCPDHcFx0aajoTJQ9L2gsx_-th-ikr3JAJKOPq2RjPhi5FIIHJdLJh6h3tFY7cgvIl4vWU03pNZXqYkP02OEZcua2XcNBnph4jHkGcMTLmW6TfvvoLcLaciL8Ksv15zNnrw_hptnex3vp-R0XYkjkWVyNNIY54BlWGw2w1HwHFks8mQdWIffH6h4UaamoKFrAMMxm1HSJKKuvDpd395nxYylmOUVi7sBzWKSDXYSm3JKwulofxB1sxCEOelXXUk7L_qBCMPWqJu1W00]--></g></svg>