<svg xmlns="http://www.w3.org/2000/svg" xmlns:xlink="http://www.w3.org/1999/xlink" contentStyleType="text/css" data-diagram-type="DESCRIPTION" height="1918.75px" preserveAspectRatio="none" style="width:2706px;height:1918px;background:#FFFFFF;" version="1.1" viewBox="0 0 2706 1918" width="2706.25px" zoomAndPan="magnify"><defs><filter height="300%" id="f3h1wfvg79lnl" width="300%" x="-1" y="-1"><feGaussianBlur result="blurOut" stdDeviation="6.25"/><feColorMatrix in="blurOut" result="blurOut2" type="matrix" values="0 0 0 0 0 0 0 0 0 0 0 0 0 0 0 0 0 0 .4 0"/><feOffset dx="12.5" dy="12.5" in="blurOut2" result="blurOut3"/><feBlend in="SourceGraphic" in2="blurOut3" mode="normal"/></filter></defs><g><!--cluster CARP--><g id="cluster_CARP"><polygon fill="transparent" filter="url(#f3h1wfvg79lnl)" points="600,1578.125,631.25,1546.875,1218.75,1546.875,1218.75,1834.375,1187.5,1865.625,600,1865.625,600,1578.125" style="stroke:#181818;stroke-width:3.125;"/><line style="stroke:#181818;stroke-width:3.125;" x1="1187.5" x2="1218.75" y1="1578.125" y2="1546.875"/><line style="stroke:#181818;stroke-width:3.125;" x1="600" x2="1187.5" y1="1578.125" y2="1578.125"/><line style="stroke:#181818;stroke-width:3.125;" x1="1187.5" x2="1187.5" y1="1578.125" y2="1865.625"/><text fill="#000000" font-family="sans-serif" font-size="43.75" font-weight="bold" lengthAdjust="spacing" textLength="131.72" x="831.015" y="1628.1097">CARP</text></g><!--cluster International Registry--><g id="cluster_International Registry"><polygon fill="transparent" filter="url(#f3h1wfvg79lnl)" points="228.125,50,259.375,18.75,1590.625,18.75,1590.625,793.75,1559.375,825,228.125,825,228.125,50" style="stroke:#181818;stroke-width:3.125;"/><line style="stroke:#181818;stroke-width:3.125;" x1="1559.375" x2="1590.625" y1="50" y2="18.75"/><line style="stroke:#181818;stroke-width:3.125;" x1="228.125" x2="1559.375" y1="50" y2="50"/><line style="stroke:#181818;stroke-width:3.125;" x1="1559.375" x2="1559.375" y1="50" y2="825"/><text fill="#000000" font-family="sans-serif" font-size="43.75" font-weight="bold" lengthAdjust="spacing" textLength="543.8416" x="624.9542" y="99.9847">International Registry</text></g><!--entity sp--><g id="elem_sp"><rect fill="#F1F1F1" filter="url(#f3h1wfvg79lnl)" height="144.6777" rx="7.8125" ry="7.8125" style="stroke:#181818;stroke-width:1.5625;" width="517.8314" x="650" y="1671.875"/><rect fill="#F1F1F1" height="31.25" style="stroke:#181818;stroke-width:1.5625;" width="46.875" x="1105.3314" y="1687.5"/><rect fill="#F1F1F1" height="6.25" style="stroke:#181818;stroke-width:1.5625;" width="12.5" x="1099.0814" y="1693.75"/><rect fill="#F1F1F1" height="6.25" style="stroke:#181818;stroke-width:1.5625;" width="12.5" x="1099.0814" y="1706.25"/><text fill="#000000" font-family="sans-serif" font-size="43.75" lengthAdjust="spacing" textLength="392.8314" x="696.875" y="1774.9847">Submission portal</text></g><!--entity h--><g id="elem_h"><rect fill="#F1F1F1" filter="url(#f3h1wfvg79lnl)" height="220.6055" rx="7.8125" ry="7.8125" style="stroke:#181818;stroke-width:1.5625;" width="626.7792" x="595.3125" y="553.125"/><rect fill="#F1F1F1" height="31.25" style="stroke:#181818;stroke-width:1.5625;" width="46.875" x="1159.5917" y="568.75"/><rect fill="#F1F1F1" height="6.25" style="stroke:#181818;stroke-width:1.5625;" width="12.5" x="1153.3417" y="575"/><rect fill="#F1F1F1" height="6.25" style="stroke:#181818;stroke-width:1.5625;" width="12.5" x="1153.3417" y="587.5"/><text fill="#000000" font-family="sans-serif" font-size="43.75" font-weight="bold" lengthAdjust="spacing" textLength="501.7792" x="642.1875" y="656.2347">Interoperability Hub</text><line style="stroke:#181818;stroke-width:3.125;" x1="598.4375" x2="1218.9667" y1="666.5527" y2="666.5527"/><text fill="#000000" font-family="sans-serif" font-size="43.75" lengthAdjust="spacing" textLength="374.3317" x="705.9113" y="719.6625">Applies guidance</text></g><!--entity rs1--><g id="elem_rs1"><rect fill="#F1F1F1" filter="url(#f3h1wfvg79lnl)" height="220.6055" rx="7.8125" ry="7.8125" style="stroke:#181818;stroke-width:1.5625;" width="576.8555" x="964.0625" y="143.75"/><rect fill="#F1F1F1" height="31.25" style="stroke:#181818;stroke-width:1.5625;" width="46.875" x="1478.418" y="159.375"/><rect fill="#F1F1F1" height="6.25" style="stroke:#181818;stroke-width:1.5625;" width="12.5" x="1472.168" y="165.625"/><rect fill="#F1F1F1" height="6.25" style="stroke:#181818;stroke-width:1.5625;" width="12.5" x="1472.168" y="178.125"/><text fill="#000000" font-family="sans-serif" font-size="43.75" font-weight="bold" lengthAdjust="spacing" textLength="451.8555" x="1010.9375" y="246.8597">Registry Section 1</text><line style="stroke:#181818;stroke-width:3.125;" x1="967.1875" x2="1537.793" y1="257.1777" y2="257.1777"/><text fill="#000000" font-family="sans-serif" font-size="43.75" lengthAdjust="spacing" textLength="439.5935" x="1017.0685" y="310.2875">May apply guidance</text></g><!--entity rs2--><g id="elem_rs2"><rect fill="#F1F1F1" filter="url(#f3h1wfvg79lnl)" height="220.6055" rx="7.8125" ry="7.8125" style="stroke:#181818;stroke-width:1.5625;" width="576.8555" x="276.5625" y="143.75"/><rect fill="#F1F1F1" height="31.25" style="stroke:#181818;stroke-width:1.5625;" width="46.875" x="790.918" y="159.375"/><rect fill="#F1F1F1" height="6.25" style="stroke:#181818;stroke-width:1.5625;" width="12.5" x="784.668" y="165.625"/><rect fill="#F1F1F1" height="6.25" style="stroke:#181818;stroke-width:1.5625;" width="12.5" x="784.668" y="178.125"/><text fill="#000000" font-family="sans-serif" font-size="43.75" font-weight="bold" lengthAdjust="spacing" textLength="451.8555" x="323.4375" y="246.8597">Registry Section 2</text><line style="stroke:#181818;stroke-width:3.125;" x1="279.6875" x2="850.293" y1="257.1777" y2="257.1777"/><text fill="#000000" font-family="sans-serif" font-size="43.75" lengthAdjust="spacing" textLength="439.5935" x="329.5685" y="310.2875">May apply guidance</text></g><!--entity aef1--><g id="elem_aef1"><path d="M406.25,1379.6875 L406.25,1477.4902 A7.8125,7.8125 0 0 0 414.0625,1485.3027 L543.6737,1485.3027 A7.8125,7.8125 0 0 0 551.4862,1477.4902 L551.4862,1403.125 L520.2362,1371.875 L414.0625,1371.875 A7.8125,7.8125 0 0 0 406.25,1379.6875 " fill="#F1F1F1" filter="url(#f3h1wfvg79lnl)" style="stroke:#181818;stroke-width:1.5625;"/><path d="M520.2362,1371.875 L520.2362,1395.3125 A7.8125,7.8125 0 0 0 528.0487,1403.125 L551.4862,1403.125 " fill="#F1F1F1" style="stroke:#181818;stroke-width:1.5625;"/><text fill="#000000" font-family="sans-serif" font-size="43.75" lengthAdjust="spacing" textLength="82.7362" x="437.5" y="1443.7347">AEF</text></g><!--entity aef2--><g id="elem_aef2"><path d="M837.5,1379.6875 L837.5,1477.4902 A7.8125,7.8125 0 0 0 845.3125,1485.3027 L974.9237,1485.3027 A7.8125,7.8125 0 0 0 982.7362,1477.4902 L982.7362,1403.125 L951.4862,1371.875 L845.3125,1371.875 A7.8125,7.8125 0 0 0 837.5,1379.6875 " fill="#F1F1F1" filter="url(#f3h1wfvg79lnl)" style="stroke:#181818;stroke-width:1.5625;"/><path d="M951.4862,1371.875 L951.4862,1395.3125 A7.8125,7.8125 0 0 0 959.2987,1403.125 L982.7362,1403.125 " fill="#F1F1F1" style="stroke:#181818;stroke-width:1.5625;"/><text fill="#000000" font-family="sans-serif" font-size="43.75" lengthAdjust="spacing" textLength="82.7362" x="868.75" y="1443.7347">AEF</text></g><!--entity aef3--><g id="elem_aef3"><path d="M1668.75,1379.6875 L1668.75,1477.4902 A7.8125,7.8125 0 0 0 1676.5625,1485.3027 L1806.1737,1485.3027 A7.8125,7.8125 0 0 0 1813.9862,1477.4902 L1813.9862,1403.125 L1782.7362,1371.875 L1676.5625,1371.875 A7.8125,7.8125 0 0 0 1668.75,1379.6875 " fill="#F1F1F1" filter="url(#f3h1wfvg79lnl)" style="stroke:#181818;stroke-width:1.5625;"/><path d="M1782.7362,1371.875 L1782.7362,1395.3125 A7.8125,7.8125 0 0 0 1790.5487,1403.125 L1813.9862,1403.125 " fill="#F1F1F1" style="stroke:#181818;stroke-width:1.5625;"/><text fill="#000000" font-family="sans-serif" font-size="43.75" lengthAdjust="spacing" textLength="82.7362" x="1700" y="1443.7347">AEF</text></g><!--entity r1--><g id="elem_r1"><polygon fill="#F1F1F1" filter="url(#f3h1wfvg79lnl)" points="50,993.75,81.25,962.5,549.3317,962.5,549.3317,1151.8555,518.0817,1183.1055,50,1183.1055,50,993.75" style="stroke:#181818;stroke-width:1.5625;"/><line style="stroke:#181818;stroke-width:1.5625;" x1="518.0817" x2="549.3317" y1="993.75" y2="962.5"/><line style="stroke:#181818;stroke-width:1.5625;" x1="50" x2="518.0817" y1="993.75" y2="993.75"/><line style="stroke:#181818;stroke-width:1.5625;" x1="518.0817" x2="518.0817" y1="993.75" y2="1183.1055"/><text fill="#000000" font-family="sans-serif" font-size="43.75" font-weight="bold" lengthAdjust="spacing" textLength="252.3956" x="157.843" y="1065.6097">Registry 1</text><line style="stroke:#181818;stroke-width:3.125;" x1="50" x2="518.0817" y1="1075.9277" y2="1075.9277"/><line style="stroke:#181818;stroke-width:3.125;" x1="518.0817" x2="549.3317" y1="1075.9277" y2="1044.6777"/><text fill="#000000" font-family="sans-serif" font-size="43.75" lengthAdjust="spacing" textLength="374.3317" x="96.875" y="1129.0375">Applies guidance</text></g><!--entity r2--><g id="elem_r2"><polygon fill="#F1F1F1" filter="url(#f3h1wfvg79lnl)" points="659.375,993.75,690.625,962.5,1158.7067,962.5,1158.7067,1151.8555,1127.4567,1183.1055,659.375,1183.1055,659.375,993.75" style="stroke:#181818;stroke-width:1.5625;"/><line style="stroke:#181818;stroke-width:1.5625;" x1="1127.4567" x2="1158.7067" y1="993.75" y2="962.5"/><line style="stroke:#181818;stroke-width:1.5625;" x1="659.375" x2="1127.4567" y1="993.75" y2="993.75"/><line style="stroke:#181818;stroke-width:1.5625;" x1="1127.4567" x2="1127.4567" y1="993.75" y2="1183.1055"/><text fill="#000000" font-family="sans-serif" font-size="43.75" font-weight="bold" lengthAdjust="spacing" textLength="252.3956" x="767.218" y="1065.6097">Registry 2</text><line style="stroke:#181818;stroke-width:3.125;" x1="659.375" x2="1127.4567" y1="1075.9277" y2="1075.9277"/><line style="stroke:#181818;stroke-width:3.125;" x1="1127.4567" x2="1158.7067" y1="1075.9277" y2="1044.6777"/><text fill="#000000" font-family="sans-serif" font-size="43.75" lengthAdjust="spacing" textLength="374.3317" x="706.25" y="1129.0375">Applies guidance</text></g><!--entity r3--><g id="elem_r3"><polygon fill="#F1F1F1" filter="url(#f3h1wfvg79lnl)" points="1984.375,993.75,2015.625,962.5,2654.2419,962.5,2654.2419,1151.8555,2622.9919,1183.1055,1984.375,1183.1055,1984.375,993.75" style="stroke:#181818;stroke-width:1.5625;"/><line style="stroke:#181818;stroke-width:1.5625;" x1="2622.9919" x2="2654.2419" y1="993.75" y2="962.5"/><line style="stroke:#181818;stroke-width:1.5625;" x1="1984.375" x2="2622.9919" y1="993.75" y2="993.75"/><line style="stroke:#181818;stroke-width:1.5625;" x1="2622.9919" x2="2622.9919" y1="993.75" y2="1183.1055"/><text fill="#000000" font-family="sans-serif" font-size="43.75" font-weight="bold" lengthAdjust="spacing" textLength="252.3956" x="2177.4857" y="1065.6097">Registry 3</text><line style="stroke:#181818;stroke-width:3.125;" x1="1984.375" x2="2622.9919" y1="1075.9277" y2="1075.9277"/><line style="stroke:#181818;stroke-width:3.125;" x1="2622.9919" x2="2654.2419" y1="1075.9277" y2="1044.6777"/><text fill="#000000" font-family="sans-serif" font-size="43.75" lengthAdjust="spacing" textLength="544.8669" x="2031.25" y="1129.0375">Does not apply guidance</text></g><!--entity a6r--><g id="elem_a6r"><polygon fill="#F1F1F1" filter="url(#f3h1wfvg79lnl)" points="1270.3125,993.75,1301.5625,962.5,1871.9482,962.5,1871.9482,1151.8555,1840.6982,1183.1055,1270.3125,1183.1055,1270.3125,993.75" style="stroke:#181818;stroke-width:1.5625;"/><line style="stroke:#181818;stroke-width:1.5625;" x1="1840.6982" x2="1871.9482" y1="993.75" y2="962.5"/><line style="stroke:#181818;stroke-width:1.5625;" x1="1270.3125" x2="1840.6982" y1="993.75" y2="993.75"/><line style="stroke:#181818;stroke-width:1.5625;" x1="1840.6982" x2="1840.6982" y1="993.75" y2="1183.1055"/><text fill="#000000" font-family="sans-serif" font-size="43.75" font-weight="bold" lengthAdjust="spacing" textLength="476.6357" x="1317.1875" y="1065.6097">Article 6.4 Registry</text><line style="stroke:#181818;stroke-width:3.125;" x1="1270.3125" x2="1840.6982" y1="1075.9277" y2="1075.9277"/><line style="stroke:#181818;stroke-width:3.125;" x1="1840.6982" x2="1871.9482" y1="1075.9277" y2="1044.6777"/><text fill="#000000" font-family="sans-serif" font-size="43.75" lengthAdjust="spacing" textLength="439.5935" x="1335.7086" y="1129.0375">May apply guidance</text></g><!--link rs1 to h--><g id="link_rs1_h"><path d="M1148.8358,380.1124 C1099.5233,437.9562 1063.2586,480.4507 1013.9149,538.3257 " fill="transparent" id="rs1-h" style="stroke:#181818;stroke-width:3.125;stroke-dasharray:1.0,3.0;"/><polygon fill="#181818" points="1161,365.8438,1133.2413,379.1373,1150.8632,377.7343,1152.2661,395.3562,1161,365.8438" style="stroke:#181818;stroke-width:3.125;"/><polygon fill="#181818" points="1001.75,552.5938,1029.5094,539.3015,1011.8874,540.7037,1010.4852,523.0817,1001.75,552.5938" style="stroke:#181818;stroke-width:3.125;"/></g><!--link rs2 to h--><g id="link_rs2_h"><path d="M669.9142,380.1124 C719.2267,437.9562 755.4914,480.4507 804.8351,538.3257 " fill="transparent" id="rs2-h" style="stroke:#181818;stroke-width:3.125;stroke-dasharray:1.0,3.0;"/><polygon fill="#181818" points="657.75,365.8438,666.4839,395.3562,667.8868,377.7343,685.5087,379.1373,657.75,365.8438" style="stroke:#181818;stroke-width:3.125;"/><polygon fill="#181818" points="817,552.5938,808.2648,523.0817,806.8626,540.7037,789.2406,539.3015,817,552.5938" style="stroke:#181818;stroke-width:3.125;"/></g><!--link h to r1--><g id="link_h_r1"><path d="M730.4264,785.5664 C643.0201,843.4102 566.8886,893.7499 479.3886,951.6249 " fill="transparent" id="h-r1" style="stroke:#181818;stroke-width:3.125;"/><polygon fill="#181818" points="746.0625,775.2188,715.7099,780.3162,733.0324,783.8418,729.5068,801.1643,746.0625,775.2188" style="stroke:#181818;stroke-width:3.125;"/><polygon fill="#181818" points="463.75,961.9688,494.1039,956.8787,476.7822,953.3489,480.3121,936.0272,463.75,961.9688" style="stroke:#181818;stroke-width:3.125;"/></g><!--link h to r2--><g id="link_h_r2"><path d="M909.375,793.9688 C909.375,851.8125 909.375,885.3438 909.375,943.2188 " fill="transparent" id="h-r2" style="stroke:#181818;stroke-width:3.125;"/><polygon fill="#181818" points="909.375,775.2188,896.875,803.3438,909.375,790.8438,921.875,803.3438,909.375,775.2188" style="stroke:#181818;stroke-width:3.125;"/><polygon fill="#181818" points="909.375,961.9688,921.875,933.8438,909.375,946.3438,896.875,933.8438,909.375,961.9688" style="stroke:#181818;stroke-width:3.125;"/></g><!--link h to a6r--><g id="link_h_a6r"><path d="M1102.924,784.9652 C1197.9865,842.809 1282.7005,894.3481 1377.8255,952.2231 " fill="transparent" id="h-a6r" style="stroke:#181818;stroke-width:3.125;stroke-dasharray:1.0,3.0;"/><polygon fill="#181818" points="1086.9063,775.2188,1104.4352,800.517,1100.2544,783.3408,1117.4305,779.16,1086.9063,775.2188" style="stroke:#181818;stroke-width:3.125;"/><polygon fill="#181818" points="1393.8438,961.9688,1376.3135,936.6714,1380.4952,953.8474,1363.3193,958.0291,1393.8438,961.9688" style="stroke:#181818;stroke-width:3.125;"/></g><!--link r1 to aef1--><g id="link_r1_aef1"><path d="M355.375,1184.9062 C387.0313,1246.8438 416.8467,1305.083 442.1279,1354.583 " fill="transparent" id="r1-to-aef1" style="stroke:#181818;stroke-width:3.125;"/><polygon fill="#181818" points="450.6563,1371.2813,448.9959,1340.5484,443.5493,1357.3661,426.7316,1351.9195,450.6563,1371.2813" style="stroke:#181818;stroke-width:3.125;"/></g><!--link r2 to aef2--><g id="link_r2_aef2"><path d="M909.375,1184.9062 C909.375,1246.8438 909.375,1303.0313 909.375,1352.5313 " fill="transparent" id="r2-to-aef2" style="stroke:#181818;stroke-width:3.125;"/><polygon fill="#181818" points="909.375,1371.2813,921.875,1343.1563,909.375,1355.6563,896.875,1343.1563,909.375,1371.2813" style="stroke:#181818;stroke-width:3.125;"/></g><!--link r3 to aef3--><g id="link_r3_aef3"><path d="M2139.7813,1184.4375 C2029.6875,1250.7813 1910.5902,1322.5715 1829.1839,1371.634 " fill="transparent" id="r3-to-aef3" style="stroke:#181818;stroke-width:3.125;"/><polygon fill="#181818" points="1813.125,1381.3125,1843.6657,1377.5007,1826.5074,1373.2471,1830.761,1356.0888,1813.125,1381.3125" style="stroke:#181818;stroke-width:3.125;"/></g><!--link aef1 to sp--><g id="link_aef1_sp"><path d="M550.3125,1483.0313 C622.4688,1534.8125 718.6698,1603.8224 798.2323,1660.8849 " fill="transparent" id="aef1-to-sp" style="stroke:#181818;stroke-width:3.125;stroke-dasharray:1.0,3.0;"/><polygon fill="#181818" points="813.4688,1671.8125,797.8992,1645.2634,800.7717,1662.7061,783.329,1665.5787,813.4688,1671.8125" style="stroke:#181818;stroke-width:3.125;"/></g><!--link aef2 to sp--><g id="link_aef2_sp"><path d="M909.375,1485.125 C909.375,1536.7188 909.375,1596.0625 909.375,1652.3125 " fill="transparent" id="aef2-to-sp" style="stroke:#181818;stroke-width:3.125;stroke-dasharray:1.0,3.0;"/><polygon fill="#181818" points="909.375,1671.0625,921.875,1642.9375,909.375,1655.4375,896.875,1642.9375,909.375,1671.0625" style="stroke:#181818;stroke-width:3.125;"/></g><!--link aef3 to sp--><g id="link_aef3_sp"><path d="M1668.3125,1458.1563 C1541.5313,1505.3438 1292.9792,1597.8676 1112.073,1665.1801 " fill="transparent" id="aef3-to-sp" style="stroke:#181818;stroke-width:3.125;stroke-dasharray:1.0,3.0;"/><polygon fill="#181818" points="1094.5,1671.7188,1125.2185,1673.6261,1109.1441,1666.2699,1116.5003,1650.1955,1094.5,1671.7188" style="stroke:#181818;stroke-width:3.125;"/></g><!--SRC=[XLBBReCm4BpxArRqXaGKJ9LJLGdreVPGgKfwpCM13LWrjcKRjQZAlzT63IKb3HmGpEpCUDThtxdKpB06IiqXMow97P16ILNKHZK8phGuOcpDIlN1PVMNA77FMk7UyDFbWbUoGUcWy2yqX4XL8jpbwrVu8k2VGZLQoL0HRTfTmwtbIe9MnZ4H0RDWDJaGikS28SeV7dkCuJwTGdGAPJ-1qND8bynvSoPWZHMtpdIHFyJe077SbocDXksuuAw3ftONnrkP9CbMvbeBZXQgbfTC5jY7rEJKuMWD6on26gI3_eLrmBn7T-fWR3fZGUSjA27U1swIv1Pgk19Sug9Kpc7fSNeMFnndCqfCBpThqgc4paZeL98DadlbwwLoPvlA1cLk72_yrQuMryFTpSs4hVoscJ2ILeVcYQ6_tvuSVawd4YI9tslfgR1c47GZW7eW6mCP4D8N7Z6hJnrxqGKo-vVy1W00]--></g></svg>