<svg xmlns="http://www.w3.org/2000/svg" xmlns:xlink="http://www.w3.org/1999/xlink" contentStyleType="text/css" data-diagram-type="DESCRIPTION" height="2218.75px" preserveAspectRatio="none" style="width:2284px;height:2218px;background:#FFFFFF;" version="1.1" viewBox="0 0 2284 2218" width="2284.375px" zoomAndPan="magnify"><defs><filter height="300%" id="fehn1r5ied423" width="300%" x="-1" y="-1"><feGaussianBlur result="blurOut" stdDeviation="6.25"/><feColorMatrix in="blurOut" result="blurOut2" type="matrix" values="0 0 0 0 0 0 0 0 0 0 0 0 0 0 0 0 0 0 .4 0"/><feOffset dx="12.5" dy="12.5" in="blurOut2" result="blurOut3"/><feBlend in="SourceGraphic" in2="blurOut3" mode="normal"/></filter></defs><g><!--cluster Centralized accounting and reporting platform--><g id="cluster_Centralized accounting and reporting platform"><polygon fill="transparent" filter="url(#fehn1r5ied423)" points="50,621.875,81.25,590.625,2118.75,590.625,2118.75,1575,2087.5,1606.25,50,1606.25,50,621.875" style="stroke:#181818;stroke-width:3.125;"/><line style="stroke:#181818;stroke-width:3.125;" x1="2087.5" x2="2118.75" y1="621.875" y2="590.625"/><line style="stroke:#181818;stroke-width:3.125;" x1="50" x2="2087.5" y1="621.875" y2="621.875"/><line style="stroke:#181818;stroke-width:3.125;" x1="2087.5" x2="2087.5" y1="621.875" y2="1606.25"/><text fill="#000000" font-family="sans-serif" font-size="43.75" font-weight="bold" lengthAdjust="spacing" textLength="1151.9836" x="495.8832" y="671.8597">Centralized accounting and reporting platform</text></g><!--cluster International Registry--><g id="cluster_International Registry"><rect fill="transparent" filter="url(#fehn1r5ied423)" height="790.625" rx="7.8125" ry="7.8125" style="stroke:#181818;stroke-width:3.125;" width="1362.5" x="125" y="740.625"/><rect fill="transparent" height="31.25" style="stroke:#181818;stroke-width:3.125;" width="46.875" x="1425" y="756.25"/><rect fill="transparent" height="6.25" style="stroke:#181818;stroke-width:3.125;" width="12.5" x="1418.75" y="762.5"/><rect fill="transparent" height="6.25" style="stroke:#181818;stroke-width:3.125;" width="12.5" x="1418.75" y="775"/><text fill="#000000" font-family="sans-serif" font-size="43.75" font-weight="bold" lengthAdjust="spacing" textLength="543.8416" x="534.3292" y="821.8597">International Registry</text></g><!--entity sp--><g id="elem_sp"><rect fill="#F1F1F1" filter="url(#fehn1r5ied423)" height="144.6777" rx="7.8125" ry="7.8125" style="stroke:#181818;stroke-width:1.5625;" width="517.8314" x="1550" y="889.0625"/><rect fill="#F1F1F1" height="31.25" style="stroke:#181818;stroke-width:1.5625;" width="46.875" x="2005.3314" y="904.6875"/><rect fill="#F1F1F1" height="6.25" style="stroke:#181818;stroke-width:1.5625;" width="12.5" x="1999.0814" y="910.9375"/><rect fill="#F1F1F1" height="6.25" style="stroke:#181818;stroke-width:1.5625;" width="12.5" x="1999.0814" y="923.4375"/><text fill="#000000" font-family="sans-serif" font-size="43.75" lengthAdjust="spacing" textLength="392.8314" x="1596.875" y="992.1722">Submission portal</text></g><!--entity db--><g id="elem_db"><rect fill="#F1F1F1" filter="url(#fehn1r5ied423)" height="144.6777" rx="7.8125" ry="7.8125" style="stroke:#181818;stroke-width:1.5625;" width="523.8342" x="1540.625" y="1298.4375"/><rect fill="#F1F1F1" height="31.25" style="stroke:#181818;stroke-width:1.5625;" width="46.875" x="2001.9592" y="1314.0625"/><rect fill="#F1F1F1" height="6.25" style="stroke:#181818;stroke-width:1.5625;" width="12.5" x="1995.7092" y="1320.3125"/><rect fill="#F1F1F1" height="6.25" style="stroke:#181818;stroke-width:1.5625;" width="12.5" x="1995.7092" y="1332.8125"/><text fill="#000000" font-family="sans-serif" font-size="43.75" lengthAdjust="spacing" textLength="398.8342" x="1587.5" y="1401.5472">Article 6 database</text></g><!--entity h--><g id="elem_h"><rect fill="#F1F1F1" filter="url(#fehn1r5ied423)" height="220.6055" rx="7.8125" ry="7.8125" style="stroke:#181818;stroke-width:1.5625;" width="626.7792" x="785.9375" y="1259.375"/><rect fill="#F1F1F1" height="31.25" style="stroke:#181818;stroke-width:1.5625;" width="46.875" x="1350.2167" y="1275"/><rect fill="#F1F1F1" height="6.25" style="stroke:#181818;stroke-width:1.5625;" width="12.5" x="1343.9667" y="1281.25"/><rect fill="#F1F1F1" height="6.25" style="stroke:#181818;stroke-width:1.5625;" width="12.5" x="1343.9667" y="1293.75"/><text fill="#000000" font-family="sans-serif" font-size="43.75" font-weight="bold" lengthAdjust="spacing" textLength="501.7792" x="832.8125" y="1362.4847">Interoperability Hub</text><line style="stroke:#181818;stroke-width:3.125;" x1="789.0625" x2="1409.5917" y1="1372.8027" y2="1372.8027"/><text fill="#000000" font-family="sans-serif" font-size="43.75" lengthAdjust="spacing" textLength="374.3317" x="896.5363" y="1425.9125">Applies guidance</text></g><!--entity rs1--><g id="elem_rs1"><rect fill="#F1F1F1" filter="url(#fehn1r5ied423)" height="220.6055" rx="7.8125" ry="7.8125" style="stroke:#181818;stroke-width:1.5625;" width="576.8555" x="860.9375" y="850"/><rect fill="#F1F1F1" height="31.25" style="stroke:#181818;stroke-width:1.5625;" width="46.875" x="1375.293" y="865.625"/><rect fill="#F1F1F1" height="6.25" style="stroke:#181818;stroke-width:1.5625;" width="12.5" x="1369.043" y="871.875"/><rect fill="#F1F1F1" height="6.25" style="stroke:#181818;stroke-width:1.5625;" width="12.5" x="1369.043" y="884.375"/><text fill="#000000" font-family="sans-serif" font-size="43.75" font-weight="bold" lengthAdjust="spacing" textLength="451.8555" x="907.8125" y="953.1097">Registry Section 1</text><line style="stroke:#181818;stroke-width:3.125;" x1="864.0625" x2="1434.668" y1="963.4277" y2="963.4277"/><text fill="#000000" font-family="sans-serif" font-size="43.75" lengthAdjust="spacing" textLength="374.3317" x="946.5744" y="1016.5375">Applies guidance</text></g><!--entity rs2--><g id="elem_rs2"><rect fill="#F1F1F1" filter="url(#fehn1r5ied423)" height="220.6055" rx="7.8125" ry="7.8125" style="stroke:#181818;stroke-width:1.5625;" width="576.8555" x="173.4375" y="850"/><rect fill="#F1F1F1" height="31.25" style="stroke:#181818;stroke-width:1.5625;" width="46.875" x="687.793" y="865.625"/><rect fill="#F1F1F1" height="6.25" style="stroke:#181818;stroke-width:1.5625;" width="12.5" x="681.543" y="871.875"/><rect fill="#F1F1F1" height="6.25" style="stroke:#181818;stroke-width:1.5625;" width="12.5" x="681.543" y="884.375"/><text fill="#000000" font-family="sans-serif" font-size="43.75" font-weight="bold" lengthAdjust="spacing" textLength="451.8555" x="220.3125" y="953.1097">Registry Section 2</text><line style="stroke:#181818;stroke-width:3.125;" x1="176.5625" x2="747.168" y1="963.4277" y2="963.4277"/><text fill="#000000" font-family="sans-serif" font-size="43.75" lengthAdjust="spacing" textLength="374.3317" x="259.0744" y="1016.5375">Applies guidance</text></g><!--entity aef2--><g id="elem_aef2"><path d="M1593.75,2085.9375 L1593.75,2183.7402 A7.8125,7.8125 0 0 0 1601.5625,2191.5527 L1731.1737,2191.5527 A7.8125,7.8125 0 0 0 1738.9862,2183.7402 L1738.9862,2109.375 L1707.7362,2078.125 L1601.5625,2078.125 A7.8125,7.8125 0 0 0 1593.75,2085.9375 " fill="#F1F1F1" filter="url(#fehn1r5ied423)" style="stroke:#181818;stroke-width:1.5625;"/><path d="M1707.7362,2078.125 L1707.7362,2101.5625 A7.8125,7.8125 0 0 0 1715.5487,2109.375 L1738.9862,2109.375 " fill="#F1F1F1" style="stroke:#181818;stroke-width:1.5625;"/><text fill="#000000" font-family="sans-serif" font-size="43.75" lengthAdjust="spacing" textLength="82.7362" x="1625" y="2149.9847">AEF</text></g><!--entity aef3--><g id="elem_aef3"><path d="M1737.5,435.9375 L1737.5,533.7402 A7.8125,7.8125 0 0 0 1745.3125,541.5527 L1874.9237,541.5527 A7.8125,7.8125 0 0 0 1882.7362,533.7402 L1882.7362,459.375 L1851.4862,428.125 L1745.3125,428.125 A7.8125,7.8125 0 0 0 1737.5,435.9375 " fill="#F1F1F1" filter="url(#fehn1r5ied423)" style="stroke:#181818;stroke-width:1.5625;"/><path d="M1851.4862,428.125 L1851.4862,451.5625 A7.8125,7.8125 0 0 0 1859.2987,459.375 L1882.7362,459.375 " fill="#F1F1F1" style="stroke:#181818;stroke-width:1.5625;"/><text fill="#000000" font-family="sans-serif" font-size="43.75" lengthAdjust="spacing" textLength="82.7362" x="1768.75" y="499.9847">AEF</text></g><!--entity aef5--><g id="elem_aef5"><path d="M937.5,435.9375 L937.5,533.7402 A7.8125,7.8125 0 0 0 945.3125,541.5527 L1074.9237,541.5527 A7.8125,7.8125 0 0 0 1082.7362,533.7402 L1082.7362,459.375 L1051.4862,428.125 L945.3125,428.125 A7.8125,7.8125 0 0 0 937.5,435.9375 " fill="#F1F1F1" filter="url(#fehn1r5ied423)" style="stroke:#181818;stroke-width:1.5625;"/><path d="M1051.4862,428.125 L1051.4862,451.5625 A7.8125,7.8125 0 0 0 1059.2987,459.375 L1082.7362,459.375 " fill="#F1F1F1" style="stroke:#181818;stroke-width:1.5625;"/><text fill="#000000" font-family="sans-serif" font-size="43.75" lengthAdjust="spacing" textLength="82.7362" x="968.75" y="499.9847">AEF</text></g><!--entity r1--><g id="elem_r1"><polygon fill="#F1F1F1" filter="url(#fehn1r5ied423)" points="240.625,1700,271.875,1668.75,739.9567,1668.75,739.9567,1858.1055,708.7067,1889.3555,240.625,1889.3555,240.625,1700" style="stroke:#181818;stroke-width:1.5625;"/><line style="stroke:#181818;stroke-width:1.5625;" x1="708.7067" x2="739.9567" y1="1700" y2="1668.75"/><line style="stroke:#181818;stroke-width:1.5625;" x1="240.625" x2="708.7067" y1="1700" y2="1700"/><line style="stroke:#181818;stroke-width:1.5625;" x1="708.7067" x2="708.7067" y1="1700" y2="1889.3555"/><text fill="#000000" font-family="sans-serif" font-size="43.75" font-weight="bold" lengthAdjust="spacing" textLength="252.3956" x="348.468" y="1771.8597">Registry 1</text><line style="stroke:#181818;stroke-width:3.125;" x1="240.625" x2="708.7067" y1="1782.1777" y2="1782.1777"/><line style="stroke:#181818;stroke-width:3.125;" x1="708.7067" x2="739.9567" y1="1782.1777" y2="1750.9277"/><text fill="#000000" font-family="sans-serif" font-size="43.75" lengthAdjust="spacing" textLength="374.3317" x="287.5" y="1835.2875">Applies guidance</text></g><!--entity r2--><g id="elem_r2"><polygon fill="#F1F1F1" filter="url(#fehn1r5ied423)" points="850,1700,881.25,1668.75,1349.3317,1668.75,1349.3317,1858.1055,1318.0817,1889.3555,850,1889.3555,850,1700" style="stroke:#181818;stroke-width:1.5625;"/><line style="stroke:#181818;stroke-width:1.5625;" x1="1318.0817" x2="1349.3317" y1="1700" y2="1668.75"/><line style="stroke:#181818;stroke-width:1.5625;" x1="850" x2="1318.0817" y1="1700" y2="1700"/><line style="stroke:#181818;stroke-width:1.5625;" x1="1318.0817" x2="1318.0817" y1="1700" y2="1889.3555"/><text fill="#000000" font-family="sans-serif" font-size="43.75" font-weight="bold" lengthAdjust="spacing" textLength="252.3956" x="957.843" y="1771.8597">Registry 2</text><line style="stroke:#181818;stroke-width:3.125;" x1="850" x2="1318.0817" y1="1782.1777" y2="1782.1777"/><line style="stroke:#181818;stroke-width:3.125;" x1="1318.0817" x2="1349.3317" y1="1782.1777" y2="1750.9277"/><text fill="#000000" font-family="sans-serif" font-size="43.75" lengthAdjust="spacing" textLength="374.3317" x="896.875" y="1835.2875">Applies guidance</text></g><!--entity r3--><g id="elem_r3"><polygon fill="#F1F1F1" filter="url(#fehn1r5ied423)" points="1475,50,1506.25,18.75,2144.8669,18.75,2144.8669,208.1055,2113.6169,239.3555,1475,239.3555,1475,50" style="stroke:#181818;stroke-width:1.5625;"/><line style="stroke:#181818;stroke-width:1.5625;" x1="2113.6169" x2="2144.8669" y1="50" y2="18.75"/><line style="stroke:#181818;stroke-width:1.5625;" x1="1475" x2="2113.6169" y1="50" y2="50"/><line style="stroke:#181818;stroke-width:1.5625;" x1="2113.6169" x2="2113.6169" y1="50" y2="239.3555"/><text fill="#000000" font-family="sans-serif" font-size="43.75" font-weight="bold" lengthAdjust="spacing" textLength="252.3956" x="1668.1107" y="121.8597">Registry 3</text><line style="stroke:#181818;stroke-width:3.125;" x1="1475" x2="2113.6169" y1="132.1777" y2="132.1777"/><line style="stroke:#181818;stroke-width:3.125;" x1="2113.6169" x2="2144.8669" y1="132.1777" y2="100.9277"/><text fill="#000000" font-family="sans-serif" font-size="43.75" lengthAdjust="spacing" textLength="544.8669" x="1521.875" y="185.2875">Does not apply guidance</text></g><!--entity a6r--><g id="elem_a6r"><polygon fill="#F1F1F1" filter="url(#fehn1r5ied423)" points="1460.9375,1700,1492.1875,1668.75,2062.5732,1668.75,2062.5732,1858.1055,2031.3232,1889.3555,1460.9375,1889.3555,1460.9375,1700" style="stroke:#181818;stroke-width:1.5625;"/><line style="stroke:#181818;stroke-width:1.5625;" x1="2031.3232" x2="2062.5732" y1="1700" y2="1668.75"/><line style="stroke:#181818;stroke-width:1.5625;" x1="1460.9375" x2="2031.3232" y1="1700" y2="1700"/><line style="stroke:#181818;stroke-width:1.5625;" x1="2031.3232" x2="2031.3232" y1="1700" y2="1889.3555"/><text fill="#000000" font-family="sans-serif" font-size="43.75" font-weight="bold" lengthAdjust="spacing" textLength="476.6357" x="1507.8125" y="1771.8597">Article 6.4 Registry</text><line style="stroke:#181818;stroke-width:3.125;" x1="1460.9375" x2="2031.3232" y1="1782.1777" y2="1782.1777"/><line style="stroke:#181818;stroke-width:3.125;" x1="2031.3232" x2="2062.5732" y1="1782.1777" y2="1750.9277"/><text fill="#000000" font-family="sans-serif" font-size="43.75" lengthAdjust="spacing" textLength="439.5935" x="1526.3336" y="1835.2875">May apply guidance</text></g><!--link rs1 to h--><g id="link_rs1_h"><path d="M1134.2916,1090.7019 C1127.1354,1148.5456 1122.9358,1182.3617 1115.7483,1240.2367 " fill="transparent" id="rs1-h" style="stroke:#181818;stroke-width:3.125;"/><polygon fill="#181818" points="1136.5938,1072.0938,1120.7351,1098.4712,1134.6753,1087.6005,1145.546,1101.5407,1136.5938,1072.0938" style="stroke:#181818;stroke-width:3.125;"/><polygon fill="#181818" points="1113.4375,1258.8438,1129.3084,1232.4737,1115.3632,1243.3379,1104.499,1229.3926,1113.4375,1258.8438" style="stroke:#181818;stroke-width:3.125;"/></g><!--link rs2 to h--><g id="link_rs2_h"><path d="M649.1909,1082.1153 C740.6596,1139.959 821.3085,1190.9482 912.8397,1248.8232 " fill="transparent" id="rs2-h" style="stroke:#181818;stroke-width:3.125;"/><polygon fill="#181818" points="633.3438,1072.0938,650.4334,1097.6908,646.5497,1080.445,663.7955,1076.5613,633.3438,1072.0938" style="stroke:#181818;stroke-width:3.125;"/><polygon fill="#181818" points="928.6875,1258.8438,911.5962,1233.2478,915.481,1250.4933,898.2355,1254.3782,928.6875,1258.8438" style="stroke:#181818;stroke-width:3.125;"/></g><!--link h to a6r--><g id="link_h_a6r"><path d="M1236.734,1493.7638 C1296.234,1543.2013 1355.9688,1588.1875 1428.125,1631.25 C1449.875,1644.2188 1456.2116,1648.2756 1479.7429,1660.0881 " fill="transparent" id="h-a6r" style="stroke:#181818;stroke-width:3.125;stroke-dasharray:1.0,3.0;"/><polygon fill="#181818" points="1222.3125,1481.7812,1235.9564,1509.3695,1234.3304,1491.7667,1251.9332,1490.1408,1222.3125,1481.7812" style="stroke:#181818;stroke-width:3.125;"/><polygon fill="#181818" points="1496.5,1668.5,1476.9723,1644.7107,1482.5357,1661.49,1465.7563,1667.0535,1496.5,1668.5" style="stroke:#181818;stroke-width:3.125;"/></g><!--link h to r1--><g id="link_h_r1"><path d="M921.0514,1491.8164 C833.6451,1549.6602 757.5136,1599.9999 670.0136,1657.8749 " fill="transparent" id="h-r1" style="stroke:#181818;stroke-width:3.125;"/><polygon fill="#181818" points="936.6875,1481.4688,906.3349,1486.5662,923.6574,1490.0918,920.1318,1507.4143,936.6875,1481.4688" style="stroke:#181818;stroke-width:3.125;"/><polygon fill="#181818" points="654.375,1668.2188,684.7289,1663.1287,667.4072,1659.5989,670.9371,1642.2772,654.375,1668.2188" style="stroke:#181818;stroke-width:3.125;"/></g><!--link h to r2--><g id="link_h_r2"><path d="M1100,1500.2188 C1100,1558.0625 1100,1591.5937 1100,1649.4688 " fill="transparent" id="h-r2" style="stroke:#181818;stroke-width:3.125;"/><polygon fill="#181818" points="1100,1481.4688,1087.5,1509.5938,1100,1497.0938,1112.5,1509.5938,1100,1481.4688" style="stroke:#181818;stroke-width:3.125;"/><polygon fill="#181818" points="1100,1668.2188,1112.5,1640.0938,1100,1652.5938,1087.5,1640.0938,1100,1668.2188" style="stroke:#181818;stroke-width:3.125;"/></g><!--link sp to db--><g id="link_sp_db"><path d="M1808.0188,1052.1227 C1806.8626,1125.9352 1805.6288,1204.6897 1804.5038,1278.6897 " fill="transparent" id="sp-db" style="stroke:#181818;stroke-width:3.125;stroke-dasharray:1.0,3.0;"/><polygon fill="#181818" points="1808.3125,1033.375,1795.3735,1061.3008,1808.0678,1048.9981,1820.3705,1061.6923,1808.3125,1033.375" style="stroke:#181818;stroke-width:3.125;"/><polygon fill="#181818" points="1804.2188,1297.4375,1817.1448,1269.5058,1804.4563,1281.8143,1792.1477,1269.1257,1804.2188,1297.4375" style="stroke:#181818;stroke-width:3.125;"/></g><!--link r2 to aef2--><g id="link_r2_aef2"><path d="M1275.875,1891.1562 C1382.875,1957.0625 1497.9109,2027.9158 1577.5047,2076.9471 " fill="transparent" id="r2-to-aef2" style="stroke:#181818;stroke-width:3.125;"/><polygon fill="#181818" points="1593.4688,2086.7813,1576.0788,2061.3873,1580.1654,2078.5861,1562.9665,2082.6727,1593.4688,2086.7813" style="stroke:#181818;stroke-width:3.125;"/></g><!--link r3 to aef3--><g id="link_r3_aef3"><path d="M1809.375,241.1562 C1809.375,303.0938 1809.375,359.2813 1809.375,408.7812 " fill="transparent" id="r3-to-aef3" style="stroke:#181818;stroke-width:3.125;"/><polygon fill="#181818" points="1809.375,427.5312,1821.875,399.4062,1809.375,411.9062,1796.875,399.4062,1809.375,427.5312" style="stroke:#181818;stroke-width:3.125;"/></g><!--reverse link aef5 to rs2--><g id="link_aef5_rs2"><path d="M918.686,511.6504 C877.9985,524.2754 845.5937,538.1563 806.25,565.625 C695.625,642.8125 597.3125,763 534.4688,850 " fill="transparent" id="aef5-backto-rs2" style="stroke:#181818;stroke-width:3.125;"/><polygon fill="#181818" points="936.5937,506.0938,906.0278,502.4902,921.6706,510.7243,913.4366,526.3672,936.5937,506.0938" style="stroke:#181818;stroke-width:3.125;"/></g><!--reverse link sp to aef2--><g id="link_sp_aef2"><path d="M1935.0233,1043.9946 C2007.4295,1096.1821 2080.8125,1164.0938 2121.875,1259.375 C2232.9063,1517.0313 2264.75,1651.0625 2118.75,1890.625 C2034.8438,2028.2812 1843.0625,2091.5625 1737.9063,2116.8438 " fill="transparent" id="sp-backto-aef2" style="stroke:#181818;stroke-width:3.125;stroke-dasharray:1.0,3.0;"/><polygon fill="#181818" points="1919.8125,1033.0313,1935.3198,1059.6168,1932.4882,1042.1674,1949.9376,1039.3357,1919.8125,1033.0313" style="stroke:#181818;stroke-width:3.125;"/></g><!--link aef3 to sp--><g id="link_aef3_sp"><path d="M1809.375,541.4375 C1809.375,627.0938 1809.375,775.4063 1809.375,869.7813 " fill="transparent" id="aef3-to-sp" style="stroke:#181818;stroke-width:3.125;stroke-dasharray:1.0,3.0;"/><polygon fill="#181818" points="1809.375,888.5313,1821.875,860.4063,1809.375,872.9063,1796.875,860.4063,1809.375,888.5313" style="stroke:#181818;stroke-width:3.125;"/></g><!--link aef5 to sp--><g id="link_aef5_sp"><path d="M1081.875,493.0625 C1198.0313,503.0313 1419.7188,526.5625 1487.5,565.625 C1621.0625,642.5938 1713.2526,781.2475 1764.0339,871.6225 " fill="transparent" id="aef5-to-sp" style="stroke:#181818;stroke-width:3.125;stroke-dasharray:1.0,3.0;"/><polygon fill="#181818" points="1773.2187,887.9687,1770.3389,857.3261,1765.5647,874.3469,1748.5439,869.5726,1773.2187,887.9687" style="stroke:#181818;stroke-width:3.125;"/></g><!--SRC=[XLFDRjim3BxhAGZt5i11OYyv3GE2jSDww6NfCHVQOXAXCYL8CjfisBkFTXhFIRhbO87azoE9bEEBOOy16z3UG3cRgJXK6iUktWVN4AJGqWY9UzJkrV3k4j2qnTQcPtfBAsjst10dg6MXe1GxJP1zbIoWDJz90zQrQpbrHiWQ0daN-inRJ5iNcWn-gTertd5dbAtRgZ4n6iVGCT5cW16Y7tDMub1RWYLeJ5XXf9waApLcFNP7OanYXHP-qCx450uNsqqcFSrv2bWPQz81lhVLPBBXFCytlFBU6egmQur6he_xxDMvmyaQrbHtky7y__eGvpSCYbi6XLBY0f_p_0liGU9YY7yhrNrR8mtALW_VUWNIjhWkbTUbXJeDSNIiM_UPNqjktQ2ubfI3vDu9drq25EtXGbaEok4PJ3yDunqydl3maHoNyafbaNQrlc_OdJLCK-rI8gt2V01KAFx6qKii_mDBfgjpJKSyOLsVPHpbk50UvtEqUcznppjMnFhChbUSv1-0Yt-2Vm00]--></g></svg>