<svg xmlns="http://www.w3.org/2000/svg" xmlns:xlink="http://www.w3.org/1999/xlink" contentStyleType="text/css" data-diagram-type="ACTIVITY" height="2031.25px" preserveAspectRatio="none" style="width:1200px;height:2031px;background:#FFFFFF;" version="1.1" viewBox="0 0 1200 2031" width="1200px" zoomAndPan="magnify"><defs><filter height="300%" id="fvaykcggn8azu" width="300%" x="-1" y="-1"><feGaussianBlur result="blurOut" stdDeviation="6.25"/><feColorMatrix in="blurOut" result="blurOut2" type="matrix" values="0 0 0 0 0 0 0 0 0 0 0 0 0 0 0 0 0 0 .4 0"/><feOffset dx="12.5" dy="12.5" in="blurOut2" result="blurOut3"/><feBlend in="SourceGraphic" in2="blurOut3" mode="normal"/></filter></defs><g><ellipse cx="530.6137" cy="62.5" fill="#222222" filter="url(#fvaykcggn8azu)" rx="31.25" ry="31.25" style="stroke:#222222;stroke-width:3.125;"/><rect fill="#F1F1F1" filter="url(#fvaykcggn8azu)" height="98.877" rx="39.0625" ry="39.0625" style="stroke:#181818;stroke-width:1.5625;" width="551.59" x="254.8187" y="293.75"/><text fill="#000000" font-family="Times New Roman" font-size="31.25" lengthAdjust="spacing" textLength="489.09" x="286.0687" y="354.007">(Refined) Modification proposal</text><polygon fill="#F1F1F1" filter="url(#fvaykcggn8azu)" points="530.6137,156.25,568.1137,193.75,530.6137,231.25,493.1137,193.75,530.6137,156.25" style="stroke:#181818;stroke-width:1.5625;"/><polygon fill="#F1F1F1" filter="url(#fvaykcggn8azu)" points="315.7852,455.127,745.4422,455.127,782.9422,492.627,745.4422,530.127,315.7852,530.127,278.2852,492.627,315.7852,455.127" style="stroke:#181818;stroke-width:1.5625;"/><text fill="#000000" font-family="Times New Roman" font-size="31.25" lengthAdjust="spacing" textLength="42.4957" x="543.1137" y="559.1339">No</text><text fill="#000000" font-family="Times New Roman" font-size="31.25" lengthAdjust="spacing" textLength="429.657" x="315.7852" y="503.4454">Further elaboration needed</text><text fill="#000000" font-family="Times New Roman" font-size="31.25" lengthAdjust="spacing" textLength="54.5959" x="782.9422" y="485.257">Yes</text><rect fill="#F1F1F1" filter="url(#fvaykcggn8azu)" height="98.877" rx="39.0625" ry="39.0625" style="stroke:#181818;stroke-width:1.5625;" width="992.4774" x="34.375" y="913.8214"/><text fill="#000000" font-family="Times New Roman" font-size="31.25" lengthAdjust="spacing" textLength="929.9774" x="65.625" y="974.0784">Consultations with the change management working group</text><polygon fill="#F1F1F1" filter="url(#fvaykcggn8azu)" points="530.6137,776.3214,568.1137,813.8214,530.6137,851.3214,493.1137,813.8214,530.6137,776.3214" style="stroke:#181818;stroke-width:1.5625;"/><polygon fill="#F1F1F1" filter="url(#fvaykcggn8azu)" points="270.8862,1107.4493,790.3412,1107.4493,827.8412,1144.9493,790.3412,1182.4493,270.8862,1182.4493,233.3862,1144.9493,270.8862,1107.4493" style="stroke:#181818;stroke-width:1.5625;"/><text fill="#000000" font-family="Times New Roman" font-size="31.25" lengthAdjust="spacing" textLength="42.4957" x="543.1137" y="1211.4563">No</text><text fill="#000000" font-family="Times New Roman" font-size="31.25" lengthAdjust="spacing" textLength="519.455" x="270.8862" y="1155.7678">Additional consultations needed?</text><text fill="#000000" font-family="Times New Roman" font-size="31.25" lengthAdjust="spacing" textLength="54.5959" x="827.8412" y="1137.5793">Yes</text><polygon fill="#F1F1F1" filter="url(#fvaykcggn8azu)" points="447.0337,1278.6438,614.1937,1278.6438,651.6937,1316.1438,614.1937,1353.6438,447.0337,1353.6438,409.5337,1316.1438,447.0337,1278.6438" style="stroke:#181818;stroke-width:1.5625;"/><text fill="#000000" font-family="Times New Roman" font-size="31.25" lengthAdjust="spacing" textLength="54.5959" x="543.1137" y="1382.6508">Yes</text><text fill="#000000" font-family="Times New Roman" font-size="31.25" lengthAdjust="spacing" textLength="167.16" x="447.0337" y="1326.9623">Approved?</text><text fill="#000000" font-family="Times New Roman" font-size="31.25" lengthAdjust="spacing" textLength="42.4957" x="651.6937" y="1308.7738">No</text><ellipse cx="762.9395" cy="1316.1438" fill="transparent" filter="url(#fvaykcggn8azu)" rx="34.375" ry="34.375" style="stroke:#222222;stroke-width:3.125;"/><ellipse cx="762.9395" cy="1316.1438" fill="#222222" rx="18.75" ry="18.75" style="stroke:#222222;stroke-width:3.125;"/><polygon fill="#F1F1F1" filter="url(#fvaykcggn8azu)" points="376.6678,626.3214,684.5596,626.3214,722.0596,663.8214,684.5596,701.3214,376.6678,701.3214,339.1678,663.8214,376.6678,626.3214" style="stroke:#181818;stroke-width:1.5625;"/><text fill="#000000" font-family="Times New Roman" font-size="31.25" lengthAdjust="spacing" textLength="42.4957" x="543.1137" y="730.3284">No</text><text fill="#000000" font-family="Times New Roman" font-size="31.25" lengthAdjust="spacing" textLength="307.8918" x="376.6678" y="674.6399">Minor modification?</text><text fill="#000000" font-family="Times New Roman" font-size="31.25" lengthAdjust="spacing" textLength="54.5959" x="722.0596" y="656.4514">Yes</text><polygon fill="#F1F1F1" filter="url(#fvaykcggn8azu)" points="530.6137,1449.8383,568.1137,1487.3383,530.6137,1524.8383,493.1137,1487.3383,530.6137,1449.8383" style="stroke:#181818;stroke-width:1.5625;"/><rect fill="#F1F1F1" filter="url(#fvaykcggn8azu)" height="98.877" rx="39.0625" ry="39.0625" style="stroke:#181818;stroke-width:1.5625;" width="565.4755" x="247.876" y="1587.3383"/><text fill="#000000" font-family="Times New Roman" font-size="31.25" lengthAdjust="spacing" textLength="502.9755" x="279.126" y="1647.5952">Update common nomenclatures</text><rect fill="#F1F1F1" filter="url(#fvaykcggn8azu)" height="98.877" rx="39.0625" ry="39.0625" style="stroke:#181818;stroke-width:1.5625;" width="490.2802" x="285.4736" y="1748.7152"/><text fill="#000000" font-family="Times New Roman" font-size="31.25" lengthAdjust="spacing" textLength="427.7802" x="316.7236" y="1808.9722">Inform participating Parties</text><ellipse cx="530.6137" cy="1944.4672" fill="transparent" filter="url(#fvaykcggn8azu)" rx="34.375" ry="34.375" style="stroke:#222222;stroke-width:3.125;"/><ellipse cx="530.6137" cy="1944.4672" fill="#222222" rx="18.75" ry="18.75" style="stroke:#222222;stroke-width:3.125;"/><line style="stroke:#181818;stroke-width:3.125;" x1="530.6137" x2="530.6137" y1="231.25" y2="293.75"/><polygon fill="#181818" points="518.1137,262.5,530.6137,293.75,543.1137,262.5,530.6137,275" style="stroke:#181818;stroke-width:3.125;"/><line style="stroke:#181818;stroke-width:3.125;" x1="782.9422" x2="843.9087" y1="492.627" y2="492.627"/><polygon fill="#181818" points="831.4087,374.4385,843.9087,343.1885,856.4087,374.4385,843.9087,361.9385" style="stroke:#181818;stroke-width:3.125;"/><line style="stroke:#181818;stroke-width:3.125;" x1="843.9087" x2="843.9087" y1="193.75" y2="492.627"/><line style="stroke:#181818;stroke-width:3.125;" x1="843.9087" x2="568.1137" y1="193.75" y2="193.75"/><polygon fill="#181818" points="599.3637,181.25,568.1137,193.75,599.3637,206.25,586.8637,193.75" style="stroke:#181818;stroke-width:3.125;"/><line style="stroke:#181818;stroke-width:3.125;" x1="530.6137" x2="530.6137" y1="392.627" y2="455.127"/><polygon fill="#181818" points="518.1137,423.877,530.6137,455.127,543.1137,423.877,530.6137,436.377" style="stroke:#181818;stroke-width:3.125;"/><line style="stroke:#181818;stroke-width:3.125;" x1="530.6137" x2="530.6137" y1="93.75" y2="156.25"/><polygon fill="#181818" points="518.1137,125,530.6137,156.25,543.1137,125,530.6137,137.5" style="stroke:#181818;stroke-width:3.125;"/><line style="stroke:#181818;stroke-width:3.125;" x1="530.6137" x2="530.6137" y1="851.3214" y2="913.8214"/><polygon fill="#181818" points="518.1137,882.5714,530.6137,913.8214,543.1137,882.5714,530.6137,895.0714" style="stroke:#181818;stroke-width:3.125;"/><line style="stroke:#181818;stroke-width:3.125;" x1="827.8412" x2="1064.3524" y1="1144.9493" y2="1144.9493"/><polygon fill="#181818" points="1051.8524,994.5099,1064.3524,963.2599,1076.8524,994.5099,1064.3524,982.0099" style="stroke:#181818;stroke-width:3.125;"/><line style="stroke:#181818;stroke-width:3.125;" x1="1064.3524" x2="1064.3524" y1="813.8214" y2="1144.9493"/><line style="stroke:#181818;stroke-width:3.125;" x1="1064.3524" x2="568.1137" y1="813.8214" y2="813.8214"/><polygon fill="#181818" points="599.3637,801.3214,568.1137,813.8214,599.3637,826.3214,586.8637,813.8214" style="stroke:#181818;stroke-width:3.125;"/><line style="stroke:#181818;stroke-width:3.125;" x1="530.6137" x2="530.6137" y1="1012.6984" y2="1107.4493"/><polygon fill="#181818" points="518.1137,1076.1993,530.6137,1107.4493,543.1137,1076.1993,530.6137,1088.6993" style="stroke:#181818;stroke-width:3.125;"/><line style="stroke:#181818;stroke-width:3.125;" x1="530.6137" x2="530.6137" y1="1353.6438" y2="1449.8383"/><polygon fill="#181818" points="518.1137,1418.5883,530.6137,1449.8383,543.1137,1418.5883,530.6137,1431.0883" style="stroke:#181818;stroke-width:3.125;"/><line style="stroke:#181818;stroke-width:3.125;" x1="651.6937" x2="728.5645" y1="1316.1438" y2="1316.1438"/><polygon fill="#181818" points="697.3145,1303.6438,728.5645,1316.1438,697.3145,1328.6438,709.8145,1316.1438" style="stroke:#181818;stroke-width:3.125;"/><line style="stroke:#181818;stroke-width:3.125;" x1="530.6137" x2="530.6137" y1="1182.4493" y2="1278.6438"/><polygon fill="#181818" points="518.1137,1247.3938,530.6137,1278.6438,543.1137,1247.3938,530.6137,1259.8938" style="stroke:#181818;stroke-width:3.125;"/><line style="stroke:#181818;stroke-width:3.125;" x1="530.6137" x2="530.6137" y1="701.3214" y2="776.3214"/><polygon fill="#181818" points="518.1137,745.0714,530.6137,776.3214,543.1137,745.0714,530.6137,757.5714" style="stroke:#181818;stroke-width:3.125;"/><line style="stroke:#181818;stroke-width:3.125;" x1="722.0596" x2="1120.6024" y1="663.8214" y2="663.8214"/><polygon fill="#181818" points="1108.1024,1043.9484,1120.6024,1075.1984,1133.1024,1043.9484,1120.6024,1056.4484" style="stroke:#181818;stroke-width:3.125;"/><line style="stroke:#181818;stroke-width:3.125;" x1="1120.6024" x2="1120.6024" y1="663.8214" y2="1487.3383"/><line style="stroke:#181818;stroke-width:3.125;" x1="1120.6024" x2="568.1137" y1="1487.3383" y2="1487.3383"/><polygon fill="#181818" points="599.3637,1474.8383,568.1137,1487.3383,599.3637,1499.8383,586.8637,1487.3383" style="stroke:#181818;stroke-width:3.125;"/><line style="stroke:#181818;stroke-width:3.125;" x1="530.6137" x2="530.6137" y1="530.127" y2="626.3214"/><polygon fill="#181818" points="518.1137,595.0714,530.6137,626.3214,543.1137,595.0714,530.6137,607.5714" style="stroke:#181818;stroke-width:3.125;"/><line style="stroke:#181818;stroke-width:3.125;" x1="530.6137" x2="530.6137" y1="1524.8383" y2="1587.3383"/><polygon fill="#181818" points="518.1137,1556.0883,530.6137,1587.3383,543.1137,1556.0883,530.6137,1568.5883" style="stroke:#181818;stroke-width:3.125;"/><line style="stroke:#181818;stroke-width:3.125;" x1="530.6137" x2="530.6137" y1="1686.2152" y2="1748.7152"/><polygon fill="#181818" points="518.1137,1717.4652,530.6137,1748.7152,543.1137,1717.4652,530.6137,1729.9652" style="stroke:#181818;stroke-width:3.125;"/><line style="stroke:#181818;stroke-width:3.125;" x1="530.6137" x2="530.6137" y1="1847.5922" y2="1910.0922"/><polygon fill="#181818" points="518.1137,1878.8422,530.6137,1910.0922,543.1137,1878.8422,530.6137,1891.3422" style="stroke:#181818;stroke-width:3.125;"/><!--SRC=[RP8_JyCm4CLtVueRqws8hHsg2Wc9eHKgPM1quqjoQdndx0kf-FJO3ONonuCb-vwVV_ViT2GEDbeFBX3SpkScVUruOQcxA1v1uu1NbTHP9oDn-xlWiB53htiywRgdbZsoGfqdZ7zLzyAwjTbzJnuJR764dNZB_okVw1tXPcvCHmwX4T63dAwPy7L0hd63ATaMpzTVhZP9RLGJCQ3LfO4y5jKE6s9qCzY8euPggoGC8KgGPFlbfnh6Zdg4wdw8sc44xEr1ugHbH5SCA47rWca6B0hLLcQ66gWsn19pYD_cgnba3vx41lk4anhW1zcTSCfDduya64cxSWpgpdABa0FAxPs37IKUooEqKOQm_BAv8A-Te-9XUwX_M4xSg__00GhwEkGOtiwIA-02TmqzZQGIfXBdJiqqBvw3ivgPnViILFv3NFTMXuXfQHOFt4Zqa1zEgQQGiN8NZsLLoiNn0m00]--></g></svg>