<svg xmlns="http://www.w3.org/2000/svg" xmlns:xlink="http://www.w3.org/1999/xlink" contentStyleType="text/css" data-diagram-type="DESCRIPTION" height="721.875px" preserveAspectRatio="none" style="width:2234px;height:721px;background:#FFFFFF;" version="1.1" viewBox="0 0 2234 721" width="2234.375px" zoomAndPan="magnify"><defs><filter height="300%" id="farkbrfw7c6rc" width="300%" x="-1" y="-1"><feGaussianBlur result="blurOut" stdDeviation="6.25"/><feColorMatrix in="blurOut" result="blurOut2" type="matrix" values="0 0 0 0 0 0 0 0 0 0 0 0 0 0 0 0 0 0 .4 0"/><feOffset dx="12.5" dy="12.5" in="blurOut2" result="blurOut3"/><feBlend in="SourceGraphic" in2="blurOut3" mode="normal"/></filter></defs><g><!--cluster International Registry--><g id="cluster_International Registry"><polygon fill="transparent" filter="url(#farkbrfw7c6rc)" points="50,50,81.25,18.75,2181.25,18.75,2181.25,637.5,2150,668.75,50,668.75,50,50" style="stroke:#181818;stroke-width:3.125;"/><line style="stroke:#181818;stroke-width:3.125;" x1="2150" x2="2181.25" y1="50" y2="18.75"/><line style="stroke:#181818;stroke-width:3.125;" x1="50" x2="2150" y1="50" y2="50"/><line style="stroke:#181818;stroke-width:3.125;" x1="2150" x2="2150" y1="50" y2="668.75"/><text fill="#000000" font-family="sans-serif" font-size="43.75" font-weight="bold" lengthAdjust="spacing" textLength="543.8416" x="831.2042" y="99.9847">International Registry</text></g><!--entity rs2--><g id="elem_rs2"><rect fill="#F1F1F1" filter="url(#farkbrfw7c6rc)" height="144.6777" rx="7.8125" ry="7.8125" style="stroke:#181818;stroke-width:1.5625;" width="519.2841" x="109.375" y="143.75"/><rect fill="#F1F1F1" height="31.25" style="stroke:#181818;stroke-width:1.5625;" width="46.875" x="566.1591" y="159.375"/><rect fill="#F1F1F1" height="6.25" style="stroke:#181818;stroke-width:1.5625;" width="12.5" x="559.9091" y="165.625"/><rect fill="#F1F1F1" height="6.25" style="stroke:#181818;stroke-width:1.5625;" width="12.5" x="559.9091" y="178.125"/><text fill="#000000" font-family="sans-serif" font-size="43.75" lengthAdjust="spacing" textLength="394.2841" x="156.25" y="246.8597">Registry section 1</text></g><!--entity rs1--><g id="elem_rs1"><rect fill="#F1F1F1" filter="url(#farkbrfw7c6rc)" height="144.6777" rx="7.8125" ry="7.8125" style="stroke:#181818;stroke-width:1.5625;" width="519.2841" x="737.5" y="143.75"/><rect fill="#F1F1F1" height="31.25" style="stroke:#181818;stroke-width:1.5625;" width="46.875" x="1194.2841" y="159.375"/><rect fill="#F1F1F1" height="6.25" style="stroke:#181818;stroke-width:1.5625;" width="12.5" x="1188.0341" y="165.625"/><rect fill="#F1F1F1" height="6.25" style="stroke:#181818;stroke-width:1.5625;" width="12.5" x="1188.0341" y="178.125"/><text fill="#000000" font-family="sans-serif" font-size="43.75" lengthAdjust="spacing" textLength="394.2841" x="784.375" y="246.8597">Registry section 2</text></g><!--entity rs3--><g id="elem_rs3"><rect fill="#F1F1F1" filter="url(#farkbrfw7c6rc)" height="144.6777" rx="7.8125" ry="7.8125" style="stroke:#181818;stroke-width:1.5625;" width="524.2615" x="1365.625" y="143.75"/><rect fill="#F1F1F1" height="31.25" style="stroke:#181818;stroke-width:1.5625;" width="46.875" x="1827.3865" y="159.375"/><rect fill="#F1F1F1" height="6.25" style="stroke:#181818;stroke-width:1.5625;" width="12.5" x="1821.1365" y="165.625"/><rect fill="#F1F1F1" height="6.25" style="stroke:#181818;stroke-width:1.5625;" width="12.5" x="1821.1365" y="178.125"/><text fill="#000000" font-family="sans-serif" font-size="43.75" lengthAdjust="spacing" textLength="399.2615" x="1412.5" y="246.8597">Registry Section 3</text></g><!--entity rsn--><g id="elem_rsn"><rect fill="#F1F1F1" filter="url(#farkbrfw7c6rc)" height="144.6777" rx="7.8125" ry="7.8125" style="stroke:#181818;stroke-width:1.5625;" width="533.1696" x="101.5625" y="475"/><rect fill="#F1F1F1" height="31.25" style="stroke:#181818;stroke-width:1.5625;" width="46.875" x="572.2321" y="490.625"/><rect fill="#F1F1F1" height="6.25" style="stroke:#181818;stroke-width:1.5625;" width="12.5" x="565.9821" y="496.875"/><rect fill="#F1F1F1" height="6.25" style="stroke:#181818;stroke-width:1.5625;" width="12.5" x="565.9821" y="509.375"/><text fill="#000000" font-family="sans-serif" font-size="43.75" lengthAdjust="spacing" textLength="408.1696" x="148.4375" y="578.1097">Registry section ...</text></g><!--entity h--><g id="elem_h"><rect fill="#F1F1F1" filter="url(#farkbrfw7c6rc)" height="144.6777" rx="7.8125" ry="7.8125" style="stroke:#181818;stroke-width:1.5625;" width="558.3557" x="745.3125" y="475"/><rect fill="#F1F1F1" height="31.25" style="stroke:#181818;stroke-width:1.5625;" width="46.875" x="1241.1682" y="490.625"/><rect fill="#F1F1F1" height="6.25" style="stroke:#181818;stroke-width:1.5625;" width="12.5" x="1234.9182" y="496.875"/><rect fill="#F1F1F1" height="6.25" style="stroke:#181818;stroke-width:1.5625;" width="12.5" x="1234.9182" y="509.375"/><text fill="#000000" font-family="sans-serif" font-size="43.75" lengthAdjust="spacing" textLength="433.3557" x="792.1875" y="578.1097">Interoperability hub</text></g><!--entity ak--><g id="elem_ak"><rect fill="#F1F1F1" filter="url(#farkbrfw7c6rc)" height="144.6777" rx="7.8125" ry="7.8125" style="stroke:#181818;stroke-width:1.5625;" width="716.1377" x="1414.0625" y="475"/><rect fill="#F1F1F1" height="31.25" style="stroke:#181818;stroke-width:1.5625;" width="46.875" x="2067.7002" y="490.625"/><rect fill="#F1F1F1" height="6.25" style="stroke:#181818;stroke-width:1.5625;" width="12.5" x="2061.4502" y="496.875"/><rect fill="#F1F1F1" height="6.25" style="stroke:#181818;stroke-width:1.5625;" width="12.5" x="2061.4502" y="509.375"/><text fill="#000000" font-family="sans-serif" font-size="43.75" lengthAdjust="spacing" textLength="591.1377" x="1460.9375" y="578.1097">API Keys management tool</text></g><!--SRC=[VT1H3e8m303G_vsYuG04v0Hy4d-CUe425HQsbcmZIentLmWQD8QV9crVcwQ-qzoZGmjrho5B4kK_5IiiLUl44WGtqAhZMwpbghdvRTHqmS64Czr2RdJ3bZX0zGhab6Af2Q9YIXY35aO3Hsgq3swCuAugiRtmD16zo-2fcYIa4Q07vtURQhUezAywBIfRLBQvAuxZnR5Qm_b-wSbXgOqE8xH3ESFsY-M70lOqUh38sD3yY21YPegTKW_r1000]--></g></svg>