<svg xmlns="http://www.w3.org/2000/svg" xmlns:xlink="http://www.w3.org/1999/xlink" contentStyleType="text/css" data-diagram-type="SEQUENCE" height="703px" preserveAspectRatio="none" style="width:816px;height:703px;background:#FFFFFF;" version="1.1" viewBox="0 0 816 703" width="816px" zoomAndPan="magnify"><title>Single Registry Action</title><defs/><g><text fill="#000000" font-family="sans-serif" font-size="14" font-weight="bold" lengthAdjust="spacing" textLength="175.2734" x="324.3186" y="27.9951">Single Registry Action</text><g><title>Sending</title><rect fill="#FFFFFF" height="63.2656" style="stroke:#181818;stroke-width:1;" width="10" x="35.4546" y="99.8906"/></g><g><title>Sending</title><rect fill="#FFFFFF" height="264.7969" style="stroke:#181818;stroke-width:1;" width="10" x="35.4546" y="284.5547"/></g><g><title>Sending</title><rect fill="#FFFFFF" height="151.3984" style="stroke:#181818;stroke-width:1;" width="10" x="40.4546" y="397.9531"/></g><g><title>Interoperability</title><rect fill="#FFFFFF" height="82.2656" style="stroke:#181818;stroke-width:1;" width="10" x="312.5889" y="200.2891"/></g><g><title>Interoperability</title><rect fill="#FFFFFF" height="152.3984" style="stroke:#181818;stroke-width:1;" width="10" x="312.5889" y="519.3516"/></g><g><title>Sending</title><rect fill="transparent" height="606.8594" width="8" x="36.4546" y="89.8906"/><line style="stroke:#181818;stroke-width:0.5;stroke-dasharray:5.0,5.0;" x1="40" x2="40" y1="89.8906" y2="696.75"/></g><g><title>Interoperability</title><rect fill="transparent" height="606.8594" width="8" x="313.5889" y="89.8906"/><line style="stroke:#181818;stroke-width:0.5;stroke-dasharray:5.0,5.0;" x1="316.7935" x2="316.7935" y1="89.8906" y2="696.75"/></g><rect fill="#E2E2F0" height="46.5938" rx="2.5" ry="2.5" style="stroke:#181818;stroke-width:0.5;" width="70.9092" x="5" y="42.2969"/><text fill="#000000" font-family="sans-serif" font-size="14" lengthAdjust="spacing" textLength="56.9092" x="12" y="62.292">Sending</text><text fill="#000000" font-family="sans-serif" font-size="14" lengthAdjust="spacing" textLength="53.9697" x="13.4697" y="78.5889">registry</text><rect fill="#E2E2F0" height="46.5938" rx="2.5" ry="2.5" style="stroke:#181818;stroke-width:0.5;" width="121.5908" x="256.7935" y="42.2969"/><text fill="#000000" font-family="sans-serif" font-size="14" lengthAdjust="spacing" textLength="107.5908" x="263.7935" y="62.292">Interoperability</text><text fill="#000000" font-family="sans-serif" font-size="14" lengthAdjust="spacing" textLength="28.2871" x="303.4453" y="78.5889">Hub</text><g><title>Sending</title><rect fill="#FFFFFF" height="63.2656" style="stroke:#181818;stroke-width:1;" width="10" x="35.4546" y="99.8906"/></g><g><title>Sending</title><rect fill="#FFFFFF" height="264.7969" style="stroke:#181818;stroke-width:1;" width="10" x="35.4546" y="284.5547"/></g><g><title>Sending</title><rect fill="#FFFFFF" height="151.3984" style="stroke:#181818;stroke-width:1;" width="10" x="40.4546" y="397.9531"/></g><g><title>Interoperability</title><rect fill="#FFFFFF" height="82.2656" style="stroke:#181818;stroke-width:1;" width="10" x="312.5889" y="200.2891"/></g><g><title>Interoperability</title><rect fill="#FFFFFF" height="152.3984" style="stroke:#181818;stroke-width:1;" width="10" x="312.5889" y="519.3516"/></g><line style="stroke:#181818;stroke-width:1;" x1="45.4546" x2="87.4546" y1="121.0234" y2="121.0234"/><line style="stroke:#181818;stroke-width:1;" x1="87.4546" x2="87.4546" y1="121.0234" y2="134.0234"/><line style="stroke:#181818;stroke-width:1;" x1="46.4546" x2="87.4546" y1="134.0234" y2="134.0234"/><polygon fill="#181818" points="56.4546,130.0234,46.4546,134.0234,56.4546,138.0234" style="stroke:#181818;stroke-width:1;"/><text fill="#000000" font-family="sans-serif" font-size="13" lengthAdjust="spacing" textLength="123.2271" x="52.4546" y="115.9575">lockITMOs(iTMOID)</text><polygon fill="#181818" points="305.5889,159.1563,315.5889,163.1563,305.5889,167.1563" style="stroke:#181818;stroke-width:1;"/><line style="stroke:#181818;stroke-width:1;" x1="40.4546" x2="311.5889" y1="163.1563" y2="163.1563"/><text fill="#000000" font-family="sans-serif" font-size="13" lengthAdjust="spacing" textLength="199.3228" x="47.4546" y="158.0903">proposeAction(actionProposal)</text><line style="stroke:#181818;stroke-width:1;" x1="317.5889" x2="364.5889" y1="187.2891" y2="187.2891"/><line style="stroke:#181818;stroke-width:1;" x1="364.5889" x2="364.5889" y1="187.2891" y2="200.2891"/><line style="stroke:#181818;stroke-width:1;" x1="323.5889" x2="364.5889" y1="200.2891" y2="200.2891"/><polygon fill="#181818" points="333.5889,196.2891,323.5889,200.2891,333.5889,204.2891" style="stroke:#181818;stroke-width:1;"/><text fill="#000000" font-family="sans-serif" font-size="13" lengthAdjust="spacing" textLength="172.0913" x="329.5889" y="182.2231">lockITMOs(actionProposal)</text><line style="stroke:#181818;stroke-width:1;" x1="322.5889" x2="364.5889" y1="234.4219" y2="234.4219"/><line style="stroke:#181818;stroke-width:1;" x1="364.5889" x2="364.5889" y1="234.4219" y2="247.4219"/><line style="stroke:#181818;stroke-width:1;" x1="323.5889" x2="364.5889" y1="247.4219" y2="247.4219"/><polygon fill="#181818" points="333.5889,243.4219,323.5889,247.4219,333.5889,251.4219" style="stroke:#181818;stroke-width:1;"/><text fill="#000000" font-family="sans-serif" font-size="13" lengthAdjust="spacing" textLength="213.7446" x="329.5889" y="229.356">validateProposal(actionProposal)</text><line style="stroke:#181818;stroke-width:1;" x1="322.5889" x2="364.5889" y1="281.5547" y2="281.5547"/><line style="stroke:#181818;stroke-width:1;" x1="364.5889" x2="364.5889" y1="281.5547" y2="294.5547"/><line style="stroke:#181818;stroke-width:1;" x1="317.5889" x2="364.5889" y1="294.5547" y2="294.5547"/><polygon fill="#181818" points="327.5889,290.5547,317.5889,294.5547,327.5889,298.5547" style="stroke:#181818;stroke-width:1;"/><text fill="#000000" font-family="sans-serif" font-size="13" lengthAdjust="spacing" textLength="264.1831" x="329.5889" y="276.4888">createNextAction(actionProposal):Action</text><path d="M615.1831,263.9219 L615.1831,288.9219 L809.1831,288.9219 L809.1831,273.9219 L799.1831,263.9219 L615.1831,263.9219 " fill="#FEFFDD" style="stroke:#181818;stroke-width:0.5;"/><path d="M799.1831,263.9219 L799.1831,273.9219 L809.1831,273.9219 L799.1831,263.9219 " fill="#FEFFDD" style="stroke:#181818;stroke-width:0.5;"/><text fill="#000000" font-family="sans-serif" font-size="13" lengthAdjust="spacing" textLength="173.1387" x="621.1831" y="280.9888">actionStatus == Validated</text><polygon fill="#181818" points="305.5889,314.6875,315.5889,318.6875,305.5889,322.6875" style="stroke:#181818;stroke-width:1;"/><line style="stroke:#181818;stroke-width:1;" x1="45.4546" x2="311.5889" y1="318.6875" y2="318.6875"/><text fill="#000000" font-family="sans-serif" font-size="13" lengthAdjust="spacing" textLength="183.7329" x="52.4546" y="313.6216">getPendingActions():Actions</text><line style="stroke:#181818;stroke-width:1;" x1="45.4546" x2="87.4546" y1="347.8203" y2="347.8203"/><line style="stroke:#181818;stroke-width:1;" x1="87.4546" x2="87.4546" y1="347.8203" y2="360.8203"/><line style="stroke:#181818;stroke-width:1;" x1="46.4546" x2="87.4546" y1="360.8203" y2="360.8203"/><polygon fill="#181818" points="56.4546,356.8203,46.4546,360.8203,56.4546,364.8203" style="stroke:#181818;stroke-width:1;"/><text fill="#000000" font-family="sans-serif" font-size="13" lengthAdjust="spacing" textLength="207.3208" x="52.4546" y="342.7544">processPendingActions(actions)</text><line style="stroke:#181818;stroke-width:1;" x1="45.4546" x2="92.4546" y1="384.9531" y2="384.9531"/><line style="stroke:#181818;stroke-width:1;" x1="92.4546" x2="92.4546" y1="384.9531" y2="397.9531"/><line style="stroke:#181818;stroke-width:1;" x1="51.4546" x2="92.4546" y1="397.9531" y2="397.9531"/><polygon fill="#181818" points="61.4546,393.9531,51.4546,397.9531,61.4546,401.9531" style="stroke:#181818;stroke-width:1;"/><text fill="#000000" font-family="sans-serif" font-size="13" lengthAdjust="spacing" textLength="141.3433" x="57.4546" y="379.8872">processAction(action)</text><line style="stroke:#181818;stroke-width:1;" x1="50.4546" x2="92.4546" y1="432.0859" y2="432.0859"/><line style="stroke:#181818;stroke-width:1;" x1="92.4546" x2="92.4546" y1="432.0859" y2="445.0859"/><line style="stroke:#181818;stroke-width:1;" x1="51.4546" x2="92.4546" y1="445.0859" y2="445.0859"/><polygon fill="#181818" points="61.4546,441.0859,51.4546,445.0859,61.4546,449.0859" style="stroke:#181818;stroke-width:1;"/><text fill="#000000" font-family="sans-serif" font-size="13" lengthAdjust="spacing" textLength="202.6235" x="57.4546" y="427.02">processActionWarnings(action)</text><line style="stroke:#181818;stroke-width:1;" x1="50.4546" x2="92.4546" y1="474.2188" y2="474.2188"/><line style="stroke:#181818;stroke-width:1;" x1="92.4546" x2="92.4546" y1="474.2188" y2="487.2188"/><line style="stroke:#181818;stroke-width:1;" x1="51.4546" x2="92.4546" y1="487.2188" y2="487.2188"/><polygon fill="#181818" points="61.4546,483.2188,51.4546,487.2188,61.4546,491.2188" style="stroke:#181818;stroke-width:1;"/><text fill="#000000" font-family="sans-serif" font-size="13" lengthAdjust="spacing" textLength="132.8755" x="57.4546" y="469.1528">unlockITMOs(action)</text><polygon fill="#181818" points="300.5889,515.3516,310.5889,519.3516,300.5889,523.3516" style="stroke:#181818;stroke-width:1;"/><line style="stroke:#181818;stroke-width:1;" x1="50.4546" x2="306.5889" y1="519.3516" y2="519.3516"/><text fill="#000000" font-family="sans-serif" font-size="13" lengthAdjust="spacing" textLength="243.1343" x="57.4546" y="514.2856">processAction(actionId, actionStatus)</text><path d="M327,500.2188 L327,525.2188 L520,525.2188 L520,510.2188 L510,500.2188 L327,500.2188 " fill="#FEFFDD" style="stroke:#181818;stroke-width:0.5;"/><path d="M510,500.2188 L510,510.2188 L520,510.2188 L510,500.2188 " fill="#FEFFDD" style="stroke:#181818;stroke-width:0.5;"/><text fill="#000000" font-family="sans-serif" font-size="13" lengthAdjust="spacing" textLength="172.2754" x="333" y="517.2856">actionStatus == Accepted</text><line style="stroke:#181818;stroke-width:1;" x1="322.5889" x2="364.5889" y1="581.4844" y2="581.4844"/><line style="stroke:#181818;stroke-width:1;" x1="364.5889" x2="364.5889" y1="581.4844" y2="594.4844"/><line style="stroke:#181818;stroke-width:1;" x1="323.5889" x2="364.5889" y1="594.4844" y2="594.4844"/><polygon fill="#181818" points="333.5889,590.4844,323.5889,594.4844,333.5889,598.4844" style="stroke:#181818;stroke-width:1;"/><text fill="#000000" font-family="sans-serif" font-size="13" lengthAdjust="spacing" textLength="294.9185" x="329.5889" y="576.4185">validateProcessAction(actionId, actionStatus)</text><line style="stroke:#181818;stroke-width:1;" x1="322.5889" x2="364.5889" y1="623.6172" y2="623.6172"/><line style="stroke:#181818;stroke-width:1;" x1="364.5889" x2="364.5889" y1="623.6172" y2="636.6172"/><line style="stroke:#181818;stroke-width:1;" x1="323.5889" x2="364.5889" y1="636.6172" y2="636.6172"/><polygon fill="#181818" points="333.5889,632.6172,323.5889,636.6172,333.5889,640.6172" style="stroke:#181818;stroke-width:1;"/><text fill="#000000" font-family="sans-serif" font-size="13" lengthAdjust="spacing" textLength="243.1343" x="329.5889" y="618.5513">processAction(actionId, actionStatus)</text><path d="M594.1343,610.9844 L594.1343,635.9844 L797.1343,635.9844 L797.1343,620.9844 L787.1343,610.9844 L594.1343,610.9844 " fill="#FEFFDD" style="stroke:#181818;stroke-width:0.5;"/><path d="M787.1343,610.9844 L787.1343,620.9844 L797.1343,620.9844 L787.1343,610.9844 " fill="#FEFFDD" style="stroke:#181818;stroke-width:0.5;"/><text fill="#000000" font-family="sans-serif" font-size="13" lengthAdjust="spacing" textLength="182.3936" x="600.1343" y="628.0513">actionStatus == Completed</text><line style="stroke:#181818;stroke-width:1;" x1="322.5889" x2="364.5889" y1="670.75" y2="670.75"/><line style="stroke:#181818;stroke-width:1;" x1="364.5889" x2="364.5889" y1="670.75" y2="683.75"/><line style="stroke:#181818;stroke-width:1;" x1="317.5889" x2="364.5889" y1="683.75" y2="683.75"/><polygon fill="#181818" points="327.5889,679.75,317.5889,683.75,327.5889,687.75" style="stroke:#181818;stroke-width:1;"/><text fill="#000000" font-family="sans-serif" font-size="13" lengthAdjust="spacing" textLength="144.9614" x="329.5889" y="665.6841">unlockITMOs(actionId)</text><!--SRC=[fLB1JiCm3BtdAwoTLetzGAKXJN2W1s1Y22wxPAbLecLf5RiJ-tlSfOEr7HKIbrXotlDxUGvRTWXhwmifBrXOud24fM5RUgLePtsbWzu3yL40ScaDrtkdbBJP6bjfpp1PeyzbnCQ7Ti84D47JnT15Pfunb1K6lRNEyd7Z7-hj2IrLAIt21yruviO2yzksaO8hpIvxVNocgPKpkqykC382KgXaVaaOtp3Lfx8wzRHBL8vz3TNG8disknJeKtzmAHoqixaCET-EWEVp54n00J_X9r-tbRQ9-r9y1LjyS0eHicRDDS5Y0M-jP3uMKuoWG5x5bSIvD3qhaBgIgIHcaAX7YVgKZ30wZqd-iBqExrq7BthqpH_YQzzVHs_VpSQkcSdocqw0oMYqIsEmQf8T_evXvvTly0SBbyp_cxuhzvN3ndNthmqpo_94VG40]--></g></svg>