<svg xmlns="http://www.w3.org/2000/svg" xmlns:xlink="http://www.w3.org/1999/xlink" contentStyleType="text/css" data-diagram-type="SEQUENCE" height="1591px" preserveAspectRatio="none" style="width:897px;height:1591px;background:#FFFFFF;" version="1.1" viewBox="0 0 897 1591" width="897px" zoomAndPan="magnify"><title>Single Registry Action</title><defs/><g><text fill="#000000" font-family="sans-serif" font-size="14" font-weight="bold" lengthAdjust="spacing" textLength="175.2734" x="362.4678" y="27.9951">Single Registry Action</text><g><title>Sending</title><rect fill="#FFFFFF" height="66.2656" style="stroke:#181818;stroke-width:1;" width="10" x="60.4546" y="99.8906"/></g><g><title>Sending</title><rect fill="#FFFFFF" height="308.1289" style="stroke:#181818;stroke-width:1;" width="10" x="60.4546" y="333.8867"/></g><g><title>Sending</title><rect fill="#FFFFFF" height="217.6641" style="stroke:#181818;stroke-width:1;" width="10" x="65.4546" y="424.3516"/></g><g><title>Sending</title><rect fill="#FFFFFF" height="291.5625" style="stroke:#181818;stroke-width:1;" width="10" x="60.4546" y="1138.2422"/></g><g><title>Sending</title><rect fill="#FFFFFF" height="193.5313" style="stroke:#181818;stroke-width:1;" width="10" x="65.4546" y="1236.2734"/></g><g><title>Interoperability</title><rect fill="#FFFFFF" height="125.5977" style="stroke:#181818;stroke-width:1;" width="10" x="373.8872" y="206.2891"/></g><g><title>Interoperability</title><rect fill="#FFFFFF" height="152.3984" style="stroke:#181818;stroke-width:1;" width="10" x="373.8872" y="612.0156"/></g><g><title>Interoperability</title><rect fill="#FFFFFF" height="152.3984" style="stroke:#181818;stroke-width:1;" width="10" x="373.8872" y="834.6797"/></g><g><title>Interoperability</title><rect fill="#FFFFFF" height="152.3984" style="stroke:#181818;stroke-width:1;" width="10" x="373.8872" y="1399.8047"/></g><rect fill="transparent" height="782.7891" style="stroke:#000000;stroke-width:1.5;" width="881.209" x="10" y="226.2891"/><rect fill="transparent" height="208.6641" style="stroke:#000000;stroke-width:1.5;" width="859.415" x="20" y="570.75"/><rect fill="transparent" height="208.6641" style="stroke:#000000;stroke-width:1.5;" width="863.6235" x="20" y="793.4141"/><rect fill="transparent" height="544.125" style="stroke:#000000;stroke-width:1.5;" width="863.6235" x="20" y="1023.0781"/><g><title>Sending</title><rect fill="transparent" height="1494.3125" width="8" x="61.4546" y="89.8906"/><line style="stroke:#181818;stroke-width:0.5;stroke-dasharray:5.0,5.0;" x1="65" x2="65" y1="89.8906" y2="1584.2031"/></g><g><title>Interoperability</title><rect fill="transparent" height="1494.3125" width="8" x="374.8872" y="89.8906"/><line style="stroke:#181818;stroke-width:0.5;stroke-dasharray:5.0,5.0;" x1="378.0918" x2="378.0918" y1="89.8906" y2="1584.2031"/></g><rect fill="#E2E2F0" height="46.5938" rx="2.5" ry="2.5" style="stroke:#181818;stroke-width:0.5;" width="70.9092" x="30" y="42.2969"/><text fill="#000000" font-family="sans-serif" font-size="14" lengthAdjust="spacing" textLength="56.9092" x="37" y="62.292">Sending</text><text fill="#000000" font-family="sans-serif" font-size="14" lengthAdjust="spacing" textLength="53.9697" x="38.4697" y="78.5889">registry</text><rect fill="#E2E2F0" height="46.5938" rx="2.5" ry="2.5" style="stroke:#181818;stroke-width:0.5;" width="121.5908" x="318.0918" y="42.2969"/><text fill="#000000" font-family="sans-serif" font-size="14" lengthAdjust="spacing" textLength="107.5908" x="325.0918" y="62.292">Interoperability</text><text fill="#000000" font-family="sans-serif" font-size="14" lengthAdjust="spacing" textLength="28.2871" x="364.7437" y="78.5889">Hub</text><g><title>Sending</title><rect fill="#FFFFFF" height="66.2656" style="stroke:#181818;stroke-width:1;" width="10" x="60.4546" y="99.8906"/></g><g><title>Sending</title><rect fill="#FFFFFF" height="308.1289" style="stroke:#181818;stroke-width:1;" width="10" x="60.4546" y="333.8867"/></g><g><title>Sending</title><rect fill="#FFFFFF" height="217.6641" style="stroke:#181818;stroke-width:1;" width="10" x="65.4546" y="424.3516"/></g><g><title>Sending</title><rect fill="#FFFFFF" height="291.5625" style="stroke:#181818;stroke-width:1;" width="10" x="60.4546" y="1138.2422"/></g><g><title>Sending</title><rect fill="#FFFFFF" height="193.5313" style="stroke:#181818;stroke-width:1;" width="10" x="65.4546" y="1236.2734"/></g><g><title>Interoperability</title><rect fill="#FFFFFF" height="125.5977" style="stroke:#181818;stroke-width:1;" width="10" x="373.8872" y="206.2891"/></g><g><title>Interoperability</title><rect fill="#FFFFFF" height="152.3984" style="stroke:#181818;stroke-width:1;" width="10" x="373.8872" y="612.0156"/></g><g><title>Interoperability</title><rect fill="#FFFFFF" height="152.3984" style="stroke:#181818;stroke-width:1;" width="10" x="373.8872" y="834.6797"/></g><g><title>Interoperability</title><rect fill="#FFFFFF" height="152.3984" style="stroke:#181818;stroke-width:1;" width="10" x="373.8872" y="1399.8047"/></g><line style="stroke:#181818;stroke-width:1;" x1="70.4546" x2="112.4546" y1="121.0234" y2="121.0234"/><line style="stroke:#181818;stroke-width:1;" x1="112.4546" x2="112.4546" y1="121.0234" y2="134.0234"/><line style="stroke:#181818;stroke-width:1;" x1="71.4546" x2="112.4546" y1="134.0234" y2="134.0234"/><polygon fill="#181818" points="81.4546,130.0234,71.4546,134.0234,81.4546,138.0234" style="stroke:#181818;stroke-width:1;"/><text fill="#000000" font-family="sans-serif" font-size="13" lengthAdjust="spacing" textLength="123.2271" x="77.4546" y="115.9575">lockITMOs(iTMOID)</text><polygon fill="#181818" points="366.8872,162.1563,376.8872,166.1563,366.8872,170.1563" style="stroke:#181818;stroke-width:1;"/><line style="stroke:#181818;stroke-width:1;" x1="65.4546" x2="372.8872" y1="166.1563" y2="166.1563"/><text fill="#000000" font-family="sans-serif" font-size="13" lengthAdjust="spacing" textLength="199.3228" x="72.4546" y="161.0903">proposeAction(actionProposal)</text><path d="M383,147.0234 L383,172.0234 L575,172.0234 L575,157.0234 L565,147.0234 L383,147.0234 " fill="#FEFFDD" style="stroke:#181818;stroke-width:0.5;"/><path d="M565,147.0234 L565,157.0234 L575,157.0234 L565,147.0234 " fill="#FEFFDD" style="stroke:#181818;stroke-width:0.5;"/><text fill="#000000" font-family="sans-serif" font-size="13" lengthAdjust="spacing" textLength="171.8564" x="389" y="164.0903">actionStatus == Proposed</text><line style="stroke:#181818;stroke-width:1;" x1="378.8872" x2="425.8872" y1="193.2891" y2="193.2891"/><line style="stroke:#181818;stroke-width:1;" x1="425.8872" x2="425.8872" y1="193.2891" y2="206.2891"/><line style="stroke:#181818;stroke-width:1;" x1="384.8872" x2="425.8872" y1="206.2891" y2="206.2891"/><polygon fill="#181818" points="394.8872,202.2891,384.8872,206.2891,394.8872,210.2891" style="stroke:#181818;stroke-width:1;"/><text fill="#000000" font-family="sans-serif" font-size="13" lengthAdjust="spacing" textLength="172.0913" x="390.8872" y="188.2231">lockITMOs(actionProposal)</text><path d="M10,226.2891 L74.4429,226.2891 L74.4429,233.4219 L64.4429,243.4219 L10,243.4219 L10,226.2891 " fill="#EEEEEE" style="stroke:#000000;stroke-width:1.5;"/><rect fill="transparent" height="782.7891" style="stroke:#000000;stroke-width:1.5;" width="881.209" x="10" y="226.2891"/><text fill="#000000" font-family="sans-serif" font-size="13" font-weight="bold" lengthAdjust="spacing" textLength="19.4429" x="25" y="239.356">alt</text><text fill="#000000" font-family="sans-serif" font-size="11" font-weight="bold" lengthAdjust="spacing" textLength="137.8115" x="89.4429" y="238.4995">[Valid actionProposal]</text><line style="stroke:#181818;stroke-width:1;" x1="383.8872" x2="425.8872" y1="264.5547" y2="264.5547"/><line style="stroke:#181818;stroke-width:1;" x1="425.8872" x2="425.8872" y1="264.5547" y2="277.5547"/><line style="stroke:#181818;stroke-width:1;" x1="384.8872" x2="425.8872" y1="277.5547" y2="277.5547"/><polygon fill="#181818" points="394.8872,273.5547,384.8872,277.5547,394.8872,281.5547" style="stroke:#181818;stroke-width:1;"/><text fill="#000000" font-family="sans-serif" font-size="13" lengthAdjust="spacing" textLength="213.7446" x="390.8872" y="259.4888">validateProposal(actionProposal)</text><line style="stroke:#181818;stroke-width:1;" x1="383.8872" x2="425.8872" y1="330.8867" y2="330.8867"/><line style="stroke:#181818;stroke-width:1;" x1="425.8872" x2="425.8872" y1="330.8867" y2="343.8867"/><line style="stroke:#181818;stroke-width:1;" x1="378.8872" x2="425.8872" y1="343.8867" y2="343.8867"/><polygon fill="#181818" points="388.8872,339.8867,378.8872,343.8867,388.8872,347.8867" style="stroke:#181818;stroke-width:1;"/><text fill="#000000" font-family="sans-serif" font-size="13" lengthAdjust="spacing" textLength="264.1831" x="390.8872" y="325.8208">createNextAction(actionProposal):Action</text><path d="M676.1831,290.5547 L676.1831,360.5547 L870.1831,360.5547 L870.1831,300.5547 L860.1831,290.5547 L676.1831,290.5547 " fill="#FEFFDD" style="stroke:#181818;stroke-width:0.5;"/><path d="M860.1831,290.5547 L860.1831,300.5547 L870.1831,300.5547 L860.1831,290.5547 " fill="#FEFFDD" style="stroke:#181818;stroke-width:0.5;"/><text fill="#000000" font-family="sans-serif" font-size="13" lengthAdjust="spacing" textLength="173.1387" x="682.1831" y="307.6216">actionStatus == Validated</text><text fill="#000000" font-family="sans-serif" font-size="13" lengthAdjust="spacing" textLength="4.1323" x="682.1831" y="322.7544">&#160;</text><text fill="#000000" font-family="sans-serif" font-size="13" lengthAdjust="spacing" textLength="147.8179" x="682.1831" y="337.8872">(may include warnings</text><text fill="#000000" font-family="sans-serif" font-size="13" lengthAdjust="spacing" textLength="110.4492" x="682.1831" y="353.02">logged in Action)</text><polygon fill="#181818" points="366.8872,383.2188,376.8872,387.2188,366.8872,391.2188" style="stroke:#181818;stroke-width:1;"/><line style="stroke:#181818;stroke-width:1;" x1="70.4546" x2="372.8872" y1="387.2188" y2="387.2188"/><text fill="#000000" font-family="sans-serif" font-size="13" lengthAdjust="spacing" textLength="183.7329" x="77.4546" y="382.1528">getPendingActions():Actions</text><line style="stroke:#181818;stroke-width:1;" x1="70.4546" x2="117.4546" y1="411.3516" y2="411.3516"/><line style="stroke:#181818;stroke-width:1;" x1="117.4546" x2="117.4546" y1="411.3516" y2="424.3516"/><line style="stroke:#181818;stroke-width:1;" x1="76.4546" x2="117.4546" y1="424.3516" y2="424.3516"/><polygon fill="#181818" points="86.4546,420.3516,76.4546,424.3516,86.4546,428.3516" style="stroke:#181818;stroke-width:1;"/><text fill="#000000" font-family="sans-serif" font-size="13" lengthAdjust="spacing" textLength="207.3208" x="82.4546" y="406.2856">processPendingActions(actions)</text><line style="stroke:#181818;stroke-width:1;" x1="75.4546" x2="117.4546" y1="458.4844" y2="458.4844"/><line style="stroke:#181818;stroke-width:1;" x1="117.4546" x2="117.4546" y1="458.4844" y2="471.4844"/><line style="stroke:#181818;stroke-width:1;" x1="76.4546" x2="117.4546" y1="471.4844" y2="471.4844"/><polygon fill="#181818" points="86.4546,467.4844,76.4546,471.4844,86.4546,475.4844" style="stroke:#181818;stroke-width:1;"/><text fill="#000000" font-family="sans-serif" font-size="13" lengthAdjust="spacing" textLength="269.4326" x="82.4546" y="453.4185">processActionStatusAndWarnings(action)</text><path d="M378.4326,445.8516 L378.4326,470.8516 L572.4326,470.8516 L572.4326,455.8516 L562.4326,445.8516 L378.4326,445.8516 " fill="#FEFFDD" style="stroke:#181818;stroke-width:0.5;"/><path d="M562.4326,445.8516 L562.4326,455.8516 L572.4326,455.8516 L562.4326,445.8516 " fill="#FEFFDD" style="stroke:#181818;stroke-width:0.5;"/><text fill="#000000" font-family="sans-serif" font-size="13" lengthAdjust="spacing" textLength="173.1387" x="384.4326" y="462.9185">actionStatus == Validated</text><line style="stroke:#181818;stroke-width:1;" x1="75.4546" x2="117.4546" y1="500.6172" y2="500.6172"/><line style="stroke:#181818;stroke-width:1;" x1="117.4546" x2="117.4546" y1="500.6172" y2="513.6172"/><line style="stroke:#181818;stroke-width:1;" x1="76.4546" x2="117.4546" y1="513.6172" y2="513.6172"/><polygon fill="#181818" points="86.4546,509.6172,76.4546,513.6172,86.4546,517.6172" style="stroke:#181818;stroke-width:1;"/><text fill="#000000" font-family="sans-serif" font-size="13" lengthAdjust="spacing" textLength="141.3433" x="82.4546" y="495.5513">processAction(action)</text><line style="stroke:#181818;stroke-width:1;" x1="75.4546" x2="117.4546" y1="542.75" y2="542.75"/><line style="stroke:#181818;stroke-width:1;" x1="117.4546" x2="117.4546" y1="542.75" y2="555.75"/><line style="stroke:#181818;stroke-width:1;" x1="76.4546" x2="117.4546" y1="555.75" y2="555.75"/><polygon fill="#181818" points="86.4546,551.75,76.4546,555.75,86.4546,559.75" style="stroke:#181818;stroke-width:1;"/><text fill="#000000" font-family="sans-serif" font-size="13" lengthAdjust="spacing" textLength="132.8755" x="82.4546" y="537.6841">unlockITMOs(action)</text><path d="M20,570.75 L84.4429,570.75 L84.4429,577.8828 L74.4429,587.8828 L20,587.8828 L20,570.75 " fill="#EEEEEE" style="stroke:#000000;stroke-width:1.5;"/><rect fill="transparent" height="208.6641" style="stroke:#000000;stroke-width:1.5;" width="859.415" x="20" y="570.75"/><text fill="#000000" font-family="sans-serif" font-size="13" font-weight="bold" lengthAdjust="spacing" textLength="19.4429" x="35" y="583.8169">alt</text><text fill="#000000" font-family="sans-serif" font-size="11" font-weight="bold" lengthAdjust="spacing" textLength="331.4448" x="99.4429" y="582.9604">[No warnings or Registry proceeds despite warnings]</text><polygon fill="#181818" points="361.8872,608.0156,371.8872,612.0156,361.8872,616.0156" style="stroke:#181818;stroke-width:1;"/><line style="stroke:#181818;stroke-width:1;" x1="75.4546" x2="367.8872" y1="612.0156" y2="612.0156"/><text fill="#000000" font-family="sans-serif" font-size="13" lengthAdjust="spacing" textLength="243.1343" x="82.4546" y="606.9497">processAction(actionId, actionStatus)</text><path d="M388,592.8828 L388,617.8828 L581,617.8828 L581,602.8828 L571,592.8828 L388,592.8828 " fill="#FEFFDD" style="stroke:#181818;stroke-width:0.5;"/><path d="M571,592.8828 L571,602.8828 L581,602.8828 L571,592.8828 " fill="#FEFFDD" style="stroke:#181818;stroke-width:0.5;"/><text fill="#000000" font-family="sans-serif" font-size="13" lengthAdjust="spacing" textLength="172.2754" x="394" y="609.9497">actionStatus == Accepted</text><line style="stroke:#181818;stroke-width:1;" x1="383.8872" x2="425.8872" y1="674.1484" y2="674.1484"/><line style="stroke:#181818;stroke-width:1;" x1="425.8872" x2="425.8872" y1="674.1484" y2="687.1484"/><line style="stroke:#181818;stroke-width:1;" x1="384.8872" x2="425.8872" y1="687.1484" y2="687.1484"/><polygon fill="#181818" points="394.8872,683.1484,384.8872,687.1484,394.8872,691.1484" style="stroke:#181818;stroke-width:1;"/><text fill="#000000" font-family="sans-serif" font-size="13" lengthAdjust="spacing" textLength="294.9185" x="390.8872" y="669.0825">validateProcessAction(actionId, actionStatus)</text><line style="stroke:#181818;stroke-width:1;" x1="383.8872" x2="425.8872" y1="716.2813" y2="716.2813"/><line style="stroke:#181818;stroke-width:1;" x1="425.8872" x2="425.8872" y1="716.2813" y2="729.2813"/><line style="stroke:#181818;stroke-width:1;" x1="384.8872" x2="425.8872" y1="729.2813" y2="729.2813"/><polygon fill="#181818" points="394.8872,725.2813,384.8872,729.2813,394.8872,733.2813" style="stroke:#181818;stroke-width:1;"/><text fill="#000000" font-family="sans-serif" font-size="13" lengthAdjust="spacing" textLength="243.1343" x="390.8872" y="711.2153">processAction(actionId, actionStatus)</text><path d="M655.1343,703.6484 L655.1343,728.6484 L858.1343,728.6484 L858.1343,713.6484 L848.1343,703.6484 L655.1343,703.6484 " fill="#FEFFDD" style="stroke:#181818;stroke-width:0.5;"/><path d="M848.1343,703.6484 L848.1343,713.6484 L858.1343,713.6484 L848.1343,703.6484 " fill="#FEFFDD" style="stroke:#181818;stroke-width:0.5;"/><text fill="#000000" font-family="sans-serif" font-size="13" lengthAdjust="spacing" textLength="182.3936" x="661.1343" y="720.7153">actionStatus == Completed</text><line style="stroke:#181818;stroke-width:1;" x1="383.8872" x2="425.8872" y1="763.4141" y2="763.4141"/><line style="stroke:#181818;stroke-width:1;" x1="425.8872" x2="425.8872" y1="763.4141" y2="776.4141"/><line style="stroke:#181818;stroke-width:1;" x1="378.8872" x2="425.8872" y1="776.4141" y2="776.4141"/><polygon fill="#181818" points="388.8872,772.4141,378.8872,776.4141,388.8872,780.4141" style="stroke:#181818;stroke-width:1;"/><text fill="#000000" font-family="sans-serif" font-size="13" lengthAdjust="spacing" textLength="144.9614" x="390.8872" y="758.3481">unlockITMOs(actionId)</text><path d="M20,793.4141 L84.4429,793.4141 L84.4429,800.5469 L74.4429,810.5469 L20,810.5469 L20,793.4141 " fill="#EEEEEE" style="stroke:#000000;stroke-width:1.5;"/><rect fill="transparent" height="208.6641" style="stroke:#000000;stroke-width:1.5;" width="863.6235" x="20" y="793.4141"/><text fill="#000000" font-family="sans-serif" font-size="13" font-weight="bold" lengthAdjust="spacing" textLength="19.4429" x="35" y="806.481">alt</text><text fill="#000000" font-family="sans-serif" font-size="11" font-weight="bold" lengthAdjust="spacing" textLength="173.7764" x="99.4429" y="805.6245">[Registry does not proceed]</text><polygon fill="#181818" points="361.8872,830.6797,371.8872,834.6797,361.8872,838.6797" style="stroke:#181818;stroke-width:1;"/><line style="stroke:#181818;stroke-width:1;" x1="65.4546" x2="367.8872" y1="834.6797" y2="834.6797"/><text fill="#000000" font-family="sans-serif" font-size="13" lengthAdjust="spacing" textLength="243.1343" x="72.4546" y="829.6138">processAction(actionId, actionStatus)</text><path d="M388,815.5469 L388,840.5469 L595,840.5469 L595,825.5469 L585,815.5469 L388,815.5469 " fill="#FEFFDD" style="stroke:#181818;stroke-width:0.5;"/><path d="M585,815.5469 L585,825.5469 L595,825.5469 L585,815.5469 " fill="#FEFFDD" style="stroke:#181818;stroke-width:0.5;"/><text fill="#000000" font-family="sans-serif" font-size="13" lengthAdjust="spacing" textLength="186.6021" x="394" y="832.6138">actionStatus == Terminated</text><line style="stroke:#181818;stroke-width:1;" x1="383.8872" x2="425.8872" y1="896.8125" y2="896.8125"/><line style="stroke:#181818;stroke-width:1;" x1="425.8872" x2="425.8872" y1="896.8125" y2="909.8125"/><line style="stroke:#181818;stroke-width:1;" x1="384.8872" x2="425.8872" y1="909.8125" y2="909.8125"/><polygon fill="#181818" points="394.8872,905.8125,384.8872,909.8125,394.8872,913.8125" style="stroke:#181818;stroke-width:1;"/><text fill="#000000" font-family="sans-serif" font-size="13" lengthAdjust="spacing" textLength="294.9185" x="390.8872" y="891.7466">validateProcessAction(actionId, actionStatus)</text><line style="stroke:#181818;stroke-width:1;" x1="383.8872" x2="425.8872" y1="938.9453" y2="938.9453"/><line style="stroke:#181818;stroke-width:1;" x1="425.8872" x2="425.8872" y1="938.9453" y2="951.9453"/><line style="stroke:#181818;stroke-width:1;" x1="384.8872" x2="425.8872" y1="951.9453" y2="951.9453"/><polygon fill="#181818" points="394.8872,947.9453,384.8872,951.9453,394.8872,955.9453" style="stroke:#181818;stroke-width:1;"/><text fill="#000000" font-family="sans-serif" font-size="13" lengthAdjust="spacing" textLength="243.1343" x="390.8872" y="933.8794">processAction(actionId, actionStatus)</text><path d="M655.1343,926.3125 L655.1343,951.3125 L862.1343,951.3125 L862.1343,936.3125 L852.1343,926.3125 L655.1343,926.3125 " fill="#FEFFDD" style="stroke:#181818;stroke-width:0.5;"/><path d="M852.1343,926.3125 L852.1343,936.3125 L862.1343,936.3125 L852.1343,926.3125 " fill="#FEFFDD" style="stroke:#181818;stroke-width:0.5;"/><text fill="#000000" font-family="sans-serif" font-size="13" lengthAdjust="spacing" textLength="186.6021" x="661.1343" y="943.3794">actionStatus == Terminated</text><line style="stroke:#181818;stroke-width:1;" x1="383.8872" x2="425.8872" y1="986.0781" y2="986.0781"/><line style="stroke:#181818;stroke-width:1;" x1="425.8872" x2="425.8872" y1="986.0781" y2="999.0781"/><line style="stroke:#181818;stroke-width:1;" x1="378.8872" x2="425.8872" y1="999.0781" y2="999.0781"/><polygon fill="#181818" points="388.8872,995.0781,378.8872,999.0781,388.8872,1003.0781" style="stroke:#181818;stroke-width:1;"/><text fill="#000000" font-family="sans-serif" font-size="13" lengthAdjust="spacing" textLength="144.9614" x="390.8872" y="981.0122">unlockITMOs(actionId)</text><path d="M20,1023.0781 L84.4429,1023.0781 L84.4429,1030.2109 L74.4429,1040.2109 L20,1040.2109 L20,1023.0781 " fill="#EEEEEE" style="stroke:#000000;stroke-width:1.5;"/><rect fill="transparent" height="544.125" style="stroke:#000000;stroke-width:1.5;" width="863.6235" x="20" y="1023.0781"/><text fill="#000000" font-family="sans-serif" font-size="13" font-weight="bold" lengthAdjust="spacing" textLength="19.4429" x="35" y="1036.145">alt</text><text fill="#000000" font-family="sans-serif" font-size="11" font-weight="bold" lengthAdjust="spacing" textLength="148.3926" x="99.4429" y="1035.2886">[Invalid actionProposal]</text><line style="stroke:#181818;stroke-width:1;" x1="378.8872" x2="420.8872" y1="1061.3438" y2="1061.3438"/><line style="stroke:#181818;stroke-width:1;" x1="420.8872" x2="420.8872" y1="1061.3438" y2="1074.3438"/><line style="stroke:#181818;stroke-width:1;" x1="379.8872" x2="420.8872" y1="1074.3438" y2="1074.3438"/><polygon fill="#181818" points="389.8872,1070.3438,379.8872,1074.3438,389.8872,1078.3438" style="stroke:#181818;stroke-width:1;"/><text fill="#000000" font-family="sans-serif" font-size="13" lengthAdjust="spacing" textLength="213.7446" x="385.8872" y="1056.2778">validateProposal(actionProposal)</text><line style="stroke:#181818;stroke-width:1;" x1="378.8872" x2="420.8872" y1="1135.2422" y2="1135.2422"/><line style="stroke:#181818;stroke-width:1;" x1="420.8872" x2="420.8872" y1="1135.2422" y2="1148.2422"/><line style="stroke:#181818;stroke-width:1;" x1="373.8872" x2="420.8872" y1="1148.2422" y2="1148.2422"/><polygon fill="#181818" points="383.8872,1144.2422,373.8872,1148.2422,383.8872,1152.2422" style="stroke:#181818;stroke-width:1;"/><text fill="#000000" font-family="sans-serif" font-size="13" lengthAdjust="spacing" textLength="264.1831" x="385.8872" y="1130.1763">createNextAction(actionProposal):Action</text><path d="M661.1831,1087.3438 L661.1831,1172.3438 L866.1831,1172.3438 L866.1831,1097.3438 L856.1831,1087.3438 L661.1831,1087.3438 " fill="#FEFFDD" style="stroke:#181818;stroke-width:0.5;"/><path d="M856.1831,1087.3438 L856.1831,1097.3438 L866.1831,1097.3438 L856.1831,1087.3438 " fill="#FEFFDD" style="stroke:#181818;stroke-width:0.5;"/><text fill="#000000" font-family="sans-serif" font-size="13" lengthAdjust="spacing" textLength="184.0122" x="667.1831" y="1104.4106">actionStatus == Invalidated</text><text fill="#000000" font-family="sans-serif" font-size="13" lengthAdjust="spacing" textLength="4.1323" x="667.1831" y="1119.5435">&#160;</text><text fill="#000000" font-family="sans-serif" font-size="13" lengthAdjust="spacing" textLength="167.5908" x="667.1831" y="1134.6763">(includes reason proposal</text><text fill="#000000" font-family="sans-serif" font-size="13" lengthAdjust="spacing" textLength="57.5034" x="667.1831" y="1149.8091">is invalid</text><text fill="#000000" font-family="sans-serif" font-size="13" lengthAdjust="spacing" textLength="110.4492" x="667.1831" y="1164.9419">logged in Action)</text><polygon fill="#181818" points="366.8872,1195.1406,376.8872,1199.1406,366.8872,1203.1406" style="stroke:#181818;stroke-width:1;"/><line style="stroke:#181818;stroke-width:1;" x1="70.4546" x2="372.8872" y1="1199.1406" y2="1199.1406"/><text fill="#000000" font-family="sans-serif" font-size="13" lengthAdjust="spacing" textLength="183.7329" x="77.4546" y="1194.0747">getPendingActions():Actions</text><line style="stroke:#181818;stroke-width:1;" x1="70.4546" x2="117.4546" y1="1223.2734" y2="1223.2734"/><line style="stroke:#181818;stroke-width:1;" x1="117.4546" x2="117.4546" y1="1223.2734" y2="1236.2734"/><line style="stroke:#181818;stroke-width:1;" x1="76.4546" x2="117.4546" y1="1236.2734" y2="1236.2734"/><polygon fill="#181818" points="86.4546,1232.2734,76.4546,1236.2734,86.4546,1240.2734" style="stroke:#181818;stroke-width:1;"/><text fill="#000000" font-family="sans-serif" font-size="13" lengthAdjust="spacing" textLength="207.3208" x="82.4546" y="1218.2075">processPendingActions(actions)</text><line style="stroke:#181818;stroke-width:1;" x1="75.4546" x2="117.4546" y1="1270.4063" y2="1270.4063"/><line style="stroke:#181818;stroke-width:1;" x1="117.4546" x2="117.4546" y1="1270.4063" y2="1283.4063"/><line style="stroke:#181818;stroke-width:1;" x1="76.4546" x2="117.4546" y1="1283.4063" y2="1283.4063"/><polygon fill="#181818" points="86.4546,1279.4063,76.4546,1283.4063,86.4546,1287.4063" style="stroke:#181818;stroke-width:1;"/><text fill="#000000" font-family="sans-serif" font-size="13" lengthAdjust="spacing" textLength="269.4326" x="82.4546" y="1265.3403">processActionStatusAndWarnings(action)</text><path d="M378.4326,1257.7734 L378.4326,1282.7734 L583.4326,1282.7734 L583.4326,1267.7734 L573.4326,1257.7734 L378.4326,1257.7734 " fill="#FEFFDD" style="stroke:#181818;stroke-width:0.5;"/><path d="M573.4326,1257.7734 L573.4326,1267.7734 L583.4326,1267.7734 L573.4326,1257.7734 " fill="#FEFFDD" style="stroke:#181818;stroke-width:0.5;"/><text fill="#000000" font-family="sans-serif" font-size="13" lengthAdjust="spacing" textLength="184.0122" x="384.4326" y="1274.8403">actionStatus == Invalidated</text><line style="stroke:#181818;stroke-width:1;" x1="75.4546" x2="117.4546" y1="1312.5391" y2="1312.5391"/><line style="stroke:#181818;stroke-width:1;" x1="117.4546" x2="117.4546" y1="1312.5391" y2="1325.5391"/><line style="stroke:#181818;stroke-width:1;" x1="76.4546" x2="117.4546" y1="1325.5391" y2="1325.5391"/><polygon fill="#181818" points="86.4546,1321.5391,76.4546,1325.5391,86.4546,1329.5391" style="stroke:#181818;stroke-width:1;"/><text fill="#000000" font-family="sans-serif" font-size="13" lengthAdjust="spacing" textLength="141.3433" x="82.4546" y="1307.4731">processAction(action)</text><line style="stroke:#181818;stroke-width:1;" x1="75.4546" x2="117.4546" y1="1354.6719" y2="1354.6719"/><line style="stroke:#181818;stroke-width:1;" x1="117.4546" x2="117.4546" y1="1354.6719" y2="1367.6719"/><line style="stroke:#181818;stroke-width:1;" x1="76.4546" x2="117.4546" y1="1367.6719" y2="1367.6719"/><polygon fill="#181818" points="86.4546,1363.6719,76.4546,1367.6719,86.4546,1371.6719" style="stroke:#181818;stroke-width:1;"/><text fill="#000000" font-family="sans-serif" font-size="13" lengthAdjust="spacing" textLength="132.8755" x="82.4546" y="1349.606">unlockITMOs(action)</text><polygon fill="#181818" points="361.8872,1395.8047,371.8872,1399.8047,361.8872,1403.8047" style="stroke:#181818;stroke-width:1;"/><line style="stroke:#181818;stroke-width:1;" x1="75.4546" x2="367.8872" y1="1399.8047" y2="1399.8047"/><text fill="#000000" font-family="sans-serif" font-size="13" lengthAdjust="spacing" textLength="243.1343" x="82.4546" y="1394.7388">processAction(actionId, actionStatus)</text><path d="M388,1380.6719 L388,1405.6719 L595,1405.6719 L595,1390.6719 L585,1380.6719 L388,1380.6719 " fill="#FEFFDD" style="stroke:#181818;stroke-width:0.5;"/><path d="M585,1380.6719 L585,1390.6719 L595,1390.6719 L585,1380.6719 " fill="#FEFFDD" style="stroke:#181818;stroke-width:0.5;"/><text fill="#000000" font-family="sans-serif" font-size="13" lengthAdjust="spacing" textLength="186.6021" x="394" y="1397.7388">actionStatus == Terminated</text><line style="stroke:#181818;stroke-width:1;" x1="383.8872" x2="425.8872" y1="1461.9375" y2="1461.9375"/><line style="stroke:#181818;stroke-width:1;" x1="425.8872" x2="425.8872" y1="1461.9375" y2="1474.9375"/><line style="stroke:#181818;stroke-width:1;" x1="384.8872" x2="425.8872" y1="1474.9375" y2="1474.9375"/><polygon fill="#181818" points="394.8872,1470.9375,384.8872,1474.9375,394.8872,1478.9375" style="stroke:#181818;stroke-width:1;"/><text fill="#000000" font-family="sans-serif" font-size="13" lengthAdjust="spacing" textLength="294.9185" x="390.8872" y="1456.8716">validateProcessAction(actionId, actionStatus)</text><line style="stroke:#181818;stroke-width:1;" x1="383.8872" x2="425.8872" y1="1504.0703" y2="1504.0703"/><line style="stroke:#181818;stroke-width:1;" x1="425.8872" x2="425.8872" y1="1504.0703" y2="1517.0703"/><line style="stroke:#181818;stroke-width:1;" x1="384.8872" x2="425.8872" y1="1517.0703" y2="1517.0703"/><polygon fill="#181818" points="394.8872,1513.0703,384.8872,1517.0703,394.8872,1521.0703" style="stroke:#181818;stroke-width:1;"/><text fill="#000000" font-family="sans-serif" font-size="13" lengthAdjust="spacing" textLength="243.1343" x="390.8872" y="1499.0044">processAction(actionId, actionStatus)</text><path d="M655.1343,1491.4375 L655.1343,1516.4375 L862.1343,1516.4375 L862.1343,1501.4375 L852.1343,1491.4375 L655.1343,1491.4375 " fill="#FEFFDD" style="stroke:#181818;stroke-width:0.5;"/><path d="M852.1343,1491.4375 L852.1343,1501.4375 L862.1343,1501.4375 L852.1343,1491.4375 " fill="#FEFFDD" style="stroke:#181818;stroke-width:0.5;"/><text fill="#000000" font-family="sans-serif" font-size="13" lengthAdjust="spacing" textLength="186.6021" x="661.1343" y="1508.5044">actionStatus == Terminated</text><line style="stroke:#181818;stroke-width:1;" x1="383.8872" x2="425.8872" y1="1551.2031" y2="1551.2031"/><line style="stroke:#181818;stroke-width:1;" x1="425.8872" x2="425.8872" y1="1551.2031" y2="1564.2031"/><line style="stroke:#181818;stroke-width:1;" x1="378.8872" x2="425.8872" y1="1564.2031" y2="1564.2031"/><polygon fill="#181818" points="388.8872,1560.2031,378.8872,1564.2031,388.8872,1568.2031" style="stroke:#181818;stroke-width:1;"/><text fill="#000000" font-family="sans-serif" font-size="13" lengthAdjust="spacing" textLength="144.9614" x="390.8872" y="1546.1372">unlockITMOs(actionId)</text><!--SRC=[xLLDRzim3BthLn0znUZo1mnqGB0TvaExOYcwYo-gHNX2PSgGv6pvzwCjEN6Sz0jOW64Ta4G0HJxoyL5CqC4Wh3NLV7p3MllWjh2gWhOaX7_Kr4ed6_1XomvygQlGDKO8DWTTwLPIW8iracA8abn2k03feRUYE_GiAA2pBJhve8qEsvA-T0-3Dvz2I4wyaG77s7Z0ycCov61izLZSNN_r2ys_nUTiuiCGa4FB-DPZvB2Gmt4xsAJ915b6Txh-4NA8T-iWG-VXwWgY5ogXS5w8wB5ZYilBQHLpV25DW7jfj8B3Ao40zY0vR7eVpZ3U7o5DtPVB72g7x7w3ly9fQdbI3U0vZlSfhIgff4KZjw2fCfr2-2aTiOY-96Fh6XLVf47eQ-7Fl2S0yzRN66xZACH0lnYhyX7YM4zMgqBlPs6nQf-za7K6iffmNP7wdWWbjEordNavnGJnsBEZ-NHalVRzNDpONPV1klrx6y1HUL3eMntsMlI1ipRtutUgc49zEA2K3Q7F4LvL5RQHBy3no3zjVMACNrdIDFhF4FbaczRWoEJmrHohKQWqpqme3JPBizD2MVHzjb6KAC6fDfoodKcgEtID9lalY3MZyYQr-k-mO0lQ_BqhDXMtMx9fmNfWT6yf_K59KvBsl6G7v_UwT2Uz4cVOkmF__w_oBAyoliRV]--></g></svg>