<svg xmlns="http://www.w3.org/2000/svg" xmlns:xlink="http://www.w3.org/1999/xlink" contentStyleType="text/css" data-diagram-type="SEQUENCE" height="661px" preserveAspectRatio="none" style="width:816px;height:661px;background:#FFFFFF;" version="1.1" viewBox="0 0 816 661" width="816px" zoomAndPan="magnify"><title>Single Registry Action</title><defs/><g><text fill="#000000" font-family="sans-serif" font-size="14" font-weight="bold" lengthAdjust="spacing" textLength="175.2734" x="324.3186" y="27.9951">Single Registry Action</text><g><title>Sending</title><rect fill="#FFFFFF" height="193.5313" style="stroke:#181818;stroke-width:1;" width="10" x="35.4546" y="313.6875"/></g><g><title>Sending</title><rect fill="#FFFFFF" height="151.3984" style="stroke:#181818;stroke-width:1;" width="10" x="40.4546" y="355.8203"/></g><g><title>Interoperability</title><rect fill="#FFFFFF" height="82.2656" style="stroke:#181818;stroke-width:1;" width="10" x="312.5889" y="158.1563"/></g><g><title>Interoperability</title><rect fill="#FFFFFF" height="152.3984" style="stroke:#181818;stroke-width:1;" width="10" x="312.5889" y="477.2188"/></g><g><title>Sending</title><rect fill="transparent" height="564.7266" width="8" x="36.4546" y="89.8906"/><line style="stroke:#181818;stroke-width:0.5;stroke-dasharray:5.0,5.0;" x1="40" x2="40" y1="89.8906" y2="654.6172"/></g><g><title>Interoperability</title><rect fill="transparent" height="564.7266" width="8" x="313.5889" y="89.8906"/><line style="stroke:#181818;stroke-width:0.5;stroke-dasharray:5.0,5.0;" x1="316.7935" x2="316.7935" y1="89.8906" y2="654.6172"/></g><rect fill="#E2E2F0" height="46.5938" rx="2.5" ry="2.5" style="stroke:#181818;stroke-width:0.5;" width="70.9092" x="5" y="42.2969"/><text fill="#000000" font-family="sans-serif" font-size="14" lengthAdjust="spacing" textLength="56.9092" x="12" y="62.292">Sending</text><text fill="#000000" font-family="sans-serif" font-size="14" lengthAdjust="spacing" textLength="53.9697" x="13.4697" y="78.5889">registry</text><rect fill="#E2E2F0" height="30.2969" rx="2.5" ry="2.5" style="stroke:#181818;stroke-width:0.5;" width="121.5908" x="256.7935" y="58.5938"/><text fill="#000000" font-family="sans-serif" font-size="14" lengthAdjust="spacing" textLength="107.5908" x="263.7935" y="78.5889">Interoperability</text><g><title>Sending</title><rect fill="#FFFFFF" height="193.5313" style="stroke:#181818;stroke-width:1;" width="10" x="35.4546" y="313.6875"/></g><g><title>Sending</title><rect fill="#FFFFFF" height="151.3984" style="stroke:#181818;stroke-width:1;" width="10" x="40.4546" y="355.8203"/></g><g><title>Interoperability</title><rect fill="#FFFFFF" height="82.2656" style="stroke:#181818;stroke-width:1;" width="10" x="312.5889" y="158.1563"/></g><g><title>Interoperability</title><rect fill="#FFFFFF" height="152.3984" style="stroke:#181818;stroke-width:1;" width="10" x="312.5889" y="477.2188"/></g><polygon fill="#181818" points="305.5889,117.0234,315.5889,121.0234,305.5889,125.0234" style="stroke:#181818;stroke-width:1;"/><line style="stroke:#181818;stroke-width:1;" x1="40.4546" x2="311.5889" y1="121.0234" y2="121.0234"/><text fill="#000000" font-family="sans-serif" font-size="13" lengthAdjust="spacing" textLength="199.3228" x="47.4546" y="115.9575">proposeAction(actionProposal)</text><line style="stroke:#181818;stroke-width:1;" x1="317.5889" x2="364.5889" y1="145.1563" y2="145.1563"/><line style="stroke:#181818;stroke-width:1;" x1="364.5889" x2="364.5889" y1="145.1563" y2="158.1563"/><line style="stroke:#181818;stroke-width:1;" x1="323.5889" x2="364.5889" y1="158.1563" y2="158.1563"/><polygon fill="#181818" points="333.5889,154.1563,323.5889,158.1563,333.5889,162.1563" style="stroke:#181818;stroke-width:1;"/><text fill="#000000" font-family="sans-serif" font-size="13" lengthAdjust="spacing" textLength="172.0913" x="329.5889" y="140.0903">lockITMOs(actionProposal)</text><line style="stroke:#181818;stroke-width:1;" x1="322.5889" x2="364.5889" y1="192.2891" y2="192.2891"/><line style="stroke:#181818;stroke-width:1;" x1="364.5889" x2="364.5889" y1="192.2891" y2="205.2891"/><line style="stroke:#181818;stroke-width:1;" x1="323.5889" x2="364.5889" y1="205.2891" y2="205.2891"/><polygon fill="#181818" points="333.5889,201.2891,323.5889,205.2891,333.5889,209.2891" style="stroke:#181818;stroke-width:1;"/><text fill="#000000" font-family="sans-serif" font-size="13" lengthAdjust="spacing" textLength="213.7446" x="329.5889" y="187.2231">validateProposal(actionProposal)</text><line style="stroke:#181818;stroke-width:1;" x1="322.5889" x2="364.5889" y1="239.4219" y2="239.4219"/><line style="stroke:#181818;stroke-width:1;" x1="364.5889" x2="364.5889" y1="239.4219" y2="252.4219"/><line style="stroke:#181818;stroke-width:1;" x1="317.5889" x2="364.5889" y1="252.4219" y2="252.4219"/><polygon fill="#181818" points="327.5889,248.4219,317.5889,252.4219,327.5889,256.4219" style="stroke:#181818;stroke-width:1;"/><text fill="#000000" font-family="sans-serif" font-size="13" lengthAdjust="spacing" textLength="264.1831" x="329.5889" y="234.356">createNextAction(actionProposal):Action</text><path d="M615.1831,221.7891 L615.1831,246.7891 L809.1831,246.7891 L809.1831,231.7891 L799.1831,221.7891 L615.1831,221.7891 " fill="#FEFFDD" style="stroke:#181818;stroke-width:0.5;"/><path d="M799.1831,221.7891 L799.1831,231.7891 L809.1831,231.7891 L799.1831,221.7891 " fill="#FEFFDD" style="stroke:#181818;stroke-width:0.5;"/><text fill="#000000" font-family="sans-serif" font-size="13" lengthAdjust="spacing" textLength="173.1387" x="621.1831" y="238.856">actionStatus == Validated</text><polygon fill="#181818" points="305.5889,272.5547,315.5889,276.5547,305.5889,280.5547" style="stroke:#181818;stroke-width:1;"/><line style="stroke:#181818;stroke-width:1;" x1="40.4546" x2="311.5889" y1="276.5547" y2="276.5547"/><text fill="#000000" font-family="sans-serif" font-size="13" lengthAdjust="spacing" textLength="183.7329" x="47.4546" y="271.4888">getPendingActions():Actions</text><line style="stroke:#181818;stroke-width:1;" x1="40.4546" x2="87.4546" y1="300.6875" y2="300.6875"/><line style="stroke:#181818;stroke-width:1;" x1="87.4546" x2="87.4546" y1="300.6875" y2="313.6875"/><line style="stroke:#181818;stroke-width:1;" x1="46.4546" x2="87.4546" y1="313.6875" y2="313.6875"/><polygon fill="#181818" points="56.4546,309.6875,46.4546,313.6875,56.4546,317.6875" style="stroke:#181818;stroke-width:1;"/><text fill="#000000" font-family="sans-serif" font-size="13" lengthAdjust="spacing" textLength="207.3208" x="52.4546" y="295.6216">processPendingActions(actions)</text><line style="stroke:#181818;stroke-width:1;" x1="45.4546" x2="92.4546" y1="342.8203" y2="342.8203"/><line style="stroke:#181818;stroke-width:1;" x1="92.4546" x2="92.4546" y1="342.8203" y2="355.8203"/><line style="stroke:#181818;stroke-width:1;" x1="51.4546" x2="92.4546" y1="355.8203" y2="355.8203"/><polygon fill="#181818" points="61.4546,351.8203,51.4546,355.8203,61.4546,359.8203" style="stroke:#181818;stroke-width:1;"/><text fill="#000000" font-family="sans-serif" font-size="13" lengthAdjust="spacing" textLength="141.3433" x="57.4546" y="337.7544">processAction(action)</text><line style="stroke:#181818;stroke-width:1;" x1="50.4546" x2="92.4546" y1="389.9531" y2="389.9531"/><line style="stroke:#181818;stroke-width:1;" x1="92.4546" x2="92.4546" y1="389.9531" y2="402.9531"/><line style="stroke:#181818;stroke-width:1;" x1="51.4546" x2="92.4546" y1="402.9531" y2="402.9531"/><polygon fill="#181818" points="61.4546,398.9531,51.4546,402.9531,61.4546,406.9531" style="stroke:#181818;stroke-width:1;"/><text fill="#000000" font-family="sans-serif" font-size="13" lengthAdjust="spacing" textLength="202.6235" x="57.4546" y="384.8872">processActionWarnings(action)</text><line style="stroke:#181818;stroke-width:1;" x1="50.4546" x2="92.4546" y1="432.0859" y2="432.0859"/><line style="stroke:#181818;stroke-width:1;" x1="92.4546" x2="92.4546" y1="432.0859" y2="445.0859"/><line style="stroke:#181818;stroke-width:1;" x1="51.4546" x2="92.4546" y1="445.0859" y2="445.0859"/><polygon fill="#181818" points="61.4546,441.0859,51.4546,445.0859,61.4546,449.0859" style="stroke:#181818;stroke-width:1;"/><text fill="#000000" font-family="sans-serif" font-size="13" lengthAdjust="spacing" textLength="132.8755" x="57.4546" y="427.02">unlockITMOs(action)</text><polygon fill="#181818" points="300.5889,473.2188,310.5889,477.2188,300.5889,481.2188" style="stroke:#181818;stroke-width:1;"/><line style="stroke:#181818;stroke-width:1;" x1="50.4546" x2="306.5889" y1="477.2188" y2="477.2188"/><text fill="#000000" font-family="sans-serif" font-size="13" lengthAdjust="spacing" textLength="243.1343" x="57.4546" y="472.1528">processAction(actionId, actionStatus)</text><path d="M327,458.0859 L327,483.0859 L520,483.0859 L520,468.0859 L510,458.0859 L327,458.0859 " fill="#FEFFDD" style="stroke:#181818;stroke-width:0.5;"/><path d="M510,458.0859 L510,468.0859 L520,468.0859 L510,458.0859 " fill="#FEFFDD" style="stroke:#181818;stroke-width:0.5;"/><text fill="#000000" font-family="sans-serif" font-size="13" lengthAdjust="spacing" textLength="172.2754" x="333" y="475.1528">actionStatus == Accepted</text><line style="stroke:#181818;stroke-width:1;" x1="322.5889" x2="364.5889" y1="539.3516" y2="539.3516"/><line style="stroke:#181818;stroke-width:1;" x1="364.5889" x2="364.5889" y1="539.3516" y2="552.3516"/><line style="stroke:#181818;stroke-width:1;" x1="323.5889" x2="364.5889" y1="552.3516" y2="552.3516"/><polygon fill="#181818" points="333.5889,548.3516,323.5889,552.3516,333.5889,556.3516" style="stroke:#181818;stroke-width:1;"/><text fill="#000000" font-family="sans-serif" font-size="13" lengthAdjust="spacing" textLength="294.9185" x="329.5889" y="534.2856">validateProcessAction(actionId, actionStatus)</text><line style="stroke:#181818;stroke-width:1;" x1="322.5889" x2="364.5889" y1="581.4844" y2="581.4844"/><line style="stroke:#181818;stroke-width:1;" x1="364.5889" x2="364.5889" y1="581.4844" y2="594.4844"/><line style="stroke:#181818;stroke-width:1;" x1="323.5889" x2="364.5889" y1="594.4844" y2="594.4844"/><polygon fill="#181818" points="333.5889,590.4844,323.5889,594.4844,333.5889,598.4844" style="stroke:#181818;stroke-width:1;"/><text fill="#000000" font-family="sans-serif" font-size="13" lengthAdjust="spacing" textLength="243.1343" x="329.5889" y="576.4185">processAction(actionId, actionStatus)</text><path d="M594.1343,568.8516 L594.1343,593.8516 L797.1343,593.8516 L797.1343,578.8516 L787.1343,568.8516 L594.1343,568.8516 " fill="#FEFFDD" style="stroke:#181818;stroke-width:0.5;"/><path d="M787.1343,568.8516 L787.1343,578.8516 L797.1343,578.8516 L787.1343,568.8516 " fill="#FEFFDD" style="stroke:#181818;stroke-width:0.5;"/><text fill="#000000" font-family="sans-serif" font-size="13" lengthAdjust="spacing" textLength="182.3936" x="600.1343" y="585.9185">actionStatus == Completed</text><line style="stroke:#181818;stroke-width:1;" x1="322.5889" x2="364.5889" y1="628.6172" y2="628.6172"/><line style="stroke:#181818;stroke-width:1;" x1="364.5889" x2="364.5889" y1="628.6172" y2="641.6172"/><line style="stroke:#181818;stroke-width:1;" x1="317.5889" x2="364.5889" y1="641.6172" y2="641.6172"/><polygon fill="#181818" points="327.5889,637.6172,317.5889,641.6172,327.5889,645.6172" style="stroke:#181818;stroke-width:1;"/><text fill="#000000" font-family="sans-serif" font-size="13" lengthAdjust="spacing" textLength="144.9614" x="329.5889" y="623.5513">unlockITMOs(actionId)</text><!--SRC=[fPBFJiCm3CRlUGfhfrLZBr1fI1CNUW0cYk329KkjBbgMLh4xiRSdMThHFp2GE2LrVhO_VovhDWYvjgK_dh7KnEu4QyMwiaBGNjjQEda0ufC7_ADMt1oC43xCMkbQMePPZhRm9TwjQolCG1A4ABeHcbb6LzNev5ORpP6yRxP2H1oMj-4JKgWzLX56BNDvFZRdc3I9406Ax6AHWgdKFdjvUA89-CMbS9H65vAnUxq2BvSfA8SUViGF_bv4slfaAqPmkjnn2X79MN93i5h1Qzkoc0vO8c-YSR4EpRkAr8VZBGpf7L58D4gA7IcPvbmo1l8J4SwZrzHjw9UyD-cixqUN_2dVsF42ak6uFVa3CLbnCx0ikMhcMYciWvS5ZcUOHdvO_1yaz3F_B_gkEjG6W-hXtpNrB2iIyGa0]--></g></svg>