<svg xmlns="http://www.w3.org/2000/svg" xmlns:xlink="http://www.w3.org/1999/xlink" contentStyleType="text/css" data-diagram-type="SEQUENCE" height="1750px" preserveAspectRatio="none" style="width:1198px;height:1750px;background:#FFFFFF;" version="1.1" viewBox="0 0 1198 1750" width="1198px" zoomAndPan="magnify"><title>Single Registry Action</title><defs/><g><text fill="#000000" font-family="sans-serif" font-size="14" font-weight="bold" lengthAdjust="spacing" textLength="175.2734" x="512.9482" y="27.9951">Single Registry Action</text><g><title>Sending</title><rect fill="#FFFFFF" height="225.0625" style="stroke:#181818;stroke-width:1;" width="10" x="247.687" y="99.8906"/></g><g><title>Sending</title><rect fill="#FFFFFF" height="82.2656" style="stroke:#181818;stroke-width:1;" width="10" x="252.687" y="203.5547"/></g><g><title>Sending</title><rect fill="#FFFFFF" height="308.1289" style="stroke:#181818;stroke-width:1;" width="10" x="247.687" y="492.6836"/></g><g><title>Sending</title><rect fill="#FFFFFF" height="217.6641" style="stroke:#181818;stroke-width:1;" width="10" x="252.687" y="583.1484"/></g><g><title>Sending</title><rect fill="#FFFFFF" height="291.5625" style="stroke:#181818;stroke-width:1;" width="10" x="247.687" y="1297.0391"/></g><g><title>Sending</title><rect fill="#FFFFFF" height="193.5313" style="stroke:#181818;stroke-width:1;" width="10" x="252.687" y="1395.0703"/></g><g><title>Interoperability</title><rect fill="#FFFFFF" height="125.5977" style="stroke:#181818;stroke-width:1;" width="10" x="674.8481" y="365.0859"/></g><g><title>Interoperability</title><rect fill="#FFFFFF" height="152.3984" style="stroke:#181818;stroke-width:1;" width="10" x="674.8481" y="770.8125"/></g><g><title>Interoperability</title><rect fill="#FFFFFF" height="152.3984" style="stroke:#181818;stroke-width:1;" width="10" x="674.8481" y="993.4766"/></g><g><title>Interoperability</title><rect fill="#FFFFFF" height="152.3984" style="stroke:#181818;stroke-width:1;" width="10" x="674.8481" y="1558.6016"/></g><rect fill="transparent" height="782.7891" style="stroke:#000000;stroke-width:1.5;" width="994.9375" x="197.2324" y="385.0859"/><rect fill="transparent" height="208.6641" style="stroke:#000000;stroke-width:1.5;" width="973.1436" x="207.2324" y="729.5469"/><rect fill="transparent" height="208.6641" style="stroke:#000000;stroke-width:1.5;" width="977.3521" x="207.2324" y="952.2109"/><rect fill="transparent" height="544.125" style="stroke:#000000;stroke-width:1.5;" width="977.3521" x="207.2324" y="1181.875"/><g><title>Sending</title><rect fill="transparent" height="1653.1094" width="8" x="248.687" y="89.8906"/><line style="stroke:#181818;stroke-width:0.5;stroke-dasharray:5.0,5.0;" x1="252.2324" x2="252.2324" y1="89.8906" y2="1743"/></g><g><title>Interoperability</title><rect fill="transparent" height="1653.1094" width="8" x="675.8481" y="89.8906"/><line style="stroke:#181818;stroke-width:0.5;stroke-dasharray:5.0,5.0;" x1="679.0527" x2="679.0527" y1="89.8906" y2="1743"/></g><rect fill="#E2E2F0" height="46.5938" rx="2.5" ry="2.5" style="stroke:#181818;stroke-width:0.5;" width="70.9092" x="217.2324" y="42.2969"/><text fill="#000000" font-family="sans-serif" font-size="14" lengthAdjust="spacing" textLength="56.9092" x="224.2324" y="62.292">Sending</text><text fill="#000000" font-family="sans-serif" font-size="14" lengthAdjust="spacing" textLength="53.9697" x="225.7021" y="78.5889">registry</text><rect fill="#E2E2F0" height="46.5938" rx="2.5" ry="2.5" style="stroke:#181818;stroke-width:0.5;" width="121.5908" x="619.0527" y="42.2969"/><text fill="#000000" font-family="sans-serif" font-size="14" lengthAdjust="spacing" textLength="107.5908" x="626.0527" y="62.292">Interoperability</text><text fill="#000000" font-family="sans-serif" font-size="14" lengthAdjust="spacing" textLength="28.2871" x="665.7046" y="78.5889">Hub</text><g><title>Sending</title><rect fill="#FFFFFF" height="225.0625" style="stroke:#181818;stroke-width:1;" width="10" x="247.687" y="99.8906"/></g><g><title>Sending</title><rect fill="#FFFFFF" height="82.2656" style="stroke:#181818;stroke-width:1;" width="10" x="252.687" y="203.5547"/></g><g><title>Sending</title><rect fill="#FFFFFF" height="308.1289" style="stroke:#181818;stroke-width:1;" width="10" x="247.687" y="492.6836"/></g><g><title>Sending</title><rect fill="#FFFFFF" height="217.6641" style="stroke:#181818;stroke-width:1;" width="10" x="252.687" y="583.1484"/></g><g><title>Sending</title><rect fill="#FFFFFF" height="291.5625" style="stroke:#181818;stroke-width:1;" width="10" x="247.687" y="1297.0391"/></g><g><title>Sending</title><rect fill="#FFFFFF" height="193.5313" style="stroke:#181818;stroke-width:1;" width="10" x="252.687" y="1395.0703"/></g><g><title>Interoperability</title><rect fill="#FFFFFF" height="125.5977" style="stroke:#181818;stroke-width:1;" width="10" x="674.8481" y="365.0859"/></g><g><title>Interoperability</title><rect fill="#FFFFFF" height="152.3984" style="stroke:#181818;stroke-width:1;" width="10" x="674.8481" y="770.8125"/></g><g><title>Interoperability</title><rect fill="#FFFFFF" height="152.3984" style="stroke:#181818;stroke-width:1;" width="10" x="674.8481" y="993.4766"/></g><g><title>Interoperability</title><rect fill="#FFFFFF" height="152.3984" style="stroke:#181818;stroke-width:1;" width="10" x="674.8481" y="1558.6016"/></g><polygon fill="#181818" points="235.687,162.4219,245.687,166.4219,235.687,170.4219" style="stroke:#181818;stroke-width:1;"/><line style="stroke:#181818;stroke-width:1;" x1="0" x2="241.687" y1="166.4219" y2="166.4219"/><text fill="#000000" font-family="sans-serif" font-size="13" lengthAdjust="spacing" textLength="134.2085" x="7" y="115.9575">ActionProposal input</text><text fill="#000000" font-family="sans-serif" font-size="13" lengthAdjust="spacing" textLength="102.356" x="7" y="131.0903">- ITMO Quantity</text><text fill="#000000" font-family="sans-serif" font-size="13" lengthAdjust="spacing" textLength="222.1807" x="7" y="146.2231">- Destination registry and account</text><text fill="#000000" font-family="sans-serif" font-size="13" lengthAdjust="spacing" textLength="228.687" x="7" y="161.356">- Any other relevant ITMO attribute</text><line style="stroke:#181818;stroke-width:1;" x1="257.687" x2="304.687" y1="190.5547" y2="190.5547"/><line style="stroke:#181818;stroke-width:1;" x1="304.687" x2="304.687" y1="190.5547" y2="203.5547"/><line style="stroke:#181818;stroke-width:1;" x1="263.687" x2="304.687" y1="203.5547" y2="203.5547"/><polygon fill="#181818" points="273.687,199.5547,263.687,203.5547,273.687,207.5547" style="stroke:#181818;stroke-width:1;"/><text fill="#000000" font-family="sans-serif" font-size="13" lengthAdjust="spacing" textLength="393.1611" x="269.687" y="185.4888">prepareActionProposal(ActionProposal input):ActionProposal</text><line style="stroke:#181818;stroke-width:1;" x1="262.687" x2="304.687" y1="237.6875" y2="237.6875"/><line style="stroke:#181818;stroke-width:1;" x1="304.687" x2="304.687" y1="237.6875" y2="250.6875"/><line style="stroke:#181818;stroke-width:1;" x1="263.687" x2="304.687" y1="250.6875" y2="250.6875"/><polygon fill="#181818" points="273.687,246.6875,263.687,250.6875,273.687,254.6875" style="stroke:#181818;stroke-width:1;"/><text fill="#000000" font-family="sans-serif" font-size="13" lengthAdjust="spacing" textLength="324.9302" x="269.687" y="232.6216">selectAndSplitITMOs(ActionProposal input):ITMO[]</text><line style="stroke:#181818;stroke-width:1;" x1="262.687" x2="304.687" y1="284.8203" y2="284.8203"/><line style="stroke:#181818;stroke-width:1;" x1="304.687" x2="304.687" y1="284.8203" y2="297.8203"/><line style="stroke:#181818;stroke-width:1;" x1="257.687" x2="304.687" y1="297.8203" y2="297.8203"/><polygon fill="#181818" points="267.687,293.8203,257.687,297.8203,267.687,301.8203" style="stroke:#181818;stroke-width:1;"/><text fill="#000000" font-family="sans-serif" font-size="13" lengthAdjust="spacing" textLength="172.0913" x="269.687" y="279.7544">lockITMOs(actionProposal)</text><polygon fill="#181818" points="667.8481,320.9531,677.8481,324.9531,667.8481,328.9531" style="stroke:#181818;stroke-width:1;"/><line style="stroke:#181818;stroke-width:1;" x1="252.687" x2="673.8481" y1="324.9531" y2="324.9531"/><text fill="#000000" font-family="sans-serif" font-size="13" lengthAdjust="spacing" textLength="199.3228" x="259.687" y="319.8872">proposeAction(actionProposal)</text><path d="M684,305.8203 L684,330.8203 L876,330.8203 L876,315.8203 L866,305.8203 L684,305.8203 " fill="#FEFFDD" style="stroke:#181818;stroke-width:0.5;"/><path d="M866,305.8203 L866,315.8203 L876,315.8203 L866,305.8203 " fill="#FEFFDD" style="stroke:#181818;stroke-width:0.5;"/><text fill="#000000" font-family="sans-serif" font-size="13" lengthAdjust="spacing" textLength="171.8564" x="690" y="322.8872">actionStatus == Proposed</text><line style="stroke:#181818;stroke-width:1;" x1="679.8481" x2="726.8481" y1="352.0859" y2="352.0859"/><line style="stroke:#181818;stroke-width:1;" x1="726.8481" x2="726.8481" y1="352.0859" y2="365.0859"/><line style="stroke:#181818;stroke-width:1;" x1="685.8481" x2="726.8481" y1="365.0859" y2="365.0859"/><polygon fill="#181818" points="695.8481,361.0859,685.8481,365.0859,695.8481,369.0859" style="stroke:#181818;stroke-width:1;"/><text fill="#000000" font-family="sans-serif" font-size="13" lengthAdjust="spacing" textLength="172.0913" x="691.8481" y="347.02">lockITMOs(actionProposal)</text><path d="M197.2324,385.0859 L261.6753,385.0859 L261.6753,392.2188 L251.6753,402.2188 L197.2324,402.2188 L197.2324,385.0859 " fill="#EEEEEE" style="stroke:#000000;stroke-width:1.5;"/><rect fill="transparent" height="782.7891" style="stroke:#000000;stroke-width:1.5;" width="994.9375" x="197.2324" y="385.0859"/><text fill="#000000" font-family="sans-serif" font-size="13" font-weight="bold" lengthAdjust="spacing" textLength="19.4429" x="212.2324" y="398.1528">alt</text><text fill="#000000" font-family="sans-serif" font-size="11" font-weight="bold" lengthAdjust="spacing" textLength="137.8115" x="276.6753" y="397.2964">[Valid actionProposal]</text><line style="stroke:#181818;stroke-width:1;" x1="684.8481" x2="726.8481" y1="423.3516" y2="423.3516"/><line style="stroke:#181818;stroke-width:1;" x1="726.8481" x2="726.8481" y1="423.3516" y2="436.3516"/><line style="stroke:#181818;stroke-width:1;" x1="685.8481" x2="726.8481" y1="436.3516" y2="436.3516"/><polygon fill="#181818" points="695.8481,432.3516,685.8481,436.3516,695.8481,440.3516" style="stroke:#181818;stroke-width:1;"/><text fill="#000000" font-family="sans-serif" font-size="13" lengthAdjust="spacing" textLength="251.1069" x="691.8481" y="418.2856">validateProposeAction(actionProposal)</text><line style="stroke:#181818;stroke-width:1;" x1="684.8481" x2="726.8481" y1="489.6836" y2="489.6836"/><line style="stroke:#181818;stroke-width:1;" x1="726.8481" x2="726.8481" y1="489.6836" y2="502.6836"/><line style="stroke:#181818;stroke-width:1;" x1="679.8481" x2="726.8481" y1="502.6836" y2="502.6836"/><polygon fill="#181818" points="689.8481,498.6836,679.8481,502.6836,689.8481,506.6836" style="stroke:#181818;stroke-width:1;"/><text fill="#000000" font-family="sans-serif" font-size="13" lengthAdjust="spacing" textLength="264.1831" x="691.8481" y="484.6177">createNextAction(actionProposal):Action</text><path d="M977.1831,449.3516 L977.1831,519.3516 L1171.1831,519.3516 L1171.1831,459.3516 L1161.1831,449.3516 L977.1831,449.3516 " fill="#FEFFDD" style="stroke:#181818;stroke-width:0.5;"/><path d="M1161.1831,449.3516 L1161.1831,459.3516 L1171.1831,459.3516 L1161.1831,449.3516 " fill="#FEFFDD" style="stroke:#181818;stroke-width:0.5;"/><text fill="#000000" font-family="sans-serif" font-size="13" lengthAdjust="spacing" textLength="173.1387" x="983.1831" y="466.4185">actionStatus == Validated</text><text fill="#000000" font-family="sans-serif" font-size="13" lengthAdjust="spacing" textLength="4.1323" x="983.1831" y="481.5513">&#160;</text><text fill="#000000" font-family="sans-serif" font-size="13" lengthAdjust="spacing" textLength="147.8179" x="983.1831" y="496.6841">(may include warnings</text><text fill="#000000" font-family="sans-serif" font-size="13" lengthAdjust="spacing" textLength="110.4492" x="983.1831" y="511.8169">logged in Action)</text><polygon fill="#181818" points="667.8481,542.0156,677.8481,546.0156,667.8481,550.0156" style="stroke:#181818;stroke-width:1;"/><line style="stroke:#181818;stroke-width:1;" x1="257.687" x2="673.8481" y1="546.0156" y2="546.0156"/><text fill="#000000" font-family="sans-serif" font-size="13" lengthAdjust="spacing" textLength="183.7329" x="264.687" y="540.9497">getPendingActions():Actions</text><line style="stroke:#181818;stroke-width:1;" x1="257.687" x2="304.687" y1="570.1484" y2="570.1484"/><line style="stroke:#181818;stroke-width:1;" x1="304.687" x2="304.687" y1="570.1484" y2="583.1484"/><line style="stroke:#181818;stroke-width:1;" x1="263.687" x2="304.687" y1="583.1484" y2="583.1484"/><polygon fill="#181818" points="273.687,579.1484,263.687,583.1484,273.687,587.1484" style="stroke:#181818;stroke-width:1;"/><text fill="#000000" font-family="sans-serif" font-size="13" lengthAdjust="spacing" textLength="207.3208" x="269.687" y="565.0825">processPendingActions(actions)</text><line style="stroke:#181818;stroke-width:1;" x1="262.687" x2="304.687" y1="617.2813" y2="617.2813"/><line style="stroke:#181818;stroke-width:1;" x1="304.687" x2="304.687" y1="617.2813" y2="630.2813"/><line style="stroke:#181818;stroke-width:1;" x1="263.687" x2="304.687" y1="630.2813" y2="630.2813"/><polygon fill="#181818" points="273.687,626.2813,263.687,630.2813,273.687,634.2813" style="stroke:#181818;stroke-width:1;"/><text fill="#000000" font-family="sans-serif" font-size="13" lengthAdjust="spacing" textLength="269.4326" x="269.687" y="612.2153">processActionStatusAndWarnings(action)</text><path d="M565.4326,604.6484 L565.4326,629.6484 L759.4326,629.6484 L759.4326,614.6484 L749.4326,604.6484 L565.4326,604.6484 " fill="#FEFFDD" style="stroke:#181818;stroke-width:0.5;"/><path d="M749.4326,604.6484 L749.4326,614.6484 L759.4326,614.6484 L749.4326,604.6484 " fill="#FEFFDD" style="stroke:#181818;stroke-width:0.5;"/><text fill="#000000" font-family="sans-serif" font-size="13" lengthAdjust="spacing" textLength="173.1387" x="571.4326" y="621.7153">actionStatus == Validated</text><line style="stroke:#181818;stroke-width:1;" x1="262.687" x2="304.687" y1="659.4141" y2="659.4141"/><line style="stroke:#181818;stroke-width:1;" x1="304.687" x2="304.687" y1="659.4141" y2="672.4141"/><line style="stroke:#181818;stroke-width:1;" x1="263.687" x2="304.687" y1="672.4141" y2="672.4141"/><polygon fill="#181818" points="273.687,668.4141,263.687,672.4141,273.687,676.4141" style="stroke:#181818;stroke-width:1;"/><text fill="#000000" font-family="sans-serif" font-size="13" lengthAdjust="spacing" textLength="141.3433" x="269.687" y="654.3481">processAction(action)</text><line style="stroke:#181818;stroke-width:1;" x1="262.687" x2="304.687" y1="701.5469" y2="701.5469"/><line style="stroke:#181818;stroke-width:1;" x1="304.687" x2="304.687" y1="701.5469" y2="714.5469"/><line style="stroke:#181818;stroke-width:1;" x1="263.687" x2="304.687" y1="714.5469" y2="714.5469"/><polygon fill="#181818" points="273.687,710.5469,263.687,714.5469,273.687,718.5469" style="stroke:#181818;stroke-width:1;"/><text fill="#000000" font-family="sans-serif" font-size="13" lengthAdjust="spacing" textLength="132.8755" x="269.687" y="696.481">unlockITMOs(action)</text><path d="M207.2324,729.5469 L271.6753,729.5469 L271.6753,736.6797 L261.6753,746.6797 L207.2324,746.6797 L207.2324,729.5469 " fill="#EEEEEE" style="stroke:#000000;stroke-width:1.5;"/><rect fill="transparent" height="208.6641" style="stroke:#000000;stroke-width:1.5;" width="973.1436" x="207.2324" y="729.5469"/><text fill="#000000" font-family="sans-serif" font-size="13" font-weight="bold" lengthAdjust="spacing" textLength="19.4429" x="222.2324" y="742.6138">alt</text><text fill="#000000" font-family="sans-serif" font-size="11" font-weight="bold" lengthAdjust="spacing" textLength="331.4448" x="286.6753" y="741.7573">[No warnings or Registry proceeds despite warnings]</text><polygon fill="#181818" points="662.8481,766.8125,672.8481,770.8125,662.8481,774.8125" style="stroke:#181818;stroke-width:1;"/><line style="stroke:#181818;stroke-width:1;" x1="262.687" x2="668.8481" y1="770.8125" y2="770.8125"/><text fill="#000000" font-family="sans-serif" font-size="13" lengthAdjust="spacing" textLength="243.1343" x="269.687" y="765.7466">processAction(actionId, actionStatus)</text><path d="M689,751.6797 L689,776.6797 L882,776.6797 L882,761.6797 L872,751.6797 L689,751.6797 " fill="#FEFFDD" style="stroke:#181818;stroke-width:0.5;"/><path d="M872,751.6797 L872,761.6797 L882,761.6797 L872,751.6797 " fill="#FEFFDD" style="stroke:#181818;stroke-width:0.5;"/><text fill="#000000" font-family="sans-serif" font-size="13" lengthAdjust="spacing" textLength="172.2754" x="695" y="768.7466">actionStatus == Accepted</text><line style="stroke:#181818;stroke-width:1;" x1="684.8481" x2="726.8481" y1="832.9453" y2="832.9453"/><line style="stroke:#181818;stroke-width:1;" x1="726.8481" x2="726.8481" y1="832.9453" y2="845.9453"/><line style="stroke:#181818;stroke-width:1;" x1="685.8481" x2="726.8481" y1="845.9453" y2="845.9453"/><polygon fill="#181818" points="695.8481,841.9453,685.8481,845.9453,695.8481,849.9453" style="stroke:#181818;stroke-width:1;"/><text fill="#000000" font-family="sans-serif" font-size="13" lengthAdjust="spacing" textLength="294.9185" x="691.8481" y="827.8794">validateProcessAction(actionId, actionStatus)</text><line style="stroke:#181818;stroke-width:1;" x1="684.8481" x2="726.8481" y1="875.0781" y2="875.0781"/><line style="stroke:#181818;stroke-width:1;" x1="726.8481" x2="726.8481" y1="875.0781" y2="888.0781"/><line style="stroke:#181818;stroke-width:1;" x1="685.8481" x2="726.8481" y1="888.0781" y2="888.0781"/><polygon fill="#181818" points="695.8481,884.0781,685.8481,888.0781,695.8481,892.0781" style="stroke:#181818;stroke-width:1;"/><text fill="#000000" font-family="sans-serif" font-size="13" lengthAdjust="spacing" textLength="243.1343" x="691.8481" y="870.0122">processAction(actionId, actionStatus)</text><path d="M956.1343,862.4453 L956.1343,887.4453 L1159.1343,887.4453 L1159.1343,872.4453 L1149.1343,862.4453 L956.1343,862.4453 " fill="#FEFFDD" style="stroke:#181818;stroke-width:0.5;"/><path d="M1149.1343,862.4453 L1149.1343,872.4453 L1159.1343,872.4453 L1149.1343,862.4453 " fill="#FEFFDD" style="stroke:#181818;stroke-width:0.5;"/><text fill="#000000" font-family="sans-serif" font-size="13" lengthAdjust="spacing" textLength="182.3936" x="962.1343" y="879.5122">actionStatus == Completed</text><line style="stroke:#181818;stroke-width:1;" x1="684.8481" x2="726.8481" y1="922.2109" y2="922.2109"/><line style="stroke:#181818;stroke-width:1;" x1="726.8481" x2="726.8481" y1="922.2109" y2="935.2109"/><line style="stroke:#181818;stroke-width:1;" x1="679.8481" x2="726.8481" y1="935.2109" y2="935.2109"/><polygon fill="#181818" points="689.8481,931.2109,679.8481,935.2109,689.8481,939.2109" style="stroke:#181818;stroke-width:1;"/><text fill="#000000" font-family="sans-serif" font-size="13" lengthAdjust="spacing" textLength="144.9614" x="691.8481" y="917.145">unlockITMOs(actionId)</text><path d="M207.2324,952.2109 L271.6753,952.2109 L271.6753,959.3438 L261.6753,969.3438 L207.2324,969.3438 L207.2324,952.2109 " fill="#EEEEEE" style="stroke:#000000;stroke-width:1.5;"/><rect fill="transparent" height="208.6641" style="stroke:#000000;stroke-width:1.5;" width="977.3521" x="207.2324" y="952.2109"/><text fill="#000000" font-family="sans-serif" font-size="13" font-weight="bold" lengthAdjust="spacing" textLength="19.4429" x="222.2324" y="965.2778">alt</text><text fill="#000000" font-family="sans-serif" font-size="11" font-weight="bold" lengthAdjust="spacing" textLength="173.7764" x="286.6753" y="964.4214">[Registry does not proceed]</text><polygon fill="#181818" points="662.8481,989.4766,672.8481,993.4766,662.8481,997.4766" style="stroke:#181818;stroke-width:1;"/><line style="stroke:#181818;stroke-width:1;" x1="252.687" x2="668.8481" y1="993.4766" y2="993.4766"/><text fill="#000000" font-family="sans-serif" font-size="13" lengthAdjust="spacing" textLength="243.1343" x="259.687" y="988.4106">processAction(actionId, actionStatus)</text><path d="M689,974.3438 L689,999.3438 L896,999.3438 L896,984.3438 L886,974.3438 L689,974.3438 " fill="#FEFFDD" style="stroke:#181818;stroke-width:0.5;"/><path d="M886,974.3438 L886,984.3438 L896,984.3438 L886,974.3438 " fill="#FEFFDD" style="stroke:#181818;stroke-width:0.5;"/><text fill="#000000" font-family="sans-serif" font-size="13" lengthAdjust="spacing" textLength="186.6021" x="695" y="991.4106">actionStatus == Terminated</text><line style="stroke:#181818;stroke-width:1;" x1="684.8481" x2="726.8481" y1="1055.6094" y2="1055.6094"/><line style="stroke:#181818;stroke-width:1;" x1="726.8481" x2="726.8481" y1="1055.6094" y2="1068.6094"/><line style="stroke:#181818;stroke-width:1;" x1="685.8481" x2="726.8481" y1="1068.6094" y2="1068.6094"/><polygon fill="#181818" points="695.8481,1064.6094,685.8481,1068.6094,695.8481,1072.6094" style="stroke:#181818;stroke-width:1;"/><text fill="#000000" font-family="sans-serif" font-size="13" lengthAdjust="spacing" textLength="294.9185" x="691.8481" y="1050.5435">validateProcessAction(actionId, actionStatus)</text><line style="stroke:#181818;stroke-width:1;" x1="684.8481" x2="726.8481" y1="1097.7422" y2="1097.7422"/><line style="stroke:#181818;stroke-width:1;" x1="726.8481" x2="726.8481" y1="1097.7422" y2="1110.7422"/><line style="stroke:#181818;stroke-width:1;" x1="685.8481" x2="726.8481" y1="1110.7422" y2="1110.7422"/><polygon fill="#181818" points="695.8481,1106.7422,685.8481,1110.7422,695.8481,1114.7422" style="stroke:#181818;stroke-width:1;"/><text fill="#000000" font-family="sans-serif" font-size="13" lengthAdjust="spacing" textLength="243.1343" x="691.8481" y="1092.6763">processAction(actionId, actionStatus)</text><path d="M956.1343,1085.1094 L956.1343,1110.1094 L1163.1343,1110.1094 L1163.1343,1095.1094 L1153.1343,1085.1094 L956.1343,1085.1094 " fill="#FEFFDD" style="stroke:#181818;stroke-width:0.5;"/><path d="M1153.1343,1085.1094 L1153.1343,1095.1094 L1163.1343,1095.1094 L1153.1343,1085.1094 " fill="#FEFFDD" style="stroke:#181818;stroke-width:0.5;"/><text fill="#000000" font-family="sans-serif" font-size="13" lengthAdjust="spacing" textLength="186.6021" x="962.1343" y="1102.1763">actionStatus == Terminated</text><line style="stroke:#181818;stroke-width:1;" x1="684.8481" x2="726.8481" y1="1144.875" y2="1144.875"/><line style="stroke:#181818;stroke-width:1;" x1="726.8481" x2="726.8481" y1="1144.875" y2="1157.875"/><line style="stroke:#181818;stroke-width:1;" x1="679.8481" x2="726.8481" y1="1157.875" y2="1157.875"/><polygon fill="#181818" points="689.8481,1153.875,679.8481,1157.875,689.8481,1161.875" style="stroke:#181818;stroke-width:1;"/><text fill="#000000" font-family="sans-serif" font-size="13" lengthAdjust="spacing" textLength="144.9614" x="691.8481" y="1139.8091">unlockITMOs(actionId)</text><path d="M207.2324,1181.875 L271.6753,1181.875 L271.6753,1189.0078 L261.6753,1199.0078 L207.2324,1199.0078 L207.2324,1181.875 " fill="#EEEEEE" style="stroke:#000000;stroke-width:1.5;"/><rect fill="transparent" height="544.125" style="stroke:#000000;stroke-width:1.5;" width="977.3521" x="207.2324" y="1181.875"/><text fill="#000000" font-family="sans-serif" font-size="13" font-weight="bold" lengthAdjust="spacing" textLength="19.4429" x="222.2324" y="1194.9419">alt</text><text fill="#000000" font-family="sans-serif" font-size="11" font-weight="bold" lengthAdjust="spacing" textLength="148.3926" x="286.6753" y="1194.0854">[Invalid actionProposal]</text><line style="stroke:#181818;stroke-width:1;" x1="679.8481" x2="721.8481" y1="1220.1406" y2="1220.1406"/><line style="stroke:#181818;stroke-width:1;" x1="721.8481" x2="721.8481" y1="1220.1406" y2="1233.1406"/><line style="stroke:#181818;stroke-width:1;" x1="680.8481" x2="721.8481" y1="1233.1406" y2="1233.1406"/><polygon fill="#181818" points="690.8481,1229.1406,680.8481,1233.1406,690.8481,1237.1406" style="stroke:#181818;stroke-width:1;"/><text fill="#000000" font-family="sans-serif" font-size="13" lengthAdjust="spacing" textLength="213.7446" x="686.8481" y="1215.0747">validateProposal(actionProposal)</text><line style="stroke:#181818;stroke-width:1;" x1="679.8481" x2="721.8481" y1="1294.0391" y2="1294.0391"/><line style="stroke:#181818;stroke-width:1;" x1="721.8481" x2="721.8481" y1="1294.0391" y2="1307.0391"/><line style="stroke:#181818;stroke-width:1;" x1="674.8481" x2="721.8481" y1="1307.0391" y2="1307.0391"/><polygon fill="#181818" points="684.8481,1303.0391,674.8481,1307.0391,684.8481,1311.0391" style="stroke:#181818;stroke-width:1;"/><text fill="#000000" font-family="sans-serif" font-size="13" lengthAdjust="spacing" textLength="264.1831" x="686.8481" y="1288.9731">createNextAction(actionProposal):Action</text><path d="M962.1831,1246.1406 L962.1831,1331.1406 L1167.1831,1331.1406 L1167.1831,1256.1406 L1157.1831,1246.1406 L962.1831,1246.1406 " fill="#FEFFDD" style="stroke:#181818;stroke-width:0.5;"/><path d="M1157.1831,1246.1406 L1157.1831,1256.1406 L1167.1831,1256.1406 L1157.1831,1246.1406 " fill="#FEFFDD" style="stroke:#181818;stroke-width:0.5;"/><text fill="#000000" font-family="sans-serif" font-size="13" lengthAdjust="spacing" textLength="184.0122" x="968.1831" y="1263.2075">actionStatus == Invalidated</text><text fill="#000000" font-family="sans-serif" font-size="13" lengthAdjust="spacing" textLength="4.1323" x="968.1831" y="1278.3403">&#160;</text><text fill="#000000" font-family="sans-serif" font-size="13" lengthAdjust="spacing" textLength="167.5908" x="968.1831" y="1293.4731">(includes reason proposal</text><text fill="#000000" font-family="sans-serif" font-size="13" lengthAdjust="spacing" textLength="57.5034" x="968.1831" y="1308.606">is invalid</text><text fill="#000000" font-family="sans-serif" font-size="13" lengthAdjust="spacing" textLength="110.4492" x="968.1831" y="1323.7388">logged in Action)</text><polygon fill="#181818" points="667.8481,1353.9375,677.8481,1357.9375,667.8481,1361.9375" style="stroke:#181818;stroke-width:1;"/><line style="stroke:#181818;stroke-width:1;" x1="257.687" x2="673.8481" y1="1357.9375" y2="1357.9375"/><text fill="#000000" font-family="sans-serif" font-size="13" lengthAdjust="spacing" textLength="183.7329" x="264.687" y="1352.8716">getPendingActions():Actions</text><line style="stroke:#181818;stroke-width:1;" x1="257.687" x2="304.687" y1="1382.0703" y2="1382.0703"/><line style="stroke:#181818;stroke-width:1;" x1="304.687" x2="304.687" y1="1382.0703" y2="1395.0703"/><line style="stroke:#181818;stroke-width:1;" x1="263.687" x2="304.687" y1="1395.0703" y2="1395.0703"/><polygon fill="#181818" points="273.687,1391.0703,263.687,1395.0703,273.687,1399.0703" style="stroke:#181818;stroke-width:1;"/><text fill="#000000" font-family="sans-serif" font-size="13" lengthAdjust="spacing" textLength="207.3208" x="269.687" y="1377.0044">processPendingActions(actions)</text><line style="stroke:#181818;stroke-width:1;" x1="262.687" x2="304.687" y1="1429.2031" y2="1429.2031"/><line style="stroke:#181818;stroke-width:1;" x1="304.687" x2="304.687" y1="1429.2031" y2="1442.2031"/><line style="stroke:#181818;stroke-width:1;" x1="263.687" x2="304.687" y1="1442.2031" y2="1442.2031"/><polygon fill="#181818" points="273.687,1438.2031,263.687,1442.2031,273.687,1446.2031" style="stroke:#181818;stroke-width:1;"/><text fill="#000000" font-family="sans-serif" font-size="13" lengthAdjust="spacing" textLength="269.4326" x="269.687" y="1424.1372">processActionStatusAndWarnings(action)</text><path d="M565.4326,1416.5703 L565.4326,1441.5703 L770.4326,1441.5703 L770.4326,1426.5703 L760.4326,1416.5703 L565.4326,1416.5703 " fill="#FEFFDD" style="stroke:#181818;stroke-width:0.5;"/><path d="M760.4326,1416.5703 L760.4326,1426.5703 L770.4326,1426.5703 L760.4326,1416.5703 " fill="#FEFFDD" style="stroke:#181818;stroke-width:0.5;"/><text fill="#000000" font-family="sans-serif" font-size="13" lengthAdjust="spacing" textLength="184.0122" x="571.4326" y="1433.6372">actionStatus == Invalidated</text><line style="stroke:#181818;stroke-width:1;" x1="262.687" x2="304.687" y1="1471.3359" y2="1471.3359"/><line style="stroke:#181818;stroke-width:1;" x1="304.687" x2="304.687" y1="1471.3359" y2="1484.3359"/><line style="stroke:#181818;stroke-width:1;" x1="263.687" x2="304.687" y1="1484.3359" y2="1484.3359"/><polygon fill="#181818" points="273.687,1480.3359,263.687,1484.3359,273.687,1488.3359" style="stroke:#181818;stroke-width:1;"/><text fill="#000000" font-family="sans-serif" font-size="13" lengthAdjust="spacing" textLength="141.3433" x="269.687" y="1466.27">processAction(action)</text><line style="stroke:#181818;stroke-width:1;" x1="262.687" x2="304.687" y1="1513.4688" y2="1513.4688"/><line style="stroke:#181818;stroke-width:1;" x1="304.687" x2="304.687" y1="1513.4688" y2="1526.4688"/><line style="stroke:#181818;stroke-width:1;" x1="263.687" x2="304.687" y1="1526.4688" y2="1526.4688"/><polygon fill="#181818" points="273.687,1522.4688,263.687,1526.4688,273.687,1530.4688" style="stroke:#181818;stroke-width:1;"/><text fill="#000000" font-family="sans-serif" font-size="13" lengthAdjust="spacing" textLength="132.8755" x="269.687" y="1508.4028">unlockITMOs(action)</text><polygon fill="#181818" points="662.8481,1554.6016,672.8481,1558.6016,662.8481,1562.6016" style="stroke:#181818;stroke-width:1;"/><line style="stroke:#181818;stroke-width:1;" x1="262.687" x2="668.8481" y1="1558.6016" y2="1558.6016"/><text fill="#000000" font-family="sans-serif" font-size="13" lengthAdjust="spacing" textLength="243.1343" x="269.687" y="1553.5356">processAction(actionId, actionStatus)</text><path d="M689,1539.4688 L689,1564.4688 L896,1564.4688 L896,1549.4688 L886,1539.4688 L689,1539.4688 " fill="#FEFFDD" style="stroke:#181818;stroke-width:0.5;"/><path d="M886,1539.4688 L886,1549.4688 L896,1549.4688 L886,1539.4688 " fill="#FEFFDD" style="stroke:#181818;stroke-width:0.5;"/><text fill="#000000" font-family="sans-serif" font-size="13" lengthAdjust="spacing" textLength="186.6021" x="695" y="1556.5356">actionStatus == Terminated</text><line style="stroke:#181818;stroke-width:1;" x1="684.8481" x2="726.8481" y1="1620.7344" y2="1620.7344"/><line style="stroke:#181818;stroke-width:1;" x1="726.8481" x2="726.8481" y1="1620.7344" y2="1633.7344"/><line style="stroke:#181818;stroke-width:1;" x1="685.8481" x2="726.8481" y1="1633.7344" y2="1633.7344"/><polygon fill="#181818" points="695.8481,1629.7344,685.8481,1633.7344,695.8481,1637.7344" style="stroke:#181818;stroke-width:1;"/><text fill="#000000" font-family="sans-serif" font-size="13" lengthAdjust="spacing" textLength="294.9185" x="691.8481" y="1615.6685">validateProcessAction(actionId, actionStatus)</text><line style="stroke:#181818;stroke-width:1;" x1="684.8481" x2="726.8481" y1="1662.8672" y2="1662.8672"/><line style="stroke:#181818;stroke-width:1;" x1="726.8481" x2="726.8481" y1="1662.8672" y2="1675.8672"/><line style="stroke:#181818;stroke-width:1;" x1="685.8481" x2="726.8481" y1="1675.8672" y2="1675.8672"/><polygon fill="#181818" points="695.8481,1671.8672,685.8481,1675.8672,695.8481,1679.8672" style="stroke:#181818;stroke-width:1;"/><text fill="#000000" font-family="sans-serif" font-size="13" lengthAdjust="spacing" textLength="243.1343" x="691.8481" y="1657.8013">processAction(actionId, actionStatus)</text><path d="M956.1343,1650.2344 L956.1343,1675.2344 L1163.1343,1675.2344 L1163.1343,1660.2344 L1153.1343,1650.2344 L956.1343,1650.2344 " fill="#FEFFDD" style="stroke:#181818;stroke-width:0.5;"/><path d="M1153.1343,1650.2344 L1153.1343,1660.2344 L1163.1343,1660.2344 L1153.1343,1650.2344 " fill="#FEFFDD" style="stroke:#181818;stroke-width:0.5;"/><text fill="#000000" font-family="sans-serif" font-size="13" lengthAdjust="spacing" textLength="186.6021" x="962.1343" y="1667.3013">actionStatus == Terminated</text><line style="stroke:#181818;stroke-width:1;" x1="684.8481" x2="726.8481" y1="1710" y2="1710"/><line style="stroke:#181818;stroke-width:1;" x1="726.8481" x2="726.8481" y1="1710" y2="1723"/><line style="stroke:#181818;stroke-width:1;" x1="679.8481" x2="726.8481" y1="1723" y2="1723"/><polygon fill="#181818" points="689.8481,1719,679.8481,1723,689.8481,1727" style="stroke:#181818;stroke-width:1;"/><text fill="#000000" font-family="sans-serif" font-size="13" lengthAdjust="spacing" textLength="144.9614" x="691.8481" y="1704.9341">unlockITMOs(actionId)</text><!--SRC=[xLLDRnen4BtxLunoOfNo1v1I2RM7ScXAIvGUiZsOzMXZPR5NzYmj_xxZNGFx1KcaK5LL9H38dlVcFSzuJ9eAX9KsEVzymrnxSZkOPwIj4S8_QLDA9pVWQSS1lAapgZQ54BnCEjEbD0HNApIAALBZ8iCLI0zX5LqtSc48dItHoRKkDErIywbQrz7yAuJan5j9kCS-JD_7lxCeQibewsK1hAoYr4nXSVVv2tojcBxccy97zAID3D6m5mJIA91PPYjJW-Pc1vOUqN54WTkWhUQHn1RN5Q5eqa9BGEcGlM1NnsHCLZBhhWvy3SazoyXeRjIgv7C9Mlm9wh3ty6E4eh3PKmEK7M0Y59uMmESEmLk8ZTu6U6CPwNJ-I3DezbOagV9mSmDD5AgH929mDockhy_f4x8Wk9U5Lj3T4WBWI3A3ROZX3CkpSjkOwNG6cKF6tE8l6WV4QZ7kdD7xc5kb9ZMJZTnnGRAYKWW_fJFS_ZurXSrpLBmHkpLeuK__O03wvvyZBPjBr03zPA_ATwAFlMWpzBw7QIJxv9cKFP9vooWtuFVe9h8bBpsMvrEq68UHbUdtHnAg7phZrXwE6AmxZgcQ79K7XRxKT2n40FREE3JWc9Y5UjUnbDJGSuRdMOPbunTWsFIdLqyqyWibjT5lO-I3tPG5xfrqhyom6WiLcvaDnQxcqXngeIpwa6rVbAO4OySmjdQXKjsXsuINu1yeLi_AgweLllM8NPZjguSiFt5_Phv6SOS96wUhvnTQUdxAoqYN6krvmjR15vkuV_dGRPsLkC3ShVt_lvKNkPNrRVmD]--></g></svg>