<svg xmlns="http://www.w3.org/2000/svg" xmlns:xlink="http://www.w3.org/1999/xlink" contentStyleType="text/css" data-diagram-type="STATE" height="1900px" preserveAspectRatio="none" style="width:1528px;height:1900px;background:#FFFFFF;" version="1.1" viewBox="0 0 1528 1900" width="1528.125px" zoomAndPan="magnify"><defs><filter height="300%" id="fmpk2m36695pt" width="300%" x="-1" y="-1"><feGaussianBlur result="blurOut" stdDeviation="6.25"/><feColorMatrix in="blurOut" result="blurOut2" type="matrix" values="0 0 0 0 0 0 0 0 0 0 0 0 0 0 0 0 0 0 .4 0"/><feOffset dx="12.5" dy="12.5" in="blurOut2" result="blurOut3"/><feBlend in="SourceGraphic" in2="blurOut3" mode="normal"/></filter></defs><g><!--cluster ip--><g id="cluster_ip"><rect fill="transparent" filter="url(#fmpk2m36695pt)" height="965.625" rx="39.0625" ry="39.0625" style="stroke:#181818;stroke-width:1.5625;" width="796.875" x="125" y="21.875"/><path d="M164.0625,21.875 L882.8125,21.875 A39.0625,39.0625 0 0 1 921.875,60.9375 L921.875,88.4277 L125,88.4277 L125,60.9375 A39.0625,39.0625 0 0 1 164.0625,21.875 " fill="#F1F1F1" style="stroke:#F1F1F1;stroke-width:3.125;"/><rect fill="transparent" height="965.625" rx="39.0625" ry="39.0625" style="stroke:#181818;stroke-width:1.5625;" width="796.875" x="125" y="21.875"/><line style="stroke:#181818;stroke-width:1.5625;" x1="125" x2="921.875" y1="88.4277" y2="88.4277"/><text fill="#000000" font-family="sans-serif" font-size="43.75" lengthAdjust="spacing" textLength="184.3567" x="431.2592" y="74.9847">Ongoing</text></g><!--cluster Finalized--><g id="cluster_Finalized"><rect fill="transparent" filter="url(#fmpk2m36695pt)" height="696.875" rx="39.0625" ry="39.0625" style="stroke:#181818;stroke-width:1.5625;" width="578.125" x="21.875" y="1165.625"/><path d="M60.9375,1165.625 L560.9375,1165.625 A39.0625,39.0625 0 0 1 600,1204.6875 L600,1232.1777 L21.875,1232.1777 L21.875,1204.6875 A39.0625,39.0625 0 0 1 60.9375,1165.625 " fill="#F1F1F1" style="stroke:#F1F1F1;stroke-width:3.125;"/><rect fill="transparent" height="696.875" rx="39.0625" ry="39.0625" style="stroke:#181818;stroke-width:1.5625;" width="578.125" x="21.875" y="1165.625"/><line style="stroke:#181818;stroke-width:1.5625;" x1="21.875" x2="600" y1="1232.1777" y2="1232.1777"/><text fill="#000000" font-family="sans-serif" font-size="43.75" lengthAdjust="spacing" textLength="193.8202" x="214.0274" y="1218.7347">Finalized</text></g><ellipse cx="318.75" cy="218.75" fill="#222222" filter="url(#fmpk2m36695pt)" rx="31.25" ry="31.25" style="stroke:#222222;stroke-width:3.125;"/><rect fill="#F1F1F1" filter="url(#fmpk2m36695pt)" height="125" rx="39.0625" ry="39.0625" style="stroke:#181818;stroke-width:1.5625;" width="234.4055" x="460.9375" y="156.25"/><text fill="#000000" font-family="sans-serif" font-size="43.75" lengthAdjust="spacing" textLength="203.1555" x="476.5625" y="233.8959">Proposed</text><rect fill="#F1F1F1" filter="url(#fmpk2m36695pt)" height="125" rx="39.0625" ry="39.0625" style="stroke:#181818;stroke-width:1.5625;" width="238.7207" x="200" y="471.875"/><text fill="#000000" font-family="sans-serif" font-size="43.75" lengthAdjust="spacing" textLength="207.4707" x="215.625" y="549.5209">Validated</text><rect fill="#F1F1F1" filter="url(#fmpk2m36695pt)" height="125" rx="39.0625" ry="39.0625" style="stroke:#181818;stroke-width:1.5625;" width="275.3143" x="546.875" y="471.875"/><text fill="#000000" font-family="sans-serif" font-size="43.75" lengthAdjust="spacing" textLength="244.0643" x="562.5" y="549.5209">Invalidated</text><rect fill="#F1F1F1" filter="url(#fmpk2m36695pt)" height="125" rx="39.0625" ry="39.0625" style="stroke:#181818;stroke-width:1.5625;" width="235.8154" x="198.4375" y="787.5"/><text fill="#000000" font-family="sans-serif" font-size="43.75" lengthAdjust="spacing" textLength="204.5654" x="214.0625" y="865.1459">Accepted</text><rect fill="#F1F1F1" filter="url(#fmpk2m36695pt)" height="125" rx="39.0625" ry="39.0625" style="stroke:#181818;stroke-width:1.5625;" width="223.5321" x="543.75" y="787.5"/><text fill="#000000" font-family="sans-serif" font-size="43.75" lengthAdjust="spacing" textLength="192.2821" x="559.375" y="865.1459">Rejected</text><rect fill="#F1F1F1" filter="url(#fmpk2m36695pt)" height="125" rx="39.0625" ry="39.0625" style="stroke:#181818;stroke-width:1.5625;" width="269.8669" x="103.125" y="1275"/><text fill="#000000" font-family="sans-serif" font-size="43.75" lengthAdjust="spacing" textLength="238.6169" x="118.75" y="1352.6459">Completed</text><rect fill="#F1F1F1" filter="url(#fmpk2m36695pt)" height="125" rx="39.0625" ry="39.0625" style="stroke:#181818;stroke-width:1.5625;" width="284.0302" x="264.0625" y="1687.5"/><text fill="#000000" font-family="sans-serif" font-size="43.75" lengthAdjust="spacing" textLength="252.7802" x="279.6875" y="1765.1459">Terminated</text><!--link *start*ip to Proposed--><g id="link_*start*ip_Proposed"><path d="M350.1563,218.75 C386.9688,218.75 405.0313,218.75 441.8437,218.75 " fill="transparent" id="*start*ip-to-Proposed" style="stroke:#008000;stroke-width:6.25;"/><polygon fill="#008000" points="460.5937,218.75,432.4687,206.25,444.9687,218.75,432.4687,231.25,460.5937,218.75" style="stroke:#008000;stroke-width:6.25;"/></g><!--link Proposed to Validated--><g id="link_Proposed_Validated"><path d="M528.125,281.5313 C482.1875,336.3125 426.551,402.6981 380.6447,457.4169 " fill="transparent" id="Proposed-to-Validated" style="stroke:#008000;stroke-width:6.25;"/><polygon fill="#008000" points="368.5938,471.7813,396.2465,458.2687,378.6362,459.8109,377.094,442.2007,368.5938,471.7813" style="stroke:#008000;stroke-width:6.25;"/></g><!--link Proposed to Invalidated--><g id="link_Proposed_Invalidated"><path d="M598.625,281.5313 C617.4375,336.3125 639.0692,399.3281 657.8505,454.0468 " fill="transparent" id="Proposed-to-Invalidated" style="stroke:#FF0000;stroke-width:3.125;"/><polygon fill="#FF0000" points="663.9375,471.7813,666.6299,441.1216,658.865,457.0025,642.984,449.2376,663.9375,471.7813" style="stroke:#FF0000;stroke-width:3.125;"/></g><!--link Validated to Accepted--><g id="link_Validated_Accepted"><path d="M318.1563,597.1562 C317.5938,651.9375 316.974,713.9385 316.4115,768.6572 " fill="transparent" id="Validated-to-Accepted" style="stroke:#008000;stroke-width:6.25;"/><polygon fill="#008000" points="316.2188,787.4063,329.0072,759.4112,316.3794,771.7821,304.0085,759.1542,316.2188,787.4063" style="stroke:#008000;stroke-width:6.25;"/></g><!--link Validated to Rejected--><g id="link_Validated_Rejected"><path d="M383.8125,597.1562 C443.5937,651.9375 517.8665,720.017 577.554,774.7358 " fill="transparent" id="Validated-to-Rejected" style="stroke:#FF0000;stroke-width:3.125;"/><polygon fill="#FF0000" points="591.375,787.4063,579.0904,759.1865,579.8575,776.8475,562.1964,777.6145,591.375,787.4063" style="stroke:#FF0000;stroke-width:3.125;"/></g><!--link Accepted to Completed--><g id="link_Accepted_Completed"><path d="M305.875,913.0938 C290.9063,1005.3125 265.4138,1162.4615 250.3513,1255.149 " fill="transparent" id="Accepted-to-Completed" style="stroke:#008000;stroke-width:6.25;"/><polygon fill="#008000" points="247.3438,1273.6563,264.1933,1247.9005,249.8501,1258.2336,239.517,1243.8904,247.3438,1273.6563" style="stroke:#008000;stroke-width:6.25;"/></g><!--link Invalidated to Terminated--><g id="link_Invalidated_Terminated"><path d="M727.0313,596.9375 C759.6563,645.6875 802.7188,717.7813 825,787.5 C907.9688,1047.3125 971.7188,1150.0938 862.5,1400 C802.9375,1536.3125 674.0925,1623.2901 563.2487,1679.0713 " fill="transparent" id="Invalidated-to-Terminated" style="stroke:#FF0000;stroke-width:3.125;"/><polygon fill="#FF0000" points="546.5,1687.5,577.2422,1686.0228,560.4573,1680.4761,566.004,1663.6912,546.5,1687.5" style="stroke:#FF0000;stroke-width:3.125;"/><text fill="#000000" font-family="sans-serif" font-size="40.625" lengthAdjust="spacing" textLength="176.4847" x="918.75" y="1103.334">/ Reason</text></g><!--link Rejected to Terminated--><g id="link_Rejected_Terminated"><path d="M660,913.3438 C665.625,1044.3125 665.5625,1361.875 553.125,1593.75 C536.0938,1628.875 521.5519,1648.2623 494.4582,1674.0436 " fill="transparent" id="Rejected-to-Terminated" style="stroke:#FF0000;stroke-width:3.125;"/><polygon fill="#FF0000" points="480.875,1686.9688,509.8665,1676.6365,492.1943,1676.1978,492.633,1658.5256,480.875,1686.9688" style="stroke:#FF0000;stroke-width:3.125;"/><text fill="#000000" font-family="sans-serif" font-size="40.625" lengthAdjust="spacing" textLength="176.4847" x="659.375" y="1351.7715">/ Reason</text></g><!--link ip to Terminated--><g id="link_ip_Terminated"><path d="M922.256,230.332 C922.6246,230.4631 922.9966,230.5957 923.372,230.7298 C926.3752,231.8027 929.5954,232.9731 933.0124,234.2409 C939.8464,236.7765 947.4678,239.7018 955.7148,243.0171 C988.7031,256.2783 1031.7031,275.7793 1074.375,301.5352 C1159.7188,353.0469 1243.75,429.5781 1243.75,531.25 C1243.75,531.25 1243.75,531.25 1243.75,1340.625 C1243.75,1645.6563 807.1603,1720.2389 567.9728,1739.1764 " fill="transparent" id="ip-to-Terminated" style="stroke:#FF0000;stroke-width:3.125;"/><polygon fill="#FF0000" points="549.2813,1740.6563,578.3051,1750.8974,564.8575,1739.423,576.3319,1725.9754,549.2813,1740.6563" style="stroke:#FF0000;stroke-width:3.125;"/><text fill="#000000" font-family="sans-serif" font-size="40.625" lengthAdjust="spacing" textLength="208.461" x="1272.2557" y="840.834">/ Time-out</text><text fill="#000000" font-family="sans-serif" font-size="40.625" lengthAdjust="spacing" textLength="259.2224" x="1246.875" y="888.1241">[&gt; 24-hours]</text></g><!--link Completed to Terminated--><g id="link_Completed_Terminated"><path d="M198.125,1400.9063 C168.7188,1454.1875 138.8125,1532.6563 171.875,1593.75 C193.1563,1633.0625 213.4686,1654.0294 251.1873,1677.4044 " fill="transparent" id="Completed-to-Terminated" style="stroke:#FF0000;stroke-width:3.125;stroke-dasharray:7.0,7.0;"/><polygon fill="#FF0000" points="267.125,1687.2813,249.8031,1661.8408,253.8436,1679.0505,236.6339,1683.0911,267.125,1687.2813" style="stroke:#FF0000;stroke-width:3.125;"/><text fill="#000000" font-family="sans-serif" font-size="40.625" lengthAdjust="spacing" textLength="364.0778" x="175" y="1534.584">[Reversal agreed]</text><text fill="#000000" font-family="sans-serif" font-size="40.625" lengthAdjust="spacing" textLength="176.4847" x="268.7965" y="1581.8741">/ Reason</text></g><!--SRC=[ZP31JiCm38RlUGfhko4g9k34eH92Gk846XENheUiCQkXYQCa7GAqTySjQYaC96wH_UNpRyTdSbu7RS5uWhF5GiMnOjbnLGUs28-wYJXfnLeRVY6tXHHQL2gnXyImuPHOL1ImIiHErMGGqFhq2WPZ5SZtPHMJJWYpMxTbaSn0Ho2lr7rV9W_l2g0uAY4hDjoOu_as8BeoXxl0dYCQQG_F7qoMmuDko8Z8m7Ti7j1q_Hkt6mWbn1T-OBgiAlIf7pUb1j4IdsHFQU-7wDVaX7iJgjjW-7uelcBh6_mqJ-9Ct2iCLcHTyG9EP9IESZWOP_u3bJl-2Qt8OiPjMhiYXzFphEOsnB8xs1XDFXiTQvJSlpcA9UumHDs0xjOovTgDi_SV]--></g></svg>