<svg xmlns="http://www.w3.org/2000/svg" xmlns:xlink="http://www.w3.org/1999/xlink" contentStyleType="text/css" data-diagram-type="STATE" height="3012.5px" preserveAspectRatio="none" style="width:3528px;height:3012px;background:#FFFFFF;" version="1.1" viewBox="0 0 3528 3012" width="3528.125px" zoomAndPan="magnify"><defs><filter height="300%" id="f1debxjtg4ybgy" width="300%" x="-1" y="-1"><feGaussianBlur result="blurOut" stdDeviation="6.25"/><feColorMatrix in="blurOut" result="blurOut2" type="matrix" values="0 0 0 0 0 0 0 0 0 0 0 0 0 0 0 0 0 0 .4 0"/><feOffset dx="12.5" dy="12.5" in="blurOut2" result="blurOut3"/><feBlend in="SourceGraphic" in2="blurOut3" mode="normal"/></filter></defs><g><!--cluster Receiving_Registry--><g id="cluster_Receiving_Registry"><rect fill="transparent" filter="url(#f1debxjtg4ybgy)" height="1396.875" rx="39.0625" ry="39.0625" style="stroke:#181818;stroke-width:1.5625;" width="821.875" x="2665.625" y="21.875"/><path d="M2704.6875,21.875 L3448.4375,21.875 A39.0625,39.0625 0 0 1 3487.5,60.9375 L3487.5,88.4277 L2665.625,88.4277 L2665.625,60.9375 A39.0625,39.0625 0 0 1 2704.6875,21.875 " fill="#F1F1F1" style="stroke:#F1F1F1;stroke-width:3.125;"/><rect fill="transparent" height="1396.875" rx="39.0625" ry="39.0625" style="stroke:#181818;stroke-width:1.5625;" width="821.875" x="2665.625" y="21.875"/><line style="stroke:#181818;stroke-width:1.5625;" x1="2665.625" x2="3487.5" y1="88.4277" y2="88.4277"/><text fill="#000000" font-family="sans-serif" font-size="43.75" lengthAdjust="spacing" textLength="416.9281" x="2868.0984" y="74.9847">Receiving_Registry</text></g><!--cluster Sending_Registry--><g id="cluster_Sending_Registry"><rect fill="transparent" filter="url(#f1debxjtg4ybgy)" height="1403.125" rx="39.0625" ry="39.0625" style="stroke:#181818;stroke-width:1.5625;" width="1393.75" x="21.875" y="1571.875"/><path d="M60.9375,1571.875 L1376.5625,1571.875 A39.0625,39.0625 0 0 1 1415.625,1610.9375 L1415.625,1638.4277 L21.875,1638.4277 L21.875,1610.9375 A39.0625,39.0625 0 0 1 60.9375,1571.875 " fill="#F1F1F1" style="stroke:#F1F1F1;stroke-width:3.125;"/><rect fill="transparent" height="1403.125" rx="39.0625" ry="39.0625" style="stroke:#181818;stroke-width:1.5625;" width="1393.75" x="21.875" y="1571.875"/><line style="stroke:#181818;stroke-width:1.5625;" x1="21.875" x2="1415.625" y1="1638.4277" y2="1638.4277"/><text fill="#000000" font-family="sans-serif" font-size="43.75" lengthAdjust="spacing" textLength="380.7831" x="528.3585" y="1624.9847">Sending_Registry</text></g><!--cluster Interoperability_Hub--><g id="cluster_Interoperability_Hub"><rect fill="transparent" filter="url(#f1debxjtg4ybgy)" height="1862.5" rx="39.0625" ry="39.0625" style="stroke:#181818;stroke-width:1.5625;" width="1056.25" x="1490.625" y="768.75"/><path d="M1529.6875,768.75 L2507.8125,768.75 A39.0625,39.0625 0 0 1 2546.875,807.8125 L2546.875,835.3027 L1490.625,835.3027 L1490.625,807.8125 A39.0625,39.0625 0 0 1 1529.6875,768.75 " fill="#F1F1F1" style="stroke:#F1F1F1;stroke-width:3.125;"/><rect fill="transparent" height="1862.5" rx="39.0625" ry="39.0625" style="stroke:#181818;stroke-width:1.5625;" width="1056.25" x="1490.625" y="768.75"/><line style="stroke:#181818;stroke-width:1.5625;" x1="1490.625" x2="2546.875" y1="835.3027" y2="835.3027"/><text fill="#000000" font-family="sans-serif" font-size="43.75" lengthAdjust="spacing" textLength="446.4935" x="1795.5032" y="821.8597">Interoperability_Hub</text></g><rect fill="#F1F1F1" filter="url(#f1debxjtg4ybgy)" height="125" rx="39.0625" ry="39.0625" style="stroke:#181818;stroke-width:1.5625;" width="234.4055" x="2714.0625" y="131.25"/><text fill="#000000" font-family="sans-serif" font-size="43.75" lengthAdjust="spacing" textLength="203.1555" x="2729.6875" y="208.8959">Proposed</text><rect fill="#F1F1F1" filter="url(#f1debxjtg4ybgy)" height="125" rx="39.0625" ry="39.0625" style="stroke:#181818;stroke-width:1.5625;" width="238.7207" x="2715.625" y="496.875"/><text fill="#000000" font-family="sans-serif" font-size="43.75" lengthAdjust="spacing" textLength="207.4707" x="2731.25" y="574.5209">Validated</text><rect fill="#F1F1F1" filter="url(#f1debxjtg4ybgy)" height="125" rx="39.0625" ry="39.0625" style="stroke:#181818;stroke-width:1.5625;" width="235.8154" x="2714.0625" y="878.125"/><text fill="#000000" font-family="sans-serif" font-size="43.75" lengthAdjust="spacing" textLength="204.5654" x="2729.6875" y="955.7709">Accepted</text><rect fill="#F1F1F1" filter="url(#f1debxjtg4ybgy)" height="125" rx="39.0625" ry="39.0625" style="stroke:#181818;stroke-width:1.5625;" width="223.5321" x="3059.375" y="878.125"/><text fill="#000000" font-family="sans-serif" font-size="43.75" lengthAdjust="spacing" textLength="192.2821" x="3075" y="955.7709">Rejected</text><rect fill="#F1F1F1" filter="url(#f1debxjtg4ybgy)" height="125" rx="39.0625" ry="39.0625" style="stroke:#181818;stroke-width:1.5625;" width="269.8669" x="2715.625" y="1243.75"/><text fill="#000000" font-family="sans-serif" font-size="43.75" lengthAdjust="spacing" textLength="238.6169" x="2731.25" y="1321.3959">Completed</text><rect fill="#F1F1F1" filter="url(#f1debxjtg4ybgy)" height="125" rx="39.0625" ry="39.0625" style="stroke:#181818;stroke-width:1.5625;" width="284.0302" x="3095.3125" y="1243.75"/><text fill="#000000" font-family="sans-serif" font-size="43.75" lengthAdjust="spacing" textLength="252.7802" x="3110.9375" y="1321.3959">Terminated</text><rect fill="#F1F1F1" filter="url(#f1debxjtg4ybgy)" height="125" rx="39.0625" ry="39.0625" style="stroke:#181818;stroke-width:1.5625;" width="234.4055" x="601.5625" y="1681.25"/><text fill="#000000" font-family="sans-serif" font-size="43.75" lengthAdjust="spacing" textLength="203.1555" x="617.1875" y="1758.8959">Proposed</text><rect fill="#F1F1F1" filter="url(#f1debxjtg4ybgy)" height="125" rx="39.0625" ry="39.0625" style="stroke:#181818;stroke-width:1.5625;" width="238.7207" x="725" y="2118.75"/><text fill="#000000" font-family="sans-serif" font-size="43.75" lengthAdjust="spacing" textLength="207.4707" x="740.625" y="2196.3959">Validated</text><rect fill="#F1F1F1" filter="url(#f1debxjtg4ybgy)" height="125" rx="39.0625" ry="39.0625" style="stroke:#181818;stroke-width:1.5625;" width="275.3143" x="71.875" y="2118.75"/><text fill="#000000" font-family="sans-serif" font-size="43.75" lengthAdjust="spacing" textLength="244.0643" x="87.5" y="2196.3959">Invalidated</text><rect fill="#F1F1F1" filter="url(#f1debxjtg4ybgy)" height="125" rx="39.0625" ry="39.0625" style="stroke:#181818;stroke-width:1.5625;" width="235.8154" x="1079.6875" y="2484.375"/><text fill="#000000" font-family="sans-serif" font-size="43.75" lengthAdjust="spacing" textLength="204.5654" x="1095.3125" y="2562.0209">Accepted</text><rect fill="#F1F1F1" filter="url(#f1debxjtg4ybgy)" height="125" rx="39.0625" ry="39.0625" style="stroke:#181818;stroke-width:1.5625;" width="223.5321" x="731.25" y="2484.375"/><text fill="#000000" font-family="sans-serif" font-size="43.75" lengthAdjust="spacing" textLength="192.2821" x="746.875" y="2562.0209">Rejected</text><rect fill="#F1F1F1" filter="url(#f1debxjtg4ybgy)" height="125" rx="39.0625" ry="39.0625" style="stroke:#181818;stroke-width:1.5625;" width="269.8669" x="1096.875" y="2800"/><text fill="#000000" font-family="sans-serif" font-size="43.75" lengthAdjust="spacing" textLength="238.6169" x="1112.5" y="2877.6459">Completed</text><rect fill="#F1F1F1" filter="url(#f1debxjtg4ybgy)" height="125" rx="39.0625" ry="39.0625" style="stroke:#181818;stroke-width:1.5625;" width="284.0302" x="701.5625" y="2800"/><text fill="#000000" font-family="sans-serif" font-size="43.75" lengthAdjust="spacing" textLength="252.7802" x="717.1875" y="2877.6459">Terminated</text><g id="elem_cs1"><polygon fill="#F1F1F1" filter="url(#f1debxjtg4ybgy)" points="1040.625,1706.25,1078.125,1743.75,1040.625,1781.25,1003.125,1743.75,1040.625,1706.25" style="stroke:#181818;stroke-width:1.5625;"/></g><ellipse cx="459.375" cy="1743.75" fill="#222222" filter="url(#f1debxjtg4ybgy)" rx="31.25" ry="31.25" style="stroke:#222222;stroke-width:3.125;"/><rect fill="#F1F1F1" filter="url(#f1debxjtg4ybgy)" height="125" rx="39.0625" ry="39.0625" style="stroke:#181818;stroke-width:1.5625;" width="234.4055" x="1548.4375" y="878.125"/><text fill="#000000" font-family="sans-serif" font-size="43.75" lengthAdjust="spacing" textLength="203.1555" x="1564.0625" y="955.7709">Proposed</text><rect fill="#F1F1F1" filter="url(#f1debxjtg4ybgy)" height="125" rx="39.0625" ry="39.0625" style="stroke:#181818;stroke-width:1.5625;" width="238.7207" x="1893.75" y="878.125"/><text fill="#000000" font-family="sans-serif" font-size="43.75" lengthAdjust="spacing" textLength="207.4707" x="1909.375" y="955.7709">Validated</text><rect fill="#F1F1F1" filter="url(#f1debxjtg4ybgy)" height="125" rx="39.0625" ry="39.0625" style="stroke:#181818;stroke-width:1.5625;" width="275.3143" x="1540.625" y="1243.75"/><text fill="#000000" font-family="sans-serif" font-size="43.75" lengthAdjust="spacing" textLength="244.0643" x="1556.25" y="1321.3959">Invalidated</text><rect fill="#F1F1F1" filter="url(#f1debxjtg4ybgy)" height="125" rx="39.0625" ry="39.0625" style="stroke:#181818;stroke-width:1.5625;" width="235.8154" x="1926.5625" y="1243.75"/><text fill="#000000" font-family="sans-serif" font-size="43.75" lengthAdjust="spacing" textLength="204.5654" x="1942.1875" y="1321.3959">Accepted</text><rect fill="#F1F1F1" filter="url(#f1debxjtg4ybgy)" height="125" rx="39.0625" ry="39.0625" style="stroke:#181818;stroke-width:1.5625;" width="223.5321" x="2271.875" y="1243.75"/><text fill="#000000" font-family="sans-serif" font-size="43.75" lengthAdjust="spacing" textLength="192.2821" x="2287.5" y="1321.3959">Rejected</text><rect fill="#F1F1F1" filter="url(#f1debxjtg4ybgy)" height="125" rx="39.0625" ry="39.0625" style="stroke:#181818;stroke-width:1.5625;" width="269.8669" x="1650" y="1900"/><text fill="#000000" font-family="sans-serif" font-size="43.75" lengthAdjust="spacing" textLength="238.6169" x="1665.625" y="1977.6459">Completed</text><rect fill="#F1F1F1" filter="url(#f1debxjtg4ybgy)" height="125" rx="39.0625" ry="39.0625" style="stroke:#181818;stroke-width:1.5625;" width="284.0302" x="1898.4375" y="2118.75"/><text fill="#000000" font-family="sans-serif" font-size="43.75" lengthAdjust="spacing" textLength="252.7802" x="1914.0625" y="2196.3959">Terminated</text><g id="elem_ch1"><polygon fill="#F1F1F1" filter="url(#f1debxjtg4ybgy)" points="2137.5,1706.25,2175,1743.75,2137.5,1781.25,2100,1743.75,2137.5,1706.25" style="stroke:#181818;stroke-width:1.5625;"/></g><ellipse cx="1728.125" cy="2546.875" fill="transparent" filter="url(#f1debxjtg4ybgy)" rx="34.375" ry="34.375" style="stroke:#222222;stroke-width:3.125;"/><ellipse cx="1728.125" cy="2546.875" fill="#222222" rx="18.75" ry="18.75" style="stroke:#222222;stroke-width:3.125;"/><!--link pr to vr--><g id="link_pr_vr"><path d="M2831.7813,257.0313 C2832.3438,323.375 2833.1224,410.7507 2833.6849,477.1569 " fill="transparent" id="pr-to-vr" style="stroke:#181818;stroke-width:3.125;"/><polygon fill="#181818" points="2833.8438,495.9063,2846.1051,467.6764,2833.7114,480.2818,2821.106,467.8881,2833.8438,495.9063" style="stroke:#181818;stroke-width:3.125;"/><text fill="#000000" font-family="sans-serif" font-size="40.625" lengthAdjust="spacing" textLength="240.0406" x="2834.375" y="390.834">[Automatic]</text></g><!--link vr to ar--><g id="link_vr_ar"><path d="M2833.875,621.9063 C2833.3125,691.7188 2832.5023,788.1569 2831.9085,858.3757 " fill="transparent" id="vr-to-ar" style="stroke:#181818;stroke-width:3.125;"/><polygon fill="#181818" points="2831.75,877.125,2844.4874,849.1067,2831.8821,861.5006,2819.4883,848.8953,2831.75,877.125" style="stroke:#181818;stroke-width:3.125;"/></g><!--link vr to rr--><g id="link_vr_rr"><path d="M2891.125,622.4688 C2924.125,657.5312 2966.3125,702.8437 3003.125,743.75 C3043.125,788.1563 3075.2635,824.9495 3108.451,863.4808 " fill="transparent" id="vr-to-rr" style="stroke:#181818;stroke-width:3.125;"/><polygon fill="#181818" points="3120.6875,877.6875,3111.804,848.2197,3110.4904,865.8485,3092.8616,864.535,3120.6875,877.6875" style="stroke:#181818;stroke-width:3.125;"/></g><!--link ar to cr--><g id="link_ar_cr"><path d="M2820.875,1003.4063 C2815.125,1044.6563 2810.1563,1100.75 2815.625,1150 C2819.0625,1180.875 2821.7456,1196.4241 2828.6519,1224.3303 " fill="transparent" id="ar-to-cr" style="stroke:#181818;stroke-width:3.125;"/><polygon fill="#181818" points="2833.1563,1242.5313,2838.5336,1212.227,2829.4026,1227.3638,2814.2658,1218.2328,2833.1563,1242.5313" style="stroke:#181818;stroke-width:3.125;"/><text fill="#000000" font-family="sans-serif" font-size="40.625" lengthAdjust="spacing" textLength="240.0406" x="2818.75" y="1137.709">[Automatic]</text></g><!--link rr to tr--><g id="link_rr_tr"><path d="M3182.8438,1003.9063 C3194.9688,1070.25 3210.9759,1157.9299 3223.1009,1224.3362 " fill="transparent" id="rr-to-tr" style="stroke:#181818;stroke-width:3.125;"/><polygon fill="#181818" points="3226.4688,1242.7813,3233.7137,1212.8684,3223.6622,1227.4104,3209.1203,1217.3589,3226.4688,1242.7813" style="stroke:#181818;stroke-width:3.125;"/><text fill="#000000" font-family="sans-serif" font-size="40.625" lengthAdjust="spacing" textLength="240.0406" x="3209.375" y="1137.709">[Automatic]</text></g><!--link *start*Sending_Registry to ps--><g id="link_*start*Sending_Registry_ps"><path d="M490.7813,1743.75 C527.5938,1743.75 545.6563,1743.75 582.4688,1743.75 " fill="transparent" id="*start*Sending_Registry-to-ps" style="stroke:#181818;stroke-width:3.125;"/><polygon fill="#181818" points="601.2188,1743.75,573.0938,1731.25,585.5938,1743.75,573.0938,1756.25,601.2188,1743.75" style="stroke:#181818;stroke-width:3.125;"/></g><!--link rs to ts--><g id="link_rs_ts"><path d="M843.75,2609.6563 C843.75,2664.4375 843.75,2726.4375 843.75,2781.1563 " fill="transparent" id="rs-to-ts" style="stroke:#181818;stroke-width:3.125;"/><polygon fill="#181818" points="843.75,2799.9063,856.25,2771.7813,843.75,2784.2813,831.25,2771.7813,843.75,2799.9063" style="stroke:#181818;stroke-width:3.125;"/></g><!--link vs to acs--><g id="link_vs_acs"><path d="M902.8438,2244.5313 C968.0313,2310.875 1059.1712,2403.6258 1124.4212,2470.0321 " fill="transparent" id="vs-to-acs" style="stroke:#181818;stroke-width:3.125;"/><polygon fill="#181818" points="1137.5625,2483.4063,1126.7667,2454.5841,1126.6114,2472.2611,1108.9344,2472.1059,1137.5625,2483.4063" style="stroke:#181818;stroke-width:3.125;"/></g><!--link vs to rs--><g id="link_vs_rs"><path d="M843.75,2244.5313 C843.75,2310.875 843.75,2398.25 843.75,2464.6563 " fill="transparent" id="vs-to-rs" style="stroke:#181818;stroke-width:3.125;"/><polygon fill="#181818" points="843.75,2483.4063,856.25,2455.2813,843.75,2467.7813,831.25,2455.2813,843.75,2483.4063" style="stroke:#181818;stroke-width:3.125;"/></g><!--link acs to cs--><g id="link_acs_cs"><path d="M1203.5,2609.6563 C1209.5938,2664.4375 1216.4872,2726.5527 1222.581,2781.2714 " fill="transparent" id="acs-to-cs" style="stroke:#181818;stroke-width:3.125;"/><polygon fill="#181818" points="1224.6563,2799.9063,1233.9666,2770.5705,1222.9269,2784.3772,1209.1202,2773.3376,1224.6563,2799.9063" style="stroke:#181818;stroke-width:3.125;"/></g><!--link is to ts--><g id="link_is_ts"><path d="M265.6563,2244.2813 C386.0625,2372.375 654.471,2657.9627 774.7522,2785.9315 " fill="transparent" id="is-to-ts" style="stroke:#181818;stroke-width:3.125;"/><polygon fill="#181818" points="787.5937,2799.5938,777.4396,2770.5393,776.8925,2788.2085,759.2233,2787.6614,787.5937,2799.5938" style="stroke:#181818;stroke-width:3.125;"/></g><!--link cs1 to is--><g id="link_cs1_is"><path d="M1016.6875,1757.9687 C987.5,1771.125 936.3438,1792.9688 890.625,1806.25 C677.4375,1868.2187 585.7813,1778.4688 400,1900 C319.1875,1952.875 271.1262,2036.0664 241.6574,2100.6601 " fill="transparent" id="cs1-to-is" style="stroke:#181818;stroke-width:3.125;"/><polygon fill="#181818" points="233.875,2117.7188,256.921,2097.3191,240.3604,2103.5032,234.1762,2086.9425,233.875,2117.7188" style="stroke:#181818;stroke-width:3.125;"/><text fill="#000000" font-family="sans-serif" font-size="40.625" lengthAdjust="spacing" textLength="490.8524" x="403.125" y="1976.7715">[Invalidated by the hub]</text></g><!--link cs1 to vs--><g id="link_cs1_vs"><path d="M1029.4688,1771.2812 C999.2188,1837.5938 922.6601,2005.2551 878.8164,2101.3176 " fill="transparent" id="cs1-to-vs" style="stroke:#181818;stroke-width:3.125;"/><polygon fill="#181818" points="871.0313,2118.375,894.0805,2097.979,877.5189,2104.1605,871.3374,2087.5988,871.0313,2118.375" style="stroke:#181818;stroke-width:3.125;"/><text fill="#000000" font-family="sans-serif" font-size="40.625" lengthAdjust="spacing" textLength="451.7349" x="993.8629" y="1953.334">[Accepted or Rejected</text><text fill="#000000" font-family="sans-serif" font-size="40.625" lengthAdjust="spacing" textLength="514.8743" x="968.75" y="2000.6241">by the receiving registry]</text></g><!--link ps to vs--><g id="link_ps_vs"><path d="M712.7188,1806.25 C709,1863.875 709.0313,1952.9063 734.375,2025 C746.3125,2058.9063 756.5212,2077.2342 777.6149,2103.8904 " fill="transparent" id="ps-to-vs" style="stroke:#181818;stroke-width:3.125;"/><polygon fill="#181818" points="789.25,2118.5938,781.5996,2088.7821,779.5541,2106.341,761.9952,2104.2955,789.25,2118.5938" style="stroke:#181818;stroke-width:3.125;"/></g><!--link ps to is--><g id="link_ps_is"><path d="M600.75,1789.125 C581.8125,1795.25 562.3125,1801.1875 543.75,1806.25 C345.3125,1860.2188 220.4688,1740.5313 90.625,1900 C37.25,1965.5625 85.6374,2044.5318 138.0749,2104.5943 " fill="transparent" id="ps-to-is" style="stroke:#181818;stroke-width:3.125;"/><polygon fill="#181818" points="150.4063,2118.7188,141.3255,2089.3112,140.1301,2106.9484,122.4929,2105.753,150.4063,2118.7188" style="stroke:#181818;stroke-width:3.125;"/></g><!--link ph to vh--><g id="link_ph_vh"><path d="M1783.5,940.625 C1820.1875,940.625 1838.0938,940.625 1874.7812,940.625 " fill="transparent" id="ph-to-vh" style="stroke:#181818;stroke-width:3.125;"/><polygon fill="#181818" points="1893.5312,940.625,1865.4062,928.125,1877.9062,940.625,1865.4062,953.125,1893.5312,940.625" style="stroke:#181818;stroke-width:3.125;"/></g><!--link ph to ih--><g id="link_ph_ih"><path d="M1667.7187,1003.9063 C1670.0313,1070.25 1673.0662,1157.6364 1675.3787,1224.0426 " fill="transparent" id="ph-to-ih" style="stroke:#181818;stroke-width:3.125;"/><polygon fill="#181818" points="1676.0313,1242.7813,1687.5449,1214.2383,1675.4875,1227.1657,1662.56,1215.1083,1676.0313,1242.7813" style="stroke:#181818;stroke-width:3.125;"/></g><!--link vh to ah--><g id="link_vh_ah"><path d="M2005.9688,1003.5313 C2002.5938,1044.8125 2000.3125,1100.9063 2006.25,1150 C2010,1180.9688 2012.9634,1196.615 2020.4947,1224.5525 " fill="transparent" id="vh-to-ah" style="stroke:#181818;stroke-width:3.125;"/><polygon fill="#181818" points="2025.375,1242.6563,2030.1237,1212.2471,2021.3081,1227.5698,2005.9854,1218.7542,2025.375,1242.6563" style="stroke:#181818;stroke-width:3.125;"/></g><!--link vh to rh--><g id="link_vh_rh"><path d="M2001.5938,1003.4688 C1996.875,1047.9375 1998.0625,1107.9063 2028.125,1150 C2043.4375,1171.4375 2155.6362,1217.1959 2254.1674,1254.7584 " fill="transparent" id="vh-to-rh" style="stroke:#181818;stroke-width:3.125;"/><polygon fill="#181818" points="2271.6875,1261.4375,2249.8601,1239.7389,2257.0874,1255.8716,2240.9547,1263.0989,2271.6875,1261.4375" style="stroke:#181818;stroke-width:3.125;"/></g><!--link ah to ch--><g id="link_ah_ch"><path d="M2024.8438,1369.375 C2011.0313,1412.1875 1991.375,1470.9688 1971.875,1521.875 C1919.5938,1658.4688 1857.7084,1798.2657 1819.7396,1882.0469 " fill="transparent" id="ah-to-ch" style="stroke:#181818;stroke-width:3.125;"/><polygon fill="#181818" points="1812,1899.125,1834.9948,1878.6676,1818.4497,1884.8933,1812.224,1868.3481,1812,1899.125" style="stroke:#181818;stroke-width:3.125;"/></g><!--link rh to ch1--><g id="link_rh_ch1"><path d="M2350.0625,1369.3438 C2294.4063,1466.5313 2196.3526,1637.8562 2159.5401,1702.1062 " fill="transparent" id="rh-to-ch1" style="stroke:#181818;stroke-width:3.125;"/><polygon fill="#181818" points="2150.2188,1718.375,2175.0467,1700.186,2157.9865,1704.8176,2153.3549,1687.7575,2150.2188,1718.375" style="stroke:#181818;stroke-width:3.125;"/></g><!--link ih to ch1--><g id="link_ih_ch1"><path d="M1749.4062,1369.2188 C1784.3438,1395.7188 1828.2188,1425.0625 1871.875,1443.75 C1922.7188,1465.5 1949.5,1435.5938 1993.75,1468.75 C2077.0625,1531.2188 2112.2247,1638.0778 2126.4747,1694.1403 " fill="transparent" id="ih-to-ch1" style="stroke:#181818;stroke-width:3.125;"/><polygon fill="#181818" points="2131.0938,1712.3125,2136.28,1681.9749,2127.2446,1697.169,2112.0505,1688.1336,2131.0938,1712.3125" style="stroke:#181818;stroke-width:3.125;"/></g><!--link ch1 to th--><g id="link_ch1_th"><path d="M2131.1563,1775.1562 C2115.5625,1844.5 2079.3241,2005.7675 2058.1678,2100.0487 " fill="transparent" id="ch1-to-th" style="stroke:#181818;stroke-width:3.125;"/><polygon fill="#181818" points="2054.0625,2118.3438,2072.4172,2093.6381,2057.4836,2103.0979,2048.0238,2088.1643,2054.0625,2118.3438" style="stroke:#181818;stroke-width:3.125;"/></g><!--link ch to *end*Interoperability_Hub--><g id="link_ch_*end*Interoperability_Hub"><path d="M1786.3438,2025.125 C1788.125,2107.6875 1788.0312,2261.375 1768.75,2390.625 C1762.25,2434.1563 1753.6986,2465.2307 1743.9486,2495.7932 " fill="transparent" id="ch-to-*end*Interoperability_Hub" style="stroke:#181818;stroke-width:3.125;"/><polygon fill="#181818" points="1738.25,2513.6563,1758.7066,2490.6608,1742.9989,2498.7704,1734.8893,2483.0626,1738.25,2513.6563" style="stroke:#181818;stroke-width:3.125;"/></g><!--link th to *end*Interoperability_Hub--><g id="link_th_*end*Interoperability_Hub"><path d="M1983.8438,2244.875 C1957.9375,2272.7813 1927.0937,2306.5313 1900,2337.5 C1844.125,2401.3438 1792.6552,2464.0942 1760.7177,2503.4692 " fill="transparent" id="th-to-*end*Interoperability_Hub" style="stroke:#181818;stroke-width:3.125;"/><polygon fill="#181818" points="1748.9063,2518.0313,1776.3314,2504.0625,1758.7491,2505.8962,1756.9154,2488.3139,1748.9063,2518.0313" style="stroke:#181818;stroke-width:3.125;"/></g><!--link ps to ph--><g id="link_ps_ph"><path d="M772.4688,1680.9688 C824.5938,1624.25 906.9375,1537.5938 984.375,1468.75 C1188.5625,1287.1875 1433.6851,1107.7678 1565.5601,1014.049 " fill="transparent" id="ps-to-ph" style="stroke:#181818;stroke-width:3.125;"/><polygon fill="#181818" points="1580.8438,1003.1875,1550.6773,1009.2907,1568.1074,1012.2388,1565.1593,1029.6689,1580.8438,1003.1875" style="stroke:#181818;stroke-width:3.125;"/><text fill="#000000" font-family="sans-serif" font-size="40.625" lengthAdjust="spacing" textLength="174.0448" x="1253.125" y="1320.5215">Proposal</text></g><!--link vh to pr--><g id="link_vh_pr"><path d="M2075.9063,876.8438 C2165.8125,791.1562 2336,630.25 2484.375,496.875 C2578.5313,412.25 2675.2449,329.1747 2745.8699,269.1434 " fill="transparent" id="vh-to-pr" style="stroke:#181818;stroke-width:3.125;"/><polygon fill="#181818" points="2760.1563,257,2730.6311,265.6909,2748.2509,267.1195,2746.8223,284.7394,2760.1563,257" style="stroke:#181818;stroke-width:3.125;"/><text fill="#000000" font-family="sans-serif" font-size="40.625" lengthAdjust="spacing" textLength="174.0448" x="2487.5" y="573.6465">Proposal</text></g><!--link ar to ah--><g id="link_ar_ah"><path d="M2713.6563,968.75 C2515.75,1010.9688 2136.9063,1092.1875 2131.25,1096.875 C2086.9375,1133.625 2068.8937,1178.5549 2057.9562,1225.3361 " fill="transparent" id="ar-to-ah" style="stroke:#181818;stroke-width:3.125;"/><polygon fill="#181818" points="2053.6875,1243.5938,2072.2622,1219.0531,2057.2447,1228.3791,2047.9187,1213.3615,2053.6875,1243.5938" style="stroke:#181818;stroke-width:3.125;"/><text fill="#000000" font-family="sans-serif" font-size="40.625" lengthAdjust="spacing" textLength="237.1445" x="2134.375" y="1137.709">Acceptance</text></g><!--link rr to rh--><g id="link_rr_rh"><path d="M3058.9688,985.4375 C3040.4375,991.7188 3021.3125,997.8437 3003.125,1003.125 C2823.8438,1055.0313 2757.4063,1007.1562 2593.75,1096.875 C2527.5313,1133.1875 2479.8078,1181.9491 2441.2766,1228.8553 " fill="transparent" id="rr-to-rh" style="stroke:#181818;stroke-width:3.125;"/><polygon fill="#181818" points="2429.375,1243.3438,2456.8863,1229.5455,2439.293,1231.27,2437.5684,1213.6767,2429.375,1243.3438" style="stroke:#181818;stroke-width:3.125;"/><text fill="#000000" font-family="sans-serif" font-size="40.625" lengthAdjust="spacing" textLength="189.6561" x="2596.875" y="1137.709">Rejection</text></g><!--link ah to cs1--><g id="link_ah_cs1"><path d="M1984.5625,1369.375 C1953,1397.2813 1911.875,1427.8125 1868.75,1443.75 C1673.0625,1516.0938 1595.9375,1397.125 1400,1468.75 C1247.1563,1524.625 1118.0908,1655.3508 1070.3096,1707.6008 " fill="transparent" id="ah-to-cs1" style="stroke:#181818;stroke-width:3.125;"/><polygon fill="#181818" points="1057.6563,1721.4375,1085.8608,1709.1179,1068.2007,1709.9069,1067.4118,1692.2468,1057.6563,1721.4375" style="stroke:#181818;stroke-width:3.125;"/><text fill="#000000" font-family="sans-serif" font-size="40.625" lengthAdjust="spacing" textLength="237.1445" x="1403.125" y="1509.584">Acceptance</text></g><!--link ih to cs1--><g id="link_ih_cs1"><path d="M1539.1563,1323.75 C1368.25,1344.625 1093.125,1389.7813 1031.25,1468.75 C973.875,1542 1003.6636,1645.9804 1023.5386,1698.1054 " fill="transparent" id="ih-to-cs1" style="stroke:#181818;stroke-width:3.125;"/><polygon fill="#181818" points="1030.2188,1715.625,1031.8783,1684.8921,1024.652,1701.0253,1008.5188,1693.799,1030.2188,1715.625" style="stroke:#181818;stroke-width:3.125;"/><text fill="#000000" font-family="sans-serif" font-size="40.625" lengthAdjust="spacing" textLength="237.7396" x="1034.375" y="1509.584">Invalidation</text></g><!--link rh to cs1--><g id="link_rh_cs1"><path d="M2325.5,1369.1875 C2295.2188,1396.3438 2256.2188,1426.25 2215.625,1443.75 C2206.2813,1447.7813 1500.4063,1544.125 1490.625,1546.875 C1319.4688,1594.9688 1144.3692,1684.7979 1079.7755,1719.4229 " fill="transparent" id="rh-to-cs1" style="stroke:#181818;stroke-width:3.125;"/><polygon fill="#181818" points="1063.25,1728.2812,1093.9438,1726.0107,1077.0212,1720.8993,1082.1327,1703.9767,1063.25,1728.2812" style="stroke:#181818;stroke-width:3.125;"/><text fill="#000000" font-family="sans-serif" font-size="40.625" lengthAdjust="spacing" textLength="189.6561" x="2043.75" y="1509.584">Rejection</text></g><!--link cs to ch--><g id="link_cs_ch"><path d="M1275.8438,2799.9375 C1304.4063,2760.4063 1341.125,2706.6563 1368.75,2656.25 C1442.875,2520.9375 1428.9688,2471.0313 1506.25,2337.5 C1574.0938,2220.2813 1660.6208,2111.1012 1720.3708,2040.0387 " fill="transparent" id="cs-to-ch" style="stroke:#181818;stroke-width:3.125;"/><polygon fill="#181818" points="1732.4375,2025.6875,1704.77,2039.1699,1722.382,2037.6469,1723.905,2055.2588,1732.4375,2025.6875" style="stroke:#181818;stroke-width:3.125;"/><text fill="#000000" font-family="sans-serif" font-size="40.625" lengthAdjust="spacing" textLength="232.6813" x="1509.375" y="2378.334">Completion</text></g><!--link ts to th--><g id="link_ts_th"><path d="M986.25,2814.4063 C1004.4688,2809.25 1022.9375,2804.2813 1040.625,2800 C1381.0625,2717.3438 1537.7188,2869.5625 1815.625,2656.25 C1951.3437,2552.0938 2005.3845,2363.829 2026.447,2262.1415 " fill="transparent" id="ts-to-th" style="stroke:#181818;stroke-width:3.125;"/><polygon fill="#181818" points="2030.25,2243.7813,2012.3054,2268.7864,2027.0809,2259.0815,2036.7857,2273.857,2030.25,2243.7813" style="stroke:#181818;stroke-width:3.125;"/><text fill="#000000" font-family="sans-serif" font-size="40.625" lengthAdjust="spacing" textLength="245.8328" x="1953.125" y="2561.1465">Termination</text></g><!--SRC=[ZLJ1QXin4BthAuOS2u6Ota8mX5wQMt52Bwa9idQ8r7ebeP6tcD9_xuorMcqCWjwUtXjfDEzfbtuv7tNI8mpHmUUxEqKBCmOVZ4rXHCZfX2k5h1x2R-VVYs3TW81Zp6SOa4noCRlWbQAiCy8E3Rg9Yzzs-EuefpFyKL2qcsyfn40ut80cY6dXl-kZ6nWLOMh2ep4OAwyRlyEVQ2gV6lybZF68LJ1DUC4qEh-qoAmelW7StcwvtpsyFfvo67LsPg-OkF3IRuRIGXTehgjJuVCL_xSwyen- -2y_gET74vxyz45orB7AKCShwdb5NQz8LSdG1XuUZ0tEu7RBzEkdFV3iSlL4nGQ6Ku6NIynO-lAwECZOjMevLB0ZDd0r81pEa2s2FHtshMgIgZehX0HrFFZXvmsfFa56nNBU7sdUNg2qQn4z-OmS1IPzS4UNpszVJuTkJBONa-t7P3insKvAjfUIxQPaMqhsAgLePM2vdo2PdU5Ke6vGkke2fK-gSCDnhR0SVydE2hv0VWQArmjcOsU_exs7Ofy-ghbFJ2jk_geqrnLhj3UevcygCLkCaJzClHjjFjIw5RqOB_Lf9RHJwYFaesTlXStpUsIs6ilqFm00]--></g></svg>