<svg xmlns="http://www.w3.org/2000/svg" xmlns:xlink="http://www.w3.org/1999/xlink" contentStyleType="text/css" data-diagram-type="STATE" height="1909.375px" preserveAspectRatio="none" style="width:1528px;height:1909px;background:#FFFFFF;" version="1.1" viewBox="0 0 1528 1909" width="1528.125px" zoomAndPan="magnify"><defs><filter height="300%" id="f7cdf878mv1mg" width="300%" x="-1" y="-1"><feGaussianBlur result="blurOut" stdDeviation="6.25"/><feColorMatrix in="blurOut" result="blurOut2" type="matrix" values="0 0 0 0 0 0 0 0 0 0 0 0 0 0 0 0 0 0 .4 0"/><feOffset dx="12.5" dy="12.5" in="blurOut2" result="blurOut3"/><feBlend in="SourceGraphic" in2="blurOut3" mode="normal"/></filter></defs><g><!--cluster ip--><g id="cluster_ip"><rect fill="transparent" filter="url(#f7cdf878mv1mg)" height="976.5625" rx="39.0625" ry="39.0625" style="stroke:#181818;stroke-width:1.5625;" width="796.875" x="125" y="21.875"/><path d="M164.0625,21.875 L882.8125,21.875 A39.0625,39.0625 0 0 1 921.875,60.9375 L921.875,88.4277 L125,88.4277 L125,60.9375 A39.0625,39.0625 0 0 1 164.0625,21.875 " fill="#F1F1F1" style="stroke:#F1F1F1;stroke-width:3.125;"/><rect fill="transparent" height="976.5625" rx="39.0625" ry="39.0625" style="stroke:#181818;stroke-width:1.5625;" width="796.875" x="125" y="21.875"/><line style="stroke:#181818;stroke-width:1.5625;" x1="125" x2="921.875" y1="88.4277" y2="88.4277"/><text fill="#000000" font-family="sans-serif" font-size="43.75" lengthAdjust="spacing" textLength="184.3567" x="431.2592" y="74.9847">Ongoing</text></g><!--cluster Finalized--><g id="cluster_Finalized"><rect fill="transparent" filter="url(#f7cdf878mv1mg)" height="696.875" rx="39.0625" ry="39.0625" style="stroke:#181818;stroke-width:1.5625;" width="578.125" x="21.875" y="1176.5625"/><path d="M60.9375,1176.5625 L560.9375,1176.5625 A39.0625,39.0625 0 0 1 600,1215.625 L600,1243.1152 L21.875,1243.1152 L21.875,1215.625 A39.0625,39.0625 0 0 1 60.9375,1176.5625 " fill="#F1F1F1" style="stroke:#F1F1F1;stroke-width:3.125;"/><rect fill="transparent" height="696.875" rx="39.0625" ry="39.0625" style="stroke:#181818;stroke-width:1.5625;" width="578.125" x="21.875" y="1176.5625"/><line style="stroke:#181818;stroke-width:1.5625;" x1="21.875" x2="600" y1="1243.1152" y2="1243.1152"/><text fill="#000000" font-family="sans-serif" font-size="43.75" lengthAdjust="spacing" textLength="193.8202" x="214.0274" y="1229.6722">Finalized</text></g><ellipse cx="318.75" cy="218.75" fill="#222222" filter="url(#f7cdf878mv1mg)" rx="31.25" ry="31.25" style="stroke:#222222;stroke-width:3.125;"/><rect fill="#F1F1F1" filter="url(#f7cdf878mv1mg)" height="125" rx="39.0625" ry="39.0625" style="stroke:#181818;stroke-width:1.5625;" width="234.4055" x="460.9375" y="156.25"/><text fill="#000000" font-family="sans-serif" font-size="43.75" lengthAdjust="spacing" textLength="203.1555" x="476.5625" y="233.8959">Proposed</text><rect fill="#F1F1F1" filter="url(#f7cdf878mv1mg)" height="125" rx="39.0625" ry="39.0625" style="stroke:#181818;stroke-width:1.5625;" width="238.7207" x="200" y="471.875"/><text fill="#000000" font-family="sans-serif" font-size="43.75" lengthAdjust="spacing" textLength="207.4707" x="215.625" y="549.5209">Validated</text><rect fill="#F1F1F1" filter="url(#f7cdf878mv1mg)" height="125" rx="39.0625" ry="39.0625" style="stroke:#181818;stroke-width:1.5625;" width="275.3143" x="546.875" y="471.875"/><text fill="#000000" font-family="sans-serif" font-size="43.75" lengthAdjust="spacing" textLength="244.0643" x="562.5" y="549.5209">Invalidated</text><rect fill="#F1F1F1" filter="url(#f7cdf878mv1mg)" height="125" rx="39.0625" ry="39.0625" style="stroke:#181818;stroke-width:1.5625;" width="235.8154" x="198.4375" y="798.4375"/><text fill="#000000" font-family="sans-serif" font-size="43.75" lengthAdjust="spacing" textLength="204.5654" x="214.0625" y="876.0834">Accepted</text><rect fill="#F1F1F1" filter="url(#f7cdf878mv1mg)" height="125" rx="39.0625" ry="39.0625" style="stroke:#181818;stroke-width:1.5625;" width="223.5321" x="543.75" y="798.4375"/><text fill="#000000" font-family="sans-serif" font-size="43.75" lengthAdjust="spacing" textLength="192.2821" x="559.375" y="876.0834">Rejected</text><rect fill="#F1F1F1" filter="url(#f7cdf878mv1mg)" height="125" rx="39.0625" ry="39.0625" style="stroke:#181818;stroke-width:1.5625;" width="269.8669" x="103.125" y="1285.9375"/><text fill="#000000" font-family="sans-serif" font-size="43.75" lengthAdjust="spacing" textLength="238.6169" x="118.75" y="1363.5834">Completed</text><rect fill="#F1F1F1" filter="url(#f7cdf878mv1mg)" height="125" rx="39.0625" ry="39.0625" style="stroke:#181818;stroke-width:1.5625;" width="284.0302" x="264.0625" y="1698.4375"/><text fill="#000000" font-family="sans-serif" font-size="43.75" lengthAdjust="spacing" textLength="252.7802" x="279.6875" y="1776.0834">Terminated</text><!--link *start*ip to Proposed--><g id="link_*start*ip_Proposed"><path d="M350.1563,218.75 C386.9688,218.75 405.0313,218.75 441.8437,218.75 " fill="transparent" id="*start*ip-to-Proposed" style="stroke:#181818;stroke-width:6.25;"/><polygon fill="#181818" points="460.5937,218.75,432.4687,206.25,444.9687,218.75,432.4687,231.25,460.5937,218.75" style="stroke:#181818;stroke-width:6.25;"/></g><!--link Proposed to Validated--><g id="link_Proposed_Validated"><path d="M528.125,281.5313 C482.1875,336.3125 426.551,402.6981 380.6447,457.4169 " fill="transparent" id="Proposed-to-Validated" style="stroke:#181818;stroke-width:6.25;"/><polygon fill="#181818" points="368.5938,471.7813,396.2465,458.2687,378.6362,459.8109,377.094,442.2007,368.5938,471.7813" style="stroke:#181818;stroke-width:6.25;"/></g><!--link Proposed to Invalidated--><g id="link_Proposed_Invalidated"><path d="M598.625,281.5313 C617.4375,336.3125 639.0692,399.3281 657.8505,454.0468 " fill="transparent" id="Proposed-to-Invalidated" style="stroke:#181818;stroke-width:3.125;"/><polygon fill="#181818" points="663.9375,471.7813,666.6299,441.1216,658.865,457.0025,642.984,449.2376,663.9375,471.7813" style="stroke:#181818;stroke-width:3.125;"/></g><!--link Validated to Accepted--><g id="link_Validated_Accepted"><path d="M318.1563,597.75 C317.5938,655 316.9657,721.9072 316.4032,779.0947 " fill="transparent" id="Validated-to-Accepted" style="stroke:#181818;stroke-width:6.25;"/><polygon fill="#181818" points="316.2188,797.8438,328.9948,769.8431,316.3724,782.2195,303.996,769.5972,316.2188,797.8438" style="stroke:#181818;stroke-width:6.25;"/></g><!--link Validated to Rejected--><g id="link_Validated_Rejected"><path d="M381.4375,597 C441.6875,654.1563 518.6485,727.2191 579.1485,784.6253 " fill="transparent" id="Validated-to-Rejected" style="stroke:#181818;stroke-width:3.125;"/><polygon fill="#181818" points="592.75,797.5312,580.9518,769.1047,581.4155,786.7763,563.7439,787.24,592.75,797.5312" style="stroke:#181818;stroke-width:3.125;"/></g><!--link Accepted to Completed--><g id="link_Accepted_Completed"><path d="M305.875,924.0313 C290.9063,1016.25 265.4138,1173.399 250.3513,1266.0865 " fill="transparent" id="Accepted-to-Completed" style="stroke:#181818;stroke-width:6.25;"/><polygon fill="#181818" points="247.3438,1284.5938,264.1933,1258.838,249.8501,1269.1711,239.517,1254.8279,247.3438,1284.5938" style="stroke:#181818;stroke-width:6.25;"/></g><!--link Invalidated to Terminated--><g id="link_Invalidated_Terminated"><path d="M727.0938,596.9375 C759.75,645.6563 802.8438,717.7188 825,787.5 C909.0313,1052.0625 973.6875,1156.5938 862.5,1410.9375 C802.9375,1547.25 674.0925,1634.2276 563.2487,1690.0088 " fill="transparent" id="Invalidated-to-Terminated" style="stroke:#181818;stroke-width:3.125;"/><polygon fill="#181818" points="546.5,1698.4375,577.2422,1696.9603,560.4573,1691.4136,566.004,1674.6287,546.5,1698.4375" style="stroke:#181818;stroke-width:3.125;"/><text fill="#000000" font-family="sans-serif" font-size="40.625" lengthAdjust="spacing" textLength="176.4847" x="921.875" y="1114.2715">/ Reason</text></g><!--link Rejected to Terminated--><g id="link_Rejected_Terminated"><path d="M660,924.2813 C665.625,1055.25 665.5625,1372.8125 553.125,1604.6875 C536.0938,1639.8125 521.5519,1659.1998 494.4582,1684.9811 " fill="transparent" id="Rejected-to-Terminated" style="stroke:#181818;stroke-width:3.125;"/><polygon fill="#181818" points="480.875,1697.9063,509.8665,1687.574,492.1943,1687.1353,492.633,1669.4631,480.875,1697.9063" style="stroke:#181818;stroke-width:3.125;"/><text fill="#000000" font-family="sans-serif" font-size="40.625" lengthAdjust="spacing" textLength="176.4847" x="659.375" y="1362.709">/ Reason</text></g><!--link ip to Terminated--><g id="link_ip_Terminated"><path d="M922.256,230.332 C922.6246,230.4631 922.9966,230.5957 923.372,230.7298 C926.3752,231.8027 929.5954,232.9731 933.0124,234.2409 C939.8464,236.7765 947.4678,239.7018 955.7148,243.0171 C988.7031,256.2783 1031.7031,275.7793 1074.375,301.5352 C1159.7188,353.0469 1243.75,429.5781 1243.75,531.25 C1243.75,531.25 1243.75,531.25 1243.75,1351.5625 C1243.75,1656.5938 807.1603,1731.1764 567.9728,1750.1139 " fill="transparent" id="ip-to-Terminated" style="stroke:#181818;stroke-width:3.125;"/><polygon fill="#181818" points="549.2813,1751.5938,578.3051,1761.8349,564.8575,1750.3605,576.3319,1736.9129,549.2813,1751.5938" style="stroke:#181818;stroke-width:3.125;"/><text fill="#000000" font-family="sans-serif" font-size="40.625" lengthAdjust="spacing" textLength="181.8604" x="1285.556" y="828.334">Time-out</text><text fill="#000000" font-family="sans-serif" font-size="40.625" lengthAdjust="spacing" textLength="259.2224" x="1246.875" y="875.6241">[&gt; 24-hours]</text><text fill="#000000" font-family="sans-serif" font-size="40.625" lengthAdjust="spacing" textLength="176.4847" x="1288.2439" y="922.9141">/ Reason</text></g><!--link Completed to Terminated--><g id="link_Completed_Terminated"><path d="M198.125,1411.8438 C168.7188,1465.125 138.8125,1543.5938 171.875,1604.6875 C193.1563,1644 213.4686,1664.9669 251.1873,1688.3419 " fill="transparent" id="Completed-to-Terminated" style="stroke:#181818;stroke-width:3.125;stroke-dasharray:7.0,7.0;"/><polygon fill="#181818" points="267.125,1698.2188,249.8031,1672.7783,253.8436,1689.988,236.6339,1694.0286,267.125,1698.2188" style="stroke:#181818;stroke-width:3.125;"/><text fill="#000000" font-family="sans-serif" font-size="40.625" lengthAdjust="spacing" textLength="364.0778" x="175" y="1545.5215">[Reversal agreed]</text><text fill="#000000" font-family="sans-serif" font-size="40.625" lengthAdjust="spacing" textLength="176.4847" x="268.7965" y="1592.8116">/ Reason</text></g><!--SRC=[VP1FIyGm4CNl-HJ37eNYefuy54GGzgIiYvTk3zbcQ4URJ4ZI5PNzxawxzCyYU4lczzxBoyGFSbu7RS5uWjlrMiLfOjbnrGIs22bqk22nqOO_oTLde19xI0m7JeabYG9MYTYfXWm2Mf- -m62i0lbXh6BI2M7rx6gMa1Ne2EILUXt6vE570HHN9MJ5WLjJvl0Is7D48_FnEC8iXpVTaX6hWGikPEEE8rF2Pk5iVgWgz6c8Nc01MtoNRmWuZSsUo8dYMtXVS3GkiXxP-XRFOOkdXxWT1Yl-_deFrvAkewm2fcV-5SbE_k0TMSouItjNv71pbpNSXLZktMZhbp4Laf96nmQ7cXSnnHQF6A9kGTS1HJ0dgDCl]--></g></svg>