<svg xmlns="http://www.w3.org/2000/svg" xmlns:xlink="http://www.w3.org/1999/xlink" contentStyleType="text/css" data-diagram-type="SEQUENCE" height="291.875px" preserveAspectRatio="none" style="width:256px;height:291px;background:#FFFFFF;" version="1.1" viewBox="0 0 256 291" width="256.875px" zoomAndPan="magnify"><defs><filter height="300%" id="fl3oje8p2boj4" width="300%" x="-1" y="-1"><feGaussianBlur result="blurOut" stdDeviation="1.25"/><feColorMatrix in="blurOut" result="blurOut2" type="matrix" values="0 0 0 0 0 0 0 0 0 0 0 0 0 0 0 0 0 0 .4 0"/><feOffset dx="2.5" dy="2.5" in="blurOut2" result="blurOut3"/><feBlend in="SourceGraphic" in2="blurOut3" mode="normal"/></filter></defs><g><rect fill="transparent" filter="url(#fl3oje8p2boj4)" height="155.2539" style="stroke:#000000;stroke-width:0.9375;" width="243.7036" x="6.25" y="72.4512"/><rect fill="transparent" filter="url(#fl3oje8p2boj4)" height="56.6016" style="stroke:#000000;stroke-width:0.9375;" width="231.2036" x="12.5" y="101.377"/><rect fill="transparent" filter="url(#fl3oje8p2boj4)" height="56.6016" style="stroke:#000000;stroke-width:0.9375;" width="231.2036" x="12.5" y="166.7285"/><rect fill="transparent" filter="url(#fl3oje8p2boj4)" height="40.5762" style="stroke:#000000;stroke-width:0.9375;" width="155.9058" x="12.5" y="236.4551"/><g><title>Sending Registry</title><rect fill="transparent" height="266.0059" width="5" x="48.1921" y="21.6504"/><line style="stroke:#181818;stroke-width:0.3125;stroke-dasharray:5.0,5.0;" x1="50.625" x2="50.625" y1="21.6504" y2="287.6563"/></g><g><title>Interoperability Hub</title><rect fill="transparent" height="266.0059" width="5" x="123.02" y="21.6504"/><line style="stroke:#181818;stroke-width:0.3125;stroke-dasharray:5.0,5.0;" x1="125.1343" x2="125.1343" y1="21.6504" y2="287.6563"/></g><g><title>Receiving Registry</title><rect fill="transparent" height="266.0059" width="5" x="200.4297" y="21.6504"/><line style="stroke:#181818;stroke-width:0.3125;stroke-dasharray:5.0,5.0;" x1="202.7808" x2="202.7808" y1="21.6504" y2="287.6563"/></g><rect fill="#E3E3E3" filter="url(#fl3oje8p2boj4)" height="16.0254" rx="1.5625" ry="1.5625" style="stroke:#181818;stroke-width:0.3125;" width="62.0093" x="18.75" y="3.125"/><text fill="#000000" font-family="Times New Roman" font-size="6.25" lengthAdjust="spacing" textLength="53.2593" x="23.125" y="13.3014">Sending Registry</text><rect fill="#E3E3E3" filter="url(#fl3oje8p2boj4)" height="16.0254" rx="1.5625" ry="1.5625" style="stroke:#181818;stroke-width:0.3125;" width="71.3965" x="88.8843" y="3.125"/><text fill="#000000" font-family="Times New Roman" font-size="6.25" lengthAdjust="spacing" textLength="62.6465" x="93.2593" y="13.3014">Interoperability Hub</text><rect fill="#E3E3E3" filter="url(#fl3oje8p2boj4)" height="16.0254" rx="1.5625" ry="1.5625" style="stroke:#181818;stroke-width:0.3125;" width="67.1729" x="168.4058" y="3.125"/><text fill="#000000" font-family="Times New Roman" font-size="6.25" lengthAdjust="spacing" textLength="58.4229" x="172.7808" y="13.3014">Receiving Registry</text><polygon fill="#181818" points="118.02,36.4258,124.27,38.9258,118.02,41.4258,120.52,38.9258" style="stroke:#181818;stroke-width:0.625;"/><line style="stroke:#181818;stroke-width:0.625;" x1="50.6921" x2="121.77" y1="38.9258" y2="38.9258"/><text fill="#000000" font-family="Times New Roman" font-size="6.25" lengthAdjust="spacing" textLength="29.0222" x="73.595" y="36.2018">Proposed</text><line style="stroke:#181818;stroke-width:0.625;" x1="125.52" x2="151.77" y1="54.9512" y2="54.9512"/><line style="stroke:#181818;stroke-width:0.625;" x1="151.77" x2="151.77" y1="54.9512" y2="63.0762"/><line style="stroke:#181818;stroke-width:0.625;" x1="126.145" x2="151.77" y1="63.0762" y2="63.0762"/><polygon fill="#181818" points="132.395,60.5762,126.145,63.0762,132.395,65.5762,129.895,63.0762" style="stroke:#181818;stroke-width:0.625;"/><text fill="#000000" font-family="Times New Roman" font-size="6.25" lengthAdjust="spacing" textLength="25.6714" x="129.895" y="52.2272">Validate</text><path d="M6.25,72.4512 L43.7225,72.4512 L43.7225,74.7266 L37.4725,80.9766 L6.25,80.9766 L6.25,72.4512 " fill="#EEEEEE" style="stroke:#000000;stroke-width:0.9375;"/><rect fill="transparent" height="155.2539" style="stroke:#000000;stroke-width:0.9375;" width="243.7036" x="6.25" y="72.4512"/><text fill="#000000" font-family="Times New Roman" font-size="6.25" font-weight="bold" lengthAdjust="spacing" textLength="9.3475" x="15.625" y="78.8776">alt</text><text fill="#000000" font-family="Times New Roman" font-size="6.25" font-weight="bold" lengthAdjust="spacing" textLength="69.516" x="53.0975" y="79.5026">[Hub validation OK]</text><polygon fill="#181818" points="195.4297,89.502,201.6797,92.002,195.4297,94.502,197.9297,92.002" style="stroke:#181818;stroke-width:0.625;"/><line style="stroke:#181818;stroke-width:0.625;" x1="125.52" x2="199.1797" y1="92.002" y2="92.002"/><text fill="#000000" font-family="Times New Roman" font-size="6.25" lengthAdjust="spacing" textLength="29.6387" x="149.4055" y="89.278">Validated</text><path d="M12.5,101.377 L49.9725,101.377 L49.9725,103.6523 L43.7225,109.9023 L12.5,109.9023 L12.5,101.377 " fill="#EEEEEE" style="stroke:#000000;stroke-width:0.9375;"/><rect fill="transparent" height="56.6016" style="stroke:#000000;stroke-width:0.9375;" width="231.2036" x="12.5" y="101.377"/><text fill="#000000" font-family="Times New Roman" font-size="6.25" font-weight="bold" lengthAdjust="spacing" textLength="9.3475" x="21.875" y="107.8033">alt</text><text fill="#000000" font-family="Times New Roman" font-size="6.25" font-weight="bold" lengthAdjust="spacing" textLength="151.7517" x="59.3475" y="108.4283">[Receiving registry accept the transaction]</text><polygon fill="#181818" points="132.395,118.4277,126.145,120.9277,132.395,123.4277,129.895,120.9277" style="stroke:#181818;stroke-width:0.625;"/><line style="stroke:#181818;stroke-width:0.625;" x1="128.645" x2="202.3047" y1="120.9277" y2="120.9277"/><text fill="#000000" font-family="Times New Roman" font-size="6.25" lengthAdjust="spacing" textLength="29.2236" x="149.613" y="118.2037">Accepted</text><polygon fill="#181818" points="57.5671,134.4531,51.3171,136.9531,57.5671,139.4531,55.0671,136.9531" style="stroke:#181818;stroke-width:0.625;"/><line style="stroke:#181818;stroke-width:0.625;" x1="53.8171" x2="124.895" y1="136.9531" y2="136.9531"/><text fill="#000000" font-family="Times New Roman" font-size="6.25" lengthAdjust="spacing" textLength="29.2236" x="73.4943" y="134.2291">Accepted</text><polygon fill="#181818" points="118.02,150.4785,124.27,152.9785,118.02,155.4785,120.52,152.9785" style="stroke:#181818;stroke-width:0.625;"/><line style="stroke:#181818;stroke-width:0.625;" x1="50.6921" x2="121.77" y1="152.9785" y2="152.9785"/><text fill="#000000" font-family="Times New Roman" font-size="6.25" lengthAdjust="spacing" textLength="34.0881" x="71.062" y="150.2545">Completed</text><path d="M12.5,166.7285 L49.9725,166.7285 L49.9725,169.0039 L43.7225,175.2539 L12.5,175.2539 L12.5,166.7285 " fill="#EEEEEE" style="stroke:#000000;stroke-width:0.9375;"/><rect fill="transparent" height="56.6016" style="stroke:#000000;stroke-width:0.9375;" width="231.2036" x="12.5" y="166.7285"/><text fill="#000000" font-family="Times New Roman" font-size="6.25" font-weight="bold" lengthAdjust="spacing" textLength="9.3475" x="21.875" y="173.1549">alt</text><text fill="#000000" font-family="Times New Roman" font-size="6.25" font-weight="bold" lengthAdjust="spacing" textLength="148.819" x="59.3475" y="173.7799">[Receiving registry reject the transaction]</text><polygon fill="#181818" points="132.395,183.7793,126.145,186.2793,132.395,188.7793,129.895,186.2793" style="stroke:#181818;stroke-width:0.625;"/><line style="stroke:#181818;stroke-width:0.625;" x1="128.645" x2="202.3047" y1="186.2793" y2="186.2793"/><text fill="#000000" font-family="Times New Roman" font-size="6.25" lengthAdjust="spacing" textLength="27.4689" x="150.4904" y="183.5553">Rejected</text><polygon fill="#181818" points="57.5671,199.8047,51.3171,202.3047,57.5671,204.8047,55.0671,202.3047" style="stroke:#181818;stroke-width:0.625;"/><line style="stroke:#181818;stroke-width:0.625;" x1="53.8171" x2="124.895" y1="202.3047" y2="202.3047"/><text fill="#000000" font-family="Times New Roman" font-size="6.25" lengthAdjust="spacing" textLength="27.4689" x="74.3716" y="199.5807">Rejected</text><polygon fill="#181818" points="118.02,215.8301,124.27,218.3301,118.02,220.8301,120.52,218.3301" style="stroke:#181818;stroke-width:0.625;"/><line style="stroke:#181818;stroke-width:0.625;" x1="50.6921" x2="121.77" y1="218.3301" y2="218.3301"/><text fill="#000000" font-family="Times New Roman" font-size="6.25" lengthAdjust="spacing" textLength="36.1115" x="70.0504" y="215.6061">Terminated</text><path d="M12.5,236.4551 L49.9725,236.4551 L49.9725,238.7305 L43.7225,244.9805 L12.5,244.9805 L12.5,236.4551 " fill="#EEEEEE" style="stroke:#000000;stroke-width:0.9375;"/><rect fill="transparent" height="40.5762" style="stroke:#000000;stroke-width:0.9375;" width="155.9058" x="12.5" y="236.4551"/><text fill="#000000" font-family="Times New Roman" font-size="6.25" font-weight="bold" lengthAdjust="spacing" textLength="9.3475" x="21.875" y="242.8815">alt</text><text fill="#000000" font-family="Times New Roman" font-size="6.25" font-weight="bold" lengthAdjust="spacing" textLength="74.7467" x="59.3475" y="243.5065">[Hub validation NOK]</text><polygon fill="#181818" points="57.5671,253.5059,51.3171,256.0059,57.5671,258.5059,55.0671,256.0059" style="stroke:#181818;stroke-width:0.625;"/><line style="stroke:#181818;stroke-width:0.625;" x1="53.8171" x2="124.895" y1="256.0059" y2="256.0059"/><text fill="#000000" font-family="Times New Roman" font-size="6.25" lengthAdjust="spacing" textLength="34.8663" x="70.6729" y="253.2819">Invalidated</text><polygon fill="#181818" points="118.02,269.5313,124.27,272.0313,118.02,274.5313,120.52,272.0313" style="stroke:#181818;stroke-width:0.625;"/><line style="stroke:#181818;stroke-width:0.625;" x1="50.6921" x2="121.77" y1="272.0313" y2="272.0313"/><text fill="#000000" font-family="Times New Roman" font-size="6.25" lengthAdjust="spacing" textLength="36.1115" x="70.0504" y="269.3073">Terminated</text><!--SRC=[VP11JiCm44NtFiMeUr207Gka2WbH8G9AA_PJUveCn7QmdPPoUcm7QDCM5f6SFy__MUFVs7JeK8Fg6AwAGdY9BK5nVXcFlqDjZPMDiveWk9xs9hv1PJTiwiE1eXNsRRYp9fGOxorOauUIDb1PZUOqEUTFWej2Y8OLmShQiBGV-pPwxyb8UYJliQPfoxK1IIQG4o8YWILtQ09CvcHKUbL5DVlWjXD03txCpD8zsv739RSSjd3VBpFNZBcA9F7wg2qg_TbDSmtFiSHwKgB9lo_Oii900a1W6r8hh8UChO6dXpY8fDkHAYQ9t8dSjmXGIke2X2Pj7er7cKeY3-2oRPg1N95h_K4qFF7Mwgwb8OkR-Tldw9NaVxug0oFVA1fy2tAQ3Uw4wJkrZV9d7R5dPjPx2pagYXLV]--></g></svg>