<svg xmlns="http://www.w3.org/2000/svg" xmlns:xlink="http://www.w3.org/1999/xlink" contentStyleType="text/css" data-diagram-type="STATE" height="2015.625px" preserveAspectRatio="none" style="width:1537px;height:2015px;background:#FFFFFF;" version="1.1" viewBox="0 0 1537 2015" width="1537.5px" zoomAndPan="magnify"><title>TxnStatus Overview</title><defs><filter height="300%" id="f1glvzax57c98f" width="300%" x="-1" y="-1"><feGaussianBlur result="blurOut" stdDeviation="6.25"/><feColorMatrix in="blurOut" result="blurOut2" type="matrix" values="0 0 0 0 0 0 0 0 0 0 0 0 0 0 0 0 0 0 .4 0"/><feOffset dx="12.5" dy="12.5" in="blurOut2" result="blurOut3"/><feBlend in="SourceGraphic" in2="blurOut3" mode="normal"/></filter></defs><g><text fill="#000000" font-family="sans-serif" font-size="43.75" font-weight="bold" lengthAdjust="spacing" textLength="495.05" x="500.5508" y="71.8597">TxnStatus Overview</text><!--cluster ip--><g id="cluster_ip"><rect fill="transparent" filter="url(#f1glvzax57c98f)" height="965.625" rx="39.0625" ry="39.0625" style="stroke:#181818;stroke-width:1.5625;" width="796.875" x="140.625" y="138.4277"/><path d="M179.6875,138.4277 L898.4375,138.4277 A39.0625,39.0625 0 0 1 937.5,177.4902 L937.5,204.9805 L140.625,204.9805 L140.625,177.4902 A39.0625,39.0625 0 0 1 179.6875,138.4277 " fill="#F1F1F1" style="stroke:#F1F1F1;stroke-width:3.125;"/><rect fill="transparent" height="965.625" rx="39.0625" ry="39.0625" style="stroke:#181818;stroke-width:1.5625;" width="796.875" x="140.625" y="138.4277"/><line style="stroke:#181818;stroke-width:1.5625;" x1="140.625" x2="937.5" y1="204.9805" y2="204.9805"/><text fill="#000000" font-family="sans-serif" font-size="43.75" lengthAdjust="spacing" textLength="176.4526" x="450.8362" y="191.5375">Pending</text></g><!--cluster Finalized--><g id="cluster_Finalized"><rect fill="transparent" filter="url(#f1glvzax57c98f)" height="696.875" rx="39.0625" ry="39.0625" style="stroke:#181818;stroke-width:1.5625;" width="578.125" x="21.875" y="1282.1777"/><path d="M60.9375,1282.1777 L560.9375,1282.1777 A39.0625,39.0625 0 0 1 600,1321.2402 L600,1348.7305 L21.875,1348.7305 L21.875,1321.2402 A39.0625,39.0625 0 0 1 60.9375,1282.1777 " fill="#F1F1F1" style="stroke:#F1F1F1;stroke-width:3.125;"/><rect fill="transparent" height="696.875" rx="39.0625" ry="39.0625" style="stroke:#181818;stroke-width:1.5625;" width="578.125" x="21.875" y="1282.1777"/><line style="stroke:#181818;stroke-width:1.5625;" x1="21.875" x2="600" y1="1348.7305" y2="1348.7305"/><text fill="#000000" font-family="sans-serif" font-size="43.75" lengthAdjust="spacing" textLength="193.8202" x="214.0274" y="1335.2875">Finalized</text></g><ellipse cx="334.375" cy="335.3027" fill="#222222" filter="url(#f1glvzax57c98f)" rx="31.25" ry="31.25" style="stroke:#222222;stroke-width:3.125;"/><rect fill="#F1F1F1" filter="url(#f1glvzax57c98f)" height="125" rx="39.0625" ry="39.0625" style="stroke:#181818;stroke-width:1.5625;" width="234.4055" x="476.5625" y="272.8027"/><text fill="#000000" font-family="sans-serif" font-size="43.75" lengthAdjust="spacing" textLength="203.1555" x="492.1875" y="350.4486">Proposed</text><rect fill="#F1F1F1" filter="url(#f1glvzax57c98f)" height="125" rx="39.0625" ry="39.0625" style="stroke:#181818;stroke-width:1.5625;" width="238.7207" x="215.625" y="588.4277"/><text fill="#000000" font-family="sans-serif" font-size="43.75" lengthAdjust="spacing" textLength="207.4707" x="231.25" y="666.0736">Validated</text><rect fill="#F1F1F1" filter="url(#f1glvzax57c98f)" height="125" rx="39.0625" ry="39.0625" style="stroke:#181818;stroke-width:1.5625;" width="275.3143" x="562.5" y="588.4277"/><text fill="#000000" font-family="sans-serif" font-size="43.75" lengthAdjust="spacing" textLength="244.0643" x="578.125" y="666.0736">Invalidated</text><rect fill="#F1F1F1" filter="url(#f1glvzax57c98f)" height="125" rx="39.0625" ry="39.0625" style="stroke:#181818;stroke-width:1.5625;" width="235.8154" x="214.0625" y="904.0527"/><text fill="#000000" font-family="sans-serif" font-size="43.75" lengthAdjust="spacing" textLength="204.5654" x="229.6875" y="981.6986">Accepted</text><rect fill="#F1F1F1" filter="url(#f1glvzax57c98f)" height="125" rx="39.0625" ry="39.0625" style="stroke:#181818;stroke-width:1.5625;" width="223.5321" x="559.375" y="904.0527"/><text fill="#000000" font-family="sans-serif" font-size="43.75" lengthAdjust="spacing" textLength="192.2821" x="575" y="981.6986">Rejected</text><rect fill="#F1F1F1" filter="url(#f1glvzax57c98f)" height="125" rx="39.0625" ry="39.0625" style="stroke:#181818;stroke-width:1.5625;" width="269.8669" x="103.125" y="1391.5527"/><text fill="#000000" font-family="sans-serif" font-size="43.75" lengthAdjust="spacing" textLength="238.6169" x="118.75" y="1469.1986">Completed</text><rect fill="#F1F1F1" filter="url(#f1glvzax57c98f)" height="125" rx="39.0625" ry="39.0625" style="stroke:#181818;stroke-width:1.5625;" width="284.0302" x="264.0625" y="1804.0527"/><text fill="#000000" font-family="sans-serif" font-size="43.75" lengthAdjust="spacing" textLength="252.7802" x="279.6875" y="1881.6986">Terminated</text><!--link *start*ip to Proposed--><g id="link_*start*ip_Proposed"><path d="M365.7813,335.3027 C402.5938,335.3027 420.6563,335.3027 457.4687,335.3027 " fill="transparent" id="*start*ip-to-Proposed" style="stroke:#008000;stroke-width:6.25;"/><polygon fill="#008000" points="476.2187,335.3027,448.0937,322.8027,460.5937,335.3027,448.0937,347.8027,476.2187,335.3027" style="stroke:#008000;stroke-width:6.25;"/></g><!--link Proposed to Validated--><g id="link_Proposed_Validated"><path d="M543.75,398.084 C497.8125,452.8652 442.176,519.2508 396.2697,573.9696 " fill="transparent" id="Proposed-to-Validated" style="stroke:#008000;stroke-width:6.25;"/><polygon fill="#008000" points="384.2187,588.334,411.8715,574.8214,394.2612,576.3637,392.719,558.7534,384.2187,588.334" style="stroke:#008000;stroke-width:6.25;"/></g><!--link Proposed to Invalidated--><g id="link_Proposed_Invalidated"><path d="M614.25,398.084 C633.0625,452.8652 654.6942,515.8808 673.4755,570.5995 " fill="transparent" id="Proposed-to-Invalidated" style="stroke:#FF0000;stroke-width:3.125;"/><polygon fill="#FF0000" points="679.5625,588.334,682.2549,557.6743,674.49,573.5553,658.609,565.7903,679.5625,588.334" style="stroke:#FF0000;stroke-width:3.125;"/></g><!--link Validated to Accepted--><g id="link_Validated_Accepted"><path d="M333.7813,713.709 C333.2188,768.4902 332.599,830.4912 332.0365,885.21 " fill="transparent" id="Validated-to-Accepted" style="stroke:#008000;stroke-width:6.25;"/><polygon fill="#008000" points="331.8438,903.959,344.6322,875.964,332.0044,888.3348,319.6335,875.707,331.8438,903.959" style="stroke:#008000;stroke-width:6.25;"/></g><!--link Validated to Rejected--><g id="link_Validated_Rejected"><path d="M399.4375,713.709 C459.2187,768.4902 533.4915,836.5697 593.179,891.2885 " fill="transparent" id="Validated-to-Rejected" style="stroke:#FF0000;stroke-width:3.125;"/><polygon fill="#FF0000" points="607,903.959,594.7154,875.7392,595.4825,893.4002,577.8214,894.1673,607,903.959" style="stroke:#FF0000;stroke-width:3.125;"/></g><!--link Accepted to Completed--><g id="link_Accepted_Completed"><path d="M319.5625,1029.6465 C301.5938,1121.8652 270.9555,1279.1165 252.9242,1371.804 " fill="transparent" id="Accepted-to-Completed" style="stroke:#008000;stroke-width:6.25;"/><polygon fill="#008000" points="249.3438,1390.209,266.9844,1364.9885,252.3275,1374.8715,242.4445,1360.2146,249.3438,1390.209" style="stroke:#008000;stroke-width:6.25;"/></g><!--link Invalidated to Terminated--><g id="link_Invalidated_Terminated"><path d="M739.7188,713.584 C830.75,858.0215 1036.4688,1235.959 900,1516.5527 C830.125,1660.209 685.3763,1748.1006 565.9388,1801.9131 " fill="transparent" id="Invalidated-to-Terminated" style="stroke:#FF0000;stroke-width:3.125;"/><polygon fill="#FF0000" points="548.8438,1809.6152,579.621,1809.4587,563.0896,1803.1968,569.3515,1786.6653,548.8438,1809.6152" style="stroke:#FF0000;stroke-width:3.125;"/><text fill="#000000" font-family="sans-serif" font-size="40.625" lengthAdjust="spacing" textLength="161.6272" x="943.75" y="1219.8868">/ Invalid</text></g><!--link Rejected to Terminated--><g id="link_Rejected_Terminated"><path d="M674.0313,1029.959 C676.25,1161.0527 668.2813,1478.8965 553.125,1710.3027 C535.7188,1745.2715 521.1229,1764.5725 494.0917,1790.385 " fill="transparent" id="Rejected-to-Terminated" style="stroke:#FF0000;stroke-width:3.125;"/><polygon fill="#FF0000" points="480.5313,1803.334,509.5046,1792.9507,491.8316,1792.5431,492.2392,1774.8702,480.5313,1803.334" style="stroke:#FF0000;stroke-width:3.125;"/><text fill="#000000" font-family="sans-serif" font-size="40.625" lengthAdjust="spacing" textLength="205.1483" x="668.75" y="1468.3243">/ Rejected</text></g><!--link Completed to Terminated--><g id="link_Completed_Terminated"><path d="M198.125,1517.459 C168.7188,1570.7402 138.8125,1649.209 171.875,1710.3027 C193.1563,1749.6152 213.4686,1770.5821 251.1873,1793.9571 " fill="transparent" id="Completed-to-Terminated" style="stroke:#FF0000;stroke-width:3.125;stroke-dasharray:7.0,7.0;"/><polygon fill="#FF0000" points="267.125,1803.834,249.8031,1778.3935,253.8436,1795.6033,236.6339,1799.6438,267.125,1803.834" style="stroke:#FF0000;stroke-width:3.125;"/><text fill="#000000" font-family="sans-serif" font-size="40.625" lengthAdjust="spacing" textLength="364.0778" x="175" y="1651.1368">[Reversal agreed]</text><text fill="#000000" font-family="sans-serif" font-size="40.625" lengthAdjust="spacing" textLength="176.4847" x="268.7965" y="1698.4268">/ Reason</text></g><!--link ip to Terminated--><g id="link_ip_Terminated"><path d="M937.6613,346.2134 C938.4108,346.4615 939.1747,346.7155 939.9527,346.9755 C943.0646,348.0154 946.4013,349.1508 949.9418,350.3821 C957.0229,352.8447 964.9196,355.6909 973.4644,358.9238 C1007.6436,371.8555 1052.1934,390.9746 1096.4023,416.4824 C1184.8203,467.498 1271.875,544.0684 1271.875,647.8027 C1271.875,647.8027 1271.875,647.8027 1271.875,1457.1777 C1271.875,1772.584 813.7746,1842.3925 567.8996,1858.0487 " fill="transparent" id="ip-to-Terminated" style="stroke:#FF0000;stroke-width:3.125;"/><polygon fill="#FF0000" points="549.1875,1859.2402,578.05,1869.9277,564.7809,1858.2473,576.4613,1844.9782,549.1875,1859.2402" style="stroke:#FF0000;stroke-width:3.125;"/><text fill="#000000" font-family="sans-serif" font-size="40.625" lengthAdjust="spacing" textLength="239.9017" x="1275" y="980.8243">/ Timed_out</text></g><!--SRC=[TP9DImCn48Rl-HL3UnEB1MyU2Y88dYnjyR8MIJVJxkWc4v9qwmV-ToULrDNQspBpp3DlaasKMeJ5gviddROHxZiC7U5EgVX2pkkWBHXFS3aUzogM7TTDO8kmrct4NYissl2Et0PIsA9IYJqaXXMdnAAYW7KYTgeXWu3MfpSm6Ej0VbzMKN8W3AReZ4W6e2EGLsg-BvE73mLGdIrXLAsuDUV3JK1qombC0tkEQAHTFlymemayw9QCY0pyneO1JUxVkQuGIeWV_CXqNTVeqtvTdogY6JxBEQNzMQBVaXFkNQXyWZ9-BBvXwrlyDlVYzDmB35PakNW55mKIl2mzpHvYGRw0moePC3esA3d-cwjcA7z5r2te7DCi7rrMwIZl1VbDJkvRa4NpnDi4-IA-0000]--></g></svg>