<svg xmlns="http://www.w3.org/2000/svg" xmlns:xlink="http://www.w3.org/1999/xlink" contentStyleType="text/css" data-diagram-type="SEQUENCE" height="935px" preserveAspectRatio="none" style="width:760px;height:935px;background:#FFFFFF;" version="1.1" viewBox="0 0 760 935" width="760px" zoomAndPan="magnify"><title>Transaction Proposal - Invalid Proposal</title><defs/><g><text fill="#000000" font-family="sans-serif" font-size="14" font-weight="bold" lengthAdjust="spacing" textLength="309.7021" x="226.9507" y="27.9951">Transaction Proposal - Invalid Proposal</text><g><title>Sending</title><rect fill="#FFFFFF" height="161.6641" style="stroke:#181818;stroke-width:1;" width="10" x="35.4546" y="99.8906"/></g><g><title>Sending</title><rect fill="#FFFFFF" height="334.2617" style="stroke:#181818;stroke-width:1;" width="10" x="35.4546" y="447.2852"/></g><g><title>Sending</title><rect fill="#FFFFFF" height="193.5313" style="stroke:#181818;stroke-width:1;" width="10" x="40.4546" y="588.0156"/></g><g><title>Interoperability</title><rect fill="#FFFFFF" height="30" style="stroke:#181818;stroke-width:1;" width="10" x="312.8325" y="231.5547"/></g><g><title>Interoperability</title><rect fill="#FFFFFF" height="143.5977" style="stroke:#181818;stroke-width:1;" width="10" x="312.8325" y="301.6875"/></g><g><title>Interoperability</title><rect fill="#FFFFFF" height="39.6992" style="stroke:#181818;stroke-width:1;" width="10" x="312.8325" y="511.1836"/></g><g><title>Interoperability</title><rect fill="#FFFFFF" height="152.3984" style="stroke:#181818;stroke-width:1;" width="10" x="312.8325" y="751.5469"/></g><g><title>Sending</title><rect fill="transparent" height="839.0547" width="8" x="36.4546" y="89.8906"/><line style="stroke:#181818;stroke-width:0.5;stroke-dasharray:5.0,5.0;" x1="40" x2="40" y1="89.8906" y2="928.9453"/></g><g><title>Interoperability</title><rect fill="transparent" height="839.0547" width="8" x="313.8325" y="89.8906"/><line style="stroke:#181818;stroke-width:0.5;stroke-dasharray:5.0,5.0;" x1="317.0371" x2="317.0371" y1="89.8906" y2="928.9453"/></g><rect fill="#E2E2F0" height="46.5938" rx="2.5" ry="2.5" style="stroke:#181818;stroke-width:0.5;" width="70.9092" x="5" y="42.2969"/><text fill="#000000" font-family="sans-serif" font-size="14" lengthAdjust="spacing" textLength="56.9092" x="12" y="62.292">Sending</text><text fill="#000000" font-family="sans-serif" font-size="14" lengthAdjust="spacing" textLength="53.9697" x="13.4697" y="78.5889">registry</text><rect fill="#E2E2F0" height="46.5938" rx="2.5" ry="2.5" style="stroke:#181818;stroke-width:0.5;" width="121.5908" x="257.0371" y="42.2969"/><text fill="#000000" font-family="sans-serif" font-size="14" lengthAdjust="spacing" textLength="107.5908" x="264.0371" y="62.292">Interoperability</text><text fill="#000000" font-family="sans-serif" font-size="14" lengthAdjust="spacing" textLength="28.2871" x="303.689" y="78.5889">Hub</text><g><title>Sending</title><rect fill="#FFFFFF" height="161.6641" style="stroke:#181818;stroke-width:1;" width="10" x="35.4546" y="99.8906"/></g><g><title>Sending</title><rect fill="#FFFFFF" height="334.2617" style="stroke:#181818;stroke-width:1;" width="10" x="35.4546" y="447.2852"/></g><g><title>Sending</title><rect fill="#FFFFFF" height="193.5313" style="stroke:#181818;stroke-width:1;" width="10" x="40.4546" y="588.0156"/></g><g><title>Interoperability</title><rect fill="#FFFFFF" height="30" style="stroke:#181818;stroke-width:1;" width="10" x="312.8325" y="231.5547"/></g><g><title>Interoperability</title><rect fill="#FFFFFF" height="143.5977" style="stroke:#181818;stroke-width:1;" width="10" x="312.8325" y="301.6875"/></g><g><title>Interoperability</title><rect fill="#FFFFFF" height="39.6992" style="stroke:#181818;stroke-width:1;" width="10" x="312.8325" y="511.1836"/></g><g><title>Interoperability</title><rect fill="#FFFFFF" height="152.3984" style="stroke:#181818;stroke-width:1;" width="10" x="312.8325" y="751.5469"/></g><line style="stroke:#181818;stroke-width:1;" x1="45.4546" x2="87.4546" y1="132.6563" y2="132.6563"/><line style="stroke:#181818;stroke-width:1;" x1="87.4546" x2="87.4546" y1="132.6563" y2="145.6563"/><line style="stroke:#181818;stroke-width:1;" x1="46.4546" x2="87.4546" y1="145.6563" y2="145.6563"/><polygon fill="#181818" points="56.4546,141.6563,46.4546,145.6563,56.4546,149.6563" style="stroke:#181818;stroke-width:1;"/><text fill="#000000" font-family="sans-serif" font-size="13" lengthAdjust="spacing" textLength="219.6987" x="52.4546" y="127.5903">selectAndSplitITMOs(txnProposal)</text><path d="M293.6987,104.8906 L293.6987,159.8906 L534.6987,159.8906 L534.6987,114.8906 L524.6987,104.8906 L293.6987,104.8906 " fill="#FEFFDD" style="stroke:#181818;stroke-width:0.5;"/><path d="M524.6987,104.8906 L524.6987,114.8906 L534.6987,114.8906 L524.6987,104.8906 " fill="#FEFFDD" style="stroke:#181818;stroke-width:0.5;"/><text fill="#000000" font-family="sans-serif" font-size="13" lengthAdjust="spacing" textLength="220.0415" x="299.6987" y="121.9575">select ITMOs from multiple blocks</text><text fill="#000000" font-family="sans-serif" font-size="13" lengthAdjust="spacing" textLength="215.4395" x="299.6987" y="137.0903">or split ITMOs into smaller blocks</text><text fill="#000000" font-family="sans-serif" font-size="13" lengthAdjust="spacing" textLength="132.6089" x="299.6987" y="152.2231">to match quantity in</text><text fill="#000000" font-family="sans-serif" font-size="13" font-style="italic" lengthAdjust="spacing" textLength="76.7241" x="436.4399" y="152.2231">txnProposal</text><line style="stroke:#181818;stroke-width:1;" x1="45.4546" x2="87.4546" y1="186.4219" y2="186.4219"/><line style="stroke:#181818;stroke-width:1;" x1="87.4546" x2="87.4546" y1="186.4219" y2="199.4219"/><line style="stroke:#181818;stroke-width:1;" x1="46.4546" x2="87.4546" y1="199.4219" y2="199.4219"/><polygon fill="#181818" points="56.4546,195.4219,46.4546,199.4219,56.4546,203.4219" style="stroke:#181818;stroke-width:1;"/><text fill="#000000" font-family="sans-serif" font-size="13" lengthAdjust="spacing" textLength="140.1436" x="52.4546" y="181.356">lockITMOs(iTMOIDs[])</text><polygon fill="#181818" points="300.8325,227.5547,310.8325,231.5547,300.8325,235.5547" style="stroke:#181818;stroke-width:1;"/><line style="stroke:#181818;stroke-width:1;" x1="45.4546" x2="306.8325" y1="231.5547" y2="231.5547"/><text fill="#000000" font-family="sans-serif" font-size="13" lengthAdjust="spacing" textLength="163.2681" x="52.4546" y="226.4888">proposeTxn(txnProposal)</text><path d="M327,212.4219 L327,237.4219 L500,237.4219 L500,222.4219 L490,212.4219 L327,212.4219 " fill="#FEFFDD" style="stroke:#181818;stroke-width:0.5;"/><path d="M490,212.4219 L490,222.4219 L500,222.4219 L490,212.4219 " fill="#FEFFDD" style="stroke:#181818;stroke-width:0.5;"/><text fill="#000000" font-family="sans-serif" font-size="13" lengthAdjust="spacing" textLength="152.8706" x="333" y="229.4888">txnStatus == Proposed</text><line style="stroke:#181818;stroke-width:1;" x1="317.8325" x2="364.8325" y1="288.6875" y2="288.6875"/><line style="stroke:#181818;stroke-width:1;" x1="364.8325" x2="364.8325" y1="288.6875" y2="301.6875"/><line style="stroke:#181818;stroke-width:1;" x1="323.8325" x2="364.8325" y1="301.6875" y2="301.6875"/><polygon fill="#181818" points="333.8325,297.6875,323.8325,301.6875,333.8325,305.6875" style="stroke:#181818;stroke-width:1;"/><text fill="#000000" font-family="sans-serif" font-size="13" lengthAdjust="spacing" textLength="154.21" x="329.8325" y="283.6216">splitITMOs(txnProposal)</text><path d="M495.21,281.0547 L495.21,306.0547 L753.21,306.0547 L753.21,291.0547 L743.21,281.0547 L495.21,281.0547 " fill="#FEFFDD" style="stroke:#181818;stroke-width:0.5;"/><path d="M743.21,281.0547 L743.21,291.0547 L753.21,291.0547 L743.21,281.0547 " fill="#FEFFDD" style="stroke:#181818;stroke-width:0.5;"/><text fill="#000000" font-family="sans-serif" font-size="13" lengthAdjust="spacing" textLength="156.7046" x="501.21" y="298.1216">split ITMOs according to</text><text fill="#000000" font-family="sans-serif" font-size="13" font-style="italic" lengthAdjust="spacing" textLength="76.7241" x="662.0469" y="298.1216">txnProposal</text><line style="stroke:#181818;stroke-width:1;" x1="322.8325" x2="364.8325" y1="335.8203" y2="335.8203"/><line style="stroke:#181818;stroke-width:1;" x1="364.8325" x2="364.8325" y1="335.8203" y2="348.8203"/><line style="stroke:#181818;stroke-width:1;" x1="323.8325" x2="364.8325" y1="348.8203" y2="348.8203"/><polygon fill="#181818" points="333.8325,344.8203,323.8325,348.8203,333.8325,352.8203" style="stroke:#181818;stroke-width:1;"/><text fill="#000000" font-family="sans-serif" font-size="13" lengthAdjust="spacing" textLength="140.1436" x="329.8325" y="330.7544">lockITMOs(iTMOIDs[])</text><line style="stroke:#181818;stroke-width:1;" x1="322.8325" x2="364.8325" y1="377.9531" y2="377.9531"/><line style="stroke:#181818;stroke-width:1;" x1="364.8325" x2="364.8325" y1="377.9531" y2="390.9531"/><line style="stroke:#181818;stroke-width:1;" x1="323.8325" x2="364.8325" y1="390.9531" y2="390.9531"/><polygon fill="#181818" points="333.8325,386.9531,323.8325,390.9531,333.8325,394.9531" style="stroke:#181818;stroke-width:1;"/><text fill="#000000" font-family="sans-serif" font-size="13" lengthAdjust="spacing" textLength="194.7588" x="329.8325" y="372.8872">validateProposal(txnProposal)</text><line style="stroke:#181818;stroke-width:1;" x1="322.8325" x2="364.8325" y1="444.2852" y2="444.2852"/><line style="stroke:#181818;stroke-width:1;" x1="364.8325" x2="364.8325" y1="444.2852" y2="457.2852"/><line style="stroke:#181818;stroke-width:1;" x1="317.8325" x2="364.8325" y1="457.2852" y2="457.2852"/><polygon fill="#181818" points="327.8325,453.2852,317.8325,457.2852,327.8325,461.2852" style="stroke:#181818;stroke-width:1;"/><text fill="#000000" font-family="sans-serif" font-size="13" lengthAdjust="spacing" textLength="182.8062" x="329.8325" y="439.2192">createNextTxn(txnProposal)</text><path d="M533.8062,403.9531 L533.8062,473.9531 L721.8062,473.9531 L721.8062,413.9531 L711.8062,403.9531 L533.8062,403.9531 " fill="#FEFFDD" style="stroke:#181818;stroke-width:0.5;"/><path d="M711.8062,403.9531 L711.8062,413.9531 L721.8062,413.9531 L711.8062,403.9531 " fill="#FEFFDD" style="stroke:#181818;stroke-width:0.5;"/><text fill="#000000" font-family="sans-serif" font-size="13" lengthAdjust="spacing" textLength="165.0264" x="539.8062" y="421.02">txnStatus == Invalidated</text><text fill="#000000" font-family="sans-serif" font-size="13" lengthAdjust="spacing" textLength="4.1323" x="539.8062" y="436.1528">&#160;</text><text fill="#000000" font-family="sans-serif" font-size="13" lengthAdjust="spacing" textLength="167.5908" x="539.8062" y="451.2856">(includes reason proposal</text><text fill="#000000" font-family="sans-serif" font-size="13" lengthAdjust="spacing" textLength="159.1484" x="539.8062" y="466.4185">is invalid, logged in Txn)</text><polygon fill="#181818" points="300.8325,507.1836,310.8325,511.1836,300.8325,515.1836" style="stroke:#181818;stroke-width:1;"/><line style="stroke:#181818;stroke-width:1;" x1="45.4546" x2="306.8325" y1="511.1836" y2="511.1836"/><text fill="#000000" font-family="sans-serif" font-size="13" lengthAdjust="spacing" textLength="114.5688" x="52.4546" y="506.1177">getPendingTxns()</text><path d="M327,484.4844 L327,524.4844 L492,524.4844 L492,494.4844 L482,484.4844 L327,484.4844 " fill="#FEFFDD" style="stroke:#181818;stroke-width:0.5;"/><path d="M482,484.4844 L482,494.4844 L492,494.4844 L482,484.4844 " fill="#FEFFDD" style="stroke:#181818;stroke-width:0.5;"/><text fill="#000000" font-family="sans-serif" font-size="13" lengthAdjust="spacing" textLength="144.0029" x="333" y="501.5513">Registry polls the Hub</text><text fill="#000000" font-family="sans-serif" font-size="13" lengthAdjust="spacing" textLength="109.6304" x="333" y="516.6841">for pending Txns</text><polygon fill="#181818" points="56.4546,546.8828,46.4546,550.8828,56.4546,554.8828" style="stroke:#181818;stroke-width:1;"/><line style="stroke:#181818;stroke-width:1;stroke-dasharray:2.0,2.0;" x1="50.4546" x2="316.8325" y1="550.8828" y2="550.8828"/><text fill="#000000" font-family="sans-serif" font-size="13" font-style="italic" lengthAdjust="spacing" textLength="37.9463" x="62.4546" y="545.8169">txns[]</text><line style="stroke:#181818;stroke-width:1;" x1="45.4546" x2="92.4546" y1="575.0156" y2="575.0156"/><line style="stroke:#181818;stroke-width:1;" x1="92.4546" x2="92.4546" y1="575.0156" y2="588.0156"/><line style="stroke:#181818;stroke-width:1;" x1="51.4546" x2="92.4546" y1="588.0156" y2="588.0156"/><polygon fill="#181818" points="61.4546,584.0156,51.4546,588.0156,61.4546,592.0156" style="stroke:#181818;stroke-width:1;"/><text fill="#000000" font-family="sans-serif" font-size="13" lengthAdjust="spacing" textLength="171.2661" x="57.4546" y="569.9497">processPendingTxns(txns)</text><line style="stroke:#181818;stroke-width:1;" x1="50.4546" x2="92.4546" y1="622.1484" y2="622.1484"/><line style="stroke:#181818;stroke-width:1;" x1="92.4546" x2="92.4546" y1="622.1484" y2="635.1484"/><line style="stroke:#181818;stroke-width:1;" x1="51.4546" x2="92.4546" y1="635.1484" y2="635.1484"/><polygon fill="#181818" points="61.4546,631.1484,51.4546,635.1484,61.4546,639.1484" style="stroke:#181818;stroke-width:1;"/><text fill="#000000" font-family="sans-serif" font-size="13" lengthAdjust="spacing" textLength="233.3779" x="57.4546" y="617.0825">processTxnStatusAndWarnings(txn)</text><path d="M317.3779,609.5156 L317.3779,634.5156 L503.3779,634.5156 L503.3779,619.5156 L493.3779,609.5156 L317.3779,609.5156 " fill="#FEFFDD" style="stroke:#181818;stroke-width:0.5;"/><path d="M493.3779,609.5156 L493.3779,619.5156 L503.3779,619.5156 L493.3779,609.5156 " fill="#FEFFDD" style="stroke:#181818;stroke-width:0.5;"/><text fill="#000000" font-family="sans-serif" font-size="13" lengthAdjust="spacing" textLength="165.0264" x="323.3779" y="626.5825">txnStatus == Invalidated</text><line style="stroke:#181818;stroke-width:1;" x1="50.4546" x2="92.4546" y1="664.2813" y2="664.2813"/><line style="stroke:#181818;stroke-width:1;" x1="92.4546" x2="92.4546" y1="664.2813" y2="677.2813"/><line style="stroke:#181818;stroke-width:1;" x1="51.4546" x2="92.4546" y1="677.2813" y2="677.2813"/><polygon fill="#181818" points="61.4546,673.2813,51.4546,677.2813,61.4546,681.2813" style="stroke:#181818;stroke-width:1;"/><text fill="#000000" font-family="sans-serif" font-size="13" lengthAdjust="spacing" textLength="105.2886" x="57.4546" y="659.2153">processTxn(txn)</text><line style="stroke:#181818;stroke-width:1;" x1="50.4546" x2="92.4546" y1="706.4141" y2="706.4141"/><line style="stroke:#181818;stroke-width:1;" x1="92.4546" x2="92.4546" y1="706.4141" y2="719.4141"/><line style="stroke:#181818;stroke-width:1;" x1="51.4546" x2="92.4546" y1="719.4141" y2="719.4141"/><polygon fill="#181818" points="61.4546,715.4141,51.4546,719.4141,61.4546,723.4141" style="stroke:#181818;stroke-width:1;"/><text fill="#000000" font-family="sans-serif" font-size="13" lengthAdjust="spacing" textLength="156.6221" x="57.4546" y="701.3481">unlockITMOs(iTMOIDs[])</text><polygon fill="#181818" points="300.8325,747.5469,310.8325,751.5469,300.8325,755.5469" style="stroke:#181818;stroke-width:1;"/><line style="stroke:#181818;stroke-width:1;" x1="50.4546" x2="306.8325" y1="751.5469" y2="751.5469"/><text fill="#000000" font-family="sans-serif" font-size="13" lengthAdjust="spacing" textLength="188.0938" x="57.4546" y="746.481">processTxn(txnId, txnStatus)</text><path d="M327,732.4141 L327,757.4141 L515,757.4141 L515,742.4141 L505,732.4141 L327,732.4141 " fill="#FEFFDD" style="stroke:#181818;stroke-width:0.5;"/><path d="M505,732.4141 L505,742.4141 L515,742.4141 L505,732.4141 " fill="#FEFFDD" style="stroke:#181818;stroke-width:0.5;"/><text fill="#000000" font-family="sans-serif" font-size="13" lengthAdjust="spacing" textLength="167.6162" x="333" y="749.481">txnStatus == Terminated</text><line style="stroke:#181818;stroke-width:1;" x1="322.8325" x2="364.8325" y1="813.6797" y2="813.6797"/><line style="stroke:#181818;stroke-width:1;" x1="364.8325" x2="364.8325" y1="813.6797" y2="826.6797"/><line style="stroke:#181818;stroke-width:1;" x1="323.8325" x2="364.8325" y1="826.6797" y2="826.6797"/><polygon fill="#181818" points="333.8325,822.6797,323.8325,826.6797,333.8325,830.6797" style="stroke:#181818;stroke-width:1;"/><text fill="#000000" font-family="sans-serif" font-size="13" lengthAdjust="spacing" textLength="239.8779" x="329.8325" y="808.6138">validateProcessTxn(txnId, txnStatus)</text><line style="stroke:#181818;stroke-width:1;" x1="322.8325" x2="364.8325" y1="855.8125" y2="855.8125"/><line style="stroke:#181818;stroke-width:1;" x1="364.8325" x2="364.8325" y1="855.8125" y2="868.8125"/><line style="stroke:#181818;stroke-width:1;" x1="323.8325" x2="364.8325" y1="868.8125" y2="868.8125"/><polygon fill="#181818" points="333.8325,864.8125,323.8325,868.8125,333.8325,872.8125" style="stroke:#181818;stroke-width:1;"/><text fill="#000000" font-family="sans-serif" font-size="13" lengthAdjust="spacing" textLength="188.0938" x="329.8325" y="850.7466">processTxn(txnId, txnStatus)</text><path d="M539.0938,843.1797 L539.0938,868.1797 L727.0938,868.1797 L727.0938,853.1797 L717.0938,843.1797 L539.0938,843.1797 " fill="#FEFFDD" style="stroke:#181818;stroke-width:0.5;"/><path d="M717.0938,843.1797 L717.0938,853.1797 L727.0938,853.1797 L717.0938,843.1797 " fill="#FEFFDD" style="stroke:#181818;stroke-width:0.5;"/><text fill="#000000" font-family="sans-serif" font-size="13" lengthAdjust="spacing" textLength="167.6162" x="545.0938" y="860.2466">txnStatus == Terminated</text><line style="stroke:#181818;stroke-width:1;" x1="322.8325" x2="364.8325" y1="902.9453" y2="902.9453"/><line style="stroke:#181818;stroke-width:1;" x1="364.8325" x2="364.8325" y1="902.9453" y2="915.9453"/><line style="stroke:#181818;stroke-width:1;" x1="317.8325" x2="364.8325" y1="915.9453" y2="915.9453"/><polygon fill="#181818" points="327.8325,911.9453,317.8325,915.9453,327.8325,919.9453" style="stroke:#181818;stroke-width:1;"/><text fill="#000000" font-family="sans-serif" font-size="13" lengthAdjust="spacing" textLength="156.6221" x="329.8325" y="897.8794">unlockITMOs(iTMOIDs[])</text><!--SRC=[fLF1Rfj04Btp5QESRAN8TwkfLAc7S6WJrPPwA3sibmrUPPabEqDa_ts71HnCWckf5v26zsRUl7cmPMTW6nIIqcmzmcFmjIVb88KCNvMpnQcK9FHiiLP1LK1y529ni9gRIZv9cQssjKA6cut1mcAPOp2b5T3n1XH1MpNX79aX6sblWjfPP_cOutspYsXv9qahwbMn6RZT2z8lVM4DP9pH_1MBJItyRFlzWHPym47pCa4lz63BFGzWY2Xu2hw2gd5iQrbbvxn-fXnz06exzI2Bx84gvPoC7J1IgXJhFRmqieIe5XYiLgEngrMIV22svNSIhJopR_Jxpt84avLlRs4DTUnYjWUSNqK-R5XnGt1trr_854bXfewDAj5HUPn6hRjL_sNQo0wbjG_jQK4yc6xyrdfcqp4WHajK3Vpp-M_8D5s33aQGFyo1hxUa3w_mYXnpN5ZKhYaCWVGYoNdTjyZHjbUEu4yYkonDqPvJ9YqlvM-uLMduiKkxC6XnhkXd7t-elNC4l8z7oF59KbPth7OGdRBoEKqxUwAtOfhOEhtW-rZ9BjeGZNMqxEKLlqzFtGxMoO_qImMKDh77TGOd5njtVTuZ6lmm95EFfwqoETD9o0LzMnCgYr7UnR-YhynaStxmcF3V2i_pFkFCNm00]--></g></svg>