<svg xmlns="http://www.w3.org/2000/svg" xmlns:xlink="http://www.w3.org/1999/xlink" contentStyleType="text/css" data-diagram-type="STATE" height="706.25px" preserveAspectRatio="none" style="width:721px;height:706px;background:#FFFFFF;" version="1.1" viewBox="0 0 721 706" width="721.875px" zoomAndPan="magnify"><defs><filter height="300%" id="f190wxstz6zfwp" width="300%" x="-1" y="-1"><feGaussianBlur result="blurOut" stdDeviation="3.125"/><feColorMatrix in="blurOut" result="blurOut2" type="matrix" values="0 0 0 0 0 0 0 0 0 0 0 0 0 0 0 0 0 0 .4 0"/><feOffset dx="6.25" dy="6.25" in="blurOut2" result="blurOut3"/><feBlend in="SourceGraphic" in2="blurOut3" mode="normal"/></filter></defs><g><!--cluster Sending_Registry--><g id="cluster_Sending_Registry"><rect fill="transparent" filter="url(#f190wxstz6zfwp)" height="300" rx="19.5313" ry="19.5313" style="stroke:#181818;stroke-width:0.7813;" width="620.3125" x="81.25" y="10.9375"/><path d="M100.7813,10.9375 L682.0313,10.9375 A19.5313,19.5313 0 0 1 701.5625,30.4688 L701.5625,44.2139 L81.25,44.2139 L81.25,30.4688 A19.5313,19.5313 0 0 1 100.7813,10.9375 " fill="#F1F1F1" style="stroke:#F1F1F1;stroke-width:1.5625;"/><rect fill="transparent" height="300" rx="19.5313" ry="19.5313" style="stroke:#181818;stroke-width:0.7813;" width="620.3125" x="81.25" y="10.9375"/><line style="stroke:#181818;stroke-width:0.7813;" x1="81.25" x2="701.5625" y1="44.2139" y2="44.2139"/><text fill="#000000" font-family="sans-serif" font-size="21.875" lengthAdjust="spacing" textLength="190.3915" x="296.2105" y="37.4924">Sending_Registry</text></g><!--cluster Interoperability_Hub--><g id="cluster_Interoperability_Hub"><rect fill="transparent" filter="url(#f190wxstz6zfwp)" height="300" rx="19.5313" ry="19.5313" style="stroke:#181818;stroke-width:0.7813;" width="553.125" x="10.9375" y="387.5"/><path d="M30.4688,387.5 L544.5313,387.5 A19.5313,19.5313 0 0 1 564.0625,407.0313 L564.0625,420.7764 L10.9375,420.7764 L10.9375,407.0313 A19.5313,19.5313 0 0 1 30.4688,387.5 " fill="#F1F1F1" style="stroke:#F1F1F1;stroke-width:1.5625;"/><rect fill="transparent" height="300" rx="19.5313" ry="19.5313" style="stroke:#181818;stroke-width:0.7813;" width="553.125" x="10.9375" y="387.5"/><line style="stroke:#181818;stroke-width:0.7813;" x1="10.9375" x2="564.0625" y1="420.7764" y2="420.7764"/><text fill="#000000" font-family="sans-serif" font-size="21.875" lengthAdjust="spacing" textLength="223.2468" x="175.8766" y="414.0549">Interoperability_Hub</text></g><rect fill="#F1F1F1" filter="url(#f190wxstz6zfwp)" height="62.5" rx="19.5313" ry="19.5313" style="stroke:#181818;stroke-width:0.7813;" width="117.2028" x="280.4688" y="65.625"/><text fill="#000000" font-family="sans-serif" font-size="21.875" lengthAdjust="spacing" textLength="101.5778" x="288.2813" y="104.4479">Proposed</text><rect fill="#F1F1F1" filter="url(#f190wxstz6zfwp)" height="62.5" rx="19.5313" ry="19.5313" style="stroke:#181818;stroke-width:0.7813;" width="119.3604" x="106.25" y="65.625"/><text fill="#000000" font-family="sans-serif" font-size="21.875" lengthAdjust="spacing" textLength="103.7354" x="114.0625" y="104.4479">Validated</text><rect fill="#F1F1F1" filter="url(#f190wxstz6zfwp)" height="62.5" rx="19.5313" ry="19.5313" style="stroke:#181818;stroke-width:0.7813;" width="137.6572" x="539.0625" y="65.625"/><text fill="#000000" font-family="sans-serif" font-size="21.875" lengthAdjust="spacing" textLength="122.0322" x="546.875" y="104.4479">Invalidated</text><rect fill="#F1F1F1" filter="url(#f190wxstz6zfwp)" height="62.5" rx="19.5313" ry="19.5313" style="stroke:#181818;stroke-width:0.7813;" width="134.9335" x="106.25" y="223.4375"/><text fill="#000000" font-family="sans-serif" font-size="21.875" lengthAdjust="spacing" textLength="119.3085" x="114.0625" y="262.2604">Completed</text><rect fill="#F1F1F1" filter="url(#f190wxstz6zfwp)" height="62.5" rx="19.5313" ry="19.5313" style="stroke:#181818;stroke-width:0.7813;" width="142.0151" x="296.0938" y="223.4375"/><text fill="#000000" font-family="sans-serif" font-size="21.875" lengthAdjust="spacing" textLength="126.3901" x="303.9063" y="262.2604">Terminated</text><ellipse cx="468.75" cy="96.875" fill="#222222" filter="url(#f190wxstz6zfwp)" rx="15.625" ry="15.625" style="stroke:#222222;stroke-width:1.5625;"/><rect fill="#F1F1F1" filter="url(#f190wxstz6zfwp)" height="62.5" rx="19.5313" ry="19.5313" style="stroke:#181818;stroke-width:0.7813;" width="117.2028" x="422.6563" y="442.1875"/><text fill="#000000" font-family="sans-serif" font-size="21.875" lengthAdjust="spacing" textLength="101.5778" x="430.4688" y="481.0104">Proposed</text><rect fill="#F1F1F1" filter="url(#f190wxstz6zfwp)" height="62.5" rx="19.5313" ry="19.5313" style="stroke:#181818;stroke-width:0.7813;" width="119.3604" x="228.125" y="600"/><text fill="#000000" font-family="sans-serif" font-size="21.875" lengthAdjust="spacing" textLength="103.7354" x="235.9375" y="638.8229">Validated</text><rect fill="#F1F1F1" filter="url(#f190wxstz6zfwp)" height="62.5" rx="19.5313" ry="19.5313" style="stroke:#181818;stroke-width:0.7813;" width="137.6572" x="401.5625" y="600"/><text fill="#000000" font-family="sans-serif" font-size="21.875" lengthAdjust="spacing" textLength="122.0322" x="409.375" y="638.8229">Invalidated</text><rect fill="#F1F1F1" filter="url(#f190wxstz6zfwp)" height="62.5" rx="19.5313" ry="19.5313" style="stroke:#181818;stroke-width:0.7813;" width="134.9335" x="35.9375" y="442.1875"/><text fill="#000000" font-family="sans-serif" font-size="21.875" lengthAdjust="spacing" textLength="119.3085" x="43.75" y="481.0104">Completed</text><rect fill="#F1F1F1" filter="url(#f190wxstz6zfwp)" height="62.5" rx="19.5313" ry="19.5313" style="stroke:#181818;stroke-width:0.7813;" width="142.0151" x="225.7813" y="442.1875"/><text fill="#000000" font-family="sans-serif" font-size="21.875" lengthAdjust="spacing" textLength="126.3901" x="233.5938" y="481.0104">Terminated</text><ellipse cx="142.1875" cy="631.25" fill="transparent" filter="url(#f190wxstz6zfwp)" rx="17.1875" ry="17.1875" style="stroke:#222222;stroke-width:1.5625;"/><ellipse cx="142.1875" cy="631.25" fill="#222222" rx="9.375" ry="9.375" style="stroke:#222222;stroke-width:1.5625;"/><!--reverse link proposed_sender to *start*Sending_Registry--><g id="link_proposed_sender_*start*Sending_Registry"><path d="M407.2031,96.875 C425.4844,96.875 434.3906,96.875 452.6875,96.875 " fill="transparent" id="proposed_sender-backto-*start*Sending_Registry" style="stroke:#008000;stroke-width:3.125;"/><polygon fill="#008000" points="397.8281,96.875,411.8906,103.125,405.6406,96.875,411.8906,90.625,397.8281,96.875" style="stroke:#008000;stroke-width:3.125;"/></g><!--link validated_sender to completed_sender--><g id="link_validated_sender_completed_sender"><path d="M167.125,128.2656 C168.5156,155.6563 170.071,186.6683 171.4616,214.0277 " fill="transparent" id="validated_sender-to-completed_sender" style="stroke:#008000;stroke-width:3.125;"/><polygon fill="#008000" points="171.9375,223.3906,177.4656,209.029,171.5409,215.5882,164.9817,209.6635,171.9375,223.3906" style="stroke:#008000;stroke-width:3.125;"/></g><!--link validated_sender to terminated_sender--><g id="link_validated_sender_terminated_sender"><path d="M204.4844,128.2656 C240.1875,155.6563 285.3603,190.3226 321.001,217.682 " fill="transparent" id="validated_sender-to-terminated_sender" style="stroke:#FF0000;stroke-width:1.5625;"/><polygon fill="#FF0000" points="328.4375,223.3906,321.0884,209.87,322.2404,218.6334,313.4769,219.7854,328.4375,223.3906" style="stroke:#FF0000;stroke-width:1.5625;"/></g><!--link invalidated_sender to terminated_sender--><g id="link_invalidated_sender_terminated_sender"><path d="M561.4219,128.2656 C518.8125,155.6563 463.8862,190.9619 421.3237,218.3213 " fill="transparent" id="invalidated_sender-to-terminated_sender" style="stroke:#FF0000;stroke-width:1.5625;"/><polygon fill="#FF0000" points="413.4375,223.3906,428.6464,221.0442,420.0094,219.1662,421.8873,210.5292,413.4375,223.3906" style="stroke:#FF0000;stroke-width:1.5625;"/></g><!--link proposed_hub to validated_hub--><g id="link_proposed_hub_validated_hub"><path d="M443.8906,504.8281 C409.5781,532.2188 366.3418,566.7442 332.0762,594.1035 " fill="transparent" id="proposed_hub-to-validated_hub" style="stroke:#008000;stroke-width:3.125;"/><polygon fill="#008000" points="324.75,599.9531,339.639,596.0629,330.8552,595.0785,331.8395,586.2946,324.75,599.9531" style="stroke:#008000;stroke-width:3.125;"/></g><!--link proposed_hub to invalidated_hub--><g id="link_proposed_hub_invalidated_hub"><path d="M479.1406,504.8281 C477.2031,532.2188 475.0007,563.2418 473.0788,590.6012 " fill="transparent" id="proposed_hub-to-invalidated_hub" style="stroke:#FF0000;stroke-width:1.5625;"/><polygon fill="#FF0000" points="472.4219,599.9531,479.6419,586.3631,472.9693,592.1598,467.1726,585.4872,472.4219,599.9531" style="stroke:#FF0000;stroke-width:1.5625;"/></g><!--link completed_hub to *end*Interoperability_Hub--><g id="link_completed_hub_*end*Interoperability_Hub"><path d="M110.6562,504.8281 C118.9062,537.4844 129.5191,579.5036 135.9566,605.0192 " fill="transparent" id="completed_hub-to-*end*Interoperability_Hub" style="stroke:#008000;stroke-width:3.125;"/><polygon fill="#008000" points="138.25,614.1094,140.87,598.9452,136.3388,606.5342,128.7498,602.0031,138.25,614.1094" style="stroke:#008000;stroke-width:3.125;"/></g><!--link terminated_hub to *end*Interoperability_Hub--><g id="link_terminated_hub_*end*Interoperability_Hub"><path d="M267.0469,504.8281 C232.6406,539.2344 184.3479,587.5271 160.5041,611.3709 " fill="transparent" id="terminated_hub-to-*end*Interoperability_Hub" style="stroke:#FF0000;stroke-width:1.5625;"/><polygon fill="#FF0000" points="153.875,618,168.2381,612.4757,159.3993,612.4757,159.3993,603.6369,153.875,618" style="stroke:#FF0000;stroke-width:1.5625;"/></g><!--link proposed_sender to proposed_hub--><g id="link_proposed_sender_proposed_hub"><path d="M397.6563,118.4062 C463.75,140.9375 562.1875,174.5625 562.5,175 C622.4531,258.9219 551.3326,377.4423 509.9888,434.4423 " fill="transparent" id="proposed_sender-to-proposed_hub" style="stroke:#008000;stroke-width:3.125;"/><polygon fill="#008000" points="504.4844,442.0312,517.8003,434.3175,509.0714,435.7072,507.6818,426.9782,504.4844,442.0312" style="stroke:#008000;stroke-width:3.125;"/><text fill="#000000" font-family="sans-serif" font-size="20.3125" lengthAdjust="spacing" textLength="87.0224" x="585.9375" y="261.8233">Proposal</text></g><!--link completed_sender to completed_hub--><g id="link_completed_sender_completed_hub"><path d="M162.4844,286.4219 C157.1563,301.2969 150.7656,319.5 145.3125,335.9375 C133.2656,372.2969 123.0511,405.4776 114.723,433.0869 " fill="transparent" id="completed_sender-to-completed_hub" style="stroke:#008000;stroke-width:3.125;"/><polygon fill="#008000" points="112.0156,442.0625,122.0604,430.4041,114.2718,434.5829,110.093,426.7942,112.0156,442.0625" style="stroke:#008000;stroke-width:3.125;"/><text fill="#000000" font-family="sans-serif" font-size="20.3125" lengthAdjust="spacing" textLength="116.3406" x="146.875" y="356.3545">Completion</text></g><!--link terminated_sender to terminated_hub--><g id="link_terminated_sender_terminated_hub"><path d="M357.4063,286.2344 C343.9844,327.4219 322.8607,392.181 309.4701,433.2279 " fill="transparent" id="terminated_sender-to-terminated_hub" style="stroke:#FF0000;stroke-width:1.5625;"/><polygon fill="#FF0000" points="306.5625,442.1406,316.8657,430.7099,308.9855,434.7134,304.982,426.8332,306.5625,442.1406" style="stroke:#FF0000;stroke-width:1.5625;"/><text fill="#000000" font-family="sans-serif" font-size="20.3125" lengthAdjust="spacing" textLength="122.9164" x="342.1875" y="356.3545">Termination</text></g><!--reverse link validated_sender to validated_hub--><g id="link_validated_sender_validated_hub"><path d="M234.1166,121.7466 C310.1479,148.2935 427.4688,192.1094 465.625,223.4375 C528.2813,274.9063 543.5938,297.4219 567.1875,375 C583.9531,430.1406 598.5469,456.3281 567.1875,504.6875 C554.3906,524.4375 425.5781,576.625 347.3125,606.9688 " fill="transparent" id="validated_sender-backto-validated_hub" style="stroke:#008000;stroke-width:3.125;"/><polygon fill="#008000" points="225.2656,118.6563,236.4819,129.1925,232.6415,121.2316,240.6024,117.3912,225.2656,118.6563" style="stroke:#008000;stroke-width:3.125;"/></g><!--reverse link invalidated_sender to invalidated_hub--><g id="link_invalidated_sender_invalidated_hub"><path d="M639.1274,135.8403 C657.7524,159.809 675.7031,187.7656 685.9375,223.4375 C698.1875,266.1562 694.1094,279.75 685.9375,323.4375 C670.0469,408.375 665.5,434.125 615.625,504.6875 C588.5469,543 547.2188,577.0313 515.5469,599.875 " fill="transparent" id="invalidated_sender-backto-invalidated_hub" style="stroke:#FF0000;stroke-width:1.5625;"/><polygon fill="#FF0000" points="633.375,128.4375,637.0683,143.3766,638.1686,134.6065,646.9387,135.7068,633.375,128.4375" style="stroke:#FF0000;stroke-width:1.5625;"/></g><!--SRC=[XPEnReCm48PtFyKfsQeYjKEN35swD5lLLbsYA3Bu4gmQsx9DAbJrtMi2Hc13id7STyVFVtVscqjD3Qs0QGwFJm_43cyg9LLH6bKX7AcmE4hPaZBrm-K9dAcHb9mXOALT0mnjORXsN4b2Y7NK8NoWP9uzlEE9MsSQ-2K4kjJgpIYjBB8LK0kw3mxMLw0Pe2ygEFDF7NKEKOnjvNa2Shc8lgXA2mnW4Q8O-qHJSJaqT4COG0Axkpra0ezkbol1xjSdWoZtsNFwCx4OoEAILCTCpTeWQ-5KpCmFN-N_me2sqYULHaDpBhXh3gzrVdj8PPtVdD2OkJQUCRSqcp6pF9YM8XEHgS_HToCu69Re8rCnQL-_2oJICkhNPhtbqLv0vYz9BYwFRx61pdygIBmWyyKJbHle_MmlCjc1li7CZbnAWysNQvwu0Lcjbstj5onoy58pvsuufdy0]--></g></svg>