<svg xmlns="http://www.w3.org/2000/svg" xmlns:xlink="http://www.w3.org/1999/xlink" contentStyleType="text/css" data-diagram-type="SEQUENCE" height="479px" preserveAspectRatio="none" style="width:615px;height:479px;background:#FFFFFF;" version="1.1" viewBox="0 0 615 479" width="615px" zoomAndPan="magnify"><title>Transaction Time_out</title><defs/><g><text fill="#000000" font-family="sans-serif" font-size="14" font-weight="bold" lengthAdjust="spacing" textLength="169.6064" x="229.7585" y="27.9951">Transaction Time_out</text><g><title>Interoperability</title><rect fill="#FFFFFF" height="28" style="stroke:#181818;stroke-width:1;" width="10" x="60.7954" y="163.3555"/></g><g><title>Interoperability</title><rect fill="#FFFFFF" height="39.6992" style="stroke:#181818;stroke-width:1;" width="10" x="60.7954" y="272.3867"/></g><g><title>Registry</title><rect fill="#FFFFFF" height="300.3945" style="stroke:#181818;stroke-width:1;" width="10" x="209.5249" y="163.3555"/></g><g><title>Registry</title><rect fill="#FFFFFF" height="114.5313" style="stroke:#181818;stroke-width:1;" width="10" x="214.5249" y="349.2188"/></g><g><title>Interoperability</title><rect fill="transparent" height="382.8594" width="8" x="61.7954" y="89.8906"/><line style="stroke:#181818;stroke-width:0.5;stroke-dasharray:5.0,5.0;" x1="65" x2="65" y1="89.8906" y2="472.75"/></g><g><title>Registry</title><rect fill="transparent" height="382.8594" width="8" x="210.5249" y="89.8906"/><line style="stroke:#181818;stroke-width:0.5;stroke-dasharray:5.0,5.0;" x1="213.5542" x2="213.5542" y1="89.8906" y2="472.75"/></g><rect fill="#E2E2F0" height="46.5938" rx="2.5" ry="2.5" style="stroke:#181818;stroke-width:0.5;" width="121.5908" x="5" y="42.2969"/><text fill="#000000" font-family="sans-serif" font-size="14" lengthAdjust="spacing" textLength="107.5908" x="12" y="62.292">Interoperability</text><text fill="#000000" font-family="sans-serif" font-size="14" lengthAdjust="spacing" textLength="28.2871" x="51.6519" y="78.5889">Hub</text><rect fill="#E2E2F0" height="30.2969" rx="2.5" ry="2.5" style="stroke:#181818;stroke-width:0.5;" width="71.9414" x="178.5542" y="58.5938"/><text fill="#000000" font-family="sans-serif" font-size="14" lengthAdjust="spacing" textLength="57.9414" x="185.5542" y="78.5889">Registry</text><g><title>Interoperability</title><rect fill="#FFFFFF" height="28" style="stroke:#181818;stroke-width:1;" width="10" x="60.7954" y="163.3555"/></g><g><title>Interoperability</title><rect fill="#FFFFFF" height="39.6992" style="stroke:#181818;stroke-width:1;" width="10" x="60.7954" y="272.3867"/></g><g><title>Registry</title><rect fill="#FFFFFF" height="300.3945" style="stroke:#181818;stroke-width:1;" width="10" x="209.5249" y="163.3555"/></g><g><title>Registry</title><rect fill="#FFFFFF" height="114.5313" style="stroke:#181818;stroke-width:1;" width="10" x="214.5249" y="349.2188"/></g><line style="stroke:#181818;stroke-width:1;" x1="70.7954" x2="112.7954" y1="155.3555" y2="155.3555"/><line style="stroke:#181818;stroke-width:1;" x1="112.7954" x2="112.7954" y1="155.3555" y2="168.3555"/><line style="stroke:#181818;stroke-width:1;" x1="71.7954" x2="112.7954" y1="168.3555" y2="168.3555"/><polygon fill="#181818" points="81.7954,164.3555,71.7954,168.3555,81.7954,172.3555" style="stroke:#181818;stroke-width:1;"/><text fill="#000000" font-family="sans-serif" font-size="13" lengthAdjust="spacing" textLength="91.4507" x="77.7954" y="150.2896">timeoutTxns()</text><path d="M175.4507,104.8906 L175.4507,204.8906 L539.4507,204.8906 L539.4507,114.8906 L529.4507,104.8906 L175.4507,104.8906 " fill="#FEFFDD" style="stroke:#181818;stroke-width:0.5;"/><path d="M529.4507,104.8906 L529.4507,114.8906 L539.4507,114.8906 L529.4507,104.8906 " fill="#FEFFDD" style="stroke:#181818;stroke-width:0.5;"/><text fill="#000000" font-family="sans-serif" font-size="13" lengthAdjust="spacing" textLength="299.127" x="181.4507" y="121.9575">Terminate all transactions that have not been</text><text fill="#000000" font-family="sans-serif" font-size="13" lengthAdjust="spacing" textLength="343.186" x="181.4507" y="137.0903">completed within 24 hours after they were proposed</text><text fill="#000000" font-family="sans-serif" font-size="13" lengthAdjust="spacing" textLength="183.8853" x="181.4507" y="152.2231">with a reason of "timed out"</text><text fill="#000000" font-family="sans-serif" font-size="13" lengthAdjust="spacing" textLength="4.1323" x="181.4507" y="167.356">&#160;</text><text fill="#000000" font-family="sans-serif" font-size="13" lengthAdjust="spacing" textLength="167.6162" x="181.4507" y="182.4888">txnStatus == Terminated</text><text fill="#000000" font-family="sans-serif" font-size="13" lengthAdjust="spacing" textLength="67.4248" x="276.4941" y="197.6216">/timed out</text><polygon fill="#181818" points="81.7954,268.3867,71.7954,272.3867,81.7954,276.3867" style="stroke:#181818;stroke-width:1;"/><line style="stroke:#181818;stroke-width:1;" x1="75.7954" x2="208.5249" y1="272.3867" y2="272.3867"/><text fill="#000000" font-family="sans-serif" font-size="13" lengthAdjust="spacing" textLength="119.7295" x="87.7954" y="267.3208">getFinalizedTxns()</text><path d="M224,245.6875 L224,285.6875 L389,285.6875 L389,255.6875 L379,245.6875 L224,245.6875 " fill="#FEFFDD" style="stroke:#181818;stroke-width:0.5;"/><path d="M379,245.6875 L379,255.6875 L389,255.6875 L379,245.6875 " fill="#FEFFDD" style="stroke:#181818;stroke-width:0.5;"/><text fill="#000000" font-family="sans-serif" font-size="13" lengthAdjust="spacing" textLength="144.0029" x="230" y="262.7544">Registry polls the Hub</text><text fill="#000000" font-family="sans-serif" font-size="13" lengthAdjust="spacing" textLength="111.4775" x="230" y="277.8872">for finalized Txns</text><polygon fill="#181818" points="197.5249,308.0859,207.5249,312.0859,197.5249,316.0859" style="stroke:#181818;stroke-width:1;"/><line style="stroke:#181818;stroke-width:1;stroke-dasharray:2.0,2.0;" x1="65.7954" x2="203.5249" y1="312.0859" y2="312.0859"/><text fill="#000000" font-family="sans-serif" font-size="13" font-style="italic" lengthAdjust="spacing" textLength="37.9463" x="72.7954" y="307.02">txns[]</text><line style="stroke:#181818;stroke-width:1;" x1="219.5249" x2="266.5249" y1="336.2188" y2="336.2188"/><line style="stroke:#181818;stroke-width:1;" x1="266.5249" x2="266.5249" y1="336.2188" y2="349.2188"/><line style="stroke:#181818;stroke-width:1;" x1="225.5249" x2="266.5249" y1="349.2188" y2="349.2188"/><polygon fill="#181818" points="235.5249,345.2188,225.5249,349.2188,235.5249,353.2188" style="stroke:#181818;stroke-width:1;"/><text fill="#000000" font-family="sans-serif" font-size="13" lengthAdjust="spacing" textLength="186.5703" x="231.5249" y="331.1528">processFinalizedTxns(txns[])</text><line style="stroke:#181818;stroke-width:1;" x1="224.5249" x2="266.5249" y1="387.418" y2="387.418"/><line style="stroke:#181818;stroke-width:1;" x1="266.5249" x2="266.5249" y1="387.418" y2="400.418"/><line style="stroke:#181818;stroke-width:1;" x1="225.5249" x2="266.5249" y1="400.418" y2="400.418"/><polygon fill="#181818" points="235.5249,396.418,225.5249,400.418,235.5249,404.418" style="stroke:#181818;stroke-width:1;"/><text fill="#000000" font-family="sans-serif" font-size="13" lengthAdjust="spacing" textLength="105.2886" x="231.5249" y="382.3521">processTxn(txn)</text><path d="M363.2886,367.2188 L363.2886,407.2188 L551.2886,407.2188 L551.2886,377.2188 L541.2886,367.2188 L363.2886,367.2188 " fill="#FEFFDD" style="stroke:#181818;stroke-width:0.5;"/><path d="M541.2886,367.2188 L541.2886,377.2188 L551.2886,377.2188 L541.2886,367.2188 " fill="#FEFFDD" style="stroke:#181818;stroke-width:0.5;"/><text fill="#000000" font-family="sans-serif" font-size="13" lengthAdjust="spacing" textLength="167.6162" x="369.2886" y="384.2856">txnStatus == Terminated</text><text fill="#000000" font-family="sans-serif" font-size="13" lengthAdjust="spacing" textLength="67.4248" x="464.332" y="399.4185">/timed out</text><line style="stroke:#181818;stroke-width:1;" x1="224.5249" x2="266.5249" y1="437.6836" y2="437.6836"/><line style="stroke:#181818;stroke-width:1;" x1="266.5249" x2="266.5249" y1="437.6836" y2="450.6836"/><line style="stroke:#181818;stroke-width:1;" x1="225.5249" x2="266.5249" y1="450.6836" y2="450.6836"/><polygon fill="#181818" points="235.5249,446.6836,225.5249,450.6836,235.5249,454.6836" style="stroke:#181818;stroke-width:1;"/><text fill="#000000" font-family="sans-serif" font-size="13" lengthAdjust="spacing" textLength="154.8638" x="231.5249" y="432.6177">unlockITMOs(iTMOIds[])</text><path d="M412.8638,417.4844 L412.8638,457.4844 L608.8638,457.4844 L608.8638,427.4844 L598.8638,417.4844 L412.8638,417.4844 " fill="#FEFFDD" style="stroke:#181818;stroke-width:0.5;"/><path d="M598.8638,417.4844 L598.8638,427.4844 L608.8638,427.4844 L598.8638,417.4844 " fill="#FEFFDD" style="stroke:#181818;stroke-width:0.5;"/><text fill="#000000" font-family="sans-serif" font-size="13" lengthAdjust="spacing" textLength="133.7388" x="418.8638" y="434.5513">if registry previously</text><text fill="#000000" font-family="sans-serif" font-size="13" lengthAdjust="spacing" textLength="175.7349" x="418.8638" y="449.6841">locked ITMOs, unlock them</text><!--SRC=[fP91J-Cm48Nl_XLFFO6WYhJYL057H0-hbPRSo0gvoQGPrR4ZUr8eltx7sHPIBJSY9PQTzsO-FrjO7A6CrYTR2mUFadjw2QCOatRi1njjZoG7LIM9NClOEsDqMRZcmNh1Oks5OXWesWqxbaFb7yVD0ZP1ntFfRzgobZbCVtLYZ4gmlC_AgwiLH9jhx_BDfujBuuCG8cyxMQ6asBEtkc2TWtm29qXd1PtT4zI03P6lV1twmP5GWrUMZZr-tA0BOqomhTAgXmvufKWO53qaQYgVbR28P9Fc45eiCau31LfKMbFU_9DO6HFkxZvvr8Yld-B3RXhAiFkCdpCn7xESWRwp2BOa3rhOyJirnno0UHAd3344v_BkfvgLRqD4Ut8YMzKu5RzTBhDaXQBGFQJdFqNn7z4HGeTLZgIcbCun_ZallqIVkrISjUUdzutevYr6xqAzMvS_VwKBrk-wcP3cdRZL0pm556dFOKnEhsGsQiN9UtqibBFhpLy0]--></g></svg>